<svg width="32" height="40" viewBox="0 0 32 40" fill="none" xmlns="http://www.w3.org/2000/svg">
<path d="M11.2978 12H25V13.9997H11.2978V12Z" fill="black"/>
<path d="M8.57277 28L8.64172 27.999L8.71111 27.9961L8.78089 27.9912L8.85102 27.9845L8.92143 27.9758L8.99209 27.9654L9.06292 27.9532L9.13391 27.9391L9.20497 27.9234L9.27608 27.9059L9.34717 27.8868L9.41821 27.866L9.48913 27.8435L9.55989 27.8195L9.63043 27.794L9.70072 27.7669L9.77069 27.7383L9.8403 27.7082L9.90949 27.6768L9.97823 27.6439L10.0464 27.6096L10.1141 27.574L10.1811 27.537L10.2475 27.4988L10.3132 27.4593L10.3781 27.4186L10.4422 27.3767L10.5054 27.3337L10.5677 27.2895L10.629 27.2442L10.6893 27.1978L10.7486 27.1504L10.8067 27.1019L10.8637 27.0525L10.9195 27.0022L10.974 26.9509L11.0271 26.8987L11.0789 26.8457L11.1293 26.7918L11.1783 26.7371L11.2257 26.6817L11.2715 26.6255L11.3157 26.5686L11.3583 26.5111L11.3991 26.4529L11.4382 26.394L11.4754 26.3346L11.5108 26.2746L11.5443 26.2141L11.5758 26.1531L11.6052 26.0917L11.6326 26.0298L11.6579 25.9675L11.681 25.9048L11.7019 25.8417L11.7206 25.7784L11.7369 25.7148L11.7508 25.6509L11.7623 25.5868L11.7714 25.5225L11.7779 25.458L11.7818 25.3934L11.7832 25.3287L11.7827 25.2901L11.7812 25.2519L11.7788 25.2142L11.7754 25.177L11.7711 25.1403L11.7658 25.104L11.7596 25.0683L11.7525 25.033L11.7445 24.9983L11.7356 24.964L11.7258 24.9303L11.7151 24.897L11.7036 24.8643L11.6912 24.8321L11.6779 24.8005L11.6638 24.7693L11.6488 24.7387L11.633 24.7087L11.6164 24.6792L11.599 24.6503L11.5808 24.6219L11.5618 24.5941L11.542 24.5668L11.5214 24.5402L11.5001 24.5141L11.478 24.4886L11.4551 24.4636L11.4316 24.4393L11.4073 24.4156L11.3822 24.3925L11.3565 24.37L11.33 24.3481L11.3029 24.3268L11.2751 24.3061L11.2466 24.2861L11.2174 24.2667L11.1876 24.2479L11.1571 24.2298L11.126 24.2124L11.0943 24.1956L11.0619 24.1794L11.0289 24.1639L10.9953 24.1491L10.9611 24.135L10.9264 24.1215L10.891 24.1087L10.8551 24.0967L10.8186 24.0853L10.7816 24.0746L10.744 24.0646L10.7059 24.0553L10.6673 24.0467L10.6282 24.0389L10.5885 24.0318L10.5484 24.0254L10.5077 24.0197L10.4666 24.0148L10.425 24.0106L10.383 24.0072L10.3405 24.0045L10.2976 24.0026L10.2542 24.0014L10.2104 24.001L10.1257 24.002L10.0416 24.0049L9.95814 24.0097L9.87525 24.0164L9.793 24.0249L9.71143 24.0352L9.63055 24.0473L9.55039 24.0612L9.47097 24.0768L9.39232 24.0941L9.31446 24.113L9.23743 24.1336L9.16126 24.1558L9.08594 24.1796L9.01153 24.205L8.93804 24.2318L8.86551 24.2602L8.79395 24.29L8.72339 24.3212L8.65386 24.3539L8.58537 24.3879L8.51797 24.4232L8.45168 24.4599L8.38651 24.4979L8.3225 24.5371L8.25967 24.5776L8.19805 24.6193L8.13765 24.6621L8.07852 24.7061L8.02067 24.7512L7.96413 24.7973L7.90893 24.8446L7.85508 24.8928L7.80263 24.942L7.75158 24.9923L7.70198 25.0434L7.65384 25.0955L7.60718 25.1484L7.56205 25.2022L7.51845 25.2568L7.47642 25.3122L7.43598 25.3684L7.39716 25.4253L7.35998 25.4829L7.32447 25.5411L7.29066 25.6001L7.25856 25.6596L7.22822 25.7197L7.19964 25.7804L7.17286 25.8416L7.14791 25.9034L7.1248 25.9655L7.10357 26.0282L7.08424 26.0912L7.06683 26.1546L7.05138 26.2184L7.0379 26.2825L7.02643 26.3469L7.01698 26.4116L7.00959 26.4765L7.00428 26.5416L7.00107 26.6069L7 26.6723L7.00052 26.7117L7.00209 26.7505L7.00469 26.7889L7.0083 26.8267L7.01292 26.864L7.01852 26.9007L7.02511 26.9369L7.03266 26.9726L7.04117 27.0078L7.05062 27.0424L7.061 27.0765L7.0723 27.11L7.0845 27.1429L7.0976 27.1753L7.11157 27.2072L7.12641 27.2385L7.14211 27.2692L7.15864 27.2993L7.17601 27.3289L7.19419 27.3578L7.21319 27.3862L7.23297 27.414L7.25353 27.4412L7.27486 27.4679L7.29695 27.4939L7.31977 27.5193L7.34333 27.5441L7.36761 27.5683L7.39259 27.5919L7.41826 27.6148L7.44462 27.6372L7.47164 27.6589L7.49932 27.6799L7.52764 27.7004L7.55659 27.7202L7.58616 27.7394L7.61634 27.7579L7.64711 27.7757L7.67846 27.793L7.71038 27.8095L7.74286 27.8254L7.77587 27.8406L7.80942 27.8552L7.84349 27.8691L7.87806 27.8823L7.91313 27.8948L7.94868 27.9067L7.9847 27.9178L8.02117 27.9283L8.05809 27.9381L8.09544 27.9471L8.13321 27.9555L8.17139 27.9632L8.20995 27.9701L8.24891 27.9763L8.28823 27.9819L8.32791 27.9866L8.36793 27.9907L8.40828 27.994L8.44895 27.9966L8.48994 27.9985L8.53121 27.9996L8.57277 28Z" fill="black"/>
<path d="M21.7879 28L21.8569 27.999L21.9263 27.9961L21.9961 27.9912L22.0662 27.9845L22.1366 27.9758L22.2073 27.9654L22.2781 27.9532L22.3491 27.9391L22.4201 27.9234L22.4912 27.9059L22.5623 27.8868L22.6334 27.866L22.7043 27.8435L22.775 27.8195L22.8456 27.794L22.9159 27.7669L22.9859 27.7383L23.0555 27.7082L23.1247 27.6768L23.1934 27.6439L23.2616 27.6096L23.3293 27.574L23.3963 27.537L23.4627 27.4988L23.5283 27.4593L23.5932 27.4186L23.6573 27.3767L23.7205 27.3337L23.7828 27.2895L23.8442 27.2442L23.9045 27.1978L23.9638 27.1504L24.0219 27.1019L24.0789 27.0525L24.1346 27.0022L24.1891 26.9509L24.2423 26.8987L24.2941 26.8457L24.3445 26.7918L24.3934 26.7371L24.4408 26.6817L24.4867 26.6255L24.5309 26.5686L24.5734 26.5111L24.6143 26.4529L24.6534 26.394L24.6906 26.3346L24.726 26.2746L24.7594 26.2141L24.7909 26.1531L24.8204 26.0917L24.8478 26.0298L24.8731 25.9675L24.8962 25.9048L24.9171 25.8417L24.9357 25.7784L24.952 25.7148L24.966 25.6509L24.9775 25.5868L24.9865 25.5225L24.993 25.458L24.997 25.3934L24.9983 25.3287L24.9978 25.2901L24.9964 25.2519L24.9939 25.2142L24.9906 25.177L24.9863 25.1403L24.981 25.104L24.9748 25.0683L24.9677 25.033L24.9597 24.9983L24.9508 24.964L24.941 24.9303L24.9303 24.897L24.9187 24.8643L24.9063 24.8321L24.8931 24.8005L24.8789 24.7693L24.864 24.7387L24.8482 24.7087L24.8316 24.6792L24.8142 24.6503L24.7959 24.6219L24.7769 24.5941L24.7571 24.5668L24.7366 24.5402L24.7152 24.5141L24.6931 24.4886L24.6703 24.4636L24.6467 24.4393L24.6224 24.4156L24.5974 24.3925L24.5716 24.37L24.5452 24.3481L24.5181 24.3268L24.4902 24.3061L24.4617 24.2861L24.4326 24.2667L24.4028 24.2479L24.3723 24.2298L24.3412 24.2124L24.3094 24.1956L24.277 24.1794L24.2441 24.1639L24.2105 24.1491L24.1763 24.135L24.1415 24.1215L24.1062 24.1087L24.0703 24.0967L24.0338 24.0853L23.9968 24.0746L23.9592 24.0646L23.9211 24.0553L23.8825 24.0467L23.8433 24.0389L23.8037 24.0318L23.7635 24.0254L23.7229 24.0197L23.6818 24.0148L23.6402 24.0106L23.5982 24.0072L23.5557 24.0045L23.5127 24.0026L23.4694 24.0014L23.4256 24.001L23.3409 24.002L23.2568 24.0049L23.1733 24.0097L23.0904 24.0164L23.0082 24.0249L22.9266 24.0352L22.8457 24.0473L22.7656 24.0612L22.6861 24.0768L22.6075 24.0941L22.5296 24.113L22.4526 24.1336L22.3764 24.1558L22.3011 24.1796L22.2267 24.205L22.1532 24.2318L22.0807 24.2602L22.0091 24.29L21.9386 24.3212L21.869 24.3539L21.8005 24.3879L21.7331 24.4232L21.6668 24.4599L21.6017 24.4979L21.5377 24.5371L21.4748 24.5776L21.4132 24.6193L21.3528 24.6621L21.2937 24.7061L21.2358 24.7512L21.1793 24.7973L21.1241 24.8446L21.0702 24.8928L21.0178 24.942L20.9667 24.9923L20.9171 25.0434L20.869 25.0955L20.8223 25.1484L20.7772 25.2022L20.7336 25.2568L20.6916 25.3122L20.6511 25.3684L20.6123 25.4253L20.5751 25.4829L20.5396 25.5411L20.5058 25.6001L20.4737 25.6596L20.4434 25.7197L20.4148 25.7804L20.388 25.8416L20.3631 25.9034L20.34 25.9655L20.3187 26.0282L20.2994 26.0912L20.282 26.1546L20.2665 26.2184L20.2531 26.2825L20.2416 26.3469L20.2321 26.4116L20.2248 26.4765L20.2194 26.5416L20.2162 26.6069L20.2152 26.6723L20.2157 26.7117L20.2173 26.7505L20.2199 26.7889L20.2235 26.8267L20.2281 26.864L20.2337 26.9007L20.2403 26.9369L20.2478 26.9726L20.2563 27.0078L20.2658 27.0424L20.2762 27.0765L20.2875 27.11L20.2997 27.1429L20.3128 27.1753L20.3267 27.2072L20.3416 27.2385L20.3573 27.2692L20.3738 27.2993L20.3912 27.3289L20.4094 27.3578L20.4284 27.3862L20.4481 27.414L20.4687 27.4412L20.49 27.4679L20.5121 27.4939L20.5349 27.5193L20.5585 27.5441L20.5828 27.5683L20.6078 27.5919L20.6334 27.6148L20.6598 27.6372L20.6868 27.6589L20.7145 27.6799L20.7428 27.7004L20.7718 27.7202L20.8013 27.7394L20.8315 27.7579L20.8623 27.7757L20.8936 27.793L20.9255 27.8095L20.958 27.8254L20.991 27.8406L21.0246 27.8552L21.0587 27.8691L21.0932 27.8823L21.1283 27.8948L21.1638 27.9067L21.1999 27.9178L21.2363 27.9283L21.2733 27.9381L21.3106 27.9471L21.3484 27.9555L21.3866 27.9632L21.4251 27.9701L21.4641 27.9763L21.5034 27.9819L21.5431 27.9866L21.5831 27.9907L21.6234 27.994L21.6641 27.9966L21.7051 27.9985L21.7464 27.9996L21.7879 28Z" fill="black"/>
<path d="M11.7847 12.2667V25.3286H11.2986V12.2667H11.7847Z" fill="black"/>
<path d="M24.9992 12.2667V25.3286H24.513V12.2667H24.9992Z" fill="black"/>
</svg>
