<svg width="32" height="40" viewBox="0 0 32 40" fill="none" xmlns="http://www.w3.org/2000/svg">
<path d="M27.2595 27L27.3183 26.9991L27.3775 26.9966L27.4371 26.9923L27.4969 26.9864L27.557 26.9789L27.6173 26.9697L27.6777 26.959L27.7383 26.9467L27.7989 26.933L27.8596 26.9177L27.9202 26.9009L27.9808 26.8827L28.0413 26.8631L28.1017 26.8421L28.1619 26.8197L28.2219 26.796L28.2815 26.771L28.3409 26.7447L28.4 26.7172L28.4586 26.6884L28.5168 26.6584L28.5745 26.6272L28.6317 26.5949L28.6884 26.5614L28.7444 26.5269L28.7998 26.4913L28.8544 26.4546L28.9084 26.4169L28.9615 26.3783L29.0139 26.3386L29.0653 26.2981L29.1159 26.2566L29.1655 26.2142L29.2141 26.171L29.2617 26.1269L29.3082 26.082L29.3535 26.0364L29.3977 25.99L29.4407 25.9428L29.4825 25.895L29.5229 25.8465L29.562 25.7973L29.5998 25.7476L29.6361 25.6972L29.6709 25.6463L29.7042 25.5948L29.736 25.5428L29.7662 25.4903L29.7948 25.4374L29.8216 25.384L29.8468 25.3302L29.8702 25.276L29.8917 25.2215L29.9115 25.1667L29.9293 25.1115L29.9452 25.0561L29.9591 25.0004L29.971 24.9445L29.9808 24.8884L29.9885 24.8321L29.9941 24.7757L29.9974 24.7192L29.9986 24.6626L29.9981 24.6288L29.9969 24.5954L29.9948 24.5624L29.992 24.5299L29.9883 24.4978L29.9838 24.466L29.9785 24.4348L29.9724 24.4039L29.9656 24.3735L29.958 24.3435L29.9497 24.314L29.9405 24.2849L29.9307 24.2563L29.9201 24.2281L29.9088 24.2004L29.8967 24.1732L29.8839 24.1464L29.8705 24.1201L29.8563 24.0943L29.8414 24.069L29.8259 24.0442L29.8097 24.0198L29.7928 23.996L29.7752 23.9726L29.757 23.9498L29.7382 23.9275L29.7187 23.9057L29.6986 23.8844L29.6779 23.8636L29.6565 23.8434L29.6345 23.8237L29.612 23.8045L29.5888 23.7859L29.5651 23.7679L29.5408 23.7503L29.5159 23.7334L29.4904 23.717L29.4644 23.7011L29.4379 23.6858L29.4108 23.6711L29.3832 23.657L29.355 23.6434L29.3264 23.6305L29.2972 23.6181L29.2676 23.6063L29.2374 23.5952L29.2068 23.5846L29.1756 23.5746L29.144 23.5652L29.112 23.5565L29.0795 23.5484L29.0465 23.5409L29.0131 23.534L28.9793 23.5278L28.9451 23.5222L28.9104 23.5172L28.8753 23.5129L28.8398 23.5093L28.804 23.5063L28.7677 23.5039L28.7311 23.5022L28.6941 23.5012L28.6567 23.5009L28.5845 23.5017L28.5127 23.5043L28.4415 23.5085L28.3708 23.5143L28.3006 23.5218L28.231 23.5308L28.162 23.5414L28.0936 23.5536L28.0258 23.5672L27.9587 23.5823L27.8923 23.5989L27.8266 23.6169L27.7616 23.6364L27.6973 23.6572L27.6338 23.6793L27.5711 23.7028L27.5093 23.7276L27.4482 23.7537L27.388 23.7811L27.3287 23.8096L27.2702 23.8394L27.2127 23.8703L27.1562 23.9024L27.1006 23.9357L27.046 23.97L26.9924 24.0054L26.9398 24.0419L26.8883 24.0793L26.8378 24.1178L26.7884 24.1573L26.7402 24.1977L26.6931 24.239L26.6472 24.2812L26.6024 24.3243L26.5589 24.3682L26.5165 24.413L26.4755 24.4585L26.4357 24.5049L26.3972 24.5519L26.36 24.5997L26.3241 24.6482L26.2896 24.6973L26.2565 24.7471L26.2248 24.7975L26.1945 24.8485L26.1656 24.9001L26.1382 24.9522L26.1123 25.0048L26.088 25.0579L26.0651 25.1114L26.0438 25.1654L26.0241 25.2199L26.006 25.2747L25.9895 25.3298L25.9746 25.3853L25.9615 25.4411L25.95 25.4972L25.9402 25.5536L25.9321 25.6101L25.9258 25.6669L25.9213 25.7239L25.9185 25.781L25.9176 25.8383L25.9181 25.8727L25.9194 25.9067L25.9216 25.9403L25.9247 25.9733L25.9286 26.006L25.9334 26.0381L25.939 26.0698L25.9455 26.1011L25.9527 26.1318L25.9608 26.1621L25.9697 26.1919L25.9793 26.2212L25.9897 26.2501L26.0009 26.2784L26.0128 26.3063L26.0255 26.3337L26.0389 26.3605L26.053 26.3869L26.0678 26.4128L26.0833 26.4381L26.0995 26.4629L26.1164 26.4873L26.1339 26.5111L26.1521 26.5344L26.171 26.5571L26.1904 26.5794L26.2105 26.6011L26.2313 26.6223L26.2526 26.6429L26.2745 26.663L26.297 26.6825L26.32 26.7015L26.3436 26.7199L26.3678 26.7378L26.3925 26.7552L26.4177 26.7719L26.4435 26.7881L26.4697 26.8038L26.4965 26.8188L26.5237 26.8333L26.5514 26.8472L26.5796 26.8606L26.6082 26.8733L26.6373 26.8854L26.6668 26.897L26.6967 26.908L26.727 26.9183L26.7578 26.9281L26.7889 26.9373L26.8204 26.9458L26.8522 26.9537L26.8845 26.9611L26.917 26.9678L26.9499 26.9738L26.9832 26.9793L27.0167 26.9841L27.0506 26.9883L27.0847 26.9919L27.1192 26.9948L27.1539 26.9971L27.1888 26.9987L27.224 26.9997L27.2595 27Z" fill="black"/>
<path d="M5.66682 13H30V14.7497H5.66682V13Z" fill="black"/>
<path d="M5.66682 15.6252H30V17.3749H5.66682V15.6252Z" fill="black"/>
<path d="M3.34187 27L3.4007 26.9991L3.45991 26.9966L3.51944 26.9923L3.57928 26.9864L3.63935 26.9789L3.69963 26.9697L3.76007 26.959L3.82063 26.9467L3.88126 26.933L3.94193 26.9177L4.00259 26.9009L4.06319 26.8827L4.1237 26.8631L4.18407 26.8421L4.24426 26.8197L4.30423 26.796L4.36393 26.771L4.42332 26.7447L4.48235 26.7172L4.541 26.6884L4.5992 26.6584L4.65692 26.6272L4.71412 26.5949L4.77075 26.5614L4.82678 26.5269L4.88215 26.4913L4.93682 26.4546L4.99075 26.4169L5.04391 26.3783L5.09624 26.3386L5.14772 26.2981L5.19827 26.2566L5.24788 26.2142L5.29649 26.171L5.34406 26.1269L5.39055 26.082L5.43592 26.0364L5.48012 25.99L5.52312 25.9428L5.56486 25.895L5.6053 25.8465L5.64442 25.7973L5.68215 25.7476L5.71845 25.6972L5.75329 25.6463L5.78662 25.5948L5.8184 25.5428L5.84859 25.4903L5.87714 25.4374L5.90401 25.384L5.92915 25.3302L5.95254 25.276L5.97411 25.2215L5.99383 25.1667L6.01165 25.1115L6.02754 25.0561L6.04146 25.0004L6.05334 24.9445L6.06316 24.8884L6.07088 24.8321L6.07644 24.7757L6.07981 24.7192L6.08095 24.6626L6.08053 24.6288L6.07929 24.5954L6.07722 24.5624L6.07434 24.5299L6.07065 24.4978L6.06617 24.466L6.06089 24.4348L6.05483 24.4039L6.04799 24.3735L6.04039 24.3435L6.03203 24.314L6.02291 24.2849L6.01306 24.2563L6.00246 24.2281L5.99113 24.2004L5.97909 24.1732L5.96632 24.1464L5.95285 24.1201L5.93868 24.0943L5.92383 24.069L5.90828 24.0442L5.89206 24.0198L5.87517 23.996L5.85762 23.9726L5.83942 23.9498L5.82057 23.9275L5.80109 23.9057L5.78097 23.8844L5.76023 23.8636L5.73887 23.8434L5.71691 23.8237L5.69435 23.8045L5.67119 23.7859L5.64746 23.7679L5.62314 23.7503L5.59826 23.7334L5.57281 23.717L5.54681 23.7011L5.52026 23.6858L5.49318 23.6711L5.46556 23.657L5.43742 23.6434L5.40877 23.6305L5.3796 23.6181L5.34994 23.6063L5.31978 23.5952L5.28913 23.5846L5.25801 23.5746L5.22642 23.5652L5.19437 23.5565L5.16186 23.5484L5.12891 23.5409L5.09551 23.534L5.06169 23.5278L5.02743 23.5222L4.99277 23.5172L4.95769 23.5129L4.92221 23.5093L4.88635 23.5063L4.85009 23.5039L4.81345 23.5022L4.77644 23.5012L4.73907 23.5009L4.66685 23.5017L4.5951 23.5043L4.52386 23.5085L4.45314 23.5143L4.38297 23.5218L4.31337 23.5308L4.24436 23.5414L4.17597 23.5536L4.10821 23.5672L4.04111 23.5823L3.97468 23.5989L3.90896 23.6169L3.84397 23.6364L3.77971 23.6572L3.71622 23.6793L3.65352 23.7028L3.59163 23.7276L3.53058 23.7537L3.47038 23.7811L3.41106 23.8096L3.35263 23.8394L3.29512 23.8703L3.23856 23.9024L3.18296 23.9357L3.12835 23.97L3.07474 24.0054L3.02216 24.0419L2.97064 24.0793L2.92018 24.1178L2.87083 24.1573L2.82259 24.1977L2.77549 24.239L2.72955 24.2812L2.6848 24.3243L2.64124 24.3682L2.59892 24.413L2.55785 24.4585L2.51804 24.5049L2.47953 24.5519L2.44234 24.5997L2.40648 24.6482L2.37197 24.6973L2.33885 24.7471L2.30713 24.7975L2.27684 24.8485L2.24799 24.9001L2.2206 24.9522L2.19471 25.0048L2.17033 25.0579L2.14748 25.1114L2.12619 25.1654L2.10648 25.2199L2.08836 25.2747L2.07187 25.3298L2.05702 25.3853L2.04384 25.4411L2.03234 25.4972L2.02255 25.5536L2.01449 25.6101L2.00818 25.6669L2.00365 25.7239L2.00092 25.781L2 25.8383L2.00045 25.8727L2.00178 25.9067L2.004 25.9403L2.00708 25.9733L2.01102 26.006L2.0158 26.0381L2.02142 26.0698L2.02787 26.1011L2.03513 26.1318L2.04319 26.1621L2.05205 26.1919L2.06169 26.2212L2.0721 26.2501L2.08327 26.2784L2.09519 26.3063L2.10785 26.3337L2.12124 26.3605L2.13535 26.3869L2.15017 26.4128L2.16569 26.4381L2.18189 26.4629L2.19877 26.4873L2.21631 26.5111L2.23451 26.5344L2.25335 26.5571L2.27283 26.5794L2.29293 26.6011L2.31364 26.6223L2.33495 26.6429L2.35686 26.663L2.37935 26.6825L2.4024 26.7015L2.42602 26.7199L2.45018 26.7378L2.47488 26.7552L2.50011 26.7719L2.52586 26.7881L2.55211 26.8038L2.57886 26.8188L2.60609 26.8333L2.6338 26.8472L2.66197 26.8606L2.69059 26.8733L2.71966 26.8854L2.74916 26.897L2.77908 26.908L2.80941 26.9183L2.84014 26.9281L2.87126 26.9373L2.90275 26.9458L2.93462 26.9537L2.96685 26.9611L2.99942 26.9678L3.03232 26.9738L3.06556 26.9793L3.09911 26.9841L3.13296 26.9883L3.1671 26.9919L3.20153 26.9948L3.23623 26.9971L3.2712 26.9987L3.30642 26.9997L3.34187 27Z" fill="black"/>
<path d="M11.3144 27L11.3732 26.9991L11.4324 26.9966L11.492 26.9923L11.5518 26.9864L11.6119 26.9789L11.6722 26.9697L11.7326 26.959L11.7932 26.9467L11.8538 26.933L11.9145 26.9177L11.9751 26.9009L12.0357 26.8827L12.0962 26.8631L12.1566 26.8421L12.2168 26.8197L12.2768 26.796L12.3365 26.771L12.3959 26.7447L12.4549 26.7172L12.5135 26.6884L12.5717 26.6584L12.6295 26.6272L12.6867 26.5949L12.7433 26.5614L12.7993 26.5269L12.8547 26.4913L12.9094 26.4546L12.9633 26.4169L13.0165 26.3783L13.0688 26.3386L13.1203 26.2981L13.1708 26.2566L13.2204 26.2142L13.269 26.171L13.3166 26.1269L13.3631 26.082L13.4085 26.0364L13.4527 25.99L13.4957 25.9428L13.5374 25.895L13.5778 25.8465L13.617 25.7973L13.6547 25.7476L13.691 25.6972L13.7258 25.6463L13.7592 25.5948L13.7909 25.5428L13.8211 25.4903L13.8497 25.4374L13.8766 25.384L13.9017 25.3302L13.9251 25.276L13.9466 25.2215L13.9664 25.1667L13.9842 25.1115L14.0001 25.0561L14.014 25.0004L14.0259 24.9445L14.0357 24.8884L14.0434 24.8321L14.049 24.7757L14.0524 24.7192L14.0535 24.6626L14.0531 24.6288L14.0518 24.5954L14.0498 24.5624L14.0469 24.5299L14.0432 24.4978L14.0387 24.466L14.0334 24.4348L14.0274 24.4039L14.0205 24.3735L14.0129 24.3435L14.0046 24.314L13.9955 24.2849L13.9856 24.2563L13.975 24.2281L13.9637 24.2004L13.9516 24.1732L13.9389 24.1464L13.9254 24.1201L13.9112 24.0943L13.8964 24.069L13.8808 24.0442L13.8646 24.0198L13.8477 23.996L13.8302 23.9726L13.812 23.9498L13.7931 23.9275L13.7736 23.9057L13.7535 23.8844L13.7328 23.8636L13.7114 23.8434L13.6895 23.8237L13.6669 23.8045L13.6437 23.7859L13.62 23.7679L13.5957 23.7503L13.5708 23.7334L13.5454 23.717L13.5194 23.7011L13.4928 23.6858L13.4657 23.6711L13.4381 23.657L13.41 23.6434L13.3813 23.6305L13.3521 23.6181L13.3225 23.6063L13.2923 23.5952L13.2617 23.5846L13.2306 23.5746L13.199 23.5652L13.1669 23.5565L13.1344 23.5484L13.1014 23.5409L13.0681 23.534L13.0342 23.5278L13 23.5222L12.9653 23.5172L12.9302 23.5129L12.8948 23.5093L12.8589 23.5063L12.8226 23.5039L12.786 23.5022L12.749 23.5012L12.7116 23.5009L12.6394 23.5017L12.5676 23.5043L12.4964 23.5085L12.4257 23.5143L12.3555 23.5218L12.2859 23.5308L12.2169 23.5414L12.1485 23.5536L12.0808 23.5672L12.0136 23.5823L11.9472 23.5989L11.8815 23.6169L11.8165 23.6364L11.7522 23.6572L11.6888 23.6793L11.6261 23.7028L11.5642 23.7276L11.5031 23.7537L11.4429 23.7811L11.3836 23.8096L11.3252 23.8394L11.2677 23.8703L11.2111 23.9024L11.1555 23.9357L11.1009 23.97L11.0473 24.0054L10.9947 24.0419L10.9432 24.0793L10.8927 24.1178L10.8434 24.1573L10.7951 24.1977L10.748 24.239L10.7021 24.2812L10.6573 24.3243L10.6138 24.3682L10.5715 24.413L10.5304 24.4585L10.4906 24.5049L10.4521 24.5519L10.4149 24.5997L10.379 24.6482L10.3445 24.6973L10.3114 24.7471L10.2797 24.7975L10.2494 24.8485L10.2205 24.9001L10.1931 24.9522L10.1673 25.0048L10.1429 25.0579L10.12 25.1114L10.0987 25.1654L10.079 25.2199L10.0609 25.2747L10.0444 25.3298L10.0296 25.3853L10.0164 25.4411L10.0049 25.4972L9.99509 25.5536L9.98703 25.6101L9.98072 25.6669L9.97619 25.7239L9.97346 25.781L9.97254 25.8383L9.97299 25.8727L9.97432 25.9067L9.97654 25.9403L9.97962 25.9733L9.98356 26.006L9.98834 26.0381L9.99396 26.0698L10.0004 26.1011L10.0077 26.1318L10.0157 26.1621L10.0246 26.1919L10.0342 26.2212L10.0446 26.2501L10.0558 26.2784L10.0677 26.3063L10.0804 26.3337L10.0938 26.3605L10.1079 26.3869L10.1227 26.4128L10.1382 26.4381L10.1544 26.4629L10.1713 26.4873L10.1888 26.5111L10.207 26.5344L10.2259 26.5571L10.2454 26.5794L10.2655 26.6011L10.2862 26.6223L10.3075 26.6429L10.3294 26.663L10.3519 26.6825L10.3749 26.7015L10.3986 26.7199L10.4227 26.7378L10.4474 26.7552L10.4727 26.7719L10.4984 26.7881L10.5246 26.8038L10.5514 26.8188L10.5786 26.8333L10.6063 26.8472L10.6345 26.8606L10.6631 26.8733L10.6922 26.8854L10.7217 26.897L10.7516 26.908L10.7819 26.9183L10.8127 26.9281L10.8438 26.9373L10.8753 26.9458L10.9072 26.9537L10.9394 26.9611L10.972 26.9678L11.0049 26.9738L11.0381 26.9793L11.0716 26.9841L11.1055 26.9883L11.1396 26.9919L11.1741 26.9948L11.2088 26.9971L11.2437 26.9987L11.279 26.9997L11.3144 27Z" fill="black"/>
<path d="M19.2869 27L19.3458 26.9991L19.405 26.9966L19.4645 26.9923L19.5244 26.9864L19.5844 26.9789L19.6447 26.9697L19.7051 26.959L19.7657 26.9467L19.8263 26.933L19.887 26.9177L19.9477 26.9009L20.0083 26.8827L20.0688 26.8631L20.1292 26.8421L20.1893 26.8197L20.2493 26.796L20.309 26.771L20.3684 26.7447L20.4274 26.7172L20.4861 26.6884L20.5443 26.6584L20.602 26.6272L20.6592 26.5949L20.7158 26.5614L20.7719 26.5269L20.8272 26.4913L20.8819 26.4546L20.9358 26.4169L20.989 26.3783L21.0413 26.3386L21.0928 26.2981L21.1434 26.2566L21.193 26.2142L21.2416 26.171L21.2891 26.1269L21.3356 26.082L21.381 26.0364L21.4252 25.99L21.4682 25.9428L21.5099 25.895L21.5504 25.8465L21.5895 25.7973L21.6272 25.7476L21.6635 25.6972L21.6984 25.6463L21.7317 25.5948L21.7635 25.5428L21.7937 25.4903L21.8222 25.4374L21.8491 25.384L21.8742 25.3302L21.8976 25.276L21.9192 25.2215L21.9389 25.1667L21.9567 25.1115L21.9726 25.0561L21.9865 25.0004L21.9984 24.9445L22.0082 24.8884L22.016 24.8321L22.0215 24.7757L22.0249 24.7192L22.026 24.6626L22.0256 24.6288L22.0244 24.5954L22.0223 24.5624L22.0194 24.5299L22.0157 24.4978L22.0112 24.466L22.006 24.4348L21.9999 24.4039L21.9931 24.3735L21.9855 24.3435L21.9771 24.314L21.968 24.2849L21.9581 24.2563L21.9475 24.2281L21.9362 24.2004L21.9242 24.1732L21.9114 24.1464L21.8979 24.1201L21.8838 24.0943L21.8689 24.069L21.8534 24.0442L21.8371 24.0198L21.8203 23.996L21.8027 23.9726L21.7845 23.9498L21.7656 23.9275L21.7462 23.9057L21.726 23.8844L21.7053 23.8636L21.684 23.8434L21.662 23.8237L21.6394 23.8045L21.6163 23.7859L21.5925 23.7679L21.5682 23.7503L21.5433 23.7334L21.5179 23.717L21.4919 23.7011L21.4653 23.6858L21.4383 23.6711L21.4106 23.657L21.3825 23.6434L21.3538 23.6305L21.3247 23.6181L21.295 23.6063L21.2649 23.5952L21.2342 23.5846L21.2031 23.5746L21.1715 23.5652L21.1395 23.5565L21.1069 23.5484L21.074 23.5409L21.0406 23.534L21.0068 23.5278L20.9725 23.5222L20.9378 23.5172L20.9028 23.5129L20.8673 23.5093L20.8314 23.5063L20.7952 23.5039L20.7585 23.5022L20.7215 23.5012L20.6842 23.5009L20.6119 23.5017L20.5402 23.5043L20.4689 23.5085L20.3982 23.5143L20.328 23.5218L20.2585 23.5308L20.1894 23.5414L20.121 23.5536L20.0533 23.5672L19.9862 23.5823L19.9198 23.5989L19.854 23.6169L19.789 23.6364L19.7248 23.6572L19.6613 23.6793L19.5986 23.7028L19.5367 23.7276L19.4757 23.7537L19.4155 23.7811L19.3561 23.8096L19.2977 23.8394L19.2402 23.8703L19.1836 23.9024L19.128 23.9357L19.0734 23.97L19.0198 24.0054L18.9672 24.0419L18.9157 24.0793L18.8653 24.1178L18.8159 24.1573L18.7677 24.1977L18.7206 24.239L18.6746 24.2812L18.6299 24.3243L18.5863 24.3682L18.544 24.413L18.5029 24.4585L18.4631 24.5049L18.4246 24.5519L18.3874 24.5997L18.3516 24.6482L18.3171 24.6973L18.2839 24.7471L18.2522 24.7975L18.2219 24.8485L18.1931 24.9001L18.1657 24.9522L18.1398 25.0048L18.1154 25.0579L18.0926 25.1114L18.0713 25.1654L18.0516 25.2199L18.0334 25.2747L18.017 25.3298L18.0021 25.3853L17.9889 25.4411L17.9774 25.4972L17.9676 25.5536L17.9596 25.6101L17.9533 25.6669L17.9487 25.7239L17.946 25.781L17.9451 25.8383L17.9455 25.8727L17.9469 25.9067L17.9491 25.9403L17.9522 25.9733L17.9561 26.006L17.9609 26.0381L17.9665 26.0698L17.9729 26.1011L17.9802 26.1318L17.9883 26.1621L17.9971 26.1919L18.0068 26.2212L18.0172 26.2501L18.0283 26.2784L18.0403 26.3063L18.0529 26.3337L18.0663 26.3605L18.0804 26.3869L18.0953 26.4128L18.1108 26.4381L18.127 26.4629L18.1438 26.4873L18.1614 26.5111L18.1796 26.5344L18.1984 26.5571L18.2179 26.5794L18.238 26.6011L18.2587 26.6223L18.28 26.6429L18.3019 26.663L18.3244 26.6825L18.3475 26.7015L18.3711 26.7199L18.3953 26.7378L18.42 26.7552L18.4452 26.7719L18.4709 26.7881L18.4972 26.8038L18.5239 26.8188L18.5512 26.8333L18.5789 26.8472L18.607 26.8606L18.6357 26.8733L18.6647 26.8854L18.6942 26.897L18.7242 26.908L18.7545 26.9183L18.7852 26.9281L18.8163 26.9373L18.8478 26.9458L18.8797 26.9537L18.9119 26.9611L18.9445 26.9678L18.9774 26.9738L19.0106 26.9793L19.0442 26.9841L19.078 26.9883L19.1122 26.9919L19.1466 26.9948L19.1813 26.9971L19.2163 26.9987L19.2515 26.9997L19.2869 27Z" fill="black"/>
<path d="M6.08167 13.2334V24.6625H5.66691V13.2334H6.08167Z" fill="black"/>
<path d="M14.0542 13.2334V24.6625H13.6395V13.2334H14.0542Z" fill="black"/>
<path d="M22.0268 13.2334V24.6625H21.612V13.2334H22.0268Z" fill="black"/>
<path d="M29.9993 13.2334V24.6625H29.5845V13.2334H29.9993Z" fill="black"/>
</svg>
