<svg width="32" height="40" viewBox="0 0 32 40" fill="none" xmlns="http://www.w3.org/2000/svg">
<path d="M19.6582 24.7807L19.6585 24.7796L19.6595 24.7762L19.6632 24.7628L19.666 24.7529L19.6693 24.7409L19.6731 24.7269L19.6774 24.7109L19.6876 24.6731L19.6933 24.6513L19.6995 24.6277L19.7061 24.6024L19.713 24.5753L19.7204 24.5465L19.728 24.5161L19.736 24.484L19.7443 24.4504L19.7529 24.4152L19.7618 24.3786L19.7708 24.3406L19.7801 24.3011L19.7896 24.2603L19.7993 24.2182L19.8092 24.1748L19.8191 24.1302L19.8292 24.0845L19.8394 24.0375L19.8496 23.9895L19.8599 23.9404L19.8703 23.8903L19.8806 23.8393L19.891 23.7874L19.9013 23.7345L19.9115 23.6809L19.9217 23.6264L19.9318 23.5712L19.9418 23.5153L19.9516 23.4587L19.9613 23.4015L19.9708 23.3437L19.9801 23.2854L19.9891 23.2266L19.998 23.1674L20.0066 23.1077L20.0149 23.0476L20.0229 22.9873L20.0305 22.9267L20.0379 22.8659L20.0449 22.8048L20.0514 22.7436L20.0576 22.6824L20.0633 22.621L20.0686 22.5596L20.0735 22.4983L20.0778 22.437L20.0816 22.3758L20.0849 22.3147L20.0877 22.2539L20.0899 22.1933L20.0914 22.1331L20.0924 22.0731L20.0927 22.0135L20.0921 21.9183L20.0901 21.8234L20.0869 21.7286L20.0824 21.634L20.0766 21.5396L20.0697 21.4454L20.0615 21.3513L20.0521 21.2575L20.0415 21.1639L20.0298 21.0705L20.0169 20.9773L20.0029 20.8843L19.9877 20.7915L19.9715 20.699L19.9542 20.6066L19.9358 20.5145L19.9163 20.4228L19.8959 20.3311L19.8744 20.2398L19.8519 20.1486L19.8284 20.0578L19.804 19.9672L19.7786 19.8768L19.7522 19.7868L19.725 19.697L19.6968 19.6075L19.6678 19.5182L19.6379 19.4293L19.6071 19.3406L19.5755 19.2522L19.5431 19.1641L19.5099 19.0763L19.4759 18.9888L19.4411 18.9017L19.4055 18.8148L19.3693 18.7283L19.3323 18.642L19.2945 18.5561L19.2561 18.4706L19.2171 18.3853L19.1774 18.3005L19.137 18.2159L19.096 18.1317L19.0544 18.0478L19.0122 17.9643L18.9695 17.8812L18.9262 17.7984L18.8823 17.716L18.8379 17.634L18.7931 17.5523L18.7477 17.471L18.7018 17.3901L18.6555 17.3096L18.6087 17.2295L18.5616 17.1498L18.514 17.0705L18.466 16.9916L18.4176 16.9131L18.3689 16.835L18.3198 16.7573L18.2705 16.6801L18.2208 16.6032L18.1708 16.5268L18.1303 16.4666L18.09 16.4062L18.05 16.3456L18.0103 16.2848L17.9708 16.2238L17.9316 16.1627L17.8926 16.1014L17.8539 16.0399L17.8155 15.9783L17.7774 15.9164L17.7396 15.8544L17.702 15.7922L17.6648 15.7298L17.6279 15.6673L17.5914 15.6045L17.5551 15.5416L17.5192 15.4785L17.4836 15.4152L17.4484 15.3516L17.4136 15.288L17.3791 15.2241L17.345 15.16L17.3112 15.0957L17.2778 15.0312L17.2449 14.9666L17.2123 14.9017L17.1801 14.8366L17.1484 14.7714L17.117 14.7059L17.0861 14.6402L17.0556 14.5744L17.0256 14.5083L16.996 14.442L16.9669 14.3755L16.9382 14.3088L16.91 14.2419L16.8822 14.1748L16.8549 14.1074L16.8282 14.0399L16.8019 13.9721L16.7761 13.9042L16.7508 13.836L16.726 13.7676L16.7018 13.6989L16.6781 13.6301L16.6549 13.561L16.6322 13.4917L16.6101 13.4222L16.5886 13.3525L16.5676 13.2825L16.5472 13.2123L16.5274 13.1419L16.5081 13.0713L16.4895 13.0004L16.4714 12.9293L16.4539 12.8579L16.4371 12.7863L16.4208 12.7145L16.4052 12.6425L16.3902 12.5702L16.3758 12.4977L16.3621 12.4249L16.3491 12.3519L16.3466 12.3398L16.344 12.328L16.3413 12.3164L16.3385 12.3051L16.3355 12.294L16.3324 12.2831L16.3291 12.2724L16.3257 12.262L16.3222 12.2518L16.3185 12.2419L16.3146 12.2321L16.3106 12.2226L16.3065 12.2133L16.3022 12.2043L16.2977 12.1954L16.2931 12.1868L16.2883 12.1784L16.2833 12.1702L16.2782 12.1622L16.2729 12.1545L16.2674 12.1469L16.2617 12.1396L16.2559 12.1324L16.2499 12.1255L16.2436 12.1188L16.2373 12.1123L16.2307 12.106L16.2239 12.0998L16.2169 12.0939L16.2098 12.0882L16.2024 12.0827L16.1949 12.0773L16.1871 12.0722L16.1791 12.0672L16.1709 12.0625L16.1626 12.0579L16.154 12.0535L16.1451 12.0493L16.1361 12.0453L16.1269 12.0415L16.1174 12.0378L16.1077 12.0344L16.0977 12.0311L16.0876 12.0279L16.0772 12.025L16.0666 12.0222L16.0557 12.0196L16.0446 12.0172L16.0333 12.0149L16.0217 12.0128L16.0098 12.0109L15.9977 12.0091L15.9854 12.0075L15.9728 12.0061L15.96 12.0048L15.9469 12.0036L15.9335 12.0027L15.9199 12.0018L15.906 12.0012L15.8918 12.0007L15.8774 12.0003L15.8627 12.0001L15.8477 12L15.8389 12.0001L15.8304 12.0005L15.822 12.0012L15.8137 12.0021L15.8057 12.0034L15.7979 12.005L15.7903 12.0069L15.7829 12.0092L15.7757 12.0119L15.7687 12.0149L15.762 12.0183L15.7555 12.0222L15.7492 12.0264L15.7432 12.0311L15.7374 12.0363L15.7318 12.0419L15.7265 12.048L15.7215 12.0546L15.7167 12.0617L15.7122 12.0693L15.708 12.0775L15.7041 12.0863L15.7004 12.0956L15.6971 12.1055L15.694 12.116L15.6912 12.1271L15.6888 12.1388L15.6866 12.1512L15.6848 12.1643L15.6833 12.178L15.6821 12.1924L15.6813 12.2075L15.6807 12.2234L15.6806 12.2399V16.063L15.7335 16.0736L15.787 16.0872L15.8413 16.1036L15.8962 16.1228L15.9516 16.1447L16.0076 16.1694L16.0642 16.1966L16.1212 16.2263L16.1787 16.2585L16.2366 16.2931L16.2948 16.33L16.3535 16.3692L16.4124 16.4106L16.4716 16.4541L16.531 16.4996L16.5907 16.5472L16.6505 16.5966L16.7104 16.648L16.7705 16.7011L16.8306 16.7559L16.8907 16.8124L16.9508 16.8705L17.0109 16.9301L17.0709 16.9911L17.1308 17.0536L17.1905 17.1173L17.2501 17.1824L17.3094 17.2485L17.3685 17.3159L17.4272 17.3842L17.4857 17.4536L17.5438 17.5238L17.6015 17.595L17.6587 17.6669L17.7156 17.7395L17.7718 17.8127L17.8276 17.8866L17.8828 17.9609L17.9374 18.0357L17.9913 18.1109L18.0446 18.1864L18.0971 18.2621L18.1489 18.338L18.1999 18.414L18.2501 18.4901L18.2994 18.5661L18.3479 18.6421L18.3954 18.7179L18.4419 18.7934L18.4875 18.8687L18.532 18.9436L18.5755 19.0181L18.6178 19.0921L18.659 19.1655L18.6991 19.2383L18.7379 19.3104L18.7755 19.3818L18.8118 19.4523L18.8468 19.5219L18.8805 19.5905L18.9127 19.6582L18.9436 19.7246L18.973 19.79L18.9848 19.8162L18.9965 19.8429L19.0081 19.8702L19.0195 19.898L19.0307 19.9263L19.0418 19.9552L19.0527 19.9844L19.0635 20.0143L19.0741 20.0446L19.0846 20.0755L19.0948 20.1068L19.105 20.1385L19.1149 20.1707L19.1247 20.2034L19.1343 20.2365L19.1437 20.2701L19.153 20.3041L19.1621 20.3384L19.171 20.3732L19.1798 20.4084L19.1884 20.4441L19.1968 20.48L19.205 20.5165L19.213 20.5531L19.2209 20.5903L19.2286 20.6277L19.2361 20.6655L19.2434 20.7037L19.2505 20.7422L19.2575 20.781L19.2642 20.8201L19.2708 20.8595L19.2772 20.8992L19.2834 20.9392L19.2893 20.9795L19.2951 21.02L19.3007 21.0609L19.3061 21.102L19.3114 21.1433L19.3164 21.1849L19.3212 21.2267L19.3258 21.2688L19.3302 21.311L19.3344 21.3534L19.3384 21.3961L19.3422 21.439L19.3458 21.4821L19.3492 21.5252L19.3523 21.5686L19.3553 21.6122L19.358 21.6559L19.3606 21.6997L19.3629 21.7438L19.365 21.7879L19.3669 21.8321L19.3686 21.8764L19.37 21.9209L19.3713 21.9655L19.3723 22.0101L19.3731 22.0548L19.3736 22.0996L19.374 22.1445L19.3741 22.1894L19.374 22.2237L19.3737 22.2581L19.3733 22.2924L19.3726 22.3269L19.3718 22.3614L19.3708 22.3959L19.3697 22.4305L19.3683 22.465L19.3668 22.4997L19.365 22.5343L19.3631 22.569L19.361 22.6038L19.3587 22.6385L19.3562 22.6733L19.3535 22.7081L19.3506 22.743L19.3475 22.7778L19.3443 22.8128L19.3408 22.8476L19.3371 22.8825L19.3332 22.9175L19.3291 22.9525L19.3249 22.9875L19.3204 23.0225L19.3157 23.0575L19.3108 23.0925L19.3057 23.1275L19.3003 23.1625L19.2948 23.1975L19.2891 23.2326L19.2831 23.2676L19.277 23.3027L19.2706 23.3376L19.264 23.3727L19.2571 23.4077L19.2501 23.4428L19.2429 23.4778L19.2354 23.5128L19.2277 23.5478L19.2198 23.5828L19.2116 23.6178L19.2032 23.6527L19.1946 23.6877L19.1858 23.7226L19.1767 23.7575L19.1674 23.7924L19.1579 23.8273L19.1482 23.8621L19.1382 23.8969L19.1279 23.9317L19.1175 23.9665L19.1068 24.0012L19.0958 24.0359L19.0846 24.0706L19.0732 24.1052L19.0616 24.1398L19.0496 24.1743L19.0375 24.2089L19.0251 24.2434L19.0124 24.2778L18.9995 24.3122L18.9864 24.3465L18.973 24.3808L18.9701 24.3893L18.9672 24.3976L18.9645 24.4059L18.9619 24.414L18.9593 24.4222L18.9568 24.4301L18.9544 24.4381L18.9521 24.4459L18.9499 24.4537L18.9478 24.4614L18.9458 24.469L18.9438 24.4765L18.942 24.4839L18.9402 24.4912L18.9385 24.4985L18.9369 24.5057L18.9354 24.5128L18.9339 24.5198L18.9326 24.5267L18.9313 24.5336L18.9302 24.5403L18.9291 24.547L18.9281 24.5537L18.9272 24.5602L18.9263 24.5666L18.9256 24.5729L18.925 24.5792L18.9244 24.5854L18.9239 24.5915L18.9235 24.5976L18.9232 24.6035L18.923 24.6093L18.9229 24.6151L18.9228 24.6208L18.923 24.6329L18.9233 24.6448L18.9239 24.6566L18.9248 24.6682L18.9259 24.6796L18.9272 24.6909L18.9287 24.702L18.9304 24.7129L18.9324 24.7237L18.9345 24.7343L18.9369 24.7448L18.9394 24.7551L18.9421 24.7652L18.945 24.7752L18.9481 24.785L18.9513 24.7946L18.9547 24.8042L18.9583 24.8135L18.962 24.8227L18.9659 24.8317L18.9699 24.8406L18.974 24.8493L18.9783 24.8579L18.9827 24.8663L18.9872 24.8746L18.9918 24.8827L18.9965 24.8907L19.0013 24.8985L19.0062 24.9061L19.0113 24.9137L19.0164 24.9211L19.0215 24.9283L19.0268 24.9354L19.0321 24.9423L19.0375 24.9492L19.0429 24.9558L19.0484 24.9624L19.0539 24.9687L19.0595 24.9749L19.0651 24.9811L19.0707 24.987L19.0763 24.9928L19.082 24.9985L19.0877 25.0041L19.0934 25.0095L19.0991 25.0148L19.1047 25.0199L19.1104 25.0249L19.116 25.0298L19.1217 25.0345L19.1273 25.0392L19.1328 25.0436L19.1384 25.048L19.1438 25.0523L19.1493 25.0563L19.1547 25.0603L19.16 25.0642L19.1652 25.0679L19.1704 25.0715L19.1755 25.075L19.1805 25.0783L19.1854 25.0815L19.1902 25.0846L19.1951 25.0876L19.2003 25.0903L19.2058 25.0927L19.2115 25.0949L19.2174 25.0968L19.2236 25.0986L19.2299 25.1L19.2365 25.1013L19.2433 25.1022L19.2503 25.103L19.2575 25.1035L19.2649 25.1037H19.2724L19.2801 25.1034L19.2879 25.1029L19.2959 25.1022L19.304 25.1012L19.3122 25.1L19.3206 25.0985L19.329 25.0967L19.3375 25.0947L19.3462 25.0925L19.3549 25.09L19.3636 25.0872L19.3724 25.0843L19.3813 25.081L19.3902 25.0775L19.3991 25.0738L19.4081 25.0697L19.417 25.0655L19.426 25.061L19.435 25.0563L19.4439 25.0513L19.4528 25.046L19.4617 25.0405L19.4705 25.0347L19.4793 25.0286L19.488 25.0223L19.4966 25.0158L19.5052 25.009L19.5136 25.0019L19.522 24.9946L19.5303 24.9871L19.5384 24.9792L19.5464 24.9711L19.5543 24.9628L19.562 24.9541L19.5696 24.9453L19.577 24.9361L19.5842 24.9267L19.5913 24.9171L19.5981 24.9072L19.6048 24.897L19.6112 24.8866L19.6174 24.8759L19.6234 24.8649L19.6292 24.8536L19.6347 24.8422L19.6399 24.8304L19.6449 24.8184L19.6496 24.8061L19.6541 24.7936L19.6582 24.7807Z" fill="black"/>
<path d="M12.6211 28L12.6922 27.999L12.7637 27.9961L12.8357 27.9912L12.9079 27.9845L12.9805 27.9758L13.0533 27.9654L13.1264 27.9532L13.1995 27.9391L13.2728 27.9234L13.3461 27.9059L13.4194 27.8868L13.4926 27.866L13.5657 27.8435L13.6386 27.8196L13.7113 27.794L13.7838 27.7669L13.8559 27.7383L13.9276 27.7082L13.999 27.6768L14.0698 27.6439L14.1401 27.6096L14.2099 27.574L14.279 27.537L14.3474 27.4988L14.4151 27.4593L14.482 27.4186L14.548 27.3767L14.6132 27.3337L14.6774 27.2895L14.7406 27.2442L14.8028 27.1978L14.8639 27.1504L14.9238 27.1019L14.9825 27.0525L15.04 27.0022L15.0962 26.9509L15.151 26.8987L15.2044 26.8457L15.2563 26.7918L15.3067 26.7371L15.3556 26.6817L15.4029 26.6255L15.4484 26.5687L15.4923 26.5111L15.5344 26.4529L15.5747 26.394L15.6131 26.3346L15.6495 26.2746L15.684 26.2141L15.7165 26.1531L15.7469 26.0917L15.7751 26.0298L15.8012 25.9675L15.825 25.9048L15.8465 25.8417L15.8657 25.7784L15.8825 25.7148L15.8969 25.6509L15.9088 25.5868L15.9181 25.5225L15.9248 25.458L15.9289 25.3934L15.9302 25.3287L15.9297 25.2901L15.9282 25.2519L15.9257 25.2142L15.9223 25.177L15.9178 25.1403L15.9124 25.104L15.906 25.0683L15.8987 25.033L15.8904 24.9983L15.8812 24.964L15.8711 24.9303L15.8601 24.897L15.8482 24.8643L15.8354 24.8321L15.8217 24.8005L15.8072 24.7693L15.7918 24.7388L15.7755 24.7087L15.7584 24.6792L15.7404 24.6503L15.7216 24.6219L15.702 24.5941L15.6816 24.5668L15.6604 24.5402L15.6385 24.5141L15.6157 24.4886L15.5921 24.4636L15.5678 24.4393L15.5428 24.4156L15.517 24.3925L15.4904 24.37L15.4632 24.3481L15.4352 24.3268L15.4065 24.3061L15.3772 24.2861L15.3471 24.2667L15.3164 24.248L15.2849 24.2298L15.2529 24.2124L15.2202 24.1956L15.1868 24.1794L15.1528 24.1639L15.1182 24.1491L15.0829 24.135L15.0471 24.1215L15.0107 24.1088L14.9736 24.0967L14.936 24.0853L14.8979 24.0746L14.8592 24.0646L14.8199 24.0553L14.7801 24.0467L14.7397 24.0389L14.6989 24.0318L14.6575 24.0254L14.6156 24.0197L14.5732 24.0148L14.5304 24.0106L14.487 24.0072L14.4432 24.0045L14.399 24.0026L14.3543 24.0014L14.3091 24.001L14.2219 24.002L14.1352 24.0049L14.0491 24.0097L13.9637 24.0164L13.8789 24.0249L13.7948 24.0352L13.7114 24.0473L13.6288 24.0612L13.547 24.0768L13.4659 24.0941L13.3856 24.113L13.3062 24.1336L13.2277 24.1558L13.1501 24.1796L13.0734 24.205L12.9976 24.2318L12.9229 24.2602L12.8491 24.29L12.7764 24.3212L12.7047 24.3539L12.6341 24.3879L12.5647 24.4233L12.4963 24.4599L12.4292 24.4979L12.3632 24.5371L12.2984 24.5776L12.2349 24.6193L12.1726 24.6621L12.1117 24.7061L12.0521 24.7512L11.9938 24.7973L11.9369 24.8446L11.8814 24.8928L11.8273 24.942L11.7747 24.9923L11.7236 25.0434L11.6739 25.0955L11.6259 25.1484L11.5793 25.2022L11.5344 25.2568L11.4911 25.3122L11.4494 25.3684L11.4094 25.4253L11.371 25.4829L11.3344 25.5412L11.2996 25.6001L11.2665 25.6596L11.2352 25.7197L11.2058 25.7804L11.1782 25.8416L11.1525 25.9034L11.1286 25.9655L11.1068 26.0282L11.0868 26.0912L11.0689 26.1546L11.053 26.2184L11.0391 26.2825L11.0272 26.3469L11.0175 26.4116L11.0099 26.4765L11.0044 26.5416L11.0011 26.6069L11 26.6723L11.0005 26.7117L11.0022 26.7505L11.0048 26.7889L11.0086 26.8267L11.0133 26.864L11.0191 26.9007L11.0259 26.9369L11.0337 26.9726L11.0424 27.0078L11.0522 27.0424L11.0629 27.0765L11.0745 27.11L11.0871 27.1429L11.1006 27.1753L11.115 27.2072L11.1303 27.2385L11.1465 27.2692L11.1635 27.2993L11.1814 27.3289L11.2002 27.3578L11.2197 27.3862L11.2401 27.414L11.2613 27.4412L11.2833 27.4679L11.3061 27.4939L11.3296 27.5193L11.3539 27.5441L11.3789 27.5683L11.4047 27.5919L11.4311 27.6148L11.4583 27.6372L11.4861 27.6589L11.5147 27.6799L11.5439 27.7004L11.5737 27.7202L11.6042 27.7394L11.6353 27.7579L11.667 27.7757L11.6993 27.793L11.7322 27.8095L11.7657 27.8254L11.7997 27.8406L11.8343 27.8552L11.8694 27.8691L11.9051 27.8823L11.9412 27.8948L11.9779 27.9067L12.015 27.9178L12.0526 27.9283L12.0906 27.9381L12.1291 27.9471L12.1681 27.9555L12.2074 27.9632L12.2472 27.9701L12.2873 27.9763L12.3278 27.9819L12.3687 27.9866L12.41 27.9907L12.4516 27.994L12.4935 27.9966L12.5358 27.9985L12.5783 27.9996L12.6211 28Z" fill="black"/>
<path d="M22 26.0005L21.9997 25.9792L21.9989 25.9581L21.9975 25.9372L21.9956 25.9164L21.9932 25.8958L21.9902 25.8754L21.9868 25.8551L21.9828 25.835L21.9783 25.8152L21.9733 25.7955L21.9678 25.776L21.9618 25.7568L21.9554 25.7378L21.9485 25.7189L21.9411 25.7004L21.9332 25.682L21.9249 25.6639L21.9162 25.6461L21.907 25.6285L21.8974 25.6112L21.8873 25.5941L21.8769 25.5773L21.866 25.5608L21.8547 25.5446L21.843 25.5286L21.8309 25.513L21.8185 25.4977L21.8056 25.4827L21.7924 25.468L21.7788 25.4536L21.7648 25.4395L21.7505 25.4258L21.7358 25.4125L21.7208 25.3994L21.7054 25.3868L21.6897 25.3745L21.6737 25.3625L21.6574 25.351L21.6407 25.3398L21.6238 25.329L21.6065 25.3186L21.589 25.3085L21.5712 25.2989L21.5531 25.2897L21.5347 25.2809L21.516 25.2726L21.4971 25.2646L21.478 25.2571L21.4585 25.25L21.4389 25.2434L21.419 25.2372L21.3989 25.2315L21.3785 25.2263L21.358 25.2215L21.3372 25.2172L21.3163 25.2134L21.2951 25.2101L21.2738 25.2072L21.2522 25.2049L21.2305 25.2031L21.2086 25.2018L21.1866 25.201L21.1644 25.2007L21.1422 25.201L21.1201 25.2018L21.0982 25.2031L21.0765 25.2049L21.055 25.2072L21.0336 25.2101L21.0125 25.2134L20.9915 25.2172L20.9707 25.2215L20.9502 25.2263L20.9298 25.2315L20.9097 25.2372L20.8898 25.2434L20.8702 25.25L20.8508 25.2571L20.8316 25.2646L20.8127 25.2726L20.7941 25.2809L20.7757 25.2897L20.7576 25.2989L20.7397 25.3085L20.7222 25.3186L20.705 25.329L20.688 25.3398L20.6714 25.351L20.655 25.3625L20.639 25.3745L20.6233 25.3868L20.608 25.3994L20.5929 25.4125L20.5783 25.4258L20.5639 25.4395L20.55 25.4536L20.5364 25.468L20.5231 25.4827L20.5103 25.4977L20.4978 25.513L20.4857 25.5286L20.474 25.5446L20.4627 25.5608L20.4519 25.5773L20.4414 25.5941L20.4313 25.6112L20.4217 25.6285L20.4125 25.6461L20.4038 25.6639L20.3955 25.682L20.3877 25.7004L20.3803 25.7189L20.3733 25.7378L20.3669 25.7568L20.3609 25.776L20.3555 25.7955L20.3505 25.8152L20.346 25.835L20.342 25.8551L20.3385 25.8754L20.3355 25.8958L20.3331 25.9164L20.3312 25.9372L20.3298 25.9581L20.329 25.9792L20.3287 26.0005L20.329 26.0218L20.3298 26.0429L20.3312 26.0638L20.3331 26.0846L20.3355 26.1052L20.3385 26.1256L20.342 26.1459L20.346 26.166L20.3505 26.1858L20.3555 26.2055L20.3609 26.225L20.3669 26.2442L20.3733 26.2633L20.3803 26.2821L20.3877 26.3006L20.3955 26.319L20.4038 26.3371L20.4125 26.3549L20.4217 26.3725L20.4313 26.3899L20.4414 26.4069L20.4519 26.4237L20.4627 26.4402L20.474 26.4564L20.4857 26.4724L20.4978 26.488L20.5103 26.5033L20.5231 26.5183L20.5364 26.533L20.55 26.5474L20.5639 26.5615L20.5783 26.5752L20.5929 26.5885L20.608 26.6016L20.6233 26.6142L20.639 26.6265L20.655 26.6385L20.6714 26.65L20.688 26.6612L20.705 26.672L20.7222 26.6825L20.7397 26.6925L20.7576 26.7021L20.7757 26.7113L20.7941 26.7201L20.8127 26.7285L20.8316 26.7364L20.8508 26.7439L20.8702 26.751L20.8898 26.7576L20.9097 26.7638L20.9298 26.7695L20.9502 26.7747L20.9707 26.7795L20.9915 26.7838L21.0125 26.7876L21.0336 26.7909L21.055 26.7938L21.0765 26.7961L21.0982 26.7979L21.1201 26.7992L21.1422 26.8L21.1644 26.8003L21.1866 26.8L21.2086 26.7992L21.2305 26.7979L21.2522 26.7961L21.2738 26.7938L21.2951 26.7909L21.3163 26.7876L21.3372 26.7838L21.358 26.7795L21.3785 26.7747L21.3989 26.7695L21.419 26.7638L21.4389 26.7576L21.4585 26.751L21.478 26.7439L21.4971 26.7364L21.516 26.7285L21.5347 26.7201L21.5531 26.7113L21.5712 26.7021L21.589 26.6925L21.6065 26.6825L21.6238 26.672L21.6407 26.6612L21.6574 26.65L21.6737 26.6385L21.6897 26.6265L21.7054 26.6142L21.7208 26.6016L21.7358 26.5885L21.7505 26.5752L21.7648 26.5615L21.7788 26.5474L21.7924 26.533L21.8056 26.5183L21.8185 26.5033L21.8309 26.488L21.843 26.4724L21.8547 26.4564L21.866 26.4402L21.8769 26.4237L21.8873 26.4069L21.8974 26.3899L21.907 26.3725L21.9162 26.3549L21.9249 26.3371L21.9332 26.319L21.9411 26.3006L21.9485 26.2821L21.9554 26.2633L21.9618 26.2442L21.9678 26.225L21.9733 26.2055L21.9783 26.1858L21.9828 26.166L21.9868 26.1459L21.9902 26.1256L21.9932 26.1052L21.9956 26.0846L21.9975 26.0638L21.9989 26.0429L21.9997 26.0218L22 26.0005Z" fill="black"/>
<path d="M15.9311 12.2667V25.3286H15.43V12.2667H15.9311Z" fill="black"/>
</svg>
