<svg width="32" height="40" viewBox="0 0 32 40" fill="none" xmlns="http://www.w3.org/2000/svg">
<path d="M21.431 28.464L21.4306 28.4339L21.4295 28.404L21.4277 28.3743L21.4251 28.3448L21.4218 28.3156L21.4177 28.2867L21.413 28.2579L21.4076 28.2295L21.4015 28.2013L21.3948 28.1735L21.3873 28.1459L21.3792 28.1186L21.3705 28.0916L21.3611 28.065L21.3511 28.0386L21.3404 28.0126L21.3292 27.987L21.3173 27.9617L21.3049 27.9368L21.2918 27.9122L21.2782 27.888L21.264 27.8642L21.2492 27.8408L21.2339 27.8178L21.2181 27.7953L21.2017 27.7731L21.1847 27.7514L21.1673 27.7301L21.1493 27.7093L21.1309 27.6889L21.1119 27.669L21.0925 27.6496L21.0726 27.6306L21.0522 27.6122L21.0314 27.5942L21.0101 27.5768L20.9884 27.5598L20.9662 27.5434L20.9437 27.5276L20.9207 27.5123L20.8973 27.4975L20.8735 27.4833L20.8493 27.4697L20.8247 27.4566L20.7998 27.4442L20.7745 27.4323L20.7489 27.4211L20.7229 27.4104L20.6965 27.4004L20.6699 27.391L20.6429 27.3823L20.6156 27.3742L20.588 27.3667L20.5602 27.36L20.532 27.3539L20.5036 27.3485L20.4749 27.3438L20.4459 27.3397L20.4167 27.3364L20.3872 27.3338L20.3575 27.332L20.3276 27.3309L20.2975 27.3305L20.2674 27.3309L20.2375 27.332L20.2078 27.3338L20.1783 27.3364L20.1491 27.3397L20.1202 27.3438L20.0915 27.3485L20.063 27.3539L20.0348 27.36L20.007 27.3667L19.9794 27.3742L19.9521 27.3823L19.9251 27.391L19.8985 27.4004L19.8721 27.4104L19.8461 27.4211L19.8205 27.4323L19.7952 27.4442L19.7703 27.4566L19.7457 27.4697L19.7215 27.4833L19.6977 27.4975L19.6743 27.5123L19.6513 27.5276L19.6288 27.5434L19.6066 27.5598L19.5849 27.5768L19.5636 27.5942L19.5428 27.6122L19.5224 27.6306L19.5025 27.6496L19.4831 27.669L19.4641 27.6889L19.4457 27.7093L19.4277 27.7301L19.4103 27.7514L19.3933 27.7731L19.3769 27.7953L19.3611 27.8178L19.3458 27.8408L19.331 27.8642L19.3168 27.888L19.3032 27.9122L19.2901 27.9368L19.2777 27.9617L19.2658 27.987L19.2546 28.0126L19.2439 28.0386L19.2339 28.065L19.2245 28.0916L19.2158 28.1186L19.2077 28.1459L19.2002 28.1735L19.1935 28.2013L19.1874 28.2295L19.182 28.2579L19.1773 28.2867L19.1732 28.3156L19.1699 28.3448L19.1674 28.3743L19.1655 28.404L19.1644 28.4339L19.164 28.464L19.1644 28.4941L19.1655 28.524L19.1674 28.5537L19.1699 28.5832L19.1732 28.6124L19.1773 28.6413L19.182 28.67L19.1874 28.6985L19.1935 28.7267L19.2002 28.7545L19.2077 28.7821L19.2158 28.8094L19.2245 28.8364L19.2339 28.863L19.2439 28.8894L19.2546 28.9154L19.2658 28.941L19.2777 28.9663L19.2901 28.9912L19.3032 29.0158L19.3168 29.04L19.331 29.0638L19.3458 29.0872L19.3611 29.1102L19.3769 29.1327L19.3933 29.1549L19.4103 29.1766L19.4277 29.1979L19.4457 29.2187L19.4641 29.2391L19.4831 29.259L19.5025 29.2784L19.5224 29.2974L19.5428 29.3158L19.5636 29.3338L19.5849 29.3512L19.6066 29.3682L19.6288 29.3846L19.6513 29.4004L19.6743 29.4157L19.6977 29.4305L19.7215 29.4447L19.7457 29.4583L19.7703 29.4714L19.7952 29.4838L19.8205 29.4957L19.8461 29.5069L19.8721 29.5176L19.8985 29.5276L19.9251 29.537L19.9521 29.5457L19.9794 29.5538L20.007 29.5612L20.0348 29.568L20.063 29.5741L20.0915 29.5795L20.1202 29.5842L20.1491 29.5883L20.1783 29.5916L20.2078 29.5941L20.2375 29.596L20.2674 29.5971L20.2975 29.5975L20.3276 29.5971L20.3575 29.596L20.3872 29.5941L20.4167 29.5916L20.4459 29.5883L20.4749 29.5842L20.5036 29.5795L20.532 29.5741L20.5602 29.568L20.588 29.5612L20.6156 29.5538L20.6429 29.5457L20.6699 29.537L20.6965 29.5276L20.7229 29.5176L20.7489 29.5069L20.7745 29.4957L20.7998 29.4838L20.8247 29.4714L20.8493 29.4583L20.8735 29.4447L20.8973 29.4305L20.9207 29.4157L20.9437 29.4004L20.9662 29.3846L20.9884 29.3682L21.0101 29.3512L21.0314 29.3338L21.0522 29.3158L21.0726 29.2974L21.0925 29.2784L21.1119 29.259L21.1309 29.2391L21.1493 29.2187L21.1673 29.1979L21.1847 29.1766L21.2017 29.1549L21.2181 29.1327L21.2339 29.1102L21.2492 29.0872L21.264 29.0638L21.2782 29.04L21.2918 29.0158L21.3049 28.9912L21.3173 28.9663L21.3292 28.941L21.3404 28.9154L21.3511 28.8894L21.3611 28.863L21.3705 28.8364L21.3792 28.8094L21.3873 28.7821L21.3948 28.7545L21.4015 28.7267L21.4076 28.6985L21.413 28.67L21.4177 28.6413L21.4218 28.6124L21.4251 28.5832L21.4277 28.5537L21.4295 28.524L21.4306 28.4941L21.431 28.464Z" fill="black"/>
<path d="M13.199 31.2978L13.2954 31.2964L13.3924 31.2922L13.49 31.2853L13.588 31.2757L13.6865 31.2635L13.7853 31.2487L13.8843 31.2314L13.9836 31.2115L14.0829 31.1892L14.1823 31.1644L14.2817 31.1373L14.3811 31.1078L14.4802 31.076L14.5791 31.042L14.6778 31.0058L14.7761 30.9674L14.8739 30.9269L14.9712 30.8843L15.068 30.8396L15.1641 30.793L15.2594 30.7444L15.354 30.694L15.4478 30.6416L15.5406 30.5874L15.6324 30.5315L15.7231 30.4738L15.8127 30.4144L15.9011 30.3534L15.9882 30.2908L16.074 30.2266L16.1583 30.1608L16.2412 30.0936L16.3225 30.025L16.4021 29.955L16.4801 29.8836L16.5563 29.8109L16.6306 29.737L16.7031 29.6618L16.7735 29.5855L16.8419 29.508L16.9082 29.4294L16.9723 29.3498L17.0341 29.2692L17.0936 29.1876L17.1507 29.1051L17.2053 29.0217L17.2574 28.9375L17.3069 28.8525L17.3537 28.7668L17.3977 28.6803L17.4389 28.5932L17.4772 28.5055L17.5126 28.4172L17.5449 28.3283L17.5741 28.239L17.6001 28.1492L17.6229 28.059L17.6424 27.9685L17.6585 27.8776L17.6712 27.7865L17.6803 27.6951L17.6858 27.6036L17.6877 27.5119L17.687 27.4571L17.6849 27.4031L17.6815 27.3497L17.6768 27.2969L17.6708 27.2449L17.6634 27.1935L17.6548 27.1428L17.6448 27.0929L17.6336 27.0436L17.6212 26.995L17.6075 26.9472L17.5925 26.9001L17.5764 26.8538L17.559 26.8081L17.5405 26.7633L17.5207 26.7191L17.4998 26.6758L17.4777 26.6332L17.4545 26.5914L17.4302 26.5504L17.4047 26.5102L17.3781 26.4708L17.3504 26.4322L17.3217 26.3943L17.2919 26.3574L17.261 26.3212L17.229 26.2859L17.1961 26.2514L17.1621 26.2178L17.1271 26.185L17.0911 26.1531L17.0541 26.1221L17.0162 26.0919L16.9773 26.0627L16.9374 26.0343L16.8966 26.0068L16.8549 25.9802L16.8123 25.9545L16.7688 25.9298L16.7245 25.906L16.6792 25.8831L16.6331 25.8612L16.5861 25.8402L16.5383 25.8201L16.4897 25.801L16.4403 25.7829L16.3901 25.7658L16.3391 25.7497L16.2873 25.7345L16.2348 25.7203L16.1815 25.7072L16.1275 25.695L16.0728 25.6839L16.0173 25.6738L15.9612 25.6647L15.9044 25.6567L15.8469 25.6497L15.7888 25.6438L15.73 25.639L15.6706 25.6352L15.6105 25.6324L15.5499 25.6308L15.4887 25.6303L15.3703 25.6316L15.2527 25.6358L15.136 25.6426L15.0201 25.652L14.9051 25.6641L14.791 25.6787L14.6779 25.6959L14.5659 25.7156L14.4548 25.7377L14.3449 25.7622L14.236 25.789L14.1283 25.8182L14.0218 25.8497L13.9165 25.8834L13.8125 25.9193L13.7097 25.9573L13.6083 25.9975L13.5082 26.0398L13.4096 26.084L13.3124 26.1303L13.2166 26.1785L13.1224 26.2287L13.0297 26.2807L12.9386 26.3345L12.8491 26.3901L12.7612 26.4474L12.6751 26.5065L12.5906 26.5672L12.5079 26.6295L12.4271 26.6934L12.348 26.7588L12.2708 26.8257L12.1955 26.8941L12.1222 26.9639L12.0508 27.0351L11.9815 27.1076L11.9142 27.1814L11.8489 27.2564L11.7858 27.3326L11.7249 27.41L11.6661 27.4885L11.6096 27.5681L11.5553 27.6488L11.5033 27.7304L11.4537 27.813L11.4064 27.8965L11.3615 27.9809L11.3191 28.0661L11.2791 28.1521L11.2417 28.2389L11.2068 28.3263L11.1745 28.4145L11.1448 28.5032L11.1178 28.5926L11.0934 28.6824L11.0718 28.7728L11.053 28.8637L11.0369 28.955L11.0237 29.0466L11.0134 29.1386L11.006 29.2309L11.0015 29.3234L11 29.4161L11.0007 29.4719L11.0029 29.527L11.0066 29.5813L11.0116 29.6349L11.0181 29.6877L11.0259 29.7398L11.0351 29.7911L11.0457 29.8417L11.0576 29.8916L11.0708 29.9406L11.0853 29.9889L11.1011 30.0364L11.1181 30.0831L11.1365 30.129L11.156 30.1741L11.1767 30.2185L11.1987 30.262L11.2218 30.3047L11.2461 30.3466L11.2715 30.3877L11.2981 30.4279L11.3257 30.4673L11.3545 30.5059L11.3843 30.5436L11.4152 30.5805L11.4471 30.6165L11.48 30.6516L11.514 30.6859L11.5489 30.7193L11.5848 30.7519L11.6217 30.7835L11.6594 30.8143L11.6981 30.8442L11.7377 30.8731L11.7782 30.9012L11.8196 30.9284L11.8617 30.9546L11.9048 30.9799L11.9486 31.0043L11.9932 31.0278L12.0386 31.0503L12.0848 31.0719L12.1317 31.0925L12.1793 31.1122L12.2277 31.1309L12.2767 31.1487L12.3264 31.1655L12.3768 31.1813L12.4278 31.1961L12.4794 31.21L12.5316 31.2228L12.5844 31.2347L12.6378 31.2455L12.6917 31.2554L12.7462 31.2642L12.8012 31.272L12.8566 31.2788L12.9126 31.2846L12.969 31.2893L13.0259 31.293L13.0832 31.2956L13.1409 31.2972L13.199 31.2978Z" fill="black"/>
<path d="M17.6898 9V27.5117H17.0102V9H17.6898Z" fill="black"/>
</svg>
