<svg width="32" height="40" viewBox="0 0 32 40" fill="none" xmlns="http://www.w3.org/2000/svg">
<path d="M13.199 31.2978L13.3749 31.2955L13.5463 31.2887L13.7132 31.2777L13.8759 31.2624L14.0342 31.243L14.1882 31.2197L14.3381 31.1926L14.4838 31.1617L14.6254 31.1273L14.763 31.0894L14.8966 31.0483L15.0262 31.0039L15.152 30.9565L15.274 30.9062L15.3922 30.853L15.5067 30.7972L15.6175 30.7388L15.7247 30.6781L15.8283 30.615L15.9285 30.5497L16.0252 30.4825L16.1185 30.4133L16.2085 30.3423L16.2952 30.2697L16.3786 30.1956L16.4589 30.12L16.536 30.0432L16.6101 29.9653L16.6812 29.8863L16.7493 29.8065L16.8145 29.7259L16.8769 29.6447L16.9364 29.5629L16.9932 29.4808L17.0473 29.3985L17.0988 29.316L17.1476 29.2336L17.194 29.1512L17.2379 29.0692L17.2793 28.9875L17.3184 28.9064L17.3552 28.8259L17.3897 28.7462L17.422 28.6674L17.4521 28.5896L17.4801 28.513L17.5061 28.4376L17.5301 28.3637L17.5522 28.2914L17.5724 28.2207L17.5907 28.1518L17.6073 28.0848L17.6221 28.0199L17.6353 27.9571L17.6469 27.8967L17.6569 27.8387L17.6654 27.7833L17.6724 27.7306L17.678 27.6807L17.6823 27.6337L17.6853 27.5899L17.6871 27.5492L17.6876 27.5119L17.687 27.4571L17.6849 27.4031L17.6814 27.3497L17.6766 27.2969L17.6704 27.2449L17.6628 27.1935L17.654 27.1428L17.6438 27.0929L17.6323 27.0436L17.6196 26.995L17.6055 26.9472L17.5902 26.9001L17.5737 26.8538L17.5559 26.8081L17.5369 26.7633L17.5167 26.7191L17.4953 26.6758L17.4727 26.6332L17.449 26.5914L17.424 26.5504L17.398 26.5102L17.3708 26.4708L17.3425 26.4322L17.3131 26.3943L17.2826 26.3574L17.251 26.3212L17.2183 26.2859L17.1846 26.2514L17.1499 26.2178L17.1141 26.185L17.0773 26.1531L17.0395 26.1221L17.0008 26.0919L16.961 26.0627L16.9203 26.0343L16.8787 26.0068L16.8361 25.9802L16.7926 25.9545L16.7481 25.9298L16.7028 25.906L16.6566 25.8831L16.6096 25.8612L16.5616 25.8402L16.5129 25.8201L16.4633 25.801L16.4128 25.7829L16.3616 25.7658L16.3096 25.7497L16.2568 25.7345L16.2033 25.7203L16.149 25.7072L16.0939 25.695L16.0381 25.6839L15.9817 25.6738L15.9245 25.6647L15.8666 25.6567L15.808 25.6497L15.7488 25.6438L15.689 25.639L15.6285 25.6352L15.5674 25.6324L15.5056 25.6308L15.4433 25.6303L15.2842 25.6322L15.1286 25.638L14.9764 25.6476L14.8276 25.6608L14.6822 25.6775L14.5401 25.6977L14.4013 25.7213L14.2658 25.7481L14.1336 25.7781L14.0046 25.8112L13.8788 25.8472L13.7562 25.8861L13.6367 25.9278L13.5203 25.9722L13.407 26.0192L13.2967 26.0686L13.1895 26.1205L13.0852 26.1746L12.9839 26.2309L12.8856 26.2894L12.7901 26.3498L12.6975 26.4122L12.6077 26.4763L12.5207 26.5422L12.4366 26.6097L12.3551 26.6787L12.2764 26.7491L12.2004 26.8209L12.127 26.8939L12.0562 26.968L11.9881 27.0432L11.9225 27.1193L11.8595 27.1962L11.7989 27.2739L11.7409 27.3523L11.6853 27.4312L11.6321 27.5105L11.5813 27.5902L11.5328 27.6702L11.4867 27.7503L11.4429 27.8305L11.4013 27.9107L11.362 27.9907L11.3249 28.0706L11.29 28.1501L11.2572 28.2292L11.2266 28.3077L11.198 28.3857L11.1715 28.4629L11.1471 28.5394L11.1246 28.615L11.1041 28.6895L11.0855 28.763L11.0689 28.8353L11.0541 28.9062L11.0412 28.9758L11.0301 29.044L11.0208 29.1105L11.0132 29.1754L11.0074 29.2385L11.0033 29.2997L11.0008 29.3589L11 29.4161L11.0007 29.473L11.0029 29.529L11.0064 29.5842L11.0113 29.6387L11.0177 29.6923L11.0253 29.7451L11.0344 29.7971L11.0447 29.8483L11.0564 29.8987L11.0693 29.9482L11.0836 29.997L11.0991 30.0449L11.1159 30.0919L11.1338 30.1382L11.1531 30.1835L11.1735 30.2281L11.1951 30.2718L11.2178 30.3146L11.2418 30.3566L11.2668 30.3977L11.293 30.438L11.3203 30.4774L11.3487 30.5159L11.3782 30.5535L11.4087 30.5903L11.4403 30.6262L11.4729 30.6611L11.5065 30.6952L11.5411 30.7284L11.5767 30.7608L11.6133 30.7922L11.6508 30.8227L11.6892 30.8522L11.7286 30.8809L11.7689 30.9087L11.81 30.9355L11.8521 30.9614L11.895 30.9864L11.9387 31.0104L11.9832 31.0335L12.0286 31.0557L12.0747 31.0769L12.1217 31.0972L12.1693 31.1165L12.2178 31.1349L12.2669 31.1523L12.3168 31.1688L12.3674 31.1842L12.4186 31.1987L12.4706 31.2123L12.5231 31.2248L12.5763 31.2364L12.6302 31.247L12.6846 31.2566L12.7396 31.2652L12.7952 31.2728L12.8513 31.2794L12.908 31.285L12.9652 31.2896L13.0229 31.2931L13.0812 31.2957L13.1398 31.2972L13.199 31.2978ZM14.9219 29.5068L14.8736 29.5389L14.8257 29.5703L14.7783 29.6011L14.7314 29.6312L14.685 29.6607L14.639 29.6896L14.5935 29.7178L14.5484 29.7454L14.5038 29.7725L14.4597 29.7989L14.416 29.8246L14.3727 29.8498L14.3299 29.8744L14.2876 29.8984L14.2457 29.9218L14.2042 29.9446L14.1632 29.9669L14.1226 29.9885L14.0824 30.0096L14.0427 30.0301L14.0034 30.0501L13.9645 30.0695L13.926 30.0883L13.8879 30.1066L13.8503 30.1243L13.8131 30.1415L13.7762 30.1582L13.7398 30.1743L13.7038 30.1899L13.6682 30.205L13.633 30.2195L13.5982 30.2336L13.5638 30.2471L13.5297 30.2601L13.4961 30.2726L13.4628 30.2846L13.43 30.2961L13.3975 30.3072L13.3653 30.3177L13.3336 30.3278L13.3022 30.3373L13.2712 30.3465L13.2406 30.3551L13.2103 30.3633L13.1804 30.371L13.1508 30.3783L13.1216 30.3851L13.0927 30.3914L13.0642 30.3974L13.036 30.4028L13.0082 30.4079L12.9808 30.4125L12.9536 30.4167L12.9268 30.4205L12.9003 30.4239L12.8742 30.4268L12.8484 30.4294L12.8229 30.4315L12.7977 30.4332L12.7729 30.4346L12.7484 30.4355L12.7242 30.4361L12.7002 30.4363L12.6777 30.4361L12.6555 30.4355L12.6336 30.4346L12.612 30.4333L12.5907 30.4317L12.5697 30.4297L12.549 30.4274L12.5286 30.4247L12.5084 30.4217L12.4886 30.4184L12.4691 30.4147L12.4498 30.4107L12.4308 30.4064L12.4121 30.4018L12.3937 30.3969L12.3755 30.3918L12.3577 30.3863L12.34 30.3805L12.3227 30.3745L12.3056 30.3682L12.2888 30.3616L12.2723 30.3547L12.256 30.3476L12.24 30.3403L12.2242 30.3327L12.2087 30.3248L12.1935 30.3167L12.1784 30.3084L12.1637 30.2999L12.1492 30.2911L12.1349 30.2822L12.1208 30.273L12.107 30.2636L12.0935 30.254L12.0802 30.2443L12.0671 30.2343L12.0542 30.2242L12.0416 30.2139L12.0292 30.2034L12.017 30.1927L12.005 30.1819L11.9933 30.171L11.9818 30.1599L11.9704 30.1486L11.9593 30.1372L11.9485 30.1257L11.9378 30.1141L11.9273 30.1023L11.917 30.0904L11.907 30.0784L11.8971 30.0663L11.8874 30.0541L11.8779 30.0418L11.8687 30.0294L11.8596 30.017L11.8507 30.0044L11.842 29.9918L11.8334 29.9791L11.8251 29.9664L11.8169 29.9536L11.8089 29.9407L11.8011 29.9278L11.7934 29.9149L11.789 29.906L11.7846 29.897L11.7802 29.888L11.7758 29.8789L11.7714 29.8698L11.767 29.8606L11.7626 29.8513L11.7583 29.842L11.754 29.8326L11.7498 29.8232L11.7456 29.8137L11.7414 29.8042L11.7373 29.7946L11.7333 29.785L11.7293 29.7754L11.7253 29.7657L11.7215 29.7559L11.7177 29.7462L11.714 29.7363L11.7103 29.7265L11.7068 29.7166L11.7033 29.7066L11.6999 29.6967L11.6967 29.6867L11.6935 29.6767L11.6904 29.6666L11.6874 29.6565L11.6846 29.6464L11.6819 29.6363L11.6793 29.6261L11.6768 29.6159L11.6744 29.6057L11.6722 29.5955L11.6701 29.5853L11.6682 29.575L11.6664 29.5647L11.6647 29.5545L11.6632 29.5442L11.6619 29.5339L11.6607 29.5235L11.6598 29.5132L11.6589 29.5029L11.6583 29.4925L11.6578 29.4822L11.6575 29.4718L11.6574 29.4615L11.6578 29.4377L11.659 29.4136L11.6609 29.3894L11.6636 29.3651L11.6671 29.3405L11.6715 29.3157L11.6767 29.2908L11.6827 29.2656L11.6896 29.2403L11.6974 29.2147L11.7061 29.1889L11.7156 29.1629L11.7261 29.1367L11.7375 29.1102L11.7499 29.0835L11.7632 29.0566L11.7775 29.0294L11.7928 29.002L11.8091 28.9743L11.8264 28.9464L11.8447 28.9182L11.864 28.8898L11.8844 28.8611L11.9059 28.8321L11.9285 28.8029L11.9521 28.7733L11.9769 28.7435L12.0027 28.7134L12.0298 28.683L12.0579 28.6523L12.0872 28.6213L12.1177 28.59L12.1494 28.5584L12.1823 28.5265L12.2164 28.4942L12.2517 28.4616L12.2883 28.4287L12.3262 28.3955L12.3653 28.3619L12.4057 28.328L12.4473 28.2937L12.4903 28.2591L12.5347 28.2242L12.5803 28.1889L12.6273 28.1532L12.6757 28.1171L12.7255 28.0807L12.7766 28.0439L12.8292 28.0067L12.8832 27.9692L12.9386 27.9312L12.9955 27.8929L13.0538 27.8541L13.1136 27.815L13.1749 27.7754L13.2377 27.7355L13.302 27.6951L13.3678 27.6543L13.4352 27.6131L13.5041 27.5714L13.5746 27.5293L13.6467 27.4868L13.7204 27.4439L13.7741 27.4129L13.8271 27.3825L13.8794 27.3528L13.9311 27.3238L13.9822 27.2954L14.0327 27.2676L14.0825 27.2404L14.1317 27.2138L14.1803 27.1879L14.2283 27.1625L14.2757 27.1378L14.3225 27.1137L14.3687 27.0901L14.4142 27.0671L14.4592 27.0448L14.5036 27.023L14.5475 27.0017L14.5907 26.9811L14.6334 26.961L14.6755 26.9414L14.717 26.9224L14.758 26.904L14.7985 26.8861L14.8383 26.8688L14.8777 26.8519L14.9164 26.8356L14.9547 26.8199L14.9924 26.8046L15.0296 26.7899L15.0663 26.7757L15.1024 26.7619L15.138 26.7487L15.1731 26.736L15.2077 26.7237L15.2418 26.712L15.2754 26.7007L15.3085 26.6899L15.3412 26.6796L15.3733 26.6697L15.4049 26.6603L15.4361 26.6513L15.4668 26.6428L15.4971 26.6348L15.5268 26.6272L15.5561 26.62L15.585 26.6133L15.6134 26.6069L15.6414 26.601L15.6689 26.5955L15.6959 26.5905L15.7226 26.5858L15.7488 26.5815L15.7746 26.5777L15.8 26.5742L15.8249 26.5711L15.8494 26.5684L15.8736 26.5661L15.8973 26.5641L15.9207 26.5625L15.9436 26.5613L15.9661 26.5604L15.9883 26.5599L16.0101 26.5597L16.0304 26.5599L16.0505 26.5603L16.0704 26.5611L16.0899 26.5622L16.1092 26.5635L16.1283 26.5652L16.147 26.5671L16.1656 26.5693L16.1838 26.5718L16.2018 26.5746L16.2196 26.5777L16.2371 26.581L16.2543 26.5846L16.2714 26.5885L16.2881 26.5926L16.3046 26.597L16.3209 26.6016L16.337 26.6065L16.3528 26.6117L16.3684 26.6171L16.3837 26.6227L16.3988 26.6286L16.4137 26.6347L16.4284 26.641L16.4428 26.6476L16.4571 26.6544L16.4711 26.6614L16.4849 26.6687L16.4985 26.6762L16.5118 26.6838L16.525 26.6917L16.5379 26.6998L16.5507 26.7081L16.5632 26.7166L16.5756 26.7253L16.5877 26.7342L16.5997 26.7433L16.6114 26.7526L16.623 26.762L16.6344 26.7717L16.6456 26.7815L16.6566 26.7915L16.6674 26.8016L16.6781 26.812L16.6885 26.8224L16.6988 26.8331L16.7089 26.8439L16.7189 26.8549L16.7286 26.866L16.7382 26.8773L16.7477 26.8887L16.757 26.9002L16.7661 26.9119L16.775 26.9238L16.7838 26.9357L16.7925 26.9478L16.801 26.96L16.8093 26.9724L16.8175 26.9848L16.8256 26.9974L16.8335 27.0101L16.8412 27.0229L16.8489 27.0358L16.8535 27.0451L16.8674 27.0729L16.8719 27.0822L16.8765 27.0915L16.8811 27.1008L16.8856 27.1101L16.89 27.1195L16.8944 27.1288L16.8988 27.1382L16.9031 27.1475L16.9074 27.1569L16.9116 27.1664L16.9157 27.1758L16.9198 27.1853L16.9238 27.1948L16.9277 27.2043L16.9315 27.2138L16.9352 27.2234L16.9388 27.233L16.9424 27.2427L16.9458 27.2523L16.9491 27.2621L16.9523 27.2718L16.9554 27.2816L16.9584 27.2914L16.9612 27.3013L16.9639 27.3112L16.9664 27.3212L16.9688 27.3312L16.9711 27.3413L16.9732 27.3514L16.9751 27.3616L16.9769 27.3718L16.9785 27.3821L16.98 27.3924L16.9813 27.4028L16.9823 27.4133L16.9832 27.4238L16.984 27.4344L16.9845 27.445L16.9848 27.4557L16.9849 27.4665L16.9845 27.4882L16.9834 27.51L16.9816 27.532L16.979 27.5541L16.9756 27.5764L16.9714 27.5989L16.9664 27.6216L16.9605 27.6445L16.9539 27.6676L16.9464 27.6909L16.938 27.7145L16.9287 27.7383L16.9185 27.7624L16.9074 27.7867L16.8954 27.8113L16.8824 27.8362L16.8684 27.8614L16.8535 27.8869L16.8376 27.9127L16.8206 27.9388L16.8027 27.9653L16.7837 27.9921L16.7636 28.0192L16.7425 28.0467L16.7203 28.0746L16.697 28.1029L16.6726 28.1316L16.647 28.1606L16.6203 28.1901L16.5925 28.22L16.5634 28.2503L16.5332 28.2811L16.5018 28.3123L16.4691 28.344L16.4352 28.3761L16.4001 28.4088L16.3637 28.4419L16.326 28.4755L16.287 28.5096L16.2467 28.5443L16.205 28.5794L16.162 28.6151L16.1177 28.6514L16.072 28.6882L16.0249 28.7256L15.9764 28.7636L15.9264 28.8021L15.8751 28.8413L15.8222 28.881L15.768 28.9214L15.7122 28.9624L15.6549 29.004L15.5961 29.0463L15.5359 29.0892L15.474 29.1329L15.4106 29.1771L15.3456 29.2221L15.2791 29.2678L15.2109 29.3141L15.1411 29.3612L15.0697 29.409L14.9966 29.4575L14.9219 29.5068Z" fill="black"/>
<path d="M21.431 28.464L21.4306 28.4339L21.4295 28.404L21.4277 28.3743L21.4251 28.3448L21.4218 28.3156L21.4177 28.2867L21.413 28.2579L21.4076 28.2295L21.4015 28.2013L21.3948 28.1735L21.3873 28.1459L21.3792 28.1186L21.3705 28.0916L21.3611 28.065L21.3511 28.0386L21.3404 28.0126L21.3292 27.987L21.3173 27.9617L21.3049 27.9368L21.2918 27.9122L21.2782 27.888L21.264 27.8642L21.2492 27.8408L21.2339 27.8178L21.2181 27.7953L21.2017 27.7731L21.1847 27.7514L21.1673 27.7301L21.1493 27.7093L21.1309 27.6889L21.1119 27.669L21.0925 27.6496L21.0726 27.6306L21.0522 27.6122L21.0314 27.5942L21.0101 27.5768L20.9884 27.5598L20.9662 27.5434L20.9437 27.5276L20.9207 27.5123L20.8973 27.4975L20.8735 27.4833L20.8493 27.4697L20.8247 27.4566L20.7998 27.4442L20.7745 27.4323L20.7489 27.4211L20.7229 27.4104L20.6965 27.4004L20.6699 27.391L20.6429 27.3823L20.6156 27.3742L20.588 27.3667L20.5602 27.36L20.532 27.3539L20.5036 27.3485L20.4748 27.3438L20.4459 27.3397L20.4167 27.3364L20.3872 27.3338L20.3575 27.332L20.3276 27.3309L20.2975 27.3305L20.2674 27.3309L20.2375 27.332L20.2078 27.3338L20.1783 27.3364L20.1491 27.3397L20.1202 27.3438L20.0914 27.3485L20.063 27.3539L20.0348 27.36L20.007 27.3667L19.9794 27.3742L19.9521 27.3823L19.9251 27.391L19.8985 27.4004L19.8721 27.4104L19.8461 27.4211L19.8205 27.4323L19.7952 27.4442L19.7703 27.4566L19.7457 27.4697L19.7215 27.4833L19.6977 27.4975L19.6743 27.5123L19.6513 27.5276L19.6288 27.5434L19.6066 27.5598L19.5849 27.5768L19.5636 27.5942L19.5428 27.6122L19.5224 27.6306L19.5025 27.6496L19.4831 27.669L19.4641 27.6889L19.4457 27.7093L19.4277 27.7301L19.4103 27.7514L19.3933 27.7731L19.3769 27.7953L19.3611 27.8178L19.3458 27.8408L19.331 27.8642L19.3168 27.888L19.3032 27.9122L19.2901 27.9368L19.2777 27.9617L19.2658 27.987L19.2546 28.0126L19.2439 28.0386L19.2339 28.065L19.2245 28.0916L19.2158 28.1186L19.2077 28.1459L19.2002 28.1735L19.1935 28.2013L19.1874 28.2295L19.182 28.2579L19.1773 28.2867L19.1732 28.3156L19.1699 28.3448L19.1674 28.3743L19.1655 28.404L19.1644 28.4339L19.164 28.464L19.1644 28.4941L19.1655 28.524L19.1674 28.5537L19.1699 28.5832L19.1732 28.6124L19.1773 28.6413L19.182 28.67L19.1874 28.6985L19.1935 28.7267L19.2002 28.7545L19.2077 28.7821L19.2158 28.8094L19.2245 28.8364L19.2339 28.863L19.2439 28.8894L19.2546 28.9154L19.2658 28.941L19.2777 28.9663L19.2901 28.9912L19.3032 29.0158L19.3168 29.04L19.331 29.0638L19.3458 29.0872L19.3611 29.1102L19.3769 29.1327L19.3933 29.1549L19.4103 29.1766L19.4277 29.1979L19.4457 29.2187L19.4641 29.2391L19.4831 29.259L19.5025 29.2784L19.5224 29.2974L19.5428 29.3158L19.5636 29.3338L19.5849 29.3512L19.6066 29.3682L19.6288 29.3846L19.6513 29.4004L19.6743 29.4157L19.6977 29.4305L19.7215 29.4447L19.7457 29.4583L19.7703 29.4714L19.7952 29.4838L19.8205 29.4957L19.8461 29.5069L19.8721 29.5176L19.8985 29.5276L19.9251 29.537L19.9521 29.5457L19.9794 29.5538L20.007 29.5612L20.0348 29.568L20.063 29.5741L20.0914 29.5795L20.1202 29.5842L20.1491 29.5883L20.1783 29.5916L20.2078 29.5941L20.2375 29.596L20.2674 29.5971L20.2975 29.5975L20.3276 29.5971L20.3575 29.596L20.3872 29.5941L20.4167 29.5916L20.4459 29.5883L20.4748 29.5842L20.5036 29.5795L20.532 29.5741L20.5602 29.568L20.588 29.5612L20.6156 29.5538L20.6429 29.5457L20.6699 29.537L20.6965 29.5276L20.7229 29.5176L20.7489 29.5069L20.7745 29.4957L20.7998 29.4838L20.8247 29.4714L20.8493 29.4583L20.8735 29.4447L20.8973 29.4305L20.9207 29.4157L20.9437 29.4004L20.9662 29.3846L20.9884 29.3682L21.0101 29.3512L21.0314 29.3338L21.0522 29.3158L21.0726 29.2974L21.0925 29.2784L21.1119 29.259L21.1309 29.2391L21.1493 29.2187L21.1673 29.1979L21.1847 29.1766L21.2017 29.1549L21.2181 29.1327L21.2339 29.1102L21.2492 29.0872L21.264 29.0638L21.2782 29.04L21.2918 29.0158L21.3049 28.9912L21.3173 28.9663L21.3292 28.941L21.3404 28.9154L21.3511 28.8894L21.3611 28.863L21.3705 28.8364L21.3792 28.8094L21.3873 28.7821L21.3948 28.7545L21.4015 28.7267L21.4076 28.6985L21.413 28.67L21.4177 28.6413L21.4218 28.6124L21.4251 28.5832L21.4277 28.5537L21.4295 28.524L21.4306 28.4941L21.431 28.464Z" fill="black"/>
<path d="M17.6899 9V27.5117H17.0102V9H17.6899Z" fill="black"/>
</svg>
