<svg width="32" height="40" viewBox="0 0 32 40" fill="none" xmlns="http://www.w3.org/2000/svg">
<path d="M20.5699 24.7807L20.5702 24.7796L20.5712 24.7762L20.5749 24.7628L20.5776 24.7529L20.5809 24.7409L20.5846 24.7269L20.5889 24.7109L20.599 24.6731L20.6047 24.6513L20.6108 24.6277L20.6173 24.6024L20.6242 24.5753L20.6314 24.5465L20.639 24.5161L20.647 24.484L20.6552 24.4504L20.6637 24.4152L20.6724 24.3786L20.6814 24.3406L20.6906 24.3011L20.7 24.2603L20.7096 24.2182L20.7193 24.1748L20.7292 24.1302L20.7392 24.0845L20.7493 24.0375L20.7594 23.9895L20.7696 23.9404L20.7798 23.8903L20.7901 23.8393L20.8003 23.7874L20.8105 23.7345L20.8206 23.6809L20.8307 23.6264L20.8407 23.5712L20.8506 23.5153L20.8603 23.4587L20.8699 23.4015L20.8793 23.3437L20.8885 23.2854L20.8975 23.2266L20.9062 23.1674L20.9147 23.1077L20.923 23.0476L20.9309 22.9873L20.9385 22.9267L20.9457 22.8659L20.9526 22.8048L20.9591 22.7436L20.9652 22.6824L20.9709 22.621L20.9762 22.5596L20.981 22.4983L20.9853 22.437L20.989 22.3758L20.9923 22.3147L20.995 22.2539L20.9972 22.1933L20.9987 22.1331L20.9997 22.0731L21 22.0135L20.9993 21.9183L20.9974 21.8234L20.9942 21.7286L20.9898 21.634L20.9841 21.5396L20.9772 21.4454L20.9691 21.3513L20.9598 21.2575L20.9493 21.1639L20.9377 21.0705L20.9249 20.9773L20.9111 20.8843L20.8961 20.7915L20.88 20.699L20.8629 20.6066L20.8447 20.5145L20.8254 20.4228L20.8052 20.3311L20.7839 20.2398L20.7616 20.1486L20.7384 20.0578L20.7142 19.9672L20.6891 19.8768L20.663 19.7868L20.636 19.697L20.6081 19.6075L20.5794 19.5182L20.5498 19.4293L20.5193 19.3406L20.4881 19.2522L20.456 19.1641L20.4231 19.0763L20.3894 18.9888L20.355 18.9017L20.3198 18.8148L20.2839 18.7283L20.2473 18.642L20.21 18.5561L20.172 18.4706L20.1333 18.3853L20.094 18.3005L20.054 18.2159L20.0135 18.1317L19.9723 18.0478L19.9305 17.9643L19.8882 17.8812L19.8453 17.7984L19.8019 17.716L19.758 17.634L19.7136 17.5523L19.6687 17.471L19.6233 17.3901L19.5774 17.3096L19.5312 17.2295L19.4845 17.1498L19.4374 17.0705L19.3899 16.9916L19.342 16.9131L19.2938 16.835L19.2452 16.7573L19.1963 16.6801L19.1471 16.6032L19.0976 16.5268L19.0576 16.4666L19.0178 16.4062L18.9782 16.3456L18.9388 16.2848L18.8997 16.2238L18.8609 16.1627L18.8223 16.1014L18.784 16.0399L18.746 15.9783L18.7083 15.9164L18.6708 15.8544L18.6337 15.7922L18.5969 15.7298L18.5604 15.6673L18.5242 15.6045L18.4883 15.5416L18.4527 15.4785L18.4175 15.4152L18.3827 15.3516L18.3482 15.288L18.314 15.2241L18.2803 15.16L18.2469 15.0957L18.2138 15.0312L18.1812 14.9666L18.149 14.9017L18.1171 14.8366L18.0857 14.7714L18.0547 14.7059L18.0241 14.6402L17.9939 14.5744L17.9642 14.5083L17.9349 14.442L17.906 14.3755L17.8776 14.3088L17.8497 14.2419L17.8222 14.1748L17.7952 14.1074L17.7687 14.0399L17.7427 13.9721L17.7172 13.9042L17.6922 13.836L17.6676 13.7676L17.6437 13.6989L17.6202 13.6301L17.5972 13.561L17.5748 13.4917L17.5529 13.4222L17.5316 13.3525L17.5109 13.2825L17.4907 13.2123L17.471 13.1419L17.452 13.0713L17.4335 13.0004L17.4156 12.9293L17.3983 12.8579L17.3816 12.7863L17.3655 12.7145L17.3501 12.6425L17.3352 12.5702L17.321 12.4977L17.3075 12.4249L17.2945 12.3519L17.2921 12.3398L17.2896 12.328L17.2869 12.3164L17.2841 12.3051L17.2811 12.294L17.278 12.2831L17.2748 12.2724L17.2714 12.262L17.2679 12.2518L17.2643 12.2419L17.2604 12.2321L17.2565 12.2226L17.2524 12.2133L17.2481 12.2043L17.2437 12.1954L17.2391 12.1868L17.2343 12.1784L17.2294 12.1702L17.2243 12.1622L17.2191 12.1545L17.2137 12.1469L17.2081 12.1396L17.2023 12.1324L17.1963 12.1255L17.1902 12.1188L17.1839 12.1123L17.1773 12.106L17.1706 12.0998L17.1637 12.0939L17.1567 12.0882L17.1494 12.0827L17.1419 12.0773L17.1342 12.0722L17.1263 12.0672L17.1182 12.0625L17.1099 12.0579L17.1014 12.0535L17.0927 12.0493L17.0837 12.0453L17.0746 12.0415L17.0652 12.0378L17.0556 12.0344L17.0458 12.0311L17.0357 12.0279L17.0254 12.025L17.0149 12.0222L17.0042 12.0196L16.9932 12.0172L16.9819 12.0149L16.9705 12.0128L16.9588 12.0109L16.9468 12.0091L16.9346 12.0075L16.9221 12.0061L16.9094 12.0048L16.8964 12.0036L16.8832 12.0027L16.8697 12.0018L16.856 12.0012L16.8419 12.0007L16.8277 12.0003L16.8131 12.0001L16.7983 12L16.7896 12.0001L16.7811 12.0005L16.7728 12.0012L16.7647 12.0021L16.7567 12.0034L16.749 12.005L16.7415 12.0069L16.7341 12.0092L16.727 12.0119L16.7201 12.0149L16.7134 12.0183L16.707 12.0222L16.7008 12.0264L16.6948 12.0311L16.6891 12.0363L16.6836 12.0419L16.6783 12.048L16.6734 12.0546L16.6686 12.0617L16.6642 12.0693L16.66 12.0775L16.6561 12.0863L16.6525 12.0956L16.6492 12.1055L16.6461 12.116L16.6434 12.1271L16.641 12.1388L16.6388 12.1512L16.637 12.1643L16.6355 12.178L16.6344 12.1924L16.6335 12.2075L16.633 12.2234L16.6328 12.2399V16.063L16.6852 16.0736L16.7382 16.0872L16.7919 16.1036L16.8462 16.1228L16.9011 16.1447L16.9566 16.1694L17.0125 16.1966L17.069 16.2263L17.1259 16.2585L17.1832 16.2931L17.2409 16.33L17.2989 16.3692L17.3572 16.4106L17.4158 16.4541L17.4746 16.4996L17.5337 16.5472L17.5929 16.5966L17.6522 16.648L17.7116 16.7011L17.7711 16.7559L17.8306 16.8124L17.8901 16.8705L17.9496 16.9301L18.009 16.9911L18.0683 17.0536L18.1274 17.1173L18.1863 17.1824L18.245 17.2485L18.3035 17.3159L18.3617 17.3842L18.4196 17.4536L18.4771 17.5238L18.5342 17.595L18.5909 17.6669L18.6471 17.7395L18.7028 17.8127L18.758 17.8866L18.8126 17.9609L18.8666 18.0357L18.92 18.1109L18.9727 18.1864L19.0247 18.2621L19.076 18.338L19.1265 18.414L19.1762 18.4901L19.225 18.5661L19.2729 18.6421L19.32 18.7179L19.366 18.7934L19.4111 18.8687L19.4552 18.9436L19.4982 19.0181L19.5401 19.0921L19.5809 19.1655L19.6206 19.2383L19.659 19.3104L19.6962 19.3818L19.7322 19.4523L19.7668 19.5219L19.8001 19.5905L19.832 19.6582L19.8626 19.7246L19.8917 19.79L19.9034 19.8162L19.915 19.8429L19.9264 19.8702L19.9377 19.898L19.9488 19.9263L19.9598 19.9552L19.9706 19.9844L19.9813 20.0143L19.9918 20.0446L20.0021 20.0755L20.0123 20.1068L20.0223 20.1385L20.0322 20.1707L20.0418 20.2034L20.0514 20.2365L20.0607 20.2701L20.0699 20.3041L20.0789 20.3384L20.0877 20.3732L20.0964 20.4084L20.1049 20.4441L20.1132 20.48L20.1213 20.5165L20.1293 20.5531L20.1371 20.5903L20.1447 20.6277L20.1521 20.6655L20.1593 20.7037L20.1664 20.7422L20.1733 20.781L20.18 20.8201L20.1865 20.8595L20.1928 20.8992L20.1989 20.9392L20.2048 20.9795L20.2106 21.02L20.2161 21.0609L20.2214 21.102L20.2266 21.1433L20.2316 21.1849L20.2363 21.2267L20.2409 21.2688L20.2453 21.311L20.2494 21.3534L20.2534 21.3961L20.2571 21.439L20.2607 21.4821L20.264 21.5252L20.2672 21.5686L20.2701 21.6122L20.2728 21.6559L20.2753 21.6997L20.2776 21.7438L20.2797 21.7879L20.2816 21.8321L20.2832 21.8764L20.2847 21.9209L20.2859 21.9655L20.2869 22.0101L20.2877 22.0548L20.2882 22.0996L20.2886 22.1445L20.2887 22.1894L20.2886 22.2237L20.2883 22.2581L20.2879 22.2924L20.2873 22.3269L20.2865 22.3614L20.2855 22.3959L20.2843 22.4305L20.283 22.465L20.2815 22.4997L20.2797 22.5343L20.2778 22.569L20.2757 22.6038L20.2735 22.6385L20.271 22.6733L20.2683 22.7081L20.2655 22.743L20.2624 22.7778L20.2592 22.8128L20.2557 22.8476L20.2521 22.8825L20.2482 22.9175L20.2442 22.9525L20.24 22.9875L20.2355 23.0225L20.2309 23.0575L20.226 23.0925L20.221 23.1275L20.2157 23.1625L20.2102 23.1975L20.2045 23.2326L20.1987 23.2676L20.1926 23.3027L20.1862 23.3376L20.1797 23.3727L20.173 23.4077L20.166 23.4428L20.1588 23.4778L20.1514 23.5128L20.1438 23.5478L20.1359 23.5828L20.1279 23.6178L20.1196 23.6527L20.1111 23.6877L20.1023 23.7226L20.0934 23.7575L20.0842 23.7924L20.0747 23.8273L20.0651 23.8621L20.0552 23.8969L20.0451 23.9317L20.0347 23.9665L20.0241 24.0012L20.0133 24.0359L20.0022 24.0706L19.9909 24.1052L19.9794 24.1398L19.9676 24.1743L19.9555 24.2089L19.9432 24.2434L19.9307 24.2778L19.918 24.3122L19.9049 24.3465L19.8917 24.3808L19.8888 24.3893L19.886 24.3976L19.8833 24.4059L19.8807 24.414L19.8781 24.4222L19.8757 24.4301L19.8733 24.4381L19.8711 24.4459L19.8689 24.4537L19.8668 24.4614L19.8648 24.469L19.8628 24.4765L19.861 24.4839L19.8592 24.4912L19.8575 24.4985L19.856 24.5057L19.8544 24.5128L19.853 24.5198L19.8517 24.5267L19.8505 24.5336L19.8493 24.5403L19.8482 24.547L19.8472 24.5537L19.8463 24.5602L19.8455 24.5666L19.8448 24.5729L19.8441 24.5792L19.8436 24.5854L19.8431 24.5915L19.8427 24.5976L19.8424 24.6035L19.8422 24.6093L19.8421 24.6151L19.842 24.6208L19.8422 24.6329L19.8425 24.6448L19.8431 24.6566L19.844 24.6682L19.8451 24.6796L19.8463 24.6909L19.8479 24.702L19.8496 24.7129L19.8515 24.7237L19.8536 24.7343L19.8559 24.7448L19.8584 24.7551L19.8611 24.7652L19.864 24.7752L19.867 24.785L19.8703 24.7946L19.8736 24.8042L19.8772 24.8135L19.8808 24.8227L19.8846 24.8317L19.8886 24.8406L19.8927 24.8493L19.8969 24.8579L19.9013 24.8663L19.9057 24.8746L19.9103 24.8827L19.915 24.8907L19.9197 24.8985L19.9246 24.9061L19.9296 24.9137L19.9346 24.9211L19.9397 24.9283L19.9449 24.9354L19.9502 24.9423L19.9555 24.9492L19.9609 24.9558L19.9663 24.9624L19.9718 24.9687L19.9773 24.9749L19.9828 24.9811L19.9884 24.987L19.994 24.9928L19.9996 24.9985L20.0052 25.0041L20.0108 25.0095L20.0165 25.0148L20.0221 25.0199L20.0277 25.0249L20.0333 25.0298L20.0389 25.0345L20.0444 25.0392L20.0499 25.0436L20.0554 25.048L20.0608 25.0523L20.0662 25.0563L20.0715 25.0603L20.0768 25.0642L20.082 25.0679L20.0871 25.0715L20.0921 25.075L20.0971 25.0783L20.1019 25.0815L20.1067 25.0846L20.1116 25.0876L20.1167 25.0903L20.1221 25.0927L20.1277 25.0949L20.1336 25.0968L20.1397 25.0986L20.146 25.1L20.1526 25.1013L20.1593 25.1022L20.1662 25.103L20.1733 25.1035L20.1806 25.1037H20.1881L20.1957 25.1034L20.2034 25.1029L20.2113 25.1022L20.2193 25.1012L20.2275 25.1L20.2357 25.0985L20.2441 25.0967L20.2525 25.0947L20.2611 25.0925L20.2697 25.09L20.2783 25.0872L20.2871 25.0843L20.2958 25.081L20.3046 25.0775L20.3135 25.0738L20.3223 25.0697L20.3312 25.0655L20.3401 25.061L20.3489 25.0563L20.3578 25.0513L20.3666 25.046L20.3754 25.0405L20.3841 25.0347L20.3928 25.0286L20.4014 25.0223L20.41 25.0158L20.4185 25.009L20.4268 25.0019L20.4351 24.9946L20.4433 24.9871L20.4513 24.9792L20.4593 24.9711L20.4671 24.9628L20.4747 24.9541L20.4822 24.9453L20.4895 24.9361L20.4967 24.9267L20.5037 24.9171L20.5104 24.9072L20.517 24.897L20.5234 24.8866L20.5296 24.8759L20.5355 24.8649L20.5412 24.8536L20.5466 24.8422L20.5518 24.8304L20.5568 24.8184L20.5614 24.8061L20.5658 24.7936L20.5699 24.7807Z" fill="black"/>
<path d="M13.6046 28L13.6749 27.999L13.7457 27.9961L13.8169 27.9912L13.8885 27.9845L13.9603 27.9758L14.0324 27.9654L14.1047 27.9532L14.1771 27.9391L14.2496 27.9234L14.3221 27.9059L14.3947 27.8868L14.4672 27.866L14.5395 27.8435L14.6117 27.8196L14.6837 27.794L14.7554 27.7669L14.8268 27.7383L14.8978 27.7082L14.9684 27.6768L15.0385 27.6439L15.1081 27.6096L15.1771 27.574L15.2455 27.537L15.3132 27.4988L15.3802 27.4593L15.4464 27.4186L15.5118 27.3767L15.5763 27.3337L15.6399 27.2895L15.7025 27.2442L15.764 27.1978L15.8245 27.1504L15.8838 27.1019L15.9419 27.0525L15.9988 27.0022L16.0544 26.9509L16.1086 26.8987L16.1615 26.8457L16.2129 26.7918L16.2628 26.7371L16.3112 26.6817L16.358 26.6255L16.4031 26.5687L16.4465 26.5111L16.4882 26.4529L16.528 26.394L16.566 26.3346L16.6021 26.2746L16.6362 26.2141L16.6684 26.1531L16.6984 26.0917L16.7264 26.0298L16.7522 25.9675L16.7758 25.9048L16.7971 25.8417L16.8161 25.7784L16.8327 25.7148L16.847 25.6509L16.8587 25.5868L16.8679 25.5225L16.8746 25.458L16.8786 25.3934L16.88 25.3287L16.8795 25.2901L16.878 25.2519L16.8755 25.2142L16.8721 25.177L16.8677 25.1403L16.8623 25.104L16.856 25.0683L16.8487 25.033L16.8406 24.9983L16.8315 24.964L16.8215 24.9303L16.8106 24.897L16.7988 24.8643L16.7861 24.8321L16.7726 24.8005L16.7582 24.7693L16.7429 24.7388L16.7268 24.7087L16.7098 24.6792L16.6921 24.6503L16.6735 24.6219L16.6541 24.5941L16.6339 24.5668L16.6129 24.5402L16.5911 24.5141L16.5686 24.4886L16.5453 24.4636L16.5212 24.4393L16.4965 24.4156L16.4709 24.3925L16.4447 24.37L16.4177 24.3481L16.39 24.3268L16.3616 24.3061L16.3325 24.2861L16.3028 24.2667L16.2723 24.248L16.2412 24.2298L16.2095 24.2124L16.1771 24.1956L16.1441 24.1794L16.1104 24.1639L16.0762 24.1491L16.0413 24.135L16.0058 24.1215L15.9698 24.1088L15.9331 24.0967L15.8959 24.0853L15.8581 24.0746L15.8198 24.0646L15.7809 24.0553L15.7415 24.0467L15.7016 24.0389L15.6611 24.0318L15.6202 24.0254L15.5787 24.0197L15.5368 24.0148L15.4944 24.0106L15.4515 24.0072L15.4081 24.0045L15.3643 24.0026L15.3201 24.0014L15.2754 24.001L15.189 24.002L15.1032 24.0049L15.018 24.0097L14.9334 24.0164L14.8495 24.0249L14.7663 24.0352L14.6838 24.0473L14.602 24.0612L14.521 24.0768L14.4407 24.0941L14.3613 24.113L14.2827 24.1336L14.205 24.1558L14.1282 24.1796L14.0522 24.205L13.9773 24.2318L13.9033 24.2602L13.8303 24.29L13.7583 24.3212L13.6873 24.3539L13.6175 24.3879L13.5487 24.4233L13.4811 24.4599L13.4146 24.4979L13.3493 24.5371L13.2852 24.5776L13.2223 24.6193L13.1607 24.6621L13.1003 24.7061L13.0413 24.7512L12.9836 24.7973L12.9273 24.8446L12.8724 24.8928L12.8189 24.942L12.7668 24.9923L12.7162 25.0434L12.6671 25.0955L12.6195 25.1484L12.5734 25.2022L12.5289 25.2568L12.4861 25.3122L12.4448 25.3684L12.4052 25.4253L12.3673 25.4829L12.331 25.5412L12.2965 25.6001L12.2638 25.6596L12.2328 25.7197L12.2037 25.7804L12.1764 25.8416L12.1509 25.9034L12.1273 25.9655L12.1057 26.0282L12.0859 26.0912L12.0682 26.1546L12.0524 26.2184L12.0387 26.2825L12.027 26.3469L12.0173 26.4116L12.0098 26.4765L12.0044 26.5416L12.0011 26.6069L12 26.6723L12.0005 26.7117L12.0021 26.7505L12.0048 26.7889L12.0085 26.8267L12.0132 26.864L12.0189 26.9007L12.0256 26.9369L12.0333 26.9726L12.042 27.0078L12.0516 27.0424L12.0622 27.0765L12.0738 27.11L12.0862 27.1429L12.0996 27.1753L12.1138 27.2072L12.129 27.2385L12.145 27.2692L12.1619 27.2993L12.1796 27.3289L12.1981 27.3578L12.2175 27.3862L12.2377 27.414L12.2587 27.4412L12.2804 27.4679L12.303 27.4939L12.3262 27.5193L12.3503 27.5441L12.375 27.5683L12.4005 27.5919L12.4267 27.6148L12.4536 27.6372L12.4812 27.6589L12.5094 27.6799L12.5383 27.7004L12.5679 27.7202L12.598 27.7394L12.6288 27.7579L12.6602 27.7757L12.6922 27.793L12.7248 27.8095L12.7579 27.8254L12.7916 27.8406L12.8258 27.8552L12.8606 27.8691L12.8958 27.8823L12.9316 27.8948L12.9679 27.9067L13.0046 27.9178L13.0418 27.9283L13.0795 27.9381L13.1176 27.9471L13.1561 27.9555L13.1951 27.9632L13.2344 27.9701L13.2742 27.9763L13.3143 27.9819L13.3548 27.9866L13.3956 27.9907L13.4368 27.994L13.4783 27.9966L13.5201 27.9985L13.5622 27.9996L13.6046 28Z" fill="black"/>
<path d="M16.8808 12.2667V25.3286H16.3849V12.2667H16.8808Z" fill="black"/>
</svg>
