<svg width="32" height="40" viewBox="0 0 32 40" fill="none" xmlns="http://www.w3.org/2000/svg">
<path d="M16.0378 16.5189L16.0373 16.4791L16.0357 16.4395L16.0332 16.4002L16.0297 16.3612L16.0252 16.3224L16.0197 16.284L16.0133 16.2459L16.0059 16.2081L15.9977 16.1706L15.9885 16.1336L15.9783 16.0968L15.9674 16.0605L15.9555 16.0245L15.9427 15.9889L15.9292 15.9538L15.9147 15.9191L15.8995 15.8848L15.8834 15.851L15.8665 15.8176L15.8488 15.7847L15.8304 15.7523L15.8112 15.7204L15.7912 15.689L15.7705 15.6582L15.7491 15.6279L15.7269 15.5981L15.7041 15.5689L15.6805 15.5403L15.6563 15.5123L15.6314 15.4849L15.6059 15.4581L15.5797 15.4319L15.5529 15.4064L15.5255 15.3815L15.4975 15.3572L15.4688 15.3337L15.4397 15.3109L15.4099 15.2887L15.3796 15.2673L15.3487 15.2466L15.3174 15.2266L15.2855 15.2074L15.2531 15.1889L15.2202 15.1713L15.1868 15.1544L15.153 15.1383L15.1187 15.1231L15.084 15.1086L15.0489 15.095L15.0133 15.0823L14.9773 15.0704L14.941 15.0594L14.9042 15.0493L14.8671 15.0401L14.8297 15.0318L14.7919 15.0245L14.7538 15.0181L14.7153 15.0126L14.6766 15.0081L14.6376 15.0046L14.5983 15.002L14.5587 15.0005L14.5189 15L14.4791 15.0005L14.4395 15.002L14.4002 15.0046L14.3612 15.0081L14.3224 15.0126L14.284 15.0181L14.2459 15.0245L14.2081 15.0318L14.1706 15.0401L14.1336 15.0493L14.0968 15.0594L14.0605 15.0704L14.0245 15.0823L13.9889 15.095L13.9538 15.1086L13.9191 15.1231L13.8848 15.1383L13.851 15.1544L13.8176 15.1713L13.7847 15.1889L13.7523 15.2074L13.7204 15.2266L13.689 15.2466L13.6582 15.2673L13.6279 15.2887L13.5981 15.3109L13.5689 15.3337L13.5403 15.3572L13.5123 15.3815L13.4849 15.4064L13.4581 15.4319L13.4319 15.4581L13.4064 15.4849L13.3815 15.5123L13.3572 15.5403L13.3337 15.5689L13.3109 15.5981L13.2887 15.6279L13.2673 15.6582L13.2466 15.689L13.2266 15.7204L13.2074 15.7523L13.1889 15.7847L13.1713 15.8176L13.1544 15.851L13.1383 15.8848L13.1231 15.9191L13.1086 15.9538L13.095 15.9889L13.0823 16.0245L13.0704 16.0605L13.0594 16.0968L13.0493 16.1336L13.0401 16.1706L13.0318 16.2081L13.0245 16.2459L13.0181 16.284L13.0126 16.3224L13.0081 16.3612L13.0046 16.4002L13.002 16.4395L13.0005 16.4791L13 16.5189L13.0002 16.5415L13.0008 16.564L13.0018 16.5864L13.0032 16.6087L13.005 16.6309L13.0072 16.653L13.0098 16.675L13.0127 16.6968L13.0161 16.7186L13.0197 16.7402L13.0238 16.7617L13.0282 16.7831L13.033 16.8043L13.0381 16.8255L13.0435 16.8465L13.0493 16.8673L13.0554 16.8881L13.0619 16.9087L13.0686 16.9292L13.0757 16.9496L13.0831 16.9698L13.0908 16.9899L13.0988 17.0098L13.1072 17.0296L13.1158 17.0493L13.1247 17.0688L13.1338 17.0882L13.1433 17.1074L13.153 17.1265L13.163 17.1454L13.1733 17.1642L13.1838 17.1828L13.1946 17.2012L13.2056 17.2196L13.2169 17.2377L13.2284 17.2557L13.2402 17.2735L13.2521 17.2912L13.2644 17.3087L13.2768 17.326L13.2894 17.3432L13.3023 17.3602L13.3153 17.377L13.3286 17.3937L13.342 17.4102L13.3557 17.4265L13.3695 17.4426L13.3835 17.4585L13.3977 17.4743L13.4121 17.4899L13.4266 17.5053L13.4413 17.5205L13.4561 17.5355L13.4711 17.5503L13.4863 17.565L13.5015 17.5794L13.517 17.5937L13.5325 17.6077L13.5482 17.6216L13.564 17.6353L13.5799 17.6487L13.5959 17.662L13.6121 17.6751L13.6218 17.6815L13.6315 17.6879L13.6412 17.6943L13.651 17.7007L13.6607 17.707L13.6704 17.7133L13.6801 17.7195L13.6899 17.7257L13.6996 17.7318L13.7093 17.7379L13.7191 17.744L13.7288 17.75L13.7386 17.756L13.7484 17.7619L13.7581 17.7678L13.7679 17.7736L13.7777 17.7793L13.7875 17.785L13.7973 17.7907L13.8071 17.7963L13.817 17.8018L13.8268 17.8073L13.8367 17.8128L13.8465 17.8181L13.8564 17.8235L13.8663 17.8287L13.8762 17.8339L13.8861 17.839L13.8961 17.8441L13.906 17.8491L13.916 17.854L13.926 17.8588L13.936 17.8636L13.946 17.8684L13.956 17.873L13.9661 17.8776L13.9762 17.8821L13.9863 17.8865L13.9964 17.8909L14.0065 17.8951L14.0167 17.8993L14.0269 17.9034L14.0371 17.9075L14.0473 17.9114L14.0576 17.9153L14.0678 17.9191L14.0781 17.9228L14.0885 17.9264L14.0988 17.93L14.1092 17.9334L14.1196 17.9368L14.1301 17.94L14.1405 17.9432L14.151 17.9463L14.1615 17.9493L14.1721 17.9522L14.1827 17.955L14.1933 17.9577L14.2039 17.9603L14.2146 17.9628L14.2253 17.9652L14.2361 17.9676L14.2469 17.9698L14.2651 17.9743L14.2742 17.9766L14.2834 17.9788L14.2926 17.9811L14.3019 17.9833L14.3112 17.9856L14.3205 17.9878L14.3299 17.99L14.3393 17.9922L14.3487 17.9944L14.3582 17.9966L14.3677 17.9988L14.3772 18.0009L14.3868 18.0031L14.3963 18.0052L14.4059 18.0073L14.4156 18.0094L14.4252 18.0114L14.4349 18.0134L14.4446 18.0154L14.4544 18.0174L14.4641 18.0194L14.4739 18.0213L14.4837 18.0232L14.4935 18.025L14.5034 18.0268L14.5133 18.0286L14.5231 18.0304L14.5331 18.0321L14.543 18.0338L14.5529 18.0354L14.5629 18.037L14.5729 18.0386L14.5829 18.0401L14.5929 18.0416L14.6029 18.043L14.6129 18.0444L14.623 18.0457L14.6331 18.047L14.6432 18.0483L14.6533 18.0494L14.6634 18.0506L14.6735 18.0516L14.6836 18.0527L14.6937 18.0536L14.7039 18.0545L14.714 18.0554L14.7242 18.0562L14.7344 18.0569L14.7445 18.0575L14.7547 18.0581L14.7649 18.0587L14.7751 18.0591L14.7853 18.0595L14.7955 18.0599L14.8057 18.0601L14.8159 18.0603L14.8261 18.0604L14.8363 18.0605L14.8514 18.0604L14.8665 18.0602L14.8816 18.06L14.8967 18.0596L14.9118 18.0592L14.9269 18.0586L14.942 18.058L14.957 18.0573L14.9721 18.0564L14.9871 18.0555L15.0022 18.0545L15.0172 18.0534L15.0322 18.0522L15.0471 18.0509L15.0621 18.0495L15.077 18.048L15.0919 18.0465L15.1067 18.0449L15.1216 18.0431L15.1364 18.0413L15.1511 18.0395L15.1659 18.0375L15.1806 18.0355L15.1952 18.0333L15.2099 18.0312L15.2244 18.0289L15.239 18.0265L15.2535 18.0241L15.2679 18.0216L15.2823 18.0191L15.2967 18.0165L15.311 18.0138L15.3252 18.011L15.3394 18.0082L15.3536 18.0053L15.3677 18.0023L15.3817 17.9993L15.3956 17.9962L15.4096 17.993L15.4234 17.9898L15.4372 17.9865L15.4509 17.9832L15.4645 17.9798L15.4781 17.9764L15.4916 17.9729L15.505 17.9693L15.5184 17.9657L15.5316 17.9621L15.5448 17.9584L15.5579 17.9546L15.571 17.9508L15.5839 17.9469L15.5968 17.943L15.6096 17.9391L15.6223 17.9351L15.6349 17.9311L15.6474 17.927L15.6598 17.9229L15.6721 17.9188L15.6843 17.9146L15.6964 17.9103L15.7085 17.9061L15.7204 17.9018L15.7354 17.8974L15.7503 17.8931L15.765 17.8888L15.7795 17.8845L15.7939 17.8801L15.8082 17.8758L15.8223 17.8714L15.8362 17.8671L15.8501 17.8627L15.8638 17.8583L15.8774 17.8539L15.8908 17.8495L15.9042 17.845L15.9174 17.8406L15.9306 17.8361L15.9436 17.8316L15.9566 17.827L15.9694 17.8225L15.9822 17.8179L15.9949 17.8132L16.0076 17.8086L16.0201 17.8039L16.0326 17.7991L16.045 17.7944L16.0574 17.7896L16.0698 17.7847L16.0821 17.7798L16.0943 17.7749L16.1065 17.7699L16.1187 17.7649L16.1309 17.7598L16.143 17.7547L16.1552 17.7495L16.1673 17.7443L16.1794 17.739L16.1915 17.7336L16.2036 17.7282L16.2158 17.7228L16.2279 17.7172L16.2401 17.7116L16.2523 17.706L16.2645 17.7003L16.2767 17.6945L16.289 17.6886L16.3014 17.6827L16.3137 17.6767L16.3262 17.6706L16.3387 17.6644L16.3512 17.6582L16.3639 17.6519L16.3766 17.6455L16.3894 17.639L16.4022 17.6324L16.4152 17.6258L16.4282 17.619L16.4414 17.6122L16.4546 17.6053L16.468 17.5982L16.4814 17.5911L16.495 17.5839L16.5087 17.5766L16.5226 17.5692L16.5365 17.5617L16.5501 17.5556L16.5635 17.5507L16.5767 17.5468L16.5895 17.5439L16.6017 17.5419L16.6132 17.5405L16.624 17.5396L16.6337 17.5392L16.6424 17.5391L16.6499 17.539L16.663 17.5397L16.6751 17.5417L16.6862 17.5449L16.6965 17.5494L16.7058 17.555L16.7143 17.5617L16.722 17.5694L16.7289 17.5782L16.7351 17.5879L16.7406 17.5986L16.7453 17.61L16.7494 17.6223L16.7529 17.6353L16.7559 17.649L16.7583 17.6634L16.7601 17.6783L16.7615 17.6938L16.7625 17.7098L16.763 17.7263L16.7632 17.7431V17.7513L16.7632 17.7598L16.7632 17.7685L16.7631 17.7774L16.763 17.7864L16.7629 17.7956L16.7627 17.805L16.7625 17.8146L16.7622 17.8243L16.7618 17.8341L16.7613 17.8441L16.7607 17.8542L16.76 17.8644L16.7592 17.8747L16.7583 17.8851L16.7573 17.8956L16.7561 17.9061L16.7548 17.9168L16.7533 17.9275L16.7516 17.9382L16.7498 17.949L16.7478 17.9598L16.7456 17.9707L16.7432 17.9816L16.7406 17.9924L16.7361 18.0118L16.7294 18.0372L16.7205 18.0686L16.7094 18.1058L16.6962 18.1486L16.681 18.1969L16.6638 18.2504L16.6447 18.3091L16.6238 18.3726L16.6011 18.4409L16.5767 18.5138L16.5507 18.5911L16.5231 18.6726L16.4941 18.7582L15.259 22.3607L15.2168 22.4868L15.1752 22.6114L15.1343 22.7344L15.0943 22.8555L15.055 22.9747L15.0167 23.0918L14.9794 23.2065L14.9431 23.3188L14.9079 23.4284L14.8739 23.5352L14.8412 23.6389L14.8098 23.7395L14.7797 23.8367L14.7511 23.9304L14.7241 24.0204L14.6986 24.1066L14.6747 24.1887L14.6526 24.2665L14.6322 24.34L14.6326 24.3528L14.6338 24.3652L14.6357 24.3772L14.6383 24.3889L14.6416 24.4002L14.6456 24.4112L14.6503 24.4218L14.6556 24.4321L14.6615 24.442L14.668 24.4516L14.6751 24.4609L14.6827 24.4699L14.6909 24.4786L14.6995 24.4869L14.7087 24.495L14.7183 24.5028L14.7283 24.5102L14.7388 24.5174L14.7496 24.5244L14.7609 24.531L14.7725 24.5373L14.7844 24.5435L14.7966 24.5493L14.8091 24.5549L14.8219 24.5603L14.8349 24.5654L14.8482 24.5702L14.8616 24.5749L14.8752 24.5793L14.889 24.5835L14.9029 24.5875L14.917 24.5913L14.9311 24.5949L14.9453 24.5982L14.9595 24.6014L14.9738 24.6044L14.9881 24.6072L15.0023 24.6099L15.0166 24.6124L15.0307 24.6147L15.0448 24.6168L15.0588 24.6188L15.0726 24.6206L15.0863 24.6224L15.0998 24.6239L15.1132 24.6253L15.1263 24.6266L15.1392 24.6278L15.1518 24.6289L15.1642 24.6299L15.1763 24.6307L15.188 24.6315L15.1994 24.6321L15.2104 24.6327L15.2211 24.6332L15.2313 24.6336L15.2411 24.6339L15.2505 24.6342L15.2593 24.6344L15.2677 24.6346L15.2756 24.6347L15.2829 24.6347L15.2897 24.6348L15.3016 24.6347L15.3136 24.6346L15.3257 24.6344L15.3379 24.6342L15.3503 24.6339L15.3626 24.6334L15.3751 24.6329L15.3876 24.6324L15.4002 24.6317L15.4129 24.631L15.4257 24.6301L15.4385 24.6292L15.4513 24.6282L15.4643 24.627L15.4772 24.6258L15.4902 24.6245L15.5033 24.6231L15.5164 24.6215L15.5295 24.6199L15.5426 24.6181L15.5558 24.6163L15.569 24.6143L15.5823 24.6122L15.5955 24.61L15.6088 24.6077L15.622 24.6052L15.6353 24.6026L15.6485 24.5999L15.6618 24.5971L15.675 24.5941L15.6883 24.591L15.7015 24.5878L15.7147 24.5844L15.7279 24.5809L15.7411 24.5772L15.7542 24.5734L15.7673 24.5695L15.7803 24.5654L15.7933 24.5611L15.8063 24.5567L15.8192 24.5522L15.8321 24.5474L15.8449 24.5426L15.8576 24.5375L15.8703 24.5323L15.8829 24.5269L15.8955 24.5214L15.9079 24.5157L15.9203 24.5098L15.9326 24.5037L15.9448 24.4975L15.9569 24.4911L15.969 24.4845L15.9809 24.4777L15.9927 24.4707L16.0044 24.4636L16.016 24.4562L16.0275 24.4487L16.0389 24.441L16.0501 24.433L16.0613 24.4249L16.0723 24.4166L16.0831 24.4081L16.088 24.4L16.096 24.3803L16.107 24.3495L16.121 24.3078L16.1378 24.2557L16.1574 24.1935L16.1795 24.1217L16.2043 24.0405L16.2314 23.9505L16.2608 23.8519L16.2924 23.7452L16.3262 23.6307L16.3619 23.5088L18.3728 16.4055L18.3771 16.3861L18.3815 16.3668L18.3859 16.3476L18.3903 16.3284L18.3948 16.3093L18.3992 16.2904L18.4037 16.2715L18.4082 16.2527L18.4127 16.234L18.4172 16.2155L18.4218 16.197L18.4263 16.1787L18.4308 16.1605L18.4354 16.1425L18.4399 16.1245L18.4444 16.1068L18.4489 16.0891L18.4534 16.0716L18.4579 16.0543L18.4624 16.0372L18.4713 16.0033L18.4844 15.9539L18.5014 15.8908L18.5096 15.8604L18.5137 15.8456L18.5541 15.6982L18.5636 15.6636L18.5694 15.642L18.5722 15.6317L18.5749 15.6216L18.5774 15.6119L18.5799 15.6025L18.5823 15.5934L18.5845 15.5847L18.5867 15.5762L18.5887 15.5682L18.5906 15.5604L18.5924 15.553L18.5941 15.546L18.5957 15.5393L18.5971 15.533L18.5983 15.527L18.5995 15.5214L18.599 15.5028L18.5975 15.4847L18.595 15.4671L18.5917 15.45L18.5875 15.4334L18.5825 15.4174L18.5768 15.4019L18.5704 15.3868L18.5634 15.3723L18.5558 15.3583L18.5476 15.3447L18.539 15.3317L18.53 15.3191L18.5206 15.307L18.5109 15.2954L18.501 15.2843L18.4908 15.2737L18.4805 15.2635L18.47 15.2539L18.4595 15.2446L18.4491 15.2359L18.4386 15.2276L18.4283 15.2198L18.4181 15.2124L18.4082 15.2055L18.3985 15.1991L18.3891 15.1931L18.3801 15.1875L18.3715 15.1824L18.3633 15.1777L18.3557 15.1734L18.3487 15.1696L18.3423 15.1663L18.3366 15.1633L18.3316 15.1608L18.3274 15.1587L18.3219 15.1587L18.3161 15.1587L18.3101 15.1589L18.3038 15.1591L18.2972 15.1594L18.2903 15.1599L18.283 15.1607L18.2755 15.1617L18.2675 15.1629L18.2593 15.1645L18.2506 15.1664L18.2415 15.1687L18.2319 15.1714L18.222 15.1746L18.2116 15.1783L18.2007 15.1825L18.1892 15.1872L18.1773 15.1925L18.1649 15.1985L18.1519 15.2051L18.1383 15.2124L18.1242 15.2205L18.1094 15.2293L18.0941 15.2389L18.0781 15.2494L18.0698 15.2568L18.0601 15.2659L18.0489 15.2768L18.0364 15.2894L18.0226 15.3036L18.0074 15.3193L17.991 15.3365L17.9733 15.3551L17.9543 15.3751L17.8907 15.4425L17.8428 15.4931L17.8173 15.5198L17.7908 15.5475L17.7634 15.5761L17.7351 15.6055L17.7058 15.6356L17.6757 15.6664L17.6448 15.6977L17.6131 15.7297L17.5807 15.7621L17.5475 15.7949L17.5136 15.8281L17.4791 15.8616L17.444 15.8954L17.4082 15.9293L17.3719 15.9633L17.3351 15.9974L17.2978 16.0315L17.26 16.0655L17.2218 16.0993L17.1832 16.133L17.1442 16.1664L17.1049 16.1995L17.0653 16.2322L17.0255 16.2645L16.9853 16.2963L16.9451 16.3275L16.9046 16.358L16.864 16.3879L16.8233 16.417L16.7825 16.4453L16.7417 16.4728L16.7009 16.4992L16.6601 16.5247L16.6193 16.5491L16.5787 16.5724L16.5382 16.5946L16.4978 16.6154L16.4576 16.6349L16.4177 16.6531L16.378 16.6699L16.3386 16.6851L16.2996 16.6988L16.2608 16.7108L16.2225 16.7212L16.1846 16.7298L16.1471 16.7366L16.1102 16.7416L16.0737 16.7446L16.0378 16.7456V16.5189Z" fill="black"/>
</svg>
