<svg width="32" height="40" viewBox="0 0 32 40" fill="none" xmlns="http://www.w3.org/2000/svg">
<path d="M15.199 31.2978L15.3749 31.2955L15.5463 31.2887L15.7132 31.2777L15.8759 31.2624L16.0342 31.243L16.1882 31.2197L16.3381 31.1926L16.4838 31.1617L16.6254 31.1273L16.763 31.0894L16.8966 31.0483L17.0262 31.0039L17.152 30.9565L17.274 30.9062L17.3922 30.853L17.5067 30.7972L17.6175 30.7388L17.7247 30.6781L17.8283 30.615L17.9285 30.5497L18.0252 30.4825L18.1185 30.4133L18.2085 30.3423L18.2951 30.2697L18.3786 30.1956L18.4589 30.12L18.536 30.0432L18.6101 29.9653L18.6812 29.8863L18.7493 29.8065L18.8145 29.7259L18.8769 29.6447L18.9364 29.5629L18.9932 29.4808L19.0473 29.3985L19.0988 29.316L19.1476 29.2336L19.194 29.1512L19.2379 29.0692L19.2793 28.9875L19.3184 28.9064L19.3552 28.8259L19.3897 28.7462L19.4219 28.6674L19.4521 28.5896L19.4801 28.513L19.5061 28.4376L19.5301 28.3637L19.5522 28.2914L19.5724 28.2207L19.5907 28.1518L19.6073 28.0848L19.6221 28.0199L19.6353 27.9571L19.6469 27.8967L19.6569 27.8387L19.6653 27.7833L19.6724 27.7306L19.678 27.6807L19.6823 27.6337L19.6853 27.5899L19.6871 27.5492L19.6877 27.5119L19.687 27.4571L19.6849 27.4031L19.6814 27.3497L19.6765 27.2969L19.6704 27.2449L19.6628 27.1935L19.654 27.1428L19.6438 27.0929L19.6323 27.0436L19.6196 26.995L19.6055 26.9472L19.5902 26.9001L19.5737 26.8538L19.5559 26.8081L19.5369 26.7633L19.5167 26.7191L19.4953 26.6758L19.4727 26.6332L19.449 26.5914L19.424 26.5504L19.398 26.5102L19.3708 26.4708L19.3425 26.4322L19.3131 26.3943L19.2826 26.3574L19.251 26.3212L19.2183 26.2859L19.1846 26.2514L19.1499 26.2178L19.1141 26.185L19.0773 26.1531L19.0395 26.1221L19.0008 26.0919L18.961 26.0627L18.9203 26.0343L18.8787 26.0068L18.8361 25.9802L18.7926 25.9545L18.7481 25.9298L18.7028 25.906L18.6566 25.8831L18.6096 25.8612L18.5616 25.8402L18.5129 25.8201L18.4633 25.801L18.4128 25.7829L18.3616 25.7658L18.3096 25.7497L18.2568 25.7345L18.2033 25.7203L18.149 25.7072L18.0939 25.695L18.0381 25.6839L17.9816 25.6738L17.9245 25.6647L17.8666 25.6567L17.808 25.6497L17.7488 25.6438L17.689 25.639L17.6285 25.6352L17.5674 25.6324L17.5056 25.6308L17.4433 25.6303L17.2842 25.6322L17.1286 25.638L16.9764 25.6476L16.8276 25.6608L16.6821 25.6775L16.5401 25.6977L16.4013 25.7213L16.2658 25.7481L16.1336 25.7781L16.0046 25.8112L15.8788 25.8472L15.7562 25.8861L15.6367 25.9278L15.5203 25.9722L15.407 26.0192L15.2968 26.0686L15.1895 26.1205L15.0852 26.1746L14.9839 26.2309L14.8856 26.2894L14.7901 26.3498L14.6975 26.4122L14.6077 26.4763L14.5207 26.5422L14.4366 26.6097L14.3551 26.6787L14.2764 26.7491L14.2004 26.8209L14.127 26.8939L14.0562 26.968L13.9881 27.0432L13.9225 27.1193L13.8595 27.1962L13.7989 27.2739L13.7409 27.3523L13.6853 27.4312L13.6321 27.5105L13.5813 27.5902L13.5328 27.6702L13.4867 27.7503L13.4429 27.8305L13.4013 27.9107L13.362 27.9907L13.3249 28.0706L13.29 28.1501L13.2572 28.2292L13.2266 28.3077L13.198 28.3857L13.1715 28.4629L13.1471 28.5394L13.1246 28.615L13.1041 28.6895L13.0855 28.763L13.0689 28.8353L13.0541 28.9062L13.0412 28.9758L13.0301 29.044L13.0208 29.1105L13.0132 29.1754L13.0074 29.2385L13.0033 29.2997L13.0008 29.3589L13 29.4161L13.0007 29.473L13.0029 29.529L13.0064 29.5842L13.0113 29.6387L13.0177 29.6923L13.0253 29.7451L13.0344 29.7971L13.0447 29.8483L13.0564 29.8987L13.0693 29.9482L13.0836 29.997L13.0991 30.0449L13.1159 30.0919L13.1338 30.1382L13.1531 30.1835L13.1735 30.2281L13.1951 30.2718L13.2178 30.3146L13.2418 30.3566L13.2668 30.3977L13.293 30.438L13.3203 30.4774L13.3487 30.5159L13.3782 30.5535L13.4087 30.5903L13.4403 30.6262L13.4729 30.6611L13.5065 30.6952L13.5411 30.7284L13.5767 30.7608L13.6133 30.7922L13.6508 30.8227L13.6892 30.8522L13.7286 30.8809L13.7689 30.9087L13.81 30.9355L13.8521 30.9614L13.895 30.9864L13.9387 31.0104L13.9832 31.0335L14.0286 31.0557L14.0747 31.0769L14.1216 31.0972L14.1693 31.1165L14.2178 31.1349L14.2669 31.1523L14.3168 31.1688L14.3674 31.1842L14.4186 31.1987L14.4705 31.2123L14.5231 31.2248L14.5763 31.2364L14.6302 31.247L14.6846 31.2566L14.7396 31.2652L14.7952 31.2728L14.8513 31.2794L14.908 31.285L14.9652 31.2896L15.0229 31.2931L15.0812 31.2957L15.1398 31.2972L15.199 31.2978ZM16.9219 29.5068L16.8736 29.5389L16.8257 29.5703L16.7783 29.6011L16.7314 29.6312L16.685 29.6607L16.639 29.6896L16.5935 29.7178L16.5484 29.7454L16.5038 29.7725L16.4597 29.7989L16.416 29.8246L16.3727 29.8498L16.3299 29.8744L16.2876 29.8984L16.2457 29.9218L16.2042 29.9446L16.1632 29.9669L16.1226 29.9885L16.0824 30.0096L16.0427 30.0301L16.0034 30.0501L15.9645 30.0695L15.926 30.0883L15.8879 30.1066L15.8503 30.1243L15.8131 30.1415L15.7762 30.1582L15.7398 30.1743L15.7038 30.1899L15.6682 30.205L15.633 30.2195L15.5982 30.2336L15.5638 30.2471L15.5297 30.2601L15.4961 30.2726L15.4628 30.2846L15.43 30.2961L15.3975 30.3072L15.3653 30.3177L15.3336 30.3278L15.3022 30.3373L15.2712 30.3465L15.2406 30.3551L15.2103 30.3633L15.1804 30.371L15.1508 30.3783L15.1216 30.3851L15.0927 30.3914L15.0642 30.3974L15.0361 30.4028L15.0082 30.4079L14.9808 30.4125L14.9536 30.4167L14.9268 30.4205L14.9003 30.4239L14.8742 30.4268L14.8484 30.4294L14.8229 30.4315L14.7977 30.4332L14.7729 30.4346L14.7484 30.4355L14.7241 30.4361L14.7003 30.4363L14.6777 30.4361L14.6555 30.4355L14.6336 30.4346L14.612 30.4333L14.5907 30.4317L14.5697 30.4297L14.549 30.4274L14.5286 30.4247L14.5085 30.4217L14.4886 30.4184L14.4691 30.4147L14.4498 30.4107L14.4308 30.4064L14.4121 30.4018L14.3937 30.3969L14.3755 30.3918L14.3577 30.3863L14.34 30.3805L14.3227 30.3745L14.3056 30.3682L14.2888 30.3616L14.2723 30.3547L14.256 30.3476L14.24 30.3403L14.2242 30.3327L14.2087 30.3248L14.1934 30.3167L14.1784 30.3084L14.1637 30.2999L14.1492 30.2911L14.1349 30.2822L14.1208 30.273L14.107 30.2636L14.0935 30.254L14.0802 30.2443L14.0671 30.2343L14.0542 30.2242L14.0416 30.2139L14.0292 30.2034L14.017 30.1927L14.005 30.1819L13.9933 30.171L13.9818 30.1599L13.9704 30.1486L13.9593 30.1372L13.9485 30.1257L13.9378 30.1141L13.9273 30.1023L13.917 30.0904L13.907 30.0784L13.8971 30.0663L13.8874 30.0541L13.8779 30.0418L13.8687 30.0294L13.8596 30.017L13.8507 30.0044L13.842 29.9918L13.8334 29.9791L13.8251 29.9664L13.8169 29.9536L13.8089 29.9407L13.8011 29.9278L13.7934 29.9149L13.789 29.906L13.7846 29.897L13.7802 29.888L13.7758 29.8789L13.7714 29.8698L13.767 29.8606L13.7626 29.8513L13.7583 29.842L13.754 29.8326L13.7498 29.8232L13.7456 29.8137L13.7414 29.8042L13.7373 29.7946L13.7333 29.785L13.7293 29.7754L13.7253 29.7657L13.7215 29.7559L13.7177 29.7462L13.714 29.7363L13.7103 29.7265L13.7068 29.7166L13.7033 29.7066L13.6999 29.6967L13.6967 29.6867L13.6935 29.6767L13.6904 29.6666L13.6874 29.6565L13.6846 29.6464L13.6819 29.6363L13.6793 29.6261L13.6768 29.6159L13.6744 29.6057L13.6722 29.5955L13.6701 29.5853L13.6682 29.575L13.6664 29.5647L13.6647 29.5545L13.6632 29.5442L13.6619 29.5339L13.6607 29.5235L13.6598 29.5132L13.6589 29.5029L13.6583 29.4925L13.6578 29.4822L13.6575 29.4718L13.6574 29.4615L13.6578 29.4377L13.659 29.4136L13.6609 29.3894L13.6636 29.3651L13.6671 29.3405L13.6715 29.3157L13.6767 29.2908L13.6827 29.2656L13.6896 29.2403L13.6974 29.2147L13.7061 29.1889L13.7156 29.1629L13.7261 29.1367L13.7375 29.1102L13.7499 29.0835L13.7632 29.0566L13.7775 29.0294L13.7928 29.002L13.8091 28.9743L13.8264 28.9464L13.8447 28.9182L13.864 28.8898L13.8844 28.8611L13.9059 28.8321L13.9285 28.8029L13.9521 28.7733L13.9769 28.7435L14.0027 28.7134L14.0297 28.683L14.0579 28.6523L14.0872 28.6213L14.1177 28.59L14.1494 28.5584L14.1823 28.5265L14.2164 28.4942L14.2517 28.4616L14.2883 28.4287L14.3262 28.3955L14.3653 28.3619L14.4057 28.328L14.4473 28.2937L14.4903 28.2591L14.5347 28.2242L14.5803 28.1889L14.6273 28.1532L14.6757 28.1171L14.7255 28.0807L14.7766 28.0439L14.8292 28.0067L14.8832 27.9692L14.9386 27.9312L14.9955 27.8929L15.0538 27.8541L15.1136 27.815L15.1749 27.7754L15.2377 27.7355L15.302 27.6951L15.3678 27.6543L15.4352 27.6131L15.5041 27.5714L15.5746 27.5293L15.6467 27.4868L15.7204 27.4439L15.774 27.4129L15.8271 27.3825L15.8794 27.3528L15.9311 27.3238L15.9822 27.2954L16.0327 27.2676L16.0825 27.2404L16.1317 27.2138L16.1803 27.1879L16.2283 27.1625L16.2757 27.1378L16.3225 27.1137L16.3687 27.0901L16.4142 27.0671L16.4592 27.0448L16.5036 27.023L16.5475 27.0017L16.5907 26.9811L16.6334 26.961L16.6755 26.9414L16.717 26.9224L16.758 26.904L16.7984 26.8861L16.8383 26.8688L16.8777 26.8519L16.9164 26.8356L16.9547 26.8199L16.9924 26.8046L17.0296 26.7899L17.0663 26.7757L17.1024 26.7619L17.138 26.7487L17.1731 26.736L17.2077 26.7237L17.2418 26.712L17.2754 26.7007L17.3085 26.6899L17.3412 26.6796L17.3733 26.6697L17.405 26.6603L17.4361 26.6513L17.4668 26.6428L17.4971 26.6348L17.5268 26.6272L17.5561 26.62L17.585 26.6133L17.6134 26.6069L17.6414 26.601L17.6689 26.5955L17.696 26.5905L17.7226 26.5858L17.7488 26.5815L17.7746 26.5777L17.8 26.5742L17.8249 26.5711L17.8495 26.5684L17.8736 26.5661L17.8973 26.5641L17.9207 26.5625L17.9436 26.5613L17.9661 26.5604L17.9883 26.5599L18.0101 26.5597L18.0304 26.5599L18.0505 26.5603L18.0704 26.5611L18.0899 26.5622L18.1092 26.5635L18.1283 26.5652L18.147 26.5671L18.1656 26.5693L18.1838 26.5718L18.2018 26.5746L18.2196 26.5777L18.2371 26.581L18.2543 26.5846L18.2713 26.5885L18.2881 26.5926L18.3046 26.597L18.3209 26.6016L18.337 26.6065L18.3528 26.6117L18.3684 26.6171L18.3837 26.6227L18.3988 26.6286L18.4137 26.6347L18.4284 26.641L18.4428 26.6476L18.4571 26.6544L18.4711 26.6614L18.4849 26.6687L18.4984 26.6762L18.5118 26.6838L18.525 26.6917L18.5379 26.6998L18.5507 26.7081L18.5632 26.7166L18.5756 26.7253L18.5877 26.7342L18.5997 26.7433L18.6114 26.7526L18.623 26.762L18.6344 26.7717L18.6456 26.7815L18.6566 26.7915L18.6674 26.8016L18.6781 26.812L18.6885 26.8224L18.6988 26.8331L18.7089 26.8439L18.7189 26.8549L18.7286 26.866L18.7382 26.8773L18.7477 26.8887L18.757 26.9002L18.7661 26.9119L18.775 26.9238L18.7838 26.9357L18.7925 26.9478L18.801 26.96L18.8093 26.9724L18.8175 26.9848L18.8256 26.9974L18.8335 27.0101L18.8412 27.0229L18.8489 27.0358L18.8535 27.0451L18.8674 27.0729L18.872 27.0822L18.8765 27.0915L18.8811 27.1008L18.8856 27.1101L18.89 27.1195L18.8944 27.1288L18.8988 27.1382L18.9031 27.1475L18.9074 27.1569L18.9116 27.1664L18.9157 27.1758L18.9198 27.1853L18.9238 27.1948L18.9277 27.2043L18.9315 27.2138L18.9352 27.2234L18.9388 27.233L18.9424 27.2427L18.9458 27.2523L18.9491 27.2621L18.9523 27.2718L18.9554 27.2816L18.9584 27.2914L18.9612 27.3013L18.9639 27.3112L18.9664 27.3212L18.9688 27.3312L18.9711 27.3413L18.9732 27.3514L18.9751 27.3616L18.9769 27.3718L18.9785 27.3821L18.98 27.3924L18.9813 27.4028L18.9823 27.4133L18.9832 27.4238L18.984 27.4344L18.9845 27.445L18.9848 27.4557L18.9849 27.4665L18.9845 27.4882L18.9834 27.51L18.9816 27.532L18.979 27.5541L18.9756 27.5764L18.9714 27.5989L18.9664 27.6216L18.9605 27.6445L18.9539 27.6676L18.9464 27.6909L18.938 27.7145L18.9287 27.7383L18.9185 27.7624L18.9074 27.7867L18.8953 27.8113L18.8824 27.8362L18.8684 27.8614L18.8535 27.8869L18.8376 27.9127L18.8206 27.9388L18.8027 27.9653L18.7837 27.9921L18.7636 28.0192L18.7425 28.0467L18.7203 28.0746L18.697 28.1029L18.6726 28.1316L18.647 28.1606L18.6203 28.1901L18.5925 28.22L18.5634 28.2503L18.5332 28.2811L18.5018 28.3123L18.4691 28.344L18.4352 28.3761L18.4001 28.4088L18.3637 28.4419L18.326 28.4755L18.287 28.5096L18.2467 28.5443L18.205 28.5794L18.162 28.6151L18.1177 28.6514L18.072 28.6882L18.0249 28.7256L17.9764 28.7636L17.9264 28.8021L17.8751 28.8413L17.8222 28.881L17.768 28.9214L17.7122 28.9624L17.6549 29.004L17.5961 29.0463L17.5359 29.0892L17.474 29.1329L17.4106 29.1771L17.3456 29.2221L17.2791 29.2678L17.2109 29.3141L17.1411 29.3612L17.0697 29.409L16.9966 29.4575L16.9219 29.5068Z" fill="black"/>
<path d="M19.6898 9V27.5117H19.0102V9H19.6898Z" fill="black"/>
</svg>
