<svg width="32" height="40" viewBox="0 0 32 40" fill="none" xmlns="http://www.w3.org/2000/svg">
<path d="M15.199 31.2978L15.2954 31.2964L15.3924 31.2922L15.49 31.2853L15.588 31.2757L15.6865 31.2635L15.7853 31.2487L15.8843 31.2314L15.9836 31.2115L16.0829 31.1892L16.1823 31.1644L16.2817 31.1373L16.3811 31.1078L16.4802 31.076L16.5791 31.042L16.6778 31.0058L16.7761 30.9674L16.8739 30.9269L16.9712 30.8843L17.068 30.8396L17.1641 30.793L17.2594 30.7444L17.354 30.694L17.4478 30.6416L17.5406 30.5874L17.6324 30.5315L17.7231 30.4738L17.8127 30.4144L17.9011 30.3534L17.9882 30.2908L18.074 30.2266L18.1583 30.1608L18.2412 30.0936L18.3225 30.025L18.4021 29.955L18.4801 29.8836L18.5563 29.8109L18.6306 29.737L18.7031 29.6618L18.7735 29.5855L18.8419 29.508L18.9082 29.4294L18.9723 29.3498L19.0341 29.2692L19.0936 29.1876L19.1507 29.1051L19.2053 29.0217L19.2574 28.9375L19.3069 28.8525L19.3537 28.7668L19.3977 28.6803L19.4389 28.5932L19.4772 28.5055L19.5126 28.4172L19.5449 28.3283L19.5741 28.239L19.6001 28.1492L19.6229 28.059L19.6424 27.9685L19.6585 27.8776L19.6712 27.7865L19.6803 27.6951L19.6858 27.6036L19.6877 27.5119L19.687 27.4571L19.6849 27.4031L19.6815 27.3497L19.6768 27.2969L19.6708 27.2449L19.6634 27.1935L19.6548 27.1428L19.6448 27.0929L19.6336 27.0436L19.6212 26.995L19.6075 26.9472L19.5925 26.9001L19.5764 26.8538L19.559 26.8081L19.5405 26.7633L19.5207 26.7191L19.4998 26.6758L19.4777 26.6332L19.4545 26.5914L19.4302 26.5504L19.4047 26.5102L19.3781 26.4708L19.3504 26.4322L19.3217 26.3943L19.2919 26.3574L19.261 26.3212L19.229 26.2859L19.1961 26.2514L19.1621 26.2178L19.1271 26.185L19.0911 26.1531L19.0541 26.1221L19.0162 26.0919L18.9773 26.0627L18.9374 26.0343L18.8966 26.0068L18.8549 25.9802L18.8123 25.9545L18.7688 25.9298L18.7245 25.906L18.6792 25.8831L18.6331 25.8612L18.5861 25.8402L18.5383 25.8201L18.4897 25.801L18.4403 25.7829L18.3901 25.7658L18.3391 25.7497L18.2873 25.7345L18.2348 25.7203L18.1815 25.7072L18.1275 25.695L18.0728 25.6839L18.0173 25.6738L17.9612 25.6647L17.9044 25.6567L17.8469 25.6497L17.7888 25.6438L17.73 25.639L17.6706 25.6352L17.6105 25.6324L17.5499 25.6308L17.4887 25.6303L17.3703 25.6316L17.2527 25.6358L17.136 25.6426L17.0201 25.652L16.9051 25.6641L16.791 25.6787L16.6779 25.6959L16.5659 25.7156L16.4548 25.7377L16.3449 25.7622L16.236 25.789L16.1283 25.8182L16.0218 25.8497L15.9165 25.8834L15.8125 25.9193L15.7097 25.9573L15.6083 25.9975L15.5082 26.0398L15.4096 26.084L15.3124 26.1303L15.2166 26.1785L15.1224 26.2287L15.0297 26.2807L14.9386 26.3345L14.8491 26.3901L14.7612 26.4474L14.6751 26.5065L14.5906 26.5672L14.5079 26.6295L14.4271 26.6934L14.348 26.7588L14.2708 26.8257L14.1955 26.8941L14.1222 26.9639L14.0508 27.0351L13.9815 27.1076L13.9142 27.1814L13.8489 27.2564L13.7858 27.3326L13.7249 27.41L13.6661 27.4885L13.6096 27.5681L13.5553 27.6488L13.5033 27.7304L13.4537 27.813L13.4064 27.8965L13.3615 27.9809L13.3191 28.0661L13.2791 28.1521L13.2417 28.2389L13.2068 28.3263L13.1745 28.4145L13.1448 28.5032L13.1178 28.5926L13.0934 28.6824L13.0718 28.7728L13.053 28.8637L13.0369 28.955L13.0237 29.0466L13.0134 29.1386L13.006 29.2309L13.0015 29.3234L13 29.4161L13.0007 29.4719L13.0029 29.527L13.0066 29.5813L13.0116 29.6349L13.0181 29.6877L13.0259 29.7398L13.0351 29.7911L13.0457 29.8417L13.0576 29.8916L13.0708 29.9406L13.0853 29.9889L13.1011 30.0364L13.1181 30.0831L13.1365 30.129L13.156 30.1741L13.1767 30.2185L13.1987 30.262L13.2218 30.3047L13.2461 30.3466L13.2715 30.3877L13.2981 30.4279L13.3257 30.4673L13.3545 30.5059L13.3843 30.5436L13.4152 30.5805L13.4471 30.6165L13.48 30.6516L13.514 30.6859L13.5489 30.7193L13.5848 30.7519L13.6217 30.7835L13.6594 30.8143L13.6981 30.8442L13.7377 30.8731L13.7782 30.9012L13.8196 30.9284L13.8617 30.9546L13.9048 30.9799L13.9486 31.0043L13.9932 31.0278L14.0386 31.0503L14.0848 31.0719L14.1317 31.0925L14.1793 31.1122L14.2277 31.1309L14.2767 31.1487L14.3264 31.1655L14.3768 31.1813L14.4278 31.1961L14.4794 31.21L14.5316 31.2228L14.5844 31.2347L14.6378 31.2455L14.6917 31.2554L14.7462 31.2642L14.8012 31.272L14.8566 31.2788L14.9126 31.2846L14.969 31.2893L15.0259 31.293L15.0832 31.2956L15.1409 31.2972L15.199 31.2978Z" fill="black"/>
<path d="M19.6894 9V27.5117H19.0098V9H19.6894Z" fill="black"/>
</svg>
