<svg width="32" height="40" viewBox="0 0 32 40" fill="none" xmlns="http://www.w3.org/2000/svg">
<path d="M14.7175 20.7914L14.7344 20.8118L14.7513 20.8321L14.7682 20.8524L14.7849 20.8727L14.8016 20.8929L14.8182 20.9131L14.8348 20.9333L14.8513 20.9535L14.8678 20.9737L14.8841 20.9938L14.9004 21.0139L14.9167 21.034L14.9329 21.0541L14.949 21.0742L14.9651 21.0942L14.9811 21.1143L14.9971 21.1343L15.013 21.1544L15.0288 21.1744L15.0446 21.1945L15.0603 21.2145L15.076 21.2345L15.0916 21.2546L15.1071 21.2746L15.1226 21.2946L15.1381 21.3147L15.1535 21.3347L15.1688 21.3548L15.1841 21.3749L15.1994 21.395L15.2145 21.4151L15.2297 21.4352L15.2448 21.4553L15.2598 21.4755L15.2748 21.4957L15.2897 21.5158L15.3046 21.5361L15.3195 21.5563L15.3343 21.5766L15.349 21.5969L15.3637 21.6172L15.3784 21.6375L15.393 21.6579L15.4075 21.6784L15.4221 21.6988L15.4365 21.7193L15.451 21.7398L15.4654 21.7604L15.4797 21.781L15.494 21.8017L15.5083 21.8224L15.5225 21.8431L15.5367 21.8639L15.5509 21.8848L15.565 21.9057L15.5791 21.9266L15.5931 21.9476L15.6071 21.9687L15.6211 21.9898L15.635 22.011L15.6489 22.0322L15.6628 22.0535L15.6766 22.0749L15.6902 22.101L15.7003 22.1204L15.7109 22.1411L15.7163 22.1517L15.7218 22.1626L15.7274 22.1736L15.733 22.1847L15.7385 22.1959L15.7441 22.2072L15.7495 22.2184L15.7549 22.2296L15.7602 22.2406L15.7654 22.2516L15.7704 22.2624L15.7752 22.273L15.7798 22.2833L15.7842 22.2934L15.7883 22.3031L15.7922 22.3125L15.7958 22.3215L15.799 22.3301L15.8019 22.3381L15.8044 22.3457L15.8065 22.3527L15.8082 22.3591L15.8094 22.3649L15.8102 22.37L15.8104 22.3743L15.8104 22.3833L15.8101 22.3937L15.8092 22.4052L15.8076 22.4171L15.805 22.4291L15.801 22.4405L15.7955 22.4509L15.7881 22.4599L15.7825 22.4699L15.7766 22.4792L15.7702 22.488L15.7634 22.4962L15.7562 22.5039L15.7486 22.511L15.7406 22.5176L15.7323 22.5237L15.7236 22.5293L15.7146 22.5345L15.7052 22.5392L15.6955 22.5435L15.6855 22.5473L15.6751 22.5508L15.6644 22.5538L15.6535 22.5565L15.6422 22.5589L15.6307 22.5609L15.6189 22.5626L15.6068 22.5639L15.5945 22.565L15.5819 22.5658L15.5691 22.5664L15.556 22.5667L15.5428 22.5668L15.5351 22.5667L15.5271 22.5665L15.5187 22.566L15.5099 22.5653L15.5009 22.5645L15.4915 22.5636L15.4819 22.5625L15.472 22.5612L15.4619 22.5598L15.4516 22.5583L15.4411 22.5567L15.4304 22.555L15.4196 22.5531L15.4087 22.5512L15.3977 22.5492L15.3866 22.5471L15.3755 22.545L15.3643 22.5428L15.3532 22.5405L15.342 22.5382L15.331 22.5359L15.3199 22.5336L15.309 22.5312L15.2982 22.5288L15.2876 22.5264L15.2771 22.5241L15.2667 22.5217L15.2566 22.5194L15.2467 22.5171L15.2277 22.5127L15.2015 22.5064L15.1859 22.5027L15.1765 22.5025L15.1671 22.5021L15.1576 22.5014L15.1479 22.5005L15.1382 22.4993L15.1285 22.4979L15.1186 22.4963L15.1087 22.4946L15.0987 22.4926L15.0887 22.4906L15.0787 22.4884L15.0686 22.486L15.0584 22.4836L15.0483 22.4811L15.0381 22.4785L15.0279 22.4759L15.0177 22.4733L14.9972 22.4679L14.987 22.4653L14.9768 22.4626L14.9666 22.4601L14.9564 22.4576L14.9463 22.4551L14.9362 22.4528L14.9261 22.4506L14.9161 22.4485L14.9062 22.4466L14.8963 22.4448L14.8864 22.4433L14.8766 22.4419L14.8669 22.4407L14.8573 22.4398L14.8478 22.4391L14.8383 22.4386L14.829 22.4385L14.7834 22.4392L14.7379 22.4413L14.6927 22.4447L14.6476 22.4494L14.6027 22.4555L14.5581 22.4629L14.5137 22.4716L14.4695 22.4815L14.4257 22.4928L14.3821 22.5052L14.3389 22.5189L14.296 22.5337L14.2535 22.5498L14.2114 22.567L14.1696 22.5854L14.1283 22.6049L14.0874 22.6256L14.047 22.6473L14.007 22.6701L13.9675 22.694L13.9285 22.719L13.8901 22.7449L13.8522 22.7719L13.8149 22.7999L13.7781 22.8289L13.742 22.8589L13.7065 22.8898L13.6716 22.9216L13.6374 22.9543L13.6038 22.988L13.571 23.0225L13.5389 23.0579L13.5075 23.0942L13.4768 23.1312L13.447 23.1691L13.4179 23.2078L13.3896 23.2473L13.3622 23.2875L13.3356 23.3285L13.3098 23.3702L13.285 23.4126L13.261 23.4557L13.238 23.4995L13.2159 23.544L13.1948 23.5891L13.1747 23.6348L13.1555 23.6812L13.1374 23.7281L13.1203 23.7756L13.1043 23.8237L13.0893 23.8723L13.0754 23.9215L13.0626 23.9711L13.051 24.0213L13.0405 24.0719L13.0311 24.123L13.023 24.1745L13.016 24.2264L13.0103 24.2788L13.0058 24.3316L13.0026 24.3847L13.0007 24.4382L13 24.492L13.0007 24.5429L13.0029 24.5938L13.0065 24.6446L13.0115 24.6955L13.018 24.7463L13.0258 24.7971L13.0351 24.8479L13.0458 24.8987L13.0579 24.9495L13.0713 25.0003L13.0862 25.0512L13.1024 25.102L13.12 25.1528L13.1389 25.2037L13.1592 25.2546L13.1808 25.3055L13.2038 25.3565L13.2281 25.4075L13.2538 25.4585L13.2807 25.5096L13.309 25.5607L13.3385 25.6119L13.3694 25.6631L13.4015 25.7144L13.435 25.7658L13.4697 25.8172L13.5057 25.8688L13.5429 25.9203L13.5814 25.972L13.6211 26.0238L13.6621 26.0756L13.7043 26.1276L13.7478 26.1796L13.7925 26.2318L13.8383 26.284L13.8854 26.3364L13.9337 26.3889L13.9832 26.4415L14.0339 26.4942L14.0857 26.5471L14.1387 26.6001L14.1929 26.6532L14.2482 26.7065L14.3047 26.7599L14.3623 26.8134L14.4211 26.8671L14.481 26.921L14.542 26.975L14.6042 27.0292L14.6674 27.0836L14.7318 27.1381L14.7972 27.1928L14.8637 27.2477L14.9314 27.3028L15 27.3581L15.0698 27.4135L15.1406 27.4692L15.2125 27.525L15.2854 27.5811L15.3593 27.6374L15.4343 27.6939L15.5103 27.7506L15.5874 27.8075L15.5963 27.8138L15.6053 27.8201L15.6144 27.8263L15.6236 27.8323L15.6328 27.8382L15.6421 27.8441L15.6515 27.8498L15.6609 27.8554L15.6704 27.8609L15.6799 27.8663L15.6894 27.8716L15.6991 27.8768L15.7087 27.8819L15.7184 27.8868L15.7282 27.8917L15.7379 27.8965L15.7477 27.9011L15.7576 27.9057L15.7675 27.9101L15.7774 27.9144L15.7873 27.9187L15.7972 27.9228L15.8072 27.9268L15.8172 27.9307L15.8272 27.9345L15.8372 27.9382L15.8472 27.9418L15.8573 27.9452L15.8673 27.9486L15.8773 27.9519L15.8874 27.955L15.8974 27.9581L15.9074 27.961L15.9174 27.9639L15.9275 27.9666L15.9375 27.9692L15.9474 27.9717L15.9574 27.9741L15.9674 27.9764L15.9773 27.9786L15.9872 27.9807L15.9971 27.9827L16.0069 27.9845L16.0167 27.9863L16.0265 27.988L16.0362 27.9895L16.0459 27.991L16.0556 27.9923L16.0652 27.9935L16.0748 27.9946L16.0843 27.9957L16.0937 27.9966L16.1032 27.9974L16.1125 27.9981L16.1218 27.9987L16.131 27.9991L16.1402 27.9995L16.1493 27.9998L16.1583 27.9999L16.1673 28L16.1811 27.9999L16.1948 27.9996L16.2085 27.999L16.2222 27.9982L16.2357 27.9972L16.2492 27.996L16.2626 27.9946L16.2758 27.9929L16.2888 27.991L16.3016 27.9889L16.3143 27.9866L16.3267 27.984L16.3389 27.9812L16.3508 27.9782L16.3624 27.975L16.3738 27.9716L16.3848 27.9679L16.3954 27.964L16.4057 27.9599L16.4156 27.9556L16.4251 27.951L16.4341 27.9463L16.4427 27.9413L16.4509 27.9361L16.4585 27.9306L16.4656 27.9249L16.4722 27.9191L16.4783 27.913L16.4838 27.9066L16.4886 27.9001L16.4929 27.8933L16.4966 27.8863L16.4995 27.8791L16.5019 27.8717L16.5063 27.8591L16.5107 27.8471L16.5151 27.8355L16.5233 27.8138L16.5272 27.8035L16.5308 27.7936L16.5342 27.784L16.5372 27.7746L16.5399 27.7655L16.5421 27.7566L16.544 27.7478L16.5453 27.7391L16.5462 27.7305L16.5465 27.7219L16.5463 27.7114L16.5458 27.701L16.5449 27.6906L16.5437 27.6803L16.5422 27.67L16.5403 27.6597L16.5382 27.6495L16.5357 27.6393L16.5329 27.6291L16.5298 27.619L16.5265 27.609L16.5228 27.599L16.5189 27.589L16.5147 27.5791L16.5103 27.5692L16.5056 27.5593L16.5006 27.5495L16.4954 27.5398L16.4899 27.5301L16.4843 27.5204L16.4784 27.5108L16.4722 27.5012L16.4659 27.4916L16.4594 27.4821L16.4526 27.4727L16.4457 27.4632L16.4386 27.4539L16.4313 27.4445L16.4238 27.4352L16.4162 27.426L16.4084 27.4168L16.4004 27.4076L16.3923 27.3985L16.384 27.3894L16.3757 27.3804L16.3672 27.3714L16.3585 27.3624L16.3498 27.3535L16.3409 27.3447L16.332 27.3358L16.3229 27.3271L16.3138 27.3183L16.3045 27.3096L16.2952 27.301L16.2858 27.2924L16.2764 27.2838L16.2669 27.2753L16.2574 27.2668L16.2478 27.2583L16.2381 27.2499L16.2285 27.2416L16.2188 27.2332L16.2091 27.225L16.1993 27.2167L16.1896 27.2086L16.1758 27.2081L16.1621 27.2068L16.1485 27.2047L16.1349 27.2018L16.1215 27.1981L16.1081 27.1937L16.0948 27.1885L16.0816 27.1826L16.0685 27.176L16.0555 27.1687L16.0426 27.1609L16.0298 27.1523L16.0172 27.1432L16.0046 27.1336L15.9922 27.1233L15.9799 27.1126L15.9677 27.1013L15.9556 27.0896L15.9437 27.0774L15.9319 27.0647L15.9203 27.0517L15.9088 27.0383L15.8974 27.0245L15.8863 27.0103L15.8752 26.9959L15.8644 26.9811L15.8537 26.9661L15.8431 26.9508L15.8328 26.9353L15.8226 26.9196L15.8126 26.9037L15.8027 26.8877L15.7931 26.8715L15.7836 26.8552L15.7744 26.8388L15.7653 26.8224L15.7565 26.8059L15.7479 26.7894L15.7394 26.7729L15.7312 26.7565L15.7232 26.7401L15.7154 26.7237L15.7078 26.7075L15.7005 26.6913L15.6934 26.6754L15.6866 26.6595L15.6799 26.6439L15.6736 26.6285L15.6674 26.6133L15.6616 26.5984L15.6559 26.5838L15.6506 26.5694L15.6455 26.5554L15.6406 26.5418L15.6361 26.5285L15.6318 26.5156L15.6277 26.5032L15.624 26.4911L15.6205 26.4796L15.6174 26.4685L15.6145 26.458L15.6119 26.448L15.6097 26.4385L15.6064 26.4299L15.6031 26.4213L15.6 26.4127L15.5969 26.404L15.5939 26.3953L15.5909 26.3865L15.588 26.3778L15.5852 26.369L15.5825 26.3601L15.5798 26.3513L15.5772 26.3424L15.5747 26.3334L15.5722 26.3245L15.5698 26.3155L15.5675 26.3065L15.5652 26.2974L15.563 26.2884L15.5609 26.2793L15.5588 26.2702L15.5568 26.261L15.5548 26.2519L15.553 26.2427L15.5511 26.2335L15.5494 26.2243L15.5476 26.215L15.546 26.2057L15.5444 26.1964L15.5429 26.1871L15.5414 26.1778L15.54 26.1684L15.5386 26.1591L15.5373 26.1497L15.536 26.1403L15.5348 26.1309L15.5337 26.1214L15.5326 26.112L15.5315 26.1025L15.5305 26.0931L15.5296 26.0836L15.5287 26.0741L15.5279 26.0646L15.5271 26.055L15.5263 26.0455L15.5256 26.036L15.525 26.0264L15.5244 26.0168L15.5238 26.0073L15.5233 25.9977L15.5228 25.9881L15.5224 25.9785L15.522 25.9689L15.5217 25.9593L15.5214 25.9497L15.5211 25.9401L15.5209 25.9305L15.5208 25.9208L15.5206 25.9112L15.5205 25.9016L15.5205 25.892L15.5204 25.8824L15.5207 25.8507L15.5215 25.819L15.5227 25.7871L15.5245 25.7552L15.5268 25.7232L15.5296 25.6912L15.5329 25.6591L15.5367 25.627L15.5411 25.595L15.5459 25.5629L15.5513 25.5309L15.5572 25.499L15.5636 25.4671L15.5705 25.4354L15.5779 25.4037L15.5859 25.3721L15.5944 25.3407L15.6034 25.3095L15.613 25.2784L15.623 25.2475L15.6336 25.2169L15.6447 25.1864L15.6564 25.1562L15.6686 25.1263L15.6813 25.0966L15.6945 25.0673L15.7083 25.0382L15.7226 25.0095L15.7375 24.9811L15.7529 24.9531L15.7688 24.9254L15.7853 24.8982L15.8023 24.8714L15.8198 24.845L15.8379 24.819L15.8565 24.7935L15.8757 24.7685L15.8954 24.744L15.9157 24.72L15.9365 24.6965L15.9578 24.6736L15.9798 24.6512L16.0022 24.6294L16.0252 24.6083L16.0488 24.5877L16.0729 24.5678L16.0976 24.5485L16.1228 24.5299L16.1486 24.512L16.175 24.4947L16.2019 24.4782L16.2293 24.4624L16.2574 24.4474L16.286 24.4332L16.3151 24.4197L16.3448 24.407L16.3751 24.3952L16.406 24.3842L16.4374 24.374L16.4694 24.3647L16.5019 24.3563L16.5351 24.3488L16.5688 24.3422L16.5781 24.3405L16.5874 24.3389L16.5967 24.3373L16.606 24.3359L16.6153 24.3345L16.6246 24.3332L16.634 24.332L16.6434 24.3309L16.6528 24.3299L16.6622 24.3289L16.6716 24.328L16.6811 24.3272L16.6906 24.3264L16.7002 24.3257L16.7098 24.3251L16.7194 24.3245L16.7291 24.324L16.7388 24.3235L16.7486 24.3231L16.7585 24.3227L16.7684 24.3224L16.7783 24.3221L16.7883 24.3219L16.7984 24.3216L16.8086 24.3215L16.8188 24.3213L16.8291 24.3212L16.8395 24.3211L16.8605 24.3209L16.8818 24.3209L16.9257 24.3209L16.9565 24.321L16.9875 24.3216L17.0186 24.3224L17.0498 24.3236L17.0811 24.3251L17.1125 24.327L17.1439 24.3291L17.1754 24.3315L17.207 24.3343L17.2385 24.3373L17.2701 24.3406L17.3017 24.3441L17.3334 24.3479L17.365 24.352L17.3965 24.3562L17.4281 24.3608L17.4596 24.3655L17.491 24.3705L17.5224 24.3757L17.5537 24.381L17.5849 24.3866L17.616 24.3924L17.647 24.3983L17.6778 24.4044L17.7086 24.4106L17.7392 24.417L17.7696 24.4236L17.7998 24.4302L17.8299 24.437L17.8598 24.444L17.8895 24.451L17.919 24.4581L17.9482 24.4653L17.9772 24.4727L18.006 24.48L18.0345 24.4875L18.0628 24.495L18.0907 24.5026L18.1184 24.5102L18.1457 24.5178L18.1728 24.5255L18.1995 24.5332L18.2259 24.5409L18.2519 24.5486L18.2776 24.5563L18.3029 24.564L18.3278 24.5716L18.3524 24.5792L18.3765 24.5868L18.4002 24.5944L18.4235 24.6019L18.4463 24.6093L18.4687 24.6167L18.4906 24.6239L18.5121 24.6311L18.5331 24.6382L18.5535 24.6452L18.5735 24.6521L18.593 24.6588L18.6119 24.6655L18.6303 24.672L18.6482 24.6783L18.6654 24.6845L18.6766 24.6861L18.6877 24.69L18.71 24.7003L18.7212 24.7043L18.7323 24.7059L18.7454 24.7099L18.758 24.7133L18.77 24.7163L18.7815 24.7188L18.7926 24.7209L18.8034 24.7226L18.8137 24.724L18.8238 24.7251L18.8335 24.7259L18.843 24.7265L18.8524 24.7269L18.8615 24.7271L18.8706 24.7272L18.8796 24.7273L18.8885 24.7273L18.9079 24.7266L18.9258 24.7245L18.9421 24.7209L18.9566 24.7156L18.9693 24.7086L18.98 24.6995L18.9886 24.6885L18.9948 24.6753L18.9987 24.6597L19 24.6417L18.9996 24.6292L18.9983 24.6159L18.9962 24.6021L18.9932 24.5876L18.9895 24.5726L18.985 24.5569L18.9798 24.5407L18.9738 24.524L18.9672 24.5068L18.9598 24.4891L18.9518 24.471L18.9432 24.4523L18.934 24.4333L18.9241 24.4139L18.9137 24.3941L18.9028 24.3739L18.8913 24.3534L18.8793 24.3326L18.8668 24.3115L18.8539 24.2902L18.8406 24.2686L18.8268 24.2467L18.8126 24.2247L18.7981 24.2025L18.7832 24.1801L18.768 24.1575L18.7524 24.1349L18.7366 24.1121L18.7206 24.0893L18.7042 24.0665L18.6877 24.0435L18.671 24.0206L18.6541 23.9977L18.637 23.9748L18.6198 23.952L18.6025 23.9293L18.5852 23.9066L18.5677 23.8841L18.5502 23.8617L18.5327 23.8395L18.5152 23.8174L18.4977 23.7956L18.4803 23.774L18.4629 23.7526L18.4456 23.7315L18.4285 23.7107L18.4114 23.6902L18.3945 23.6701L18.3778 23.6503L18.3613 23.6308L18.345 23.6118L18.329 23.5932L18.3132 23.5751L18.2977 23.5573L18.2825 23.5401L18.2676 23.5234L18.2531 23.5072L18.239 23.4916L18.2253 23.4766L18.212 23.4621L18.1991 23.4482L18.1867 23.435L18.1747 23.4225L17.9761 23.1915L17.9373 23.146L17.8987 23.1008L17.8605 23.0557L17.8226 23.0108L17.7851 22.9661L17.7479 22.9215L17.7111 22.877L17.6747 22.8327L17.6387 22.7884L17.6031 22.7443L17.5679 22.7002L17.5332 22.6562L17.4989 22.6122L17.4651 22.5683L17.4318 22.5244L17.399 22.4805L17.3667 22.4366L17.3349 22.3926L17.3036 22.3486L17.2729 22.3046L17.2427 22.2605L17.2131 22.2163L17.1841 22.172L17.1557 22.1276L17.1279 22.0831L17.1007 22.0384L17.0742 21.9936L17.0483 21.9486L17.023 21.9034L16.9984 21.8581L16.9746 21.8125L16.9514 21.7667L16.9289 21.7207L16.9071 21.6743L16.8861 21.6278L16.8658 21.5809L16.8463 21.5338L16.8276 21.4863L16.8097 21.4385L16.7925 21.3904L16.7762 21.3419L16.7607 21.293L16.7461 21.2438L16.7322 21.1941L16.7193 21.1441L16.7072 21.0936L16.6961 21.0427L16.6858 20.9913L16.6765 20.9394L16.668 20.8871L16.6606 20.8343L16.654 20.7809L16.6485 20.727L16.6439 20.6726L16.6403 20.6176L16.6378 20.5621L16.6362 20.5059L16.6357 20.4492L16.6358 20.4403L16.636 20.4312L16.6364 20.422L16.6368 20.4127L16.6374 20.4033L16.6382 20.3937L16.639 20.3841L16.6398 20.3744L16.6408 20.3646L16.6418 20.3548L16.6429 20.3449L16.644 20.335L16.6451 20.3251L16.6486 20.2952L16.6497 20.2853L16.6508 20.2754L16.6519 20.2655L16.6529 20.2557L16.6538 20.2459L16.6547 20.2362L16.6555 20.2266L16.6562 20.2171L16.6568 20.2076L16.6573 20.1983L16.6577 20.1891L16.6579 20.18L16.658 20.1711L16.6628 20.1122L16.6686 20.0536L16.6755 19.9953L16.6834 19.9374L16.6923 19.8797L16.7021 19.8224L16.7129 19.7654L16.7246 19.7087L16.7372 19.6523L16.7507 19.5963L16.765 19.5405L16.7802 19.485L16.7962 19.4299L16.8129 19.375L16.8305 19.3205L16.8487 19.2662L16.8677 19.2123L16.8874 19.1586L16.9078 19.1052L16.9288 19.0522L16.9504 18.9994L16.9727 18.9469L16.9955 18.8947L17.0189 18.8428L17.0429 18.7912L17.0673 18.7399L17.0923 18.6888L17.1177 18.6381L17.1435 18.5876L17.1698 18.5374L17.1965 18.4874L17.2236 18.4378L17.2511 18.3884L17.2788 18.3393L17.3069 18.2904L17.3353 18.2419L17.364 18.1936L17.3929 18.1455L17.422 18.0978L17.4514 18.0503L17.4809 18.003L17.5105 17.956L17.5403 17.9093L17.5702 17.8628L17.6003 17.8166L17.6303 17.7707L17.6605 17.725L17.6906 17.6795L17.7207 17.6343L17.7509 17.5893L17.7809 17.5446L17.8109 17.5002L18.0172 17.1956L18.0459 17.1531L18.0742 17.1107L18.1023 17.0686L18.1301 17.0267L18.1359 17.0173L18.1415 17.0079L18.1468 16.9984L18.1519 16.989L18.1568 16.9796L18.1615 16.9701L18.166 16.9607L18.1702 16.9512L18.1743 16.9418L18.1781 16.9324L18.1818 16.9229L18.1853 16.9135L18.1885 16.9041L18.1916 16.8946L18.1945 16.8852L18.1973 16.8758L18.1998 16.8663L18.2022 16.8569L18.2044 16.8474L18.2064 16.838L18.2083 16.8286L18.21 16.8191L18.2116 16.8097L18.213 16.8002L18.2142 16.7908L18.2153 16.7814L18.2163 16.7719L18.2171 16.7625L18.2178 16.7531L18.2184 16.7436L18.2188 16.7342L18.2191 16.7248L18.2193 16.7153L18.2193 16.7059L18.2192 16.6913L18.2188 16.6769L18.2181 16.6625L18.2173 16.6482L18.2161 16.634L18.2148 16.62L18.2133 16.6061L18.2116 16.5924L18.2097 16.5788L18.2076 16.5654L18.2054 16.5521L18.203 16.5391L18.2006 16.5263L18.198 16.5137L18.1953 16.5014L18.1925 16.4892L18.1897 16.4774L18.1868 16.4658L18.1838 16.4545L18.1808 16.4435L18.1778 16.4328L18.1747 16.4225L18.1717 16.4124L18.1687 16.4027L18.1656 16.3934L18.1627 16.3844L18.1598 16.3758L18.1569 16.3676L18.1541 16.3598L18.1515 16.3524L18.1489 16.3455L18.1464 16.339L18.1441 16.3329L18.1418 16.3273L18.1398 16.3222L18.1379 16.3175L18.1362 16.3134L18.1346 16.3098L18.1333 16.3067L18.1322 16.3041L18.1313 16.3021L18.1307 16.3006L18.1302 16.2998L18.1276 16.2966L15.0672 12.8388L15.0031 12.7677L14.9415 12.6996L14.8825 12.6345L14.8263 12.5727L14.7731 12.5143L14.7229 12.4595L14.6759 12.4085L14.6323 12.3614L14.5922 12.3184L14.5558 12.2797L14.5232 12.2454L14.4946 12.2158L14.4701 12.191L14.4498 12.1711L14.4416 12.1634L14.4332 12.1558L14.4246 12.1483L14.416 12.1411L14.4071 12.1339L14.3982 12.127L14.3891 12.1202L14.3799 12.1136L14.3706 12.1071L14.3612 12.1008L14.3517 12.0947L14.3421 12.0887L14.3324 12.083L14.3226 12.0774L14.3128 12.072L14.3028 12.0667L14.2929 12.0617L14.2828 12.0568L14.2727 12.0521L14.2625 12.0476L14.2523 12.0433L14.2421 12.0392L14.2318 12.0353L14.2215 12.0316L14.2112 12.028L14.2009 12.0247L14.1906 12.0216L14.1802 12.0187L14.1699 12.016L14.1596 12.0134L14.1493 12.0111L14.139 12.009L14.1287 12.0072L14.1185 12.0055L14.1083 12.0041L14.0982 12.0028L14.0881 12.0018L14.078 12.001L14.0681 12.0005L14.0582 12.0001L14.0483 12L14.0344 12.0002L14.0205 12.0008L14.0066 12.0018L13.9927 12.0031L13.9789 12.0049L13.9651 12.007L13.9514 12.0095L13.9378 12.0125L13.9243 12.0158L13.9109 12.0195L13.8977 12.0236L13.8845 12.0281L13.8715 12.0329L13.8587 12.0382L13.846 12.0439L13.8335 12.0499L13.8212 12.0563L13.8092 12.0632L13.7973 12.0704L13.7857 12.078L13.7743 12.086L13.7631 12.0944L13.7522 12.1031L13.7416 12.1123L13.7313 12.1219L13.7213 12.1318L13.7116 12.1421L13.7023 12.1529L13.6932 12.164L13.6846 12.1755L13.6763 12.1874L13.6683 12.1996L13.6608 12.2123L13.6536 12.2254L13.6469 12.2388L13.6406 12.2527L13.6347 12.2669L13.6293 12.2815L13.6243 12.2965L13.6198 12.3119L13.6158 12.3277L13.6123 12.3439L13.6092 12.3605L13.6067 12.3775L13.6048 12.3948L13.6034 12.4125L13.6025 12.4307L13.6022 12.4492L13.6023 12.4581L13.6024 12.467L13.6027 12.4759L13.6031 12.4849L13.6036 12.4938L13.6042 12.5028L13.6049 12.5117L13.6058 12.5207L13.6068 12.5297L13.6079 12.5388L13.6091 12.5478L13.6105 12.5569L13.612 12.5661L13.6137 12.5752L13.6155 12.5844L13.6174 12.5937L13.6195 12.603L13.6217 12.6123L13.6241 12.6217L13.6267 12.6311L13.6294 12.6406L13.6323 12.6502L13.6354 12.6598L13.6386 12.6694L13.642 12.6792L13.6455 12.689L13.6493 12.6989L13.6532 12.7088L13.6573 12.7188L13.6616 12.729L13.6661 12.7392L13.6708 12.7494L13.6756 12.7598L13.6807 12.7703L13.686 12.7808L13.6914 12.7914L13.6966 12.8033L13.7034 12.8164L13.712 12.8308L13.7221 12.8465L13.7338 12.8634L13.747 12.8816L13.7616 12.901L13.7776 12.9216L13.7949 12.9435L13.8135 12.9665L13.8332 12.9908L13.8541 13.0162L13.8761 13.0428L13.948 13.1296L13.9737 13.1608L14.0002 13.1932L14.0274 13.2266L14.0553 13.2612L14.0838 13.2969L14.1129 13.3336L14.1425 13.3715L14.1724 13.4104L14.2028 13.4504L14.2335 13.4914L14.2644 13.5334L14.2955 13.5765L14.3268 13.6206L14.3582 13.6657L14.3895 13.7119L14.4209 13.759L14.4521 13.8071L14.4832 13.8561L14.514 13.9061L14.5446 13.9571L14.5749 14.009L14.6047 14.0619L14.6342 14.1157L14.6631 14.1704L14.6914 14.2259L14.7191 14.2824L14.7462 14.3398L14.7724 14.398L14.7979 14.4571L14.8225 14.5171L14.8462 14.5779L14.8689 14.6396L14.8906 14.702L14.9112 14.7653L14.9306 14.8294L14.9488 14.8943L14.9658 14.9599L14.9814 15.0264L14.9956 15.0936L15.0083 15.1616L15.0196 15.2303L15.0292 15.2998L15.0373 15.3699L15.0437 15.4408L15.0483 15.5124L15.0511 15.5848L15.052 15.6578L15.0518 15.6955L15.051 15.7335L15.0497 15.7717L15.0479 15.81L15.0456 15.8486L15.0426 15.8873L15.0392 15.9263L15.0352 15.9654L15.0306 16.0047L15.0254 16.0442L15.0197 16.0838L15.0133 16.1237L15.0064 16.1637L14.9988 16.2039L14.9906 16.2443L14.9818 16.2849L14.9724 16.3256L14.9623 16.3666L14.9516 16.4077L14.9402 16.4489L14.9281 16.4904L14.9154 16.532L14.902 16.5738L14.8879 16.6158L14.8731 16.6579L14.8576 16.7002L14.8414 16.7427L14.8244 16.7853L14.8067 16.8281L14.7883 16.8711L14.7692 16.9142L14.7492 16.9575L14.7286 17.0009L14.7071 17.0446L14.6849 17.0883L14.6619 17.1323L14.6381 17.1763L14.6135 17.2206L14.588 17.265L14.5618 17.3095L14.5347 17.3542L14.5068 17.3991L14.4781 17.4441L14.4485 17.4892L14.418 17.5346L14.3867 17.58L14.3545 17.6256L14.3214 17.6714L14.2874 17.7172L14.2526 17.7633L14.2168 17.8095L14.1801 17.8558L14.1425 17.9022L14.1039 17.9488L14.0644 17.9956L14.024 18.0424L13.9826 18.0895L13.9403 18.1366L13.8969 18.1839L13.8526 18.2313L13.8073 18.2788L13.761 18.3265L13.7138 18.3743L13.7032 18.3845L13.6929 18.3948L13.6828 18.405L13.6729 18.4153L13.6632 18.4256L13.6536 18.436L13.6443 18.4463L13.6352 18.4567L13.6262 18.4671L13.6175 18.4775L13.6089 18.4879L13.6006 18.4983L13.5924 18.5087L13.5844 18.5192L13.5766 18.5296L13.569 18.54L13.5615 18.5505L13.5543 18.5609L13.5472 18.5714L13.5404 18.5818L13.5337 18.5922L13.5271 18.6026L13.5208 18.613L13.5146 18.6234L13.5087 18.6337L13.5028 18.6441L13.4972 18.6544L13.4917 18.6647L13.4865 18.675L13.4813 18.6852L13.4764 18.6954L13.4716 18.7056L13.467 18.7158L13.4626 18.7259L13.4583 18.736L13.4542 18.746L13.4502 18.756L13.4464 18.766L13.4428 18.7759L13.4393 18.7857L13.436 18.7955L13.4329 18.8053L13.4299 18.815L13.4271 18.8247L13.4244 18.8343L13.4219 18.8438L13.4195 18.8533L13.4173 18.8627L13.4152 18.872L13.4133 18.8813L13.4115 18.8905L13.4099 18.8996L13.4084 18.9087L13.4071 18.9176L13.4059 18.9265L13.4049 18.9353L13.404 18.9441L13.4032 18.9527L13.4026 18.9613L13.4021 18.9698L13.4018 18.9782L13.4016 18.9865L13.4015 18.9947L13.4017 19.0109L13.4024 19.027L13.4034 19.0429L13.4049 19.0586L13.4067 19.0741L13.4089 19.0894L13.4114 19.1046L13.4143 19.1195L13.4174 19.1342L13.4209 19.1487L13.4247 19.163L13.4287 19.1771L13.433 19.191L13.4375 19.2046L13.4422 19.218L13.4471 19.2311L13.4522 19.244L13.4575 19.2567L13.463 19.2691L13.4685 19.2812L13.4742 19.2931L13.48 19.3047L13.4859 19.3161L13.4918 19.3271L13.4978 19.3379L13.5039 19.3484L13.51 19.3586L13.5161 19.3686L13.5221 19.3782L13.5282 19.3875L13.5342 19.3965L13.5401 19.4052L13.546 19.4136L13.5518 19.4216L13.5575 19.4293L13.5631 19.4367L13.5685 19.4438L13.5738 19.4505L13.5789 19.4569L13.5838 19.4629L13.5885 19.4686L13.593 19.4739L13.5973 19.4788L13.6013 19.4834L13.6051 19.4876L13.6086 19.4914L13.6118 19.4948L13.6146 19.4979L13.6172 19.5006L13.6193 19.5028L13.6212 19.5047L13.6226 19.5061L13.6237 19.5072L13.6245 19.508L14.7175 20.7914Z" fill="black"/>
</svg>
