<svg width="32" height="40" viewBox="0 0 32 40" fill="none" xmlns="http://www.w3.org/2000/svg">
<path d="M17.55 14.4021L17.5495 14.3649L17.548 14.328L17.5456 14.2913L17.5422 14.2549L17.5378 14.2189L17.5326 14.1831L17.5264 14.1476L17.5192 14.1125L17.5112 14.0777L17.5023 14.0432L17.4925 14.0092L17.4819 13.9754L17.4704 13.9421L17.4581 13.9091L17.4449 13.8766L17.4309 13.8445L17.4161 13.8127L17.4005 13.7815L17.3841 13.7506L17.367 13.7202L17.3491 13.6903L17.3304 13.6609L17.311 13.632L17.2909 13.6035L17.2701 13.5756L17.2485 13.5482L17.2263 13.5213L17.2034 13.495L17.1798 13.4692L17.1555 13.444L17.1307 13.4193L17.1051 13.3953L17.079 13.3718L17.0522 13.349L17.0249 13.3267L16.9969 13.3051L16.9684 13.2842L16.9393 13.2639L16.9097 13.2442L16.8795 13.2253L16.8488 13.207L16.8176 13.1894L16.7859 13.1725L16.7536 13.1563L16.7209 13.1409L16.6877 13.1262L16.6541 13.1123L16.62 13.0991L16.5855 13.0867L16.5505 13.075L16.5151 13.0642L16.4794 13.0542L16.4432 13.0449L16.4066 13.0365L16.3697 13.029L16.3324 13.0223L16.2948 13.0164L16.2569 13.0115L16.2186 13.0074L16.18 13.0042L16.1411 13.0019L16.1019 13.0005L16.0625 13L16.0241 13.0005L15.9858 13.0019L15.9478 13.0042L15.9101 13.0074L15.8725 13.0115L15.8353 13.0164L15.7983 13.0223L15.7616 13.029L15.7253 13.0365L15.6892 13.0449L15.6535 13.0542L15.6181 13.0642L15.583 13.075L15.5484 13.0867L15.5141 13.0991L15.4802 13.1123L15.4467 13.1262L15.4137 13.1409L15.381 13.1563L15.3488 13.1725L15.3171 13.1894L15.2859 13.207L15.2551 13.2253L15.2249 13.2442L15.1951 13.2639L15.1659 13.2842L15.1372 13.3051L15.1091 13.3267L15.0816 13.349L15.0546 13.3718L15.0282 13.3953L15.0024 13.4193L14.9773 13.444L14.9527 13.4692L14.9288 13.495L14.9056 13.5213L14.8831 13.5482L14.8612 13.5756L14.84 13.6035L14.8195 13.632L14.7998 13.6609L14.7808 13.6903L14.7625 13.7202L14.745 13.7506L14.7283 13.7815L14.7124 13.8127L14.6973 13.8445L14.6829 13.8766L14.6695 13.9091L14.6568 13.9421L14.645 13.9754L14.6341 14.0092L14.6241 14.0432L14.6149 14.0777L14.6067 14.1125L14.5994 14.1476L14.593 14.1831L14.5875 14.2189L14.5831 14.2549L14.5796 14.2913L14.577 14.328L14.5755 14.3649L14.575 14.4021L14.5752 14.4217L14.5758 14.4413L14.5768 14.4608L14.5781 14.4803L14.5799 14.4998L14.582 14.5192L14.5845 14.5386L14.5873 14.5579L14.5906 14.5772L14.5941 14.5964L14.5981 14.6155L14.6024 14.6346L14.607 14.6536L14.612 14.6726L14.6173 14.6914L14.6229 14.7102L14.6289 14.7289L14.6352 14.7476L14.6418 14.7661L14.6488 14.7846L14.656 14.803L14.6636 14.8213L14.6714 14.8394L14.6796 14.8575L14.6881 14.8755L14.6968 14.8934L14.7059 14.9112L14.7152 14.9288L14.7248 14.9464L14.7347 14.9638L14.7448 14.9811L14.7552 14.9983L14.7659 15.0153L14.7769 15.0323L14.788 15.049L14.7995 15.0657L14.8112 15.0822L14.8231 15.0986L14.8353 15.1148L14.8477 15.1309L14.8603 15.1469L14.8731 15.1627L14.8862 15.1783L14.8995 15.1938L14.913 15.2091L14.9267 15.2242L14.9406 15.2392L14.9547 15.254L14.969 15.2686L14.9836 15.2831L14.9982 15.2974L15.0131 15.3115L15.0282 15.3254L15.0434 15.3391L15.0588 15.3526L15.0743 15.366L15.09 15.3791L15.1059 15.392L15.1219 15.4048L15.1381 15.4173L15.1544 15.4296L15.1709 15.4417L15.1875 15.4536L15.1959 15.4595L15.2043 15.4653L15.2128 15.4711L15.2213 15.4769L15.23 15.4827L15.2387 15.4884L15.2474 15.4941L15.2562 15.4997L15.2651 15.5053L15.274 15.5109L15.2829 15.5164L15.292 15.5219L15.301 15.5274L15.3102 15.5328L15.3193 15.5382L15.3286 15.5435L15.3379 15.5488L15.3472 15.5541L15.3566 15.5593L15.366 15.5645L15.3755 15.5697L15.385 15.5748L15.3945 15.5799L15.4041 15.5849L15.4138 15.5899L15.4234 15.5948L15.4332 15.5997L15.4429 15.6045L15.4527 15.6093L15.4625 15.6141L15.4724 15.6188L15.4823 15.6235L15.4922 15.6281L15.5022 15.6326L15.5122 15.6372L15.5222 15.6416L15.5322 15.6461L15.5423 15.6504L15.5524 15.6548L15.5625 15.659L15.5727 15.6633L15.5829 15.6674L15.5931 15.6716L15.6033 15.6756L15.6135 15.6796L15.6238 15.6836L15.6341 15.6875L15.6443 15.6914L15.6546 15.6951L15.665 15.6989L15.6753 15.7026L15.6856 15.7062L15.696 15.7098L15.7064 15.7133L15.7168 15.7167L15.7271 15.7201L15.7375 15.7235L15.7479 15.7268L15.7583 15.73L15.7688 15.7332L15.7792 15.7363L15.7896 15.7393L15.8 15.7423L15.8084 15.7445L15.8168 15.7467L15.8253 15.7488L15.8338 15.7509L15.8423 15.753L15.8509 15.755L15.8595 15.757L15.8682 15.759L15.8769 15.7609L15.8857 15.7627L15.8945 15.7645L15.9034 15.7663L15.9123 15.7681L15.9212 15.7698L15.9302 15.7714L15.9392 15.773L15.9483 15.7746L15.9574 15.7761L15.9665 15.7776L15.9757 15.7791L15.985 15.7805L15.9943 15.7819L16.0036 15.7832L16.013 15.7845L16.0224 15.7857L16.0318 15.7869L16.0413 15.7881L16.0509 15.7892L16.0605 15.7903L16.0701 15.7913L16.0798 15.7923L16.0895 15.7933L16.0993 15.7942L16.1091 15.7951L16.1189 15.7959L16.1288 15.7967L16.1387 15.7975L16.1487 15.7982L16.1587 15.7989L16.1688 15.7995L16.1789 15.8001L16.1891 15.8007L16.1993 15.8012L16.2095 15.8017L16.2198 15.8021L16.2301 15.8025L16.2405 15.8028L16.2509 15.8031L16.2614 15.8034L16.2719 15.8036L16.2824 15.8038L16.293 15.8039L16.3036 15.804L16.3143 15.8041L16.325 15.8041L16.3396 15.8041L16.3543 15.8039L16.369 15.8037L16.3838 15.8034L16.3987 15.803L16.4136 15.8025L16.4285 15.8019L16.4435 15.8012L16.4585 15.8005L16.4736 15.7996L16.4887 15.7987L16.5039 15.7977L16.519 15.7966L16.5342 15.7954L16.5494 15.7942L16.5647 15.7928L16.5799 15.7914L16.5952 15.7899L16.6104 15.7884L16.6257 15.7867L16.641 15.785L16.6563 15.7833L16.6715 15.7814L16.6868 15.7795L16.702 15.7775L16.7173 15.7754L16.7325 15.7733L16.7477 15.7711L16.7629 15.7688L16.7781 15.7665L16.7932 15.7641L16.8083 15.7616L16.8234 15.7591L16.8384 15.7566L16.8534 15.7539L16.8684 15.7512L16.8833 15.7485L16.8981 15.7457L16.9129 15.7428L16.9276 15.7399L16.9423 15.7369L16.9569 15.7339L16.9715 15.7308L16.986 15.7277L17.0004 15.7245L17.0147 15.7212L17.029 15.718L17.0431 15.7146L17.0572 15.7113L17.0712 15.7079L17.0851 15.7044L17.0989 15.7009L17.1127 15.6973L17.1263 15.6938L17.1398 15.6901L17.1532 15.6865L17.1665 15.6828L17.1797 15.679L17.1927 15.6752L17.2057 15.6714L17.2185 15.6676L17.2312 15.6637L17.2438 15.6598L17.2583 15.6559L17.2726 15.6519L17.2868 15.648L17.3008 15.6441L17.3147 15.6401L17.3284 15.6362L17.3421 15.6322L17.3555 15.6283L17.3689 15.6243L17.3821 15.6203L17.3952 15.6163L17.4082 15.6122L17.4211 15.6082L17.4339 15.6041L17.4466 15.6L17.4591 15.5959L17.4716 15.5918L17.4841 15.5877L17.4964 15.5835L17.5086 15.5793L17.5208 15.575L17.5329 15.5708L17.545 15.5665L17.557 15.5621L17.569 15.5577L17.5809 15.5533L17.5927 15.5489L17.6046 15.5444L17.6163 15.5399L17.6281 15.5353L17.6398 15.5307L17.6516 15.526L17.6633 15.5213L17.675 15.5165L17.6867 15.5117L17.6983 15.5069L17.71 15.5019L17.7217 15.497L17.7335 15.492L17.7452 15.4869L17.757 15.4817L17.7688 15.4765L17.7806 15.4713L17.7924 15.4659L17.8043 15.4605L17.8163 15.4551L17.8283 15.4495L17.8403 15.4439L17.8525 15.4382L17.8647 15.4325L17.8769 15.4267L17.8893 15.4208L17.9017 15.4148L17.9142 15.4088L17.9267 15.4026L17.9394 15.3964L17.9522 15.3901L17.9651 15.3837L17.9781 15.3773L17.9912 15.3707L18.0044 15.3641L18.0178 15.3573L18.0313 15.3505L18.0441 15.3464L18.0564 15.3423L18.0682 15.3383L18.0904 15.3307L18.1009 15.3271L18.1111 15.3237L18.1209 15.3207L18.1305 15.3179L18.1398 15.3154L18.149 15.3133L18.1579 15.3116L18.1668 15.3103L18.1756 15.3096L18.1844 15.3093L18.1972 15.3098L18.2094 15.3115L18.2209 15.3144L18.2318 15.3185L18.2419 15.3238L18.2512 15.3304L18.2597 15.3383L18.2674 15.3476L18.2742 15.3583L18.28 15.3704L18.2848 15.3839L18.2887 15.399L18.2915 15.4156L18.2932 15.4338L18.2937 15.4536L18.2937 15.4592L18.2935 15.4649L18.2932 15.4709L18.2928 15.4772L18.2923 15.4836L18.2917 15.4902L18.291 15.4971L18.2901 15.5041L18.2891 15.5114L18.2881 15.5189L18.2869 15.5266L18.2856 15.5345L18.2842 15.5426L18.2826 15.551L18.281 15.5596L18.2792 15.5683L18.2773 15.5773L18.2754 15.5865L18.2733 15.5959L18.271 15.6056L18.2687 15.6154L18.2663 15.6255L18.2637 15.6357L18.261 15.6462L18.2583 15.6569L18.2554 15.6679L18.2524 15.679L18.2492 15.6903L18.246 15.7019L18.2427 15.7137L18.2392 15.7256L18.2356 15.7378L18.2319 15.7503L18.2281 15.7629L18.2254 15.7727L18.2212 15.7865L18.2158 15.8041L18.2091 15.8254L18.2012 15.8502L18.1921 15.8785L18.1818 15.9101L18.1705 15.9449L18.158 15.9827L18.1446 16.0235L17.4396 18.0755L17.4147 18.1455L17.3901 18.2143L17.3658 18.2818L17.342 18.348L17.3185 18.4127L17.2956 18.4758L17.2731 18.5371L17.2512 18.5966L17.2299 18.6541L17.2092 18.7095L17.1892 18.7627L17.1699 18.8135L17.1513 18.8618L17.1336 18.9075L17.1167 18.9505L17.1006 18.9907L17.0855 19.0279L17.0713 19.062L17.0582 19.0928L17.046 19.1204L17.0349 19.1445L17.025 19.1649L17.0164 19.1835L17.0071 19.2018L16.9972 19.2199L16.9868 19.2378L16.9758 19.2554L16.9643 19.2729L16.9522 19.29L16.9397 19.307L16.9266 19.3237L16.913 19.3402L16.899 19.3564L16.8846 19.3724L16.8697 19.3881L16.8544 19.4036L16.8388 19.4188L16.8227 19.4338L16.8063 19.4485L16.7895 19.463L16.7725 19.4772L16.7551 19.4911L16.7374 19.5048L16.7194 19.5182L16.7012 19.5313L16.6827 19.5441L16.6641 19.5567L16.6452 19.569L16.6261 19.581L16.6068 19.5927L16.5874 19.6041L16.5678 19.6153L16.5482 19.6261L16.5284 19.6367L16.5085 19.6469L16.4885 19.6569L16.4685 19.6666L16.4485 19.6759L16.4284 19.685L16.4083 19.6937L16.3882 19.7021L16.3682 19.7102L16.3482 19.718L16.3282 19.7255L16.3084 19.7326L16.2886 19.7394L16.2689 19.7459L16.2494 19.7521L16.23 19.7579L16.2108 19.7634L16.1917 19.7686L16.1729 19.7734L16.1542 19.7779L16.1358 19.782L16.1177 19.7858L16.0997 19.7893L16.0821 19.7924L16.0648 19.7951L16.0478 19.7975L16.0311 19.7995L16.0147 19.8012L15.9987 19.8025L15.9831 19.8034L15.9679 19.8039L15.9531 19.8041L15.956 19.793L15.9586 19.7821L15.9609 19.7715L15.963 19.7611L15.9649 19.7508L15.9666 19.7408L15.9681 19.731L15.9694 19.7213L15.9705 19.7118L15.9714 19.7025L15.9723 19.6933L15.9729 19.6842L15.9735 19.6753L15.9739 19.6664L15.9743 19.6576L15.9746 19.649L15.9747 19.6404L15.9749 19.6318L15.9749 19.6233L15.975 19.6148L15.975 19.6064V19.5979L15.9745 19.5608L15.973 19.5238L15.9704 19.4872L15.9669 19.4508L15.9625 19.4147L15.957 19.379L15.9506 19.3435L15.9433 19.3084L15.9351 19.2736L15.9259 19.2391L15.9159 19.205L15.905 19.1713L15.8932 19.138L15.8805 19.105L15.8671 19.0725L15.8527 19.0403L15.8376 19.0086L15.8217 18.9773L15.805 18.9465L15.7875 18.9161L15.7692 18.8862L15.7502 18.8568L15.7305 18.8278L15.71 18.7994L15.6888 18.7715L15.6669 18.744L15.6444 18.7172L15.6212 18.6908L15.5973 18.6651L15.5727 18.6398L15.5476 18.6152L15.5218 18.5911L15.4954 18.5677L15.4684 18.5448L15.4409 18.5226L15.4128 18.501L15.3841 18.4801L15.3549 18.4597L15.3251 18.4401L15.2949 18.4211L15.2641 18.4029L15.2329 18.3853L15.2012 18.3684L15.169 18.3522L15.1363 18.3368L15.1033 18.3221L15.0698 18.3081L15.0359 18.2949L15.0016 18.2825L14.967 18.2709L14.9319 18.2601L14.8965 18.25L14.8608 18.2408L14.8247 18.2324L14.7884 18.2249L14.7517 18.2182L14.7147 18.2123L14.6775 18.2073L14.6399 18.2032L14.6022 18.2L14.5642 18.1977L14.5259 18.1963L14.4875 18.1959L14.4481 18.1963L14.4089 18.1977L14.37 18.2L14.3314 18.2032L14.2931 18.2073L14.2552 18.2123L14.2176 18.2182L14.1803 18.2249L14.1434 18.2324L14.1068 18.2408L14.0706 18.25L14.0349 18.2601L13.9995 18.2709L13.9645 18.2825L13.93 18.2949L13.8959 18.3081L13.8623 18.3221L13.8291 18.3368L13.7964 18.3522L13.7641 18.3684L13.7324 18.3853L13.7012 18.4029L13.6705 18.4211L13.6403 18.4401L13.6107 18.4597L13.5816 18.4801L13.5531 18.501L13.5251 18.5226L13.4978 18.5448L13.471 18.5677L13.4449 18.5911L13.4193 18.6152L13.3945 18.6398L13.3702 18.6651L13.3466 18.6908L13.3237 18.7172L13.3015 18.744L13.2799 18.7715L13.2591 18.7994L13.239 18.8278L13.2196 18.8568L13.2009 18.8862L13.183 18.9161L13.1659 18.9465L13.1495 18.9773L13.1339 19.0086L13.1191 19.0403L13.1051 19.0725L13.0919 19.105L13.0796 19.138L13.0681 19.1713L13.0575 19.205L13.0477 19.2391L13.0388 19.2736L13.0308 19.3084L13.0236 19.3435L13.0174 19.379L13.0122 19.4147L13.0078 19.4508L13.0044 19.4872L13.002 19.5238L13.0005 19.5608L13 19.5979L13.0002 19.6176L13.0008 19.6371L13.0018 19.6567L13.0031 19.6762L13.0049 19.6957L13.007 19.7151L13.0095 19.7345L13.0123 19.7538L13.0156 19.773L13.0191 19.7923L13.0231 19.8114L13.0274 19.8305L13.032 19.8495L13.037 19.8684L13.0423 19.8873L13.0479 19.9061L13.0539 19.9248L13.0602 19.9435L13.0668 19.962L13.0738 19.9805L13.081 19.9989L13.0886 20.0171L13.0964 20.0353L13.1046 20.0534L13.1131 20.0714L13.1218 20.0893L13.1309 20.107L13.1402 20.1247L13.1498 20.1422L13.1597 20.1597L13.1698 20.177L13.1802 20.1941L13.1909 20.2112L13.2019 20.2281L13.213 20.2449L13.2245 20.2616L13.2362 20.2781L13.2481 20.2945L13.2603 20.3107L13.2727 20.3268L13.2853 20.3427L13.2981 20.3585L13.3112 20.3742L13.3245 20.3896L13.338 20.4049L13.3517 20.4201L13.3656 20.4351L13.3797 20.4499L13.3941 20.4645L13.4085 20.479L13.4232 20.4933L13.4381 20.5073L13.4531 20.5213L13.4684 20.535L13.4838 20.5485L13.4993 20.5618L13.515 20.575L13.5309 20.5879L13.5469 20.6006L13.5631 20.6132L13.5794 20.6255L13.5959 20.6376L13.6125 20.6495L13.6208 20.6554L13.6292 20.6612L13.6376 20.667L13.6461 20.6728L13.6546 20.6785L13.6631 20.6843L13.6716 20.6899L13.6802 20.6956L13.6888 20.7012L13.6975 20.7068L13.7062 20.7123L13.7149 20.7178L13.7236 20.7233L13.7324 20.7287L13.7412 20.7341L13.7501 20.7394L13.7589 20.7447L13.7679 20.75L13.7768 20.7552L13.7858 20.7604L13.7948 20.7656L13.8038 20.7707L13.8129 20.7757L13.822 20.7808L13.8312 20.7857L13.8403 20.7907L13.8496 20.7956L13.8588 20.8004L13.8681 20.8052L13.8774 20.81L13.8867 20.8147L13.8961 20.8193L13.9055 20.824L13.9149 20.8285L13.9244 20.833L13.9339 20.8375L13.9435 20.8419L13.953 20.8463L13.9626 20.8506L13.9723 20.8549L13.982 20.8591L13.9917 20.8633L14.0014 20.8674L14.0112 20.8715L14.021 20.8755L14.0308 20.8795L14.0407 20.8834L14.0506 20.8872L14.0605 20.891L14.0705 20.8948L14.0805 20.8985L14.0905 20.9021L14.1006 20.9057L14.1107 20.9092L14.1208 20.9126L14.131 20.916L14.1412 20.9194L14.1515 20.9226L14.1617 20.9259L14.172 20.929L14.1824 20.9321L14.1927 20.9352L14.2031 20.9381L14.2122 20.9403L14.2212 20.9423L14.2303 20.9444L14.2393 20.9464L14.2484 20.9483L14.2575 20.9503L14.2665 20.9522L14.2756 20.954L14.2847 20.9559L14.2938 20.9576L14.3028 20.9594L14.3119 20.9611L14.321 20.9628L14.3302 20.9644L14.3393 20.966L14.3484 20.9676L14.3576 20.9691L14.3667 20.9706L14.3759 20.972L14.3851 20.9735L14.3942 20.9748L14.4035 20.9762L14.4127 20.9775L14.4219 20.9787L14.4312 20.98L14.4404 20.9812L14.4497 20.9823L14.459 20.9834L14.4684 20.9845L14.4777 20.9856L14.4871 20.9866L14.4965 20.9876L14.5059 20.9885L14.5153 20.9894L14.5247 20.9903L14.5342 20.9911L14.5437 20.9919L14.5532 20.9926L14.5628 20.9934L14.5724 20.994L14.582 20.9947L14.5916 20.9953L14.6013 20.9959L14.611 20.9964L14.6207 20.9969L14.6304 20.9974L14.6402 20.9978L14.65 20.9982L14.6598 20.9985L14.6697 20.9988L14.6796 20.9991L14.6896 20.9993L14.6996 20.9995L14.7096 20.9997L14.7196 20.9998L14.7297 20.9999L14.7398 21L14.75 21L14.7646 21L14.7793 20.9998L14.794 20.9996L14.8088 20.9993L14.8237 20.9989L14.8386 20.9984L14.8535 20.9978L14.8685 20.9971L14.8835 20.9963L14.8986 20.9955L14.9137 20.9946L14.9289 20.9936L14.944 20.9925L14.9592 20.9913L14.9744 20.99L14.9897 20.9887L15.0049 20.9873L15.0202 20.9858L15.0354 20.9843L15.0507 20.9826L15.066 20.9809L15.0813 20.9791L15.0965 20.9773L15.1118 20.9754L15.127 20.9734L15.1423 20.9713L15.1575 20.9692L15.1727 20.967L15.1879 20.9647L15.2031 20.9624L15.2182 20.96L15.2333 20.9575L15.2484 20.955L15.2634 20.9524L15.2784 20.9498L15.2934 20.9471L15.3083 20.9443L15.3231 20.9415L15.3379 20.9387L15.3526 20.9358L15.3673 20.9328L15.3819 20.9297L15.3965 20.9267L15.411 20.9235L15.4254 20.9204L15.4397 20.9171L15.454 20.9138L15.4681 20.9105L15.4822 20.9071L15.4962 20.9037L15.5101 20.9003L15.5239 20.8968L15.5377 20.8932L15.5513 20.8896L15.5648 20.886L15.5782 20.8823L15.5915 20.8786L15.6047 20.8749L15.6177 20.8711L15.6307 20.8673L15.6435 20.8635L15.6562 20.8596L15.6688 20.8557L15.6832 20.8518L15.6974 20.8479L15.7113 20.844L15.7251 20.8402L15.7385 20.8364L15.7518 20.8326L15.7648 20.8288L15.7776 20.825L15.7902 20.8213L15.8027 20.8175L15.8149 20.8138L15.827 20.8101L15.8389 20.8063L15.8506 20.8026L15.8622 20.7989L15.8736 20.7951L15.8849 20.7914L15.896 20.7876L15.9071 20.7838L15.918 20.7801L15.9288 20.7763L15.9395 20.7724L15.9502 20.7686L15.9607 20.7647L15.9712 20.7608L15.9816 20.7569L15.9919 20.7529L16.0022 20.7489L16.0124 20.7448L16.0226 20.7407L16.0328 20.7366L16.043 20.7324L16.0531 20.7282L16.0633 20.724L16.0734 20.7196L16.0835 20.7153L16.0937 20.7108L16.1039 20.7063L16.1142 20.7018L16.1244 20.6971L16.1348 20.6924L16.1451 20.6877L16.1556 20.6828L16.1661 20.6779L16.1767 20.6729L16.1874 20.6679L16.1982 20.6627L16.2091 20.6575L16.2201 20.6521L16.2313 20.6467L16.2425 20.6412L16.2539 20.6356L16.2655 20.6299L16.2772 20.6241L16.289 20.6182L16.3133 20.6061L16.3256 20.5999L16.351 20.5871L16.3906 20.567L16.4037 20.5682L16.4165 20.5718L16.4288 20.5776L16.4403 20.5855L16.4508 20.5954L16.4599 20.6071L16.4675 20.6206L16.4732 20.6356L16.4769 20.6522L16.4781 20.6701L16.4765 20.6804L16.4725 20.6907L16.4619 20.7113L16.4579 20.7217L16.4563 20.732L14.3781 26.567L14.3765 26.5774L14.3725 26.5876L14.3619 26.6083L14.3579 26.6186L14.3563 26.6288L14.3564 26.6367L14.3568 26.6447L14.3576 26.6527L14.3587 26.6608L14.36 26.6688L14.3617 26.6769L14.3637 26.685L14.366 26.6932L14.3686 26.7013L14.3715 26.7095L14.3747 26.7177L14.3783 26.7259L14.3822 26.7341L14.3864 26.7422L14.3909 26.7503L14.3958 26.7584L14.401 26.7665L14.4065 26.7746L14.4124 26.7825L14.4186 26.7905L14.4251 26.7984L14.432 26.8062L14.4392 26.814L14.4468 26.8216L14.4547 26.8293L14.463 26.8367L14.4716 26.8442L14.4806 26.8515L14.4899 26.8588L14.4996 26.8658L14.5097 26.8729L14.5201 26.8797L14.5309 26.8865L14.542 26.893L14.5535 26.8995L14.5654 26.9059L14.5777 26.9121L14.5903 26.9181L14.6033 26.9239L14.6167 26.9296L14.6305 26.9351L14.6447 26.9404L14.6592 26.9456L14.6742 26.9505L14.6895 26.9553L14.7052 26.9598L14.7213 26.9642L14.7378 26.9683L14.7547 26.9722L14.772 26.9758L14.7897 26.9793L14.8078 26.9824L14.8264 26.9854L14.8453 26.9881L14.8646 26.9905L14.8844 26.9927L14.9045 26.9946L14.9251 26.9963L14.9461 26.9975L14.9676 26.9986L14.9894 26.9994L15.0117 26.9998L15.0344 27L15.0642 26.9998L15.0932 26.9993L15.1215 26.9984L15.149 26.9971L15.1757 26.9955L15.2018 26.9935L15.2271 26.9912L15.2517 26.9885L15.2756 26.9856L15.2988 26.9824L15.3213 26.9788L15.3432 26.9749L15.3644 26.9707L15.385 26.9663L15.405 26.9615L15.4244 26.9565L15.4431 26.9513L15.4613 26.9457L15.4789 26.9399L15.4959 26.9338L15.5124 26.9274L15.5283 26.9209L15.5437 26.9141L15.5586 26.9071L15.573 26.8999L15.5869 26.8924L15.6003 26.8848L15.6133 26.8769L15.6258 26.8688L15.6378 26.8607L15.6494 26.8522L15.6606 26.8437L15.6714 26.8348L15.6818 26.8259L15.6918 26.8168L15.7015 26.8076L15.7108 26.7983L15.7197 26.7888L15.7283 26.7792L15.7366 26.7693L15.7445 26.7595L15.7522 26.7495L15.7596 26.7394L15.7667 26.7292L15.7735 26.719L15.7801 26.7086L15.7865 26.6981L15.7926 26.6877L15.7985 26.6771L15.8042 26.6665L15.8098 26.6558L15.8151 26.645L15.8203 26.6343L15.8253 26.6235L15.8302 26.6126L15.835 26.6017L15.8396 26.5909L15.8441 26.58L15.8486 26.5692L15.8529 26.5583L15.8572 26.5474L15.8614 26.5366L15.8656 26.5258L18.4031 18.6701L19.3798 15.5617L19.3872 15.5371L19.3875 15.5361L19.3879 15.5347L19.3891 15.5307L19.7801 14.202L19.8179 14.0689L19.8301 14.0259L19.8419 13.9837L19.8534 13.9424L19.8646 13.902L19.8755 13.8627L19.8859 13.8245L19.896 13.7875L19.9056 13.7519L19.9148 13.7176L19.9235 13.6847L19.9316 13.6534L19.9393 13.6236L19.9464 13.5956L19.9528 13.5694L19.9587 13.545L19.964 13.5225L19.9686 13.5021L19.9725 13.4837L19.9757 13.4675L19.9781 13.4536L19.9791 13.4391L19.9815 13.4262L19.985 13.4148L19.9891 13.4046L19.9931 13.3954L19.9966 13.3869L19.9991 13.3789L20 13.3711L19.9992 13.3565L19.9968 13.3422L19.993 13.3284L19.9878 13.315L19.9815 13.302L19.974 13.2895L19.9656 13.2774L19.9563 13.2657L19.9462 13.2545L19.9356 13.2438L19.9244 13.2335L19.9129 13.2238L19.9011 13.2145L19.8891 13.2057L19.8772 13.1974L19.8652 13.1897L19.8535 13.1824L19.8421 13.1757L19.8312 13.1696L19.8208 13.164L19.8111 13.1589L19.8021 13.1544L19.7941 13.1505L19.7871 13.1471L19.7813 13.1443L19.7683 13.1445L19.7558 13.1451L19.7437 13.146L19.7319 13.1473L19.7205 13.1489L19.7095 13.1509L19.6987 13.1531L19.6883 13.1556L19.6781 13.1584L19.6682 13.1615L19.6586 13.1648L19.6492 13.1683L19.64 13.172L19.631 13.1759L19.6222 13.18L19.6135 13.1842L19.6051 13.1886L19.5967 13.1931L19.5885 13.1977L19.5804 13.2024L19.5723 13.2072L19.5643 13.212L19.5564 13.2169L19.5485 13.2219L19.5406 13.2268L19.5326 13.2335L19.5232 13.2419L19.5125 13.2518L19.5004 13.2632L19.487 13.2761L19.4724 13.2904L19.4565 13.3061L19.4394 13.323L19.3597 13.4026L19.3134 13.4487L19.2887 13.4731L19.2631 13.4983L19.2366 13.5244L19.2091 13.5512L19.1808 13.5786L19.1517 13.6067L19.1218 13.6354L19.0911 13.6645L19.0596 13.6941L19.0275 13.7241L18.9946 13.7545L18.9611 13.7851L18.927 13.816L18.8924 13.847L18.8571 13.8782L18.8214 13.9094L18.7851 13.9406L18.7484 13.9718L18.7112 14.0028L18.6737 14.0337L18.6358 14.0644L18.5975 14.0948L18.559 14.1249L18.5201 14.1546L18.481 14.1839L18.4417 14.2126L18.4022 14.2408L18.3626 14.2684L18.3229 14.2954L18.283 14.3216L18.2431 14.347L18.2032 14.3716L18.1633 14.3953L18.1234 14.4181L18.0835 14.4399L18.0438 14.4606L18.0042 14.4802L17.9647 14.4986L17.9255 14.5158L17.8864 14.5317L17.8476 14.5463L17.8091 14.5595L17.7709 14.5713L17.733 14.5815L17.6956 14.5902L17.6585 14.5973L17.6218 14.6027L17.5857 14.6064L17.55 14.6082V14.4021Z" fill="black"/>
</svg>
