<svg width="32" height="40" viewBox="0 0 32 40" fill="none" xmlns="http://www.w3.org/2000/svg">
<path d="M14.6474 10.07C14.7925 9.72833 14.9757 9.46456 15.197 9.27874C15.4184 9.09291 15.6941 9 16.0243 9C16.432 9 16.7446 9.1322 16.9622 9.39659C17.1273 9.59364 17.2099 9.80441 17.2099 10.0289C17.2099 10.398 16.9773 10.7797 16.512 11.1738C16.8247 11.296 17.061 11.4706 17.2211 11.6976C17.3812 11.9245 17.4612 12.1914 17.4612 12.4982C17.4612 12.9372 17.3212 13.3176 17.041 13.6393C16.6759 14.0584 16.1469 14.2679 15.454 14.2679C15.1114 14.2679 14.8781 14.2255 14.7543 14.1407C14.6305 14.0559 14.5686 13.9649 14.5686 13.8676C14.5686 13.7952 14.598 13.7316 14.6568 13.6768C14.7156 13.6219 14.7862 13.5945 14.8688 13.5945C14.9313 13.5945 14.9951 13.6044 15.0601 13.6244C15.1026 13.6369 15.1989 13.6824 15.349 13.7609C15.4991 13.8395 15.6029 13.8863 15.6604 13.9012C15.7529 13.9287 15.8517 13.9424 15.9568 13.9424C16.2119 13.9424 16.4339 13.8439 16.6227 13.6468C16.8115 13.4498 16.906 13.2166 16.906 12.9472C16.906 12.7501 16.8622 12.5581 16.7747 12.371C16.7096 12.2313 16.6383 12.1253 16.5608 12.053C16.4533 11.9532 16.3057 11.8628 16.1181 11.7817C15.9305 11.7007 15.7392 11.6601 15.5441 11.6601H15.424V11.5479C15.6216 11.523 15.8198 11.4519 16.0187 11.3346C16.2175 11.2174 16.362 11.0765 16.452 10.9119C16.542 10.7472 16.5871 10.5664 16.5871 10.3694C16.5871 10.1124 16.5064 9.9048 16.3451 9.74641C16.1838 9.58803 15.983 9.50883 15.7429 9.50883C15.3552 9.50883 15.0313 9.71586 14.7712 10.1299L14.6474 10.07Z" fill="black"/>
<path d="M13.1684 11.3446V11.9233H2.58027V13.4442H2V11.3446H13.1684Z" fill="black"/>
<path d="M30 11.3446V13.4442H29.4191V11.9233H18.8316V11.3446H30Z" fill="black"/>
<path d="M6.35565 15.616H29.9277V17.4256H6.35565V15.616Z" fill="black"/>
<path d="M3.91612 29.1904L3.97785 29.1895L4.03997 29.1868L4.10244 29.1824L4.16523 29.1763L4.22826 29.1685L4.29151 29.1591L4.35493 29.148L4.41848 29.1353L4.4821 29.1211L4.54576 29.1052L4.6094 29.0879L4.673 29.0691L4.73649 29.0488L4.79983 29.0271L4.86299 29.004L4.92592 28.9794L4.98856 28.9536L5.05088 28.9264L5.11282 28.8979L5.17435 28.8681L5.23542 28.8371L5.29599 28.8048L5.35601 28.7714L5.41543 28.7368L5.47422 28.7011L5.53232 28.6643L5.58969 28.6264L5.64628 28.5874L5.70205 28.5474L5.75697 28.5064L5.81098 28.4644L5.86402 28.4215L5.91608 28.3777L5.96708 28.333L6.017 28.2874L6.06578 28.241L6.11338 28.1938L6.15977 28.1458L6.20488 28.097L6.24868 28.0476L6.29112 27.9974L6.33216 27.9466L6.37175 27.8951L6.40984 27.843L6.4464 27.7903L6.48138 27.7371L6.51472 27.6833L6.5464 27.629L6.57635 27.5743L6.60455 27.5191L6.63093 27.4634L6.65547 27.4074L6.6781 27.351L6.6988 27.2943L6.7175 27.2373L6.73417 27.1799L6.74877 27.1224L6.76125 27.0645L6.77155 27.0065L6.77965 26.9483L6.78548 26.89L6.78902 26.8315L6.79021 26.773L6.78977 26.738L6.78846 26.7035L6.78629 26.6694L6.78327 26.6357L6.7794 26.6025L6.7747 26.5697L6.76916 26.5373L6.7628 26.5054L6.75563 26.474L6.74765 26.443L6.73888 26.4124L6.72931 26.3824L6.71897 26.3528L6.70785 26.3236L6.69597 26.295L6.68333 26.2668L6.66993 26.2391L6.6558 26.2119L6.64093 26.1852L6.62534 26.1591L6.60903 26.1334L6.59201 26.1082L6.57429 26.0835L6.55588 26.0594L6.53678 26.0358L6.517 26.0127L6.49655 25.9902L6.47544 25.9681L6.45368 25.9467L6.43127 25.9257L6.40823 25.9054L6.38456 25.8856L6.36026 25.8663L6.33535 25.8476L6.30984 25.8295L6.28373 25.8119L6.25703 25.795L6.22974 25.7786L6.20189 25.7628L6.17347 25.7476L6.14449 25.733L6.11496 25.7189L6.0849 25.7055L6.05429 25.6927L6.02316 25.6806L5.99152 25.669L5.95937 25.6581L5.92671 25.6477L5.89356 25.6381L5.85993 25.629L5.82582 25.6206L5.79124 25.6129L5.7562 25.6058L5.72071 25.5993L5.68477 25.5935L5.64839 25.5884L5.61159 25.584L5.57436 25.5802L5.53672 25.5771L5.49868 25.5746L5.46023 25.5729L5.4214 25.5719L5.38219 25.5715L5.30641 25.5724L5.23112 25.575L5.15637 25.5794L5.08216 25.5854L5.00853 25.5931L4.93551 25.6025L4.8631 25.6134L4.79133 25.626L4.72023 25.6401L4.64982 25.6557L4.58012 25.6729L4.51116 25.6915L4.44296 25.7116L4.37554 25.7331L4.30892 25.7561L4.24313 25.7804L4.17819 25.806L4.11413 25.833L4.05096 25.8613L3.98871 25.8908L3.92741 25.9216L3.86706 25.9536L3.80771 25.9868L3.74938 26.0212L3.69207 26.0567L3.63582 26.0933L3.58065 26.131L3.52658 26.1697L3.47364 26.2095L3.42186 26.2503L3.37124 26.2921L3.32182 26.3349L3.27361 26.3785L3.22666 26.4231L3.18096 26.4685L3.13655 26.5148L3.09345 26.5619L3.05168 26.6098L3.01127 26.6585L2.97224 26.7079L2.93462 26.7581L2.89841 26.8089L2.86366 26.8604L2.83037 26.9125L2.79859 26.9653L2.76831 27.0186L2.73958 27.0725L2.71241 27.1269L2.68683 27.1818L2.66286 27.2372L2.64052 27.293L2.61983 27.3493L2.60082 27.406L2.58352 27.463L2.56794 27.5204L2.5541 27.5781L2.54204 27.6362L2.53176 27.6944L2.52331 27.753L2.51669 27.8117L2.51194 27.8706L2.50907 27.9297L2.5081 27.9889L2.50857 28.0245L2.50998 28.0597L2.5123 28.0944L2.51553 28.1286L2.51967 28.1623L2.52469 28.1956L2.53058 28.2284L2.53735 28.2607L2.54496 28.2925L2.55343 28.3238L2.56272 28.3546L2.57283 28.385L2.58375 28.4148L2.59548 28.4441L2.60799 28.4729L2.62127 28.5012L2.63532 28.529L2.65013 28.5563L2.66568 28.583L2.68196 28.6093L2.69896 28.635L2.71667 28.6601L2.73508 28.6847L2.75417 28.7088L2.77394 28.7324L2.79438 28.7554L2.81547 28.7778L2.8372 28.7997L2.85957 28.821L2.88255 28.8418L2.90615 28.862L2.93034 28.8817L2.95512 28.9008L2.98047 28.9193L3.00639 28.9372L3.03287 28.9545L3.05988 28.9713L3.08743 28.9875L3.11549 29.003L3.14407 29.018L3.17315 29.0324L3.2027 29.0462L3.23274 29.0594L3.26324 29.0719L3.29419 29.0839L3.32558 29.0952L3.35741 29.1059L3.38966 29.116L3.42231 29.1255L3.45536 29.1343L3.48879 29.1426L3.52261 29.1501L3.55679 29.1571L3.59131 29.1633L3.62618 29.169L3.66139 29.174L3.69691 29.1783L3.73274 29.182L3.76886 29.185L3.80528 29.1874L3.84196 29.189L3.87892 29.1901L3.91612 29.1904Z" fill="black"/>
<path d="M15.4838 31L15.5455 30.9991L15.6076 30.9964L15.6701 30.992L15.7329 30.9859L15.7959 30.9781L15.8592 30.9687L15.9226 30.9576L15.9861 30.9449L16.0497 30.9307L16.1134 30.9149L16.177 30.8975L16.2406 30.8787L16.3041 30.8584L16.3675 30.8367L16.4306 30.8136L16.4936 30.789L16.5562 30.7632L16.6185 30.736L16.6805 30.7075L16.742 30.6777L16.8031 30.6467L16.8636 30.6145L16.9237 30.581L16.9831 30.5464L17.0419 30.5107L17.1 30.4739L17.1573 30.436L17.2139 30.397L17.2697 30.357L17.3246 30.316L17.3786 30.274L17.4317 30.2311L17.4837 30.1873L17.5347 30.1426L17.5846 30.097L17.6334 30.0506L17.681 30.0034L17.7274 29.9554L17.7725 29.9067L17.8163 29.8572L17.8588 29.807L17.8998 29.7562L17.9394 29.7047L17.9775 29.6526L18.014 29.5999L18.049 29.5467L18.0824 29.4929L18.114 29.4386L18.144 29.3839L18.1722 29.3287L18.1986 29.2731L18.2231 29.217L18.2457 29.1606L18.2664 29.1039L18.2851 29.0469L18.3018 28.9895L18.3164 28.932L18.3289 28.8741L18.3392 28.8161L18.3473 28.7579L18.3531 28.6996L18.3567 28.6411L18.3579 28.5826L18.3574 28.5476L18.3561 28.5131L18.3539 28.479L18.3509 28.4453L18.347 28.4121L18.3423 28.3793L18.3368 28.3469L18.3304 28.315L18.3233 28.2836L18.3153 28.2526L18.3065 28.222L18.297 28.192L18.2866 28.1624L18.2755 28.1332L18.2636 28.1046L18.251 28.0764L18.2376 28.0487L18.2234 28.0215L18.2086 27.9949L18.193 27.9687L18.1767 27.943L18.1597 27.9178L18.1419 27.8932L18.1235 27.869L18.1044 27.8454L18.0846 27.8223L18.0642 27.7998L18.0431 27.7777L18.0213 27.7563L17.9989 27.7353L17.9759 27.715L17.9522 27.6952L17.9279 27.6759L17.903 27.6572L17.8775 27.6391L17.8514 27.6215L17.8247 27.6046L17.7974 27.5882L17.7695 27.5724L17.7411 27.5572L17.7121 27.5426L17.6826 27.5285L17.6525 27.5151L17.6219 27.5023L17.5908 27.4902L17.5592 27.4786L17.527 27.4677L17.4944 27.4574L17.4612 27.4477L17.4276 27.4386L17.3935 27.4302L17.3589 27.4225L17.3238 27.4154L17.2884 27.4089L17.2524 27.4031L17.216 27.398L17.1792 27.3936L17.142 27.3898L17.1044 27.3867L17.0663 27.3842L17.0279 27.3825L16.989 27.3815L16.9498 27.3811L16.8741 27.382L16.7988 27.3846L16.724 27.389L16.6498 27.395L16.5762 27.4027L16.5032 27.4121L16.4307 27.423L16.359 27.4356L16.2879 27.4497L16.2175 27.4653L16.1478 27.4825L16.0788 27.5011L16.0106 27.5212L15.9432 27.5427L15.8766 27.5657L15.8108 27.59L15.7458 27.6156L15.6818 27.6426L15.6186 27.6709L15.5564 27.7004L15.4951 27.7312L15.4347 27.7632L15.3754 27.7964L15.317 27.8308L15.2597 27.8663L15.2035 27.9029L15.1483 27.9406L15.0942 27.9794L15.0413 28.0191L14.9895 28.0599L14.9389 28.1017L14.8895 28.1445L14.8413 28.1881L14.7943 28.2327L14.7486 28.2781L14.7042 28.3244L14.6611 28.3715L14.6193 28.4194L14.5789 28.4681L14.5399 28.5175L14.5023 28.5677L14.4661 28.6185L14.4313 28.67L14.398 28.7221L14.3662 28.7749L14.336 28.8282L14.3072 28.8821L14.2801 28.9365L14.2545 28.9914L14.2305 29.0468L14.2082 29.1026L14.1875 29.1589L14.1685 29.2156L14.1512 29.2726L14.1356 29.33L14.1217 29.3878L14.1097 29.4458L14.0994 29.504L14.091 29.5626L14.0843 29.6213L14.0796 29.6802L14.0767 29.7393L14.0757 29.7985L14.0762 29.8341L14.0776 29.8693L14.0799 29.904L14.0832 29.9382L14.0873 29.9719L14.0923 30.0052L14.0982 30.038L14.105 30.0703L14.1126 30.1021L14.1211 30.1334L14.1304 30.1642L14.1405 30.1946L14.1514 30.2244L14.1631 30.2537L14.1756 30.2825L14.1889 30.3108L14.203 30.3386L14.2178 30.3659L14.2333 30.3927L14.2496 30.4189L14.2666 30.4446L14.2843 30.4697L14.3027 30.4944L14.3218 30.5184L14.3416 30.542L14.362 30.565L14.3831 30.5874L14.4048 30.6093L14.4272 30.6307L14.4502 30.6514L14.4738 30.6716L14.498 30.6913L14.5228 30.7104L14.5481 30.7289L14.574 30.7468L14.6005 30.7641L14.6275 30.7809L14.6551 30.7971L14.6831 30.8126L14.7117 30.8276L14.7408 30.842L14.7703 30.8558L14.8004 30.869L14.8309 30.8815L14.8618 30.8935L14.8932 30.9048L14.9251 30.9155L14.9573 30.9256L14.99 30.9351L15.023 30.9439L15.0564 30.9522L15.0903 30.9597L15.1244 30.9667L15.159 30.9729L15.1938 30.9786L15.229 30.9836L15.2646 30.9879L15.3004 30.9916L15.3365 30.9946L15.3729 30.997L15.4096 30.9986L15.4466 30.9997L15.4838 31Z" fill="black"/>
<path d="M27.0521 31L27.1138 30.9991L27.1759 30.9964L27.2384 30.992L27.3012 30.9859L27.3642 30.9781L27.4275 30.9687L27.4909 30.9576L27.5544 30.9449L27.6181 30.9307L27.6817 30.9149L27.7454 30.8975L27.809 30.8787L27.8724 30.8584L27.9358 30.8367L27.9989 30.8136L28.0619 30.789L28.1245 30.7632L28.1868 30.736L28.2488 30.7075L28.3103 30.6777L28.3714 30.6467L28.4319 30.6145L28.492 30.581L28.5514 30.5464L28.6102 30.5107L28.6683 30.4739L28.7256 30.436L28.7822 30.397L28.838 30.357L28.8929 30.316L28.9469 30.274L29 30.2311L29.052 30.1873L29.103 30.1426L29.153 30.097L29.2017 30.0506L29.2493 30.0034L29.2957 29.9554L29.3408 29.9067L29.3846 29.8572L29.4271 29.807L29.4681 29.7562L29.5077 29.7047L29.5458 29.6526L29.5824 29.5999L29.6173 29.5467L29.6507 29.4929L29.6824 29.4386L29.7123 29.3839L29.7405 29.3287L29.7669 29.2731L29.7914 29.217L29.8141 29.1606L29.8348 29.1039L29.8535 29.0469L29.8701 28.9895L29.8847 28.932L29.8972 28.8741L29.9075 28.8161L29.9156 28.7579L29.9214 28.6996L29.925 28.6411L29.9262 28.5826L29.9257 28.5476L29.9244 28.5131L29.9222 28.479L29.9192 28.4453L29.9154 28.4121L29.9107 28.3793L29.9051 28.3469L29.8988 28.315L29.8916 28.2836L29.8836 28.2526L29.8748 28.222L29.8653 28.192L29.8549 28.1624L29.8438 28.1332L29.8319 28.1046L29.8193 28.0764L29.8059 28.0487L29.7918 28.0215L29.7769 27.9949L29.7613 27.9687L29.745 27.943L29.728 27.9178L29.7102 27.8932L29.6918 27.869L29.6727 27.8454L29.653 27.8223L29.6325 27.7998L29.6114 27.7777L29.5896 27.7563L29.5672 27.7353L29.5442 27.715L29.5205 27.6952L29.4962 27.6759L29.4713 27.6572L29.4458 27.6391L29.4197 27.6215L29.393 27.6046L29.3657 27.5882L29.3378 27.5724L29.3094 27.5572L29.2804 27.5426L29.2509 27.5285L29.2209 27.5151L29.1902 27.5023L29.1591 27.4902L29.1275 27.4786L29.0953 27.4677L29.0627 27.4574L29.0295 27.4477L28.9959 27.4386L28.9618 27.4302L28.9272 27.4225L28.8922 27.4154L28.8567 27.4089L28.8207 27.4031L28.7843 27.398L28.7475 27.3936L28.7103 27.3898L28.6727 27.3867L28.6346 27.3842L28.5962 27.3825L28.5574 27.3815L28.5181 27.3811L28.4424 27.382L28.3671 27.3846L28.2923 27.389L28.2181 27.395L28.1445 27.4027L28.0715 27.4121L27.999 27.423L27.9273 27.4356L27.8562 27.4497L27.7858 27.4653L27.7161 27.4825L27.6471 27.5011L27.5789 27.5212L27.5115 27.5427L27.4449 27.5657L27.3791 27.59L27.3141 27.6156L27.2501 27.6426L27.1869 27.6709L27.1247 27.7004L27.0634 27.7312L27.003 27.7632L26.9437 27.7964L26.8853 27.8308L26.828 27.8663L26.7718 27.9029L26.7166 27.9406L26.6625 27.9794L26.6096 28.0191L26.5578 28.0599L26.5072 28.1017L26.4578 28.1445L26.4096 28.1881L26.3626 28.2327L26.3169 28.2781L26.2725 28.3244L26.2294 28.3715L26.1876 28.4194L26.1472 28.4681L26.1082 28.5175L26.0706 28.5677L26.0344 28.6185L25.9996 28.67L25.9663 28.7221L25.9345 28.7749L25.9043 28.8282L25.8755 28.8821L25.8484 28.9365L25.8228 28.9914L25.7988 29.0468L25.7765 29.1026L25.7558 29.1589L25.7368 29.2156L25.7195 29.2726L25.7039 29.33L25.6901 29.3878L25.678 29.4458L25.6677 29.504L25.6593 29.5626L25.6526 29.6213L25.6479 29.6802L25.645 29.7393L25.6441 29.7985L25.6445 29.8341L25.6459 29.8693L25.6483 29.904L25.6515 29.9382L25.6556 29.9719L25.6606 30.0052L25.6665 30.038L25.6733 30.0703L25.6809 30.1021L25.6894 30.1334L25.6987 30.1642L25.7088 30.1946L25.7197 30.2244L25.7314 30.2537L25.7439 30.2825L25.7572 30.3108L25.7713 30.3386L25.7861 30.3659L25.8016 30.3927L25.8179 30.4189L25.8349 30.4446L25.8526 30.4697L25.871 30.4944L25.8901 30.5184L25.9099 30.542L25.9303 30.565L25.9514 30.5874L25.9732 30.6093L25.9955 30.6307L26.0185 30.6514L26.0421 30.6716L26.0663 30.6913L26.0911 30.7104L26.1164 30.7289L26.1423 30.7468L26.1688 30.7641L26.1958 30.7809L26.2234 30.7971L26.2514 30.8126L26.28 30.8276L26.3091 30.842L26.3387 30.8558L26.3687 30.869L26.3992 30.8815L26.4301 30.8935L26.4615 30.9048L26.4934 30.9155L26.5256 30.9256L26.5583 30.9351L26.5913 30.9439L26.6247 30.9522L26.6586 30.9597L26.6927 30.9667L26.7273 30.9729L26.7621 30.9786L26.7973 30.9836L26.8329 30.9879L26.8687 30.9916L26.9048 30.9946L26.9412 30.997L26.9779 30.9986L27.0149 30.9997L27.0521 31Z" fill="black"/>
<path d="M6.79097 15.8573V26.7723H6.35577V15.8573H6.79097Z" fill="black"/>
<path d="M18.3593 15.8573V28.5825H17.9241V15.8573H18.3593Z" fill="black"/>
<path d="M29.9275 15.8573V28.5825H29.4923V15.8573H29.9275Z" fill="black"/>
</svg>
