<svg width="32" height="40" viewBox="0 0 32 40" fill="none" xmlns="http://www.w3.org/2000/svg">
<path d="M23.5 11C24.3284 11 25 11.6716 25 12.5C25 12.7729 24.9252 13.0276 24.7979 13.248C24.8305 13.3067 24.8506 13.3717 24.8506 13.4414V16.8506C24.9453 17.0473 25 17.2671 25 17.5C25 17.7329 24.9453 17.9527 24.8506 18.1494V26.5596C24.8505 26.6026 24.8412 26.6433 24.8281 26.6826L24.8428 26.708L24.8594 26.7383L24.875 26.7686L24.9043 26.8311L24.917 26.8633L24.9404 26.9297L24.9502 26.9629L24.96 26.9971L24.9756 27.0674L24.9873 27.1396L24.9922 27.1768L24.998 27.251L25 27.3281L24.999 27.3926L24.9941 27.457L24.9873 27.5215L24.9785 27.5859L24.9658 27.6504L24.9512 27.7139L24.9346 27.7773L24.915 27.8408L24.8936 27.9043L24.8691 27.9668L24.8428 28.0293L24.8145 28.0908L24.7832 28.1523L24.75 28.2139L24.7148 28.2744L24.6787 28.334L24.6396 28.3936L24.5986 28.4521L24.5557 28.5107L24.5117 28.5684L24.4648 28.625L24.417 28.6816L24.3682 28.7373L24.3164 28.792L24.2637 28.8457L24.21 28.8984L24.1543 28.9502L24.0967 29.002L24.0391 29.0527L23.9795 29.1016L23.9189 29.1504L23.7939 29.2441L23.7295 29.2891L23.5986 29.377L23.5312 29.4189L23.4639 29.459L23.3945 29.499L23.3252 29.5371L23.2549 29.5742L23.1846 29.6094L23.1133 29.6436L23.041 29.6768L22.9688 29.708L22.8965 29.7383L22.8232 29.7666L22.75 29.7939L22.6758 29.8193L22.6016 29.8438L22.5283 29.8662L22.4531 29.8867L22.3789 29.9062L22.3047 29.9238L22.2305 29.9395L22.1562 29.9531L22.082 29.9658L22.0088 29.9756L21.9346 29.9844L21.8613 29.9912L21.7891 29.9961L21.7158 29.999L21.6445 30H21.6006L21.5576 29.998L21.5146 29.9971L21.4717 29.9941L21.3877 29.9863L21.3057 29.9766L21.2646 29.9697L21.2246 29.9629L21.1846 29.9551L21.1455 29.9473L21.1064 29.9385L21.0674 29.9287L21.0293 29.918L20.9912 29.9062L20.9541 29.8945L20.8818 29.8691L20.8457 29.8555L20.8115 29.8408L20.7764 29.8252L20.7422 29.8096L20.709 29.793L20.6445 29.7578L20.6123 29.7393L20.5518 29.7002L20.5215 29.6797L20.4932 29.6592L20.4648 29.6367L20.4102 29.5918L20.3838 29.5684L20.3594 29.5439L20.334 29.5195L20.3105 29.4941L20.2871 29.4678L20.2646 29.4414L20.2432 29.4141L20.2227 29.3857L20.1836 29.3291L20.1484 29.2686L20.1318 29.2383L20.1162 29.207L20.1016 29.1748L20.0879 29.1426L20.0752 29.1094L20.0635 29.0762L20.0527 29.042L20.043 29.0078L20.0342 28.9727L20.0264 28.9365L20.0195 28.9004L20.0137 28.8633L20.0088 28.8262L20.0049 28.7881L20.002 28.75L20 28.6719L20.001 28.6064L20.0049 28.541L20.0098 28.4766L20.0176 28.4111L20.0273 28.3467L20.04 28.2822L20.0537 28.2178L20.0703 28.1543L20.0879 28.0908L20.1084 28.0273L20.1309 27.9648L20.1543 27.9023L20.1807 27.8408L20.209 27.7803L20.2383 27.7188L20.2705 27.6592L20.3037 27.5996L20.3389 27.54L20.376 27.4824L20.415 27.4248L20.4561 27.3682L20.498 27.3115L20.542 27.2559L20.5879 27.2012L20.6348 27.1475L20.6836 27.0947L20.7334 27.043L20.7861 26.9912L20.8389 26.9414L20.8936 26.8916L20.9502 26.8438L21.0078 26.7969L21.0674 26.75L21.127 26.7051L21.1895 26.6611L21.252 26.6182L21.3164 26.5771L21.3828 26.5361L21.4492 26.4971L21.5176 26.459L21.5869 26.4219L21.6572 26.3867L21.7285 26.3525L21.8018 26.3203L21.875 26.2891L21.9502 26.2588L22.0264 26.2305L22.1025 26.2041L22.1807 26.1787L22.2588 26.1553L22.3389 26.1328L22.4189 26.1123L22.501 26.0928L22.583 26.0762L22.666 26.0605L22.75 26.0459L22.834 26.0342L22.9199 26.0234L23.0059 26.0156L23.0918 26.0088L23.1797 26.0039L23.2676 26.001L23.3555 26H23.4014L23.5361 26.0059L23.624 26.0137L23.667 26.0186L23.751 26.0303L23.793 26.0381L23.834 26.0459L23.8506 26.0488V18.957C23.738 18.984 23.6209 19 23.5 19H20.5C19.6716 19 19 18.3284 19 17.5C19 16.6716 19.6716 16 20.5 16H23.5C23.6208 16 23.7381 16.015 23.8506 16.042V13.957C23.738 13.984 23.6209 14 23.5 14H12.8506V26.5596C12.8505 26.6026 12.8412 26.6433 12.8281 26.6826L12.8428 26.708L12.8594 26.7383L12.875 26.7686L12.9043 26.8311L12.917 26.8633L12.9404 26.9297L12.9502 26.9629L12.96 26.9971L12.9756 27.0674L12.9873 27.1396L12.9922 27.1768L12.998 27.251L13 27.3281L12.999 27.3926L12.9941 27.457L12.9873 27.5215L12.9785 27.5859L12.9658 27.6504L12.9512 27.7139L12.9346 27.7773L12.915 27.8408L12.8936 27.9043L12.8691 27.9668L12.8428 28.0293L12.8145 28.0908L12.7832 28.1523L12.75 28.2139L12.7148 28.2744L12.6787 28.334L12.6396 28.3936L12.5986 28.4521L12.5557 28.5107L12.5117 28.5684L12.4648 28.625L12.417 28.6816L12.3682 28.7373L12.3164 28.792L12.2637 28.8457L12.21 28.8984L12.1543 28.9502L12.0967 29.002L12.0391 29.0527L11.9795 29.1016L11.9189 29.1504L11.7939 29.2441L11.7295 29.2891L11.5986 29.377L11.5312 29.4189L11.4639 29.459L11.3945 29.499L11.3252 29.5371L11.2549 29.5742L11.1846 29.6094L11.1133 29.6436L11.041 29.6768L10.9688 29.708L10.8965 29.7383L10.8232 29.7666L10.75 29.7939L10.6758 29.8193L10.6016 29.8438L10.5283 29.8662L10.4531 29.8867L10.3789 29.9062L10.3047 29.9238L10.2305 29.9395L10.1562 29.9531L10.082 29.9658L10.0088 29.9756L9.93457 29.9844L9.86133 29.9912L9.78906 29.9961L9.71582 29.999L9.64453 30H9.60059L9.55762 29.998L9.51465 29.9971L9.47168 29.9941L9.3877 29.9863L9.30566 29.9766L9.26465 29.9697L9.22461 29.9629L9.18457 29.9551L9.14551 29.9473L9.10645 29.9385L9.06738 29.9287L9.0293 29.918L8.99121 29.9062L8.9541 29.8945L8.88184 29.8691L8.8457 29.8555L8.81152 29.8408L8.77637 29.8252L8.74219 29.8096L8.70898 29.793L8.64453 29.7578L8.6123 29.7393L8.55176 29.7002L8.52148 29.6797L8.49316 29.6592L8.46484 29.6367L8.41016 29.5918L8.38379 29.5684L8.35938 29.5439L8.33398 29.5195L8.31055 29.4941L8.28711 29.4678L8.26465 29.4414L8.24316 29.4141L8.22266 29.3857L8.18359 29.3291L8.14844 29.2686L8.13184 29.2383L8.11621 29.207L8.10156 29.1748L8.08789 29.1426L8.0752 29.1094L8.06348 29.0762L8.05273 29.042L8.04297 29.0078L8.03418 28.9727L8.02637 28.9365L8.01953 28.9004L8.01367 28.8633L8.00879 28.8262L8.00488 28.7881L8.00195 28.75L8 28.6719L8.00098 28.6064L8.00488 28.541L8.00977 28.4766L8.01758 28.4111L8.02734 28.3467L8.04004 28.2822L8.05371 28.2178L8.07031 28.1543L8.08789 28.0908L8.1084 28.0273L8.13086 27.9648L8.1543 27.9023L8.18066 27.8408L8.20898 27.7803L8.23828 27.7188L8.27051 27.6592L8.30371 27.5996L8.33887 27.54L8.37598 27.4824L8.41504 27.4248L8.45605 27.3682L8.49805 27.3115L8.54199 27.2559L8.58789 27.2012L8.63477 27.1475L8.68359 27.0947L8.7334 27.043L8.78613 26.9912L8.83887 26.9414L8.89355 26.8916L8.9502 26.8438L9.00781 26.7969L9.06738 26.75L9.12695 26.7051L9.18945 26.6611L9.25195 26.6182L9.31641 26.5771L9.38281 26.5361L9.44922 26.4971L9.51758 26.459L9.58691 26.4219L9.65723 26.3867L9.72852 26.3525L9.80176 26.3203L9.875 26.2891L9.9502 26.2588L10.0264 26.2305L10.1025 26.2041L10.1807 26.1787L10.2588 26.1553L10.3389 26.1328L10.4189 26.1123L10.501 26.0928L10.583 26.0762L10.666 26.0605L10.75 26.0459L10.834 26.0342L10.9199 26.0234L11.0059 26.0156L11.0918 26.0088L11.1797 26.0039L11.2676 26.001L11.3555 26H11.4014L11.5361 26.0059L11.624 26.0137L11.667 26.0186L11.751 26.0303L11.793 26.0381L11.834 26.0459L11.8506 26.0488V13.8506C11.3478 13.6084 11 13.0955 11 12.5C11 11.6716 11.6716 11 12.5 11H23.5Z" fill="black"/>
<path d="M15.6465 24.0977C16.1447 24.0977 16.5488 24.5017 16.5488 25C16.5488 25.4982 16.1447 25.9023 15.6465 25.9023C15.1482 25.9023 14.7442 25.4982 14.7441 25C14.7441 24.5017 15.1482 24.0977 15.6465 24.0977Z" fill="black"/>
</svg>
