<svg width="32" height="40" viewBox="0 0 32 40" fill="none" xmlns="http://www.w3.org/2000/svg">
<path d="M9.35027 10.5C9.35027 9.67156 10.0218 9 10.8502 9H24.85C25.6784 9 26.35 9.67156 26.35 10.5C26.35 11.3284 25.6784 12 24.85 12H10.8502C10.0218 12 9.35027 11.3284 9.35027 10.5Z" fill="black"/>
<path d="M11.3688 25.5274V11.4727C11.3688 11.2117 11.5927 11 11.8688 11C12.1448 11 12.3688 11.2117 12.3688 11.4727V25.5274C12.3687 25.7884 12.1448 25.9997 11.8688 25.9997C11.5928 25.9997 11.3688 25.7884 11.3688 25.5274Z" fill="black"/>
<path d="M23.85 25.5274V11.4727C23.85 11.2117 24.074 11 24.35 11C24.6261 11 24.85 11.2117 24.85 11.4727V25.5274C24.85 25.7884 24.626 25.9997 24.35 25.9997C24.074 25.9997 23.8501 25.7884 23.85 25.5274Z" fill="black"/>
<path d="M24.0517 30.0667L19.9879 26.0033C19.9124 25.9278 20.0454 25.6724 20.2849 25.4329C20.5243 25.1935 20.7798 25.0605 20.8553 25.136L24.9192 29.1993C24.9946 29.2748 24.8615 29.5302 24.622 29.7696C24.3826 30.009 24.1272 30.1421 24.0517 30.0667Z" fill="black"/>
<path d="M24.0507 25.3468L19.9868 29.4102C19.9113 29.4857 20.0444 29.7411 20.2838 29.9805C20.5233 30.22 20.7788 30.353 20.8542 30.2775L24.9181 26.2141C24.9935 26.1387 24.8604 25.8833 24.621 25.6439C24.3815 25.4045 24.1262 25.2714 24.0507 25.3468Z" fill="black"/>
<path d="M6.01693 27.9389L10.9742 23.6442C11.0663 23.5645 11.5075 23.9229 11.9594 24.4445C12.4113 24.9661 12.7032 25.454 12.6111 25.5337L7.65387 29.8284C7.56174 29.908 7.12062 29.5495 6.66879 29.028C6.21697 28.5064 5.92496 28.0187 6.01693 27.9389Z" fill="black"/>
</svg>
