<svg width="32" height="40" viewBox="0 0 32 40" fill="none" xmlns="http://www.w3.org/2000/svg">
<path d="M4.99967 10.5C4.99967 9.67158 5.67125 9 6.49969 9H27C27.8284 9 28.5 9.67158 28.5 10.5C28.5 11.3285 27.8284 12 27 12H6.49969C5.67125 12 4.99967 11.3285 4.99967 10.5Z" fill="black"/>
<path d="M4.99967 16.0001C4.99967 15.1717 5.67125 14.5001 6.49969 14.5001H27C27.8284 14.5001 28.5 15.1717 28.5 16.0001C28.5 16.8285 27.8284 17.5001 27 17.5001H6.49969C5.67125 17.5001 4.99967 16.8285 4.99967 16.0001Z" fill="black"/>
<path d="M6.99041 11C7.26643 11 7.49036 11.2117 7.49042 11.4727V25.5281C7.49026 25.789 7.26637 26.0002 6.99041 26.0002C6.71451 26.0002 6.49056 25.7889 6.49041 25.5281V11.4727C6.49047 11.2118 6.71445 11.0001 6.99041 11Z" fill="black"/>
<path d="M15.3022 28.1709L20.2596 23.8761C20.3517 23.7964 20.793 24.1548 21.2449 24.6764C21.6968 25.198 21.9887 25.6859 21.8966 25.7657L16.9392 30.0604C16.8471 30.1401 16.4059 29.7816 15.9541 29.26C15.5023 28.7384 15.2102 28.2507 15.3022 28.1709Z" fill="black"/>
<path d="M8.16584 28.4346L13.1233 24.1398C13.2153 24.06 13.6566 24.4185 14.1085 24.9401C14.5604 25.4617 14.8523 25.9496 14.7602 26.0294L9.80283 30.3241C9.7107 30.4038 9.26956 30.0452 8.81772 29.5237C8.36588 29.0021 8.07386 28.5144 8.16584 28.4346Z" fill="black"/>
<path d="M13.9905 11C14.2665 11 14.4905 11.2117 14.4905 11.4727V25.5281C14.4904 25.789 14.2665 26.0002 13.9905 26.0002C13.7146 26.0002 13.4907 25.7889 13.4905 25.5281V11.4727C13.4906 11.2118 13.7146 11.0001 13.9905 11Z" fill="black"/>
<path d="M20.9907 11C21.2667 11 21.4906 11.2117 21.4907 11.4727V25.5281C21.4905 25.789 21.2667 26.0002 20.9907 26.0002C20.7148 26.0002 20.4908 25.7889 20.4907 25.5281V11.4727C20.4907 11.2118 20.7147 11.0001 20.9907 11Z" fill="black"/>
<path d="M27.9908 11C28.2668 11 28.4908 11.2117 28.4908 11.4727V25.5281C28.4907 25.789 28.2668 26.0002 27.9908 26.0002C27.7149 26.0002 27.491 25.7889 27.4908 25.5281V11.4727C27.4909 11.2118 27.7148 11.0001 27.9908 11Z" fill="black"/>
<path d="M27.3313 29.0325L24.0185 25.7197C23.957 25.6582 24.0654 25.4499 24.2606 25.2547C24.4558 25.0595 24.6641 24.9511 24.7256 25.0126L28.0384 28.3254C28.0999 28.3869 27.9914 28.5951 27.7962 28.7903C27.601 28.9855 27.3929 29.094 27.3313 29.0325Z" fill="black"/>
<path d="M27.3303 25.1841L24.0175 28.4969C23.956 28.5584 24.0645 28.7667 24.2597 28.9619C24.4549 29.1571 24.6631 29.2655 24.7246 29.204L28.0375 25.8912C28.0989 25.8296 27.9904 25.6215 27.7952 25.4263C27.6001 25.2311 27.3919 25.1226 27.3303 25.1841Z" fill="black"/>
<path d="M6.33102 29.0325L3.01821 25.7197C2.95669 25.6582 3.06513 25.4499 3.26033 25.2547C3.45553 25.0595 3.6638 24.9511 3.72532 25.0126L7.03814 28.3254C7.09962 28.3869 6.99109 28.5951 6.79592 28.7903C6.60074 28.9855 6.39257 29.094 6.33102 29.0325Z" fill="black"/>
<path d="M6.33004 25.1841L3.01723 28.4969C2.95571 28.5584 3.06416 28.7667 3.25936 28.9619C3.45455 29.1571 3.66283 29.2655 3.72435 29.204L7.03716 25.8912C7.09864 25.8296 6.99012 25.6215 6.79494 25.4263C6.59976 25.2311 6.39159 25.1226 6.33004 25.1841Z" fill="black"/>
</svg>
