<svg width="32" height="40" viewBox="0 0 32 40" fill="none" xmlns="http://www.w3.org/2000/svg">
<path d="M4.9998 10.5001C4.9998 9.67163 5.67142 9 6.49991 9H27.0015C27.83 9 28.5016 9.67163 28.5016 10.5001C28.5016 11.3286 27.83 12.0002 27.0015 12.0002H6.49991C5.67142 12.0002 4.9998 11.3286 4.9998 10.5001Z" fill="black"/>
<path d="M4.9998 16.0006C4.9998 15.1721 5.67142 14.5004 6.49991 14.5004H27.0015C27.83 14.5004 28.5016 15.1721 28.5016 16.0006C28.5016 16.829 27.83 17.5007 27.0015 17.5007H6.49991C5.67142 17.5007 4.9998 16.829 4.9998 16.0006Z" fill="black"/>
<path d="M6.99067 11.0002C7.2667 11.0002 7.49065 11.2119 7.49071 11.4729V25.5291C7.49055 25.79 7.26664 26.0013 6.99067 26.0013C6.71475 26.0013 6.49079 25.79 6.49063 25.5291V11.4729C6.49069 11.2119 6.71469 11.0002 6.99067 11.0002Z" fill="black"/>
<path d="M22.3032 28.1721L27.2609 23.8771C27.353 23.7973 27.7943 24.1558 28.2463 24.6774C28.6982 25.1991 28.9901 25.687 28.898 25.7668L23.9403 30.0618C23.8482 30.1415 23.407 29.7829 22.9551 29.2613C22.5033 28.7397 22.2112 28.252 22.3032 28.1721Z" fill="black"/>
<path d="M8.16617 28.4358L13.1239 24.1408C13.216 24.061 13.6573 24.4195 14.1092 24.9411C14.5611 25.4628 14.8531 25.9507 14.761 26.0305L9.80327 30.3255C9.71113 30.4052 9.26997 30.0466 8.8181 29.525C8.36623 29.0034 8.07419 28.5157 8.16617 28.4358Z" fill="black"/>
<path d="M13.9912 11.0002C14.2673 11.0002 14.4912 11.2119 14.4913 11.4729V25.5291C14.4911 25.79 14.2672 26.0013 13.9912 26.0013C13.7153 26.0013 13.4914 25.79 13.4912 25.5291V11.4729C13.4913 11.2119 13.7153 11.0002 13.9912 11.0002Z" fill="black"/>
<path d="M20.9919 11.0002C21.2679 11.0002 21.4918 11.2119 21.4919 11.4729V25.5291C21.4917 25.79 21.2678 26.0013 20.9919 26.0013C20.7159 26.0013 20.492 25.79 20.4918 25.5291V11.4729C20.4919 11.2119 20.7159 11.0002 20.9919 11.0002Z" fill="black"/>
<path d="M27.9924 11.0002C28.2685 11.0002 28.4924 11.2119 28.4925 11.4729V25.5291C28.4923 25.79 28.2684 26.0013 27.9924 26.0013C27.7165 26.0013 27.4925 25.79 27.4924 25.5291V11.4729C27.4924 11.2119 27.7164 11.0002 27.9924 11.0002Z" fill="black"/>
<path d="M20.3323 29.0338L17.0193 25.7208C16.9578 25.6592 17.0662 25.451 17.2615 25.2558C17.4567 25.0605 17.6649 24.9521 17.7265 25.0136L21.0395 28.3266C21.101 28.3882 20.9925 28.5964 20.7973 28.7916C20.6021 28.9868 20.3939 29.0953 20.3323 29.0338Z" fill="black"/>
<path d="M20.3314 25.1851L17.0183 28.4981C16.9568 28.5597 17.0653 28.7679 17.2605 28.9632C17.4557 29.1584 17.664 29.2668 17.7255 29.2053L21.0385 25.8923C21.1 25.8307 20.9915 25.6225 20.7963 25.4273C20.6011 25.2321 20.3929 25.1236 20.3314 25.1851Z" fill="black"/>
<path d="M6.33123 29.0338L3.01821 25.7208C2.95668 25.6592 3.06514 25.451 3.26035 25.2558C3.45556 25.0605 3.66384 24.9521 3.72537 25.0136L7.0384 28.3266C7.09988 28.3882 6.99135 28.5964 6.79616 28.7916C6.60097 28.9868 6.39278 29.0953 6.33123 29.0338Z" fill="black"/>
<path d="M6.33026 25.1851L3.01723 28.4981C2.95571 28.5597 3.06416 28.7679 3.25937 28.9632C3.45458 29.1584 3.66287 29.2668 3.72439 29.2053L7.03742 25.8923C7.09891 25.8307 6.99038 25.6225 6.79519 25.4273C6.59999 25.2321 6.39181 25.1236 6.33026 25.1851Z" fill="black"/>
</svg>
