<svg width="32" height="40" viewBox="0 0 32 40" fill="none" xmlns="http://www.w3.org/2000/svg">
<path d="M4.99589 11.4999C4.99589 10.6715 5.66744 10 6.49584 10H26.9951C27.8235 10 28.495 10.6715 28.495 11.4999C28.495 12.3283 27.8235 12.9999 26.9951 12.9999H6.49584C5.66744 12.9999 4.99589 12.3283 4.99589 11.4999Z" fill="black"/>
<path d="M4.99589 16.9997C4.99589 16.1713 5.66744 15.4998 6.49584 15.4998H26.9951C27.8235 15.4998 28.495 16.1713 28.495 16.9997C28.495 17.8281 27.8235 18.4997 26.9951 18.4997H6.49584C5.66744 18.4997 4.99589 17.8281 4.99589 16.9997Z" fill="black"/>
<path d="M6.98654 11.9999C7.26254 11.9999 7.48646 12.2116 7.48652 12.4726V26.5272C7.48636 26.7881 7.26248 26.9994 6.98654 26.9994C6.71065 26.9993 6.48671 26.788 6.48656 26.5272V12.4726C6.48662 12.2116 6.71059 12 6.98654 11.9999Z" fill="black"/>
<path d="M13.9863 11.9999C14.2623 11.9999 14.4862 12.2116 14.4863 12.4726V26.5272C14.4861 26.7881 14.2623 26.9994 13.9863 26.9994C13.7104 26.9993 13.4865 26.788 13.4863 26.5272V12.4726C13.4864 12.2116 13.7104 12 13.9863 11.9999Z" fill="black"/>
<path d="M20.9861 11.9999C21.2621 11.9999 21.486 12.2116 21.4861 12.4726V26.5272C21.4859 26.7881 21.2621 26.9994 20.9861 26.9994C20.7102 26.9993 20.4863 26.788 20.4861 26.5272V12.4726C20.4862 12.2116 20.7102 12 20.9861 11.9999Z" fill="black"/>
<path d="M27.9859 11.9999C28.2619 11.9999 28.4858 12.2116 28.4858 12.4726V26.5272C28.4857 26.7881 28.2618 26.9994 27.9859 26.9994C27.71 26.9993 27.486 26.788 27.4859 26.5272V12.4726C27.4859 12.2116 27.7099 12 27.9859 11.9999Z" fill="black"/>
<path d="M6.33085 30.0315L3.01821 26.7188C2.95669 26.6573 3.06513 26.449 3.26032 26.2538C3.45551 26.0587 3.66377 25.9502 3.72529 26.0117L7.03793 29.3244C7.0994 29.3859 6.99089 29.5941 6.79572 29.7892C6.60055 29.9844 6.39239 30.0929 6.33085 30.0315Z" fill="black"/>
<path d="M6.32987 26.1832L3.01723 29.4958C2.95571 29.5574 3.06415 29.7656 3.25934 29.9608C3.45453 30.156 3.66279 30.2644 3.72431 30.2029L7.03695 26.8903C7.09843 26.8287 6.98991 26.6206 6.79474 26.4254C6.59957 26.2302 6.39141 26.1217 6.32987 26.1832Z" fill="black"/>
<path d="M13.3316 30.0315L10.0189 26.7188C9.9574 26.6573 10.0658 26.449 10.261 26.2538C10.4562 26.0587 10.6645 25.9502 10.726 26.0117L14.0386 29.3244C14.1001 29.3859 13.9916 29.5941 13.7964 29.7892C13.6013 29.9844 13.3931 30.0929 13.3316 30.0315Z" fill="black"/>
<path d="M13.3306 26.1832L10.0179 29.4958C9.95642 29.5574 10.0649 29.7656 10.2601 29.9608C10.4552 30.156 10.6635 30.2644 10.725 30.2029L14.0377 26.8903C14.0991 26.8287 13.9906 26.6206 13.7955 26.4254C13.6003 26.2302 13.3921 26.1217 13.3306 26.1832Z" fill="black"/>
<path d="M20.3371 30.0315L17.0245 26.7188C16.963 26.6573 17.0714 26.449 17.2666 26.2538C17.4618 26.0587 17.6701 25.9502 17.7316 26.0117L21.0442 29.3244C21.1057 29.3859 20.9972 29.5941 20.802 29.7892C20.6069 29.9844 20.3987 30.0929 20.3371 30.0315Z" fill="black"/>
<path d="M20.3362 26.1832L17.0235 29.4958C16.962 29.5574 17.0705 29.7656 17.2656 29.9608C17.4608 30.156 17.6691 30.2644 17.7306 30.2029L21.0433 26.8903C21.1047 26.8287 20.9962 26.6206 20.801 26.4254C20.6059 26.2302 20.3977 26.1217 20.3362 26.1832Z" fill="black"/>
<path d="M27.3369 30.0315L24.0242 26.7188C23.9627 26.6573 24.0712 26.449 24.2664 26.2538C24.4615 26.0587 24.6698 25.9502 24.7313 26.0117L28.044 29.3244C28.1054 29.3859 27.9969 29.5941 27.8018 29.7892C27.6066 29.9844 27.3984 30.0929 27.3369 30.0315Z" fill="black"/>
<path d="M27.3359 26.1832L24.0233 29.4958C23.9617 29.5574 24.0702 29.7656 24.2654 29.9608C24.4606 30.156 24.6688 30.2644 24.7303 30.2029L28.043 26.8903C28.1045 26.8287 27.9959 26.6206 27.8008 26.4254C27.6056 26.2302 27.3974 26.1217 27.3359 26.1832Z" fill="black"/>
</svg>
