<svg width="32" height="40" viewBox="0 0 32 40" fill="none" xmlns="http://www.w3.org/2000/svg">
<path d="M4.99611 10.5001C4.99611 9.67162 5.66773 9 6.49622 9H26.9977C27.8261 9 28.4978 9.67162 28.4978 10.5001C28.4978 11.3286 27.8261 12.0002 26.9977 12.0002H6.49622C5.66773 12.0002 4.99611 11.3286 4.99611 10.5001Z" fill="black"/>
<path d="M4.99611 16.0005C4.99611 15.172 5.66773 14.5004 6.49622 14.5004H26.9977C27.8261 14.5004 28.4978 15.172 28.4978 16.0005C28.4978 16.829 27.8261 17.5006 26.9977 17.5006H6.49622C5.66773 17.5006 4.99611 16.829 4.99611 16.0005Z" fill="black"/>
<path d="M6.98697 11.0001C7.263 11.0001 7.48694 11.2118 7.487 11.4728V25.529C7.48685 25.7899 7.26294 26.0012 6.98697 26.0012C6.71105 26.0011 6.48709 25.7899 6.48693 25.529V11.4728C6.48699 11.2119 6.71099 11.0002 6.98697 11.0001Z" fill="black"/>
<path d="M22.1683 28.4356L27.126 24.1406C27.218 24.0609 27.6593 24.4194 28.1113 24.941C28.5632 25.4626 28.8551 25.9505 28.763 26.0303L23.8053 30.3253C23.7132 30.405 23.2721 30.0464 22.8202 29.5248C22.3683 29.0032 22.0763 28.5155 22.1683 28.4356Z" fill="black"/>
<path d="M13.9875 11.0001C14.2635 11.0001 14.4875 11.2118 14.4875 11.4728V25.529C14.4874 25.7899 14.2635 26.0012 13.9875 26.0012C13.7116 26.0011 13.4876 25.7899 13.4875 25.529V11.4728C13.4875 11.2119 13.7115 11.0002 13.9875 11.0001Z" fill="black"/>
<path d="M20.9881 11.0001C21.2641 11.0001 21.488 11.2118 21.4881 11.4728V25.529C21.4879 25.7899 21.264 26.0012 20.9881 26.0012C20.7121 26.0011 20.4882 25.7899 20.488 25.529V11.4728C20.4881 11.2119 20.7121 11.0002 20.9881 11.0001Z" fill="black"/>
<path d="M27.9886 11.0001C28.2646 11.0001 28.4885 11.2118 28.4886 11.4728V25.529C28.4884 25.7899 28.2645 26.0012 27.9886 26.0012C27.7126 26.0011 27.4887 25.7899 27.4885 25.529V11.4728C27.4886 11.2119 27.7126 11.0002 27.9886 11.0001Z" fill="black"/>
<path d="M6.33121 29.0336L3.01821 25.7206C2.95668 25.6591 3.06514 25.4508 3.26035 25.2556C3.45556 25.0604 3.66384 24.9519 3.72536 25.0135L7.03836 28.3265C7.09985 28.388 6.99132 28.5962 6.79613 28.7914C6.60094 28.9866 6.39276 29.0951 6.33121 29.0336Z" fill="black"/>
<path d="M6.33023 25.185L3.01723 28.498C2.95571 28.5595 3.06416 28.7678 3.25937 28.963C3.45458 29.1582 3.66286 29.2666 3.72439 29.2051L7.03739 25.8921C7.09887 25.8306 6.99034 25.6224 6.79515 25.4272C6.59996 25.232 6.39178 25.1235 6.33023 25.185Z" fill="black"/>
<path d="M13.3327 29.0336L10.0197 25.7206C9.95815 25.6591 10.0666 25.4508 10.2618 25.2556C10.457 25.0604 10.6653 24.9519 10.7268 25.0135L14.0398 28.3265C14.1013 28.388 13.9928 28.5962 13.7976 28.7914C13.6024 28.9866 13.3942 29.0951 13.3327 29.0336Z" fill="black"/>
<path d="M13.3317 25.185L10.0187 28.498C9.95717 28.5595 10.0656 28.7678 10.2608 28.963C10.456 29.1582 10.6643 29.2666 10.7259 29.2051L14.0389 25.8921C14.1003 25.8306 13.9918 25.6224 13.7966 25.4272C13.6014 25.232 13.3932 25.1235 13.3317 25.185Z" fill="black"/>
<path d="M20.339 29.0336L17.026 25.7206C16.9645 25.6591 17.073 25.4508 17.2682 25.2556C17.4634 25.0604 17.6717 24.9519 17.7332 25.0135L21.0462 28.3265C21.1077 28.388 20.9991 28.5962 20.8039 28.7914C20.6088 28.9866 20.4006 29.0951 20.339 29.0336Z" fill="black"/>
<path d="M20.338 25.185L17.025 28.498C16.9635 28.5595 17.072 28.7678 17.2672 28.963C17.4624 29.1582 17.6707 29.2666 17.7322 29.2051L21.0452 25.8921C21.1067 25.8306 20.9982 25.6224 20.803 25.4272C20.6078 25.232 20.3996 25.1235 20.338 25.185Z" fill="black"/>
</svg>
