<svg width="32" height="40" viewBox="0 0 32 40" fill="none" xmlns="http://www.w3.org/2000/svg">
<path d="M8.38451 10.5C8.38451 9.67159 9.0561 9 9.88455 9H23.885C24.7134 9 25.385 9.67159 25.385 10.5C25.385 11.3285 24.7134 12.0001 23.885 12.0001H9.88455C9.0561 12.0001 8.38451 11.3285 8.38451 10.5Z" fill="black"/>
<path d="M22.9035 25.5281V11.4728C22.9035 11.2118 23.1274 11.0001 23.4035 11.0001C23.6796 11.0001 23.9035 11.2118 23.9035 11.4728V25.5281C23.9035 25.7891 23.6795 26.0005 23.4035 26.0005C23.1275 26.0005 22.9035 25.7891 22.9035 25.5281Z" fill="black"/>
<path d="M9.88455 25.5281V11.4728C9.88455 11.2118 10.1085 11.0001 10.3846 11.0001C10.6606 11.0001 10.8846 11.2118 10.8846 11.4728V25.5281C10.8845 25.7891 10.6606 26.0005 10.3846 26.0005C10.1085 26.0005 9.8846 25.7891 9.88455 25.5281Z" fill="black"/>
<path d="M10.0863 30.0682L6.02221 26.0046C5.94674 25.9292 6.07978 25.6737 6.31924 25.4343C6.55871 25.1948 6.81421 25.0618 6.88968 25.1373L10.9537 29.2008C11.0291 29.2763 10.896 29.5317 10.6566 29.7711C10.4171 30.0105 10.1618 30.1436 10.0863 30.0682Z" fill="black"/>
<path d="M10.0852 25.3481L6.02114 29.4117C5.94566 29.4872 6.07871 29.7426 6.31817 29.9821C6.55763 30.2215 6.81313 30.3545 6.8886 30.2791L10.9527 26.2155C11.0281 26.14 10.8949 25.8847 10.6555 25.6453C10.4161 25.4059 10.1607 25.2727 10.0852 25.3481Z" fill="black"/>
<path d="M17.5517 28.4397L22.5092 24.1449C22.6012 24.0651 23.0425 24.4236 23.4944 24.9452C23.9463 25.4668 24.2383 25.9547 24.1462 26.0345L19.1887 30.3293C19.0966 30.409 18.6554 30.0504 18.2036 29.5289C17.7517 29.0073 17.4597 28.5196 17.5517 28.4397Z" fill="black"/>
</svg>
