<svg width="32" height="40" viewBox="0 0 32 40" fill="none" xmlns="http://www.w3.org/2000/svg">
<path d="M4.9998 10.5001C4.9998 9.67163 5.67142 9 6.49991 9H27.0015C27.83 9 28.5016 9.67163 28.5016 10.5001C28.5016 11.3286 27.83 12.0002 27.0015 12.0002H6.49991C5.67142 12.0002 4.9998 11.3286 4.9998 10.5001Z" fill="black"/>
<path d="M4.9998 16.0006C4.9998 15.1721 5.67142 14.5004 6.49991 14.5004H27.0015C27.83 14.5004 28.5016 15.1721 28.5016 16.0006C28.5016 16.829 27.83 17.5007 27.0015 17.5007H6.49991C5.67142 17.5007 4.9998 16.829 4.9998 16.0006Z" fill="black"/>
<path d="M6.99067 11.0002C7.2667 11.0002 7.49065 11.2119 7.49071 11.4729V25.5291C7.49055 25.79 7.26664 26.0013 6.99067 26.0013C6.71475 26.0013 6.49079 25.79 6.49063 25.5291V11.4729C6.49069 11.2119 6.71469 11.0002 6.99067 11.0002Z" fill="black"/>
<path d="M22.3032 28.1721L27.2609 23.8771C27.353 23.7973 27.7943 24.1558 28.2463 24.6774C28.6982 25.1991 28.9901 25.687 28.898 25.7668L23.9403 30.0618C23.8482 30.1415 23.407 29.7829 22.9551 29.2613C22.5033 28.7397 22.2112 28.252 22.3032 28.1721Z" fill="black"/>
<path d="M15.1669 28.4358L20.1246 24.1408C20.2167 24.061 20.658 24.4195 21.1099 24.9411C21.5619 25.4628 21.8538 25.9507 21.7617 26.0305L16.804 30.3255C16.7119 30.4052 16.2707 30.0466 15.8188 29.525C15.367 29.0034 15.0749 28.5157 15.1669 28.4358Z" fill="black"/>
<path d="M13.9912 11.0002C14.2673 11.0002 14.4912 11.2119 14.4913 11.4729V25.5291C14.4911 25.79 14.2672 26.0013 13.9912 26.0013C13.7153 26.0013 13.4914 25.79 13.4912 25.5291V11.4729C13.4913 11.2119 13.7153 11.0002 13.9912 11.0002Z" fill="black"/>
<path d="M20.9919 11.0002C21.2679 11.0002 21.4918 11.2119 21.4919 11.4729V25.5291C21.4917 25.79 21.2678 26.0013 20.9919 26.0013C20.7159 26.0013 20.492 25.79 20.4918 25.5291V11.4729C20.4919 11.2119 20.7159 11.0002 20.9919 11.0002Z" fill="black"/>
<path d="M27.9924 11.0002C28.2685 11.0002 28.4924 11.2119 28.4925 11.4729V25.5291C28.4923 25.79 28.2684 26.0013 27.9924 26.0013C27.7165 26.0013 27.4925 25.79 27.4924 25.5291V11.4729C27.4924 11.2119 27.7164 11.0002 27.9924 11.0002Z" fill="black"/>
<path d="M13.3318 29.0338L10.0188 25.7208C9.95723 25.6592 10.0657 25.451 10.2609 25.2558C10.4561 25.0605 10.6644 24.9521 10.7259 25.0136L14.0389 28.3266C14.1004 28.3882 13.9919 28.5964 13.7967 28.7916C13.6015 28.9868 13.3933 29.0953 13.3318 29.0338Z" fill="black"/>
<path d="M13.3308 25.1851L10.0178 28.4981C9.95626 28.5597 10.0647 28.7679 10.2599 28.9632C10.4551 29.1584 10.6634 29.2668 10.7249 29.2053L14.038 25.8923C14.0995 25.8307 13.9909 25.6225 13.7957 25.4273C13.6005 25.2321 13.3924 25.1236 13.3308 25.1851Z" fill="black"/>
<path d="M6.33123 29.0338L3.01821 25.7208C2.95668 25.6592 3.06514 25.451 3.26035 25.2558C3.45556 25.0605 3.66384 24.9521 3.72537 25.0136L7.0384 28.3266C7.09988 28.3882 6.99135 28.5964 6.79616 28.7916C6.60097 28.9868 6.39278 29.0953 6.33123 29.0338Z" fill="black"/>
<path d="M6.33026 25.1851L3.01723 28.4981C2.95571 28.5597 3.06416 28.7679 3.25937 28.9632C3.45458 29.1584 3.66287 29.2668 3.72439 29.2053L7.03742 25.8923C7.09891 25.8307 6.99038 25.6225 6.79519 25.4273C6.59999 25.2321 6.39181 25.1236 6.33026 25.1851Z" fill="black"/>
</svg>
