<svg width="32" height="40" viewBox="0 0 32 40" fill="none" xmlns="http://www.w3.org/2000/svg">
<path d="M4.99589 10.4999C4.99589 9.67155 5.66744 9 6.49584 9H26.9951C27.8235 9 28.495 9.67155 28.495 10.4999C28.495 11.3283 27.8235 11.9999 26.9951 11.9999H6.49584C5.66744 11.9999 4.99589 11.3283 4.99589 10.4999Z" fill="black"/>
<path d="M4.99589 15.9997C4.99589 15.1713 5.66744 14.4998 6.49584 14.4998H26.9951C27.8235 14.4998 28.495 15.1713 28.495 15.9997C28.495 16.8281 27.8235 17.4997 26.9951 17.4997H6.49584C5.66744 17.4997 4.99589 16.8281 4.99589 15.9997Z" fill="black"/>
<path d="M6.98654 10.9999C7.26254 10.9999 7.48646 11.2116 7.48652 11.4726V25.5272C7.48636 25.7881 7.26248 25.9994 6.98654 25.9994C6.71065 25.9993 6.48671 25.788 6.48656 25.5272V11.4726C6.48662 11.2116 6.71059 11 6.98654 10.9999Z" fill="black"/>
<path d="M8.16673 28.4335L13.1239 24.139C13.2159 24.0592 13.6572 24.4177 14.1091 24.9393C14.5609 25.4609 14.8528 25.9487 14.7608 26.0285L9.80363 30.323C9.71151 30.4027 9.2704 30.0441 8.81858 29.5226C8.36676 29.0011 8.07476 28.5134 8.16673 28.4335Z" fill="black"/>
<path d="M13.9863 10.9999C14.2623 10.9999 14.4862 11.2116 14.4863 11.4726V25.5272C14.4861 25.7881 14.2623 25.9994 13.9863 25.9994C13.7104 25.9993 13.4865 25.788 13.4863 25.5272V11.4726C13.4864 11.2116 13.7104 11 13.9863 10.9999Z" fill="black"/>
<path d="M20.9861 10.9999C21.2621 10.9999 21.486 11.2116 21.4861 11.4726V25.5272C21.4859 25.7881 21.2621 25.9994 20.9861 25.9994C20.7102 25.9993 20.4863 25.788 20.4861 25.5272V11.4726C20.4862 11.2116 20.7102 11 20.9861 10.9999Z" fill="black"/>
<path d="M27.9859 10.9999C28.2619 10.9999 28.4858 11.2116 28.4858 11.4726V25.5272C28.4857 25.7881 28.2618 25.9994 27.9859 25.9994C27.71 25.9993 27.486 25.788 27.4859 25.5272V11.4726C27.4859 11.2116 27.7099 11 27.9859 10.9999Z" fill="black"/>
<path d="M6.33085 29.0315L3.01821 25.7188C2.95669 25.6573 3.06513 25.449 3.26032 25.2538C3.45551 25.0587 3.66377 24.9502 3.72529 25.0117L7.03793 28.3244C7.0994 28.3859 6.99089 28.5941 6.79572 28.7892C6.60055 28.9844 6.39239 29.0929 6.33085 29.0315Z" fill="black"/>
<path d="M6.32987 25.1832L3.01723 28.4958C2.95571 28.5574 3.06415 28.7656 3.25934 28.9608C3.45453 29.156 3.66279 29.2644 3.72431 29.2029L7.03695 25.8903C7.09843 25.8287 6.98991 25.6206 6.79474 25.4254C6.59957 25.2302 6.39141 25.1217 6.32987 25.1832Z" fill="black"/>
<path d="M20.3313 29.0315L17.0187 25.7188C16.9572 25.6573 17.0656 25.449 17.2608 25.2538C17.456 25.0587 17.6642 24.9502 17.7258 25.0117L21.0384 28.3244C21.0999 28.3859 20.9914 28.5941 20.7962 28.7892C20.601 28.9844 20.3929 29.0929 20.3313 29.0315Z" fill="black"/>
<path d="M20.3303 25.1832L17.0177 28.4958C16.9562 28.5574 17.0646 28.7656 17.2598 28.9608C17.455 29.156 17.6633 29.2644 17.7248 29.2029L21.0374 25.8903C21.0989 25.8287 20.9904 25.6206 20.7952 25.4254C20.6 25.2302 20.3919 25.1217 20.3303 25.1832Z" fill="black"/>
<path d="M27.3364 29.0315L24.0238 25.7188C23.9623 25.6573 24.0707 25.449 24.2659 25.2538C24.4611 25.0587 24.6693 24.9502 24.7308 25.0117L28.0435 28.3244C28.105 28.3859 27.9964 28.5941 27.8013 28.7892C27.6061 28.9844 27.398 29.0929 27.3364 29.0315Z" fill="black"/>
<path d="M27.3354 25.1832L24.0228 28.4958C23.9613 28.5574 24.0697 28.7656 24.2649 28.9608C24.4601 29.156 24.6684 29.2644 24.7299 29.2029L28.0425 25.8903C28.104 25.8287 27.9955 25.6206 27.8003 25.4254C27.6051 25.2302 27.397 25.1217 27.3354 25.1832Z" fill="black"/>
</svg>
