<svg width="32" height="40" viewBox="0 0 32 40" fill="none" xmlns="http://www.w3.org/2000/svg">
<path d="M4.90572 10.4999C4.90572 9.67152 5.57724 9 6.4056 9H26.9039C27.7322 9 28.4038 9.67152 28.4038 10.4999C28.4038 11.3282 27.7322 11.9997 26.9039 11.9997H6.4056C5.57724 11.9997 4.90572 11.3282 4.90572 10.4999Z" fill="black"/>
<path d="M4.90572 15.9994C4.90572 15.1711 5.57724 14.4995 6.4056 14.4995H26.9039C27.7322 14.4995 28.4038 15.1711 28.4038 15.9994C28.4038 16.8278 27.7322 17.4993 26.9039 17.4993H6.4056C5.57724 17.4993 4.90572 16.8278 4.90572 15.9994Z" fill="black"/>
<path d="M6.89627 10.9998C7.17226 10.9998 7.39617 11.2115 7.39623 11.4724V25.5264C7.39607 25.7873 7.1722 25.9986 6.89627 25.9986C6.62039 25.9985 6.39647 25.7873 6.39631 25.5264V11.4724C6.39638 11.2115 6.62034 10.9999 6.89627 10.9998Z" fill="black"/>
<path d="M14.9392 28.169L19.8961 23.8747C19.9882 23.7949 20.4294 24.1533 20.8813 24.6749C21.3331 25.1965 21.625 25.6843 21.5329 25.764L16.576 30.0584C16.4839 30.138 16.0428 29.7795 15.591 29.258C15.1392 28.7365 14.8472 28.2488 14.9392 28.169Z" fill="black"/>
<path d="M6.33069 29.1248L3.01821 25.8123C2.95669 25.7508 3.06513 25.5426 3.26031 25.3474C3.45549 25.1522 3.66374 25.0438 3.72525 25.1053L7.03774 28.4178C7.09922 28.4793 6.9907 28.6875 6.79555 28.8826C6.60039 29.0778 6.39223 29.1863 6.33069 29.1248Z" fill="black"/>
<path d="M6.32972 25.2767L3.01723 28.5892C2.95571 28.6507 3.06415 28.859 3.25933 29.0542C3.45451 29.2494 3.66276 29.3578 3.72428 29.2963L7.03676 25.9838C7.09824 25.9222 6.98973 25.7141 6.79457 25.5189C6.59941 25.3238 6.39126 25.2153 6.32972 25.2767Z" fill="black"/>
<path d="M13.8959 10.9998C14.1719 10.9998 14.3958 11.2115 14.3959 11.4724V25.5264C14.3957 25.7873 14.1719 25.9986 13.8959 25.9986C13.6201 25.9985 13.3961 25.7873 13.396 25.5264V11.4724C13.396 11.2115 13.62 10.9999 13.8959 10.9998Z" fill="black"/>
<path d="M20.8954 10.9998C21.1714 10.9998 21.3953 11.2115 21.3954 11.4724V25.5264C21.3952 25.7873 21.1713 25.9986 20.8954 25.9986C20.6195 25.9986 20.3956 25.7873 20.3955 25.5264V11.4724C20.3955 11.2115 20.6194 10.9998 20.8954 10.9998Z" fill="black"/>
<path d="M27.8948 10.9998C28.1708 10.9998 28.3947 11.2115 28.3948 11.4724V25.5264C28.3946 25.7873 28.1708 25.9986 27.8948 25.9986C27.619 25.9985 27.395 25.7873 27.3949 25.5264V11.4724C27.3949 11.2115 27.6189 10.9999 27.8948 10.9998Z" fill="black"/>
<path d="M22.0743 28.4327L27.0312 24.1383C27.1233 24.0586 27.5645 24.417 28.0164 24.9386C28.4682 25.4601 28.7601 25.9479 28.668 26.0277L23.7111 30.322C23.619 30.4017 23.1779 30.0432 22.7261 29.5217C22.2743 29.0002 21.9823 28.5125 22.0743 28.4327Z" fill="black"/>
<path d="M8.07202 28.4327L13.0289 24.1383C13.121 24.0586 13.5623 24.417 14.0141 24.9386C14.4659 25.4601 14.7578 25.9479 14.6658 26.0277L9.70885 30.322C9.61673 30.4017 9.17564 30.0432 8.72384 29.5217C8.27205 29.0002 7.98006 28.5125 8.07202 28.4327Z" fill="black"/>
</svg>
