<svg width="32" height="40" viewBox="0 0 32 40" fill="none" xmlns="http://www.w3.org/2000/svg">
<path d="M5.71784 10.5001C5.71784 9.67161 6.38944 9 7.21791 9H27.7189C28.5474 9 29.219 9.67161 29.219 10.5001C29.219 11.3285 28.5474 12.0001 27.7189 12.0001H7.21791C6.38944 12.0001 5.71784 11.3285 5.71784 10.5001Z" fill="black"/>
<path d="M5.71784 16.0003C5.71784 15.1719 6.38944 14.5003 7.21791 14.5003H27.7189C28.5474 14.5003 29.219 15.1719 29.219 16.0003C29.219 16.8288 28.5474 17.5004 27.7189 17.5004H7.21791C6.38944 17.5004 5.71784 16.8288 5.71784 16.0003Z" fill="black"/>
<path d="M7.70865 11.0001C7.98468 11.0001 8.20862 11.2118 8.20868 11.4728V25.5286C8.20852 25.7895 7.98462 26.0008 7.70865 26.0008C7.43274 26.0008 7.20879 25.7895 7.20863 25.5286V11.4728C7.20869 11.2118 7.43268 11.0002 7.70865 11.0001Z" fill="black"/>
<path d="M2.01693 28.1716L6.97451 23.8766C7.06658 23.7969 7.50789 24.1554 7.95979 24.677C8.4117 25.1986 8.70363 25.6865 8.61156 25.7663L3.65398 30.0612C3.56185 30.1408 3.12069 29.7823 2.66884 29.2607C2.21698 28.7391 1.92495 28.2514 2.01693 28.1716Z" fill="black"/>
<path d="M8.88426 28.4352L13.8418 24.1403C13.9339 24.0606 14.3752 24.419 14.8271 24.9407C15.279 25.4623 15.571 25.9502 15.4789 26.0299L10.5213 30.3249C10.4292 30.4045 9.98803 30.046 9.53617 29.5244C9.08431 29.0028 8.79228 28.5151 8.88426 28.4352Z" fill="black"/>
<path d="M22.8884 28.4352L27.846 24.1403C27.9381 24.0606 28.3794 24.419 28.8313 24.9407C29.2832 25.4623 29.5751 25.9502 29.483 26.0299L24.5255 30.3249C24.4333 30.4045 23.9922 30.046 23.5403 29.5244C23.0885 29.0028 22.7964 28.5151 22.8884 28.4352Z" fill="black"/>
<path d="M21.1431 29.1275L17.8302 25.8146C17.7687 25.753 17.8771 25.5448 18.0723 25.3495C18.2675 25.1543 18.4758 25.0459 18.5373 25.1074L21.8503 28.4203C21.9118 28.4819 21.8032 28.6901 21.608 28.8853C21.4129 29.0804 21.2047 29.189 21.1431 29.1275Z" fill="black"/>
<path d="M21.1422 25.2789L17.8292 28.5918C17.7677 28.6534 17.8762 28.8616 18.0714 29.0568C18.2666 29.252 18.4748 29.3605 18.5364 29.299L21.8493 25.986C21.9108 25.9245 21.8023 25.7163 21.6071 25.5211C21.4119 25.3259 21.2037 25.2174 21.1422 25.2789Z" fill="black"/>
<path d="M14.7092 11.0001C14.9852 11.0001 15.2091 11.2118 15.2092 11.4728V25.5286C15.209 25.7895 14.9851 26.0008 14.7092 26.0008C14.4332 26.0008 14.2093 25.7895 14.2091 25.5286V11.4728C14.2092 11.2118 14.4332 11.0002 14.7092 11.0001Z" fill="black"/>
<path d="M21.7096 11.0001C21.9856 11.0001 22.2095 11.2118 22.2096 11.4728V25.5286C22.2094 25.7895 21.9855 26.0008 21.7096 26.0008C21.4336 26.0008 21.2097 25.7895 21.2095 25.5286V11.4728C21.2096 11.2118 21.4335 11.0001 21.7096 11.0001Z" fill="black"/>
<path d="M28.7099 11.0001C28.9859 11.0001 29.2099 11.2118 29.2099 11.4728V25.5286C29.2098 25.7895 28.9859 26.0008 28.7099 26.0008C28.434 26.0008 28.2101 25.7895 28.2099 25.5286V11.4728C28.21 11.2118 28.434 11.0002 28.7099 11.0001Z" fill="black"/>
</svg>
