<svg width="32" height="40" viewBox="0 0 32 40" fill="none" xmlns="http://www.w3.org/2000/svg">
<path d="M21.5 11C22.3284 11 23 11.6716 23 12.5C23 12.7729 22.9252 13.0276 22.7979 13.248C22.8305 13.3067 22.8506 13.3717 22.8506 13.4414V26.5596C22.8505 26.6026 22.8412 26.6433 22.8281 26.6826L22.8428 26.708L22.8594 26.7383L22.875 26.7686L22.9043 26.8311L22.917 26.8633L22.9404 26.9297L22.9502 26.9629L22.96 26.9971L22.9756 27.0674L22.9873 27.1396L22.9922 27.1768L22.998 27.251L22.999 27.2891L23 27.3281L22.999 27.3926L22.9941 27.457L22.9873 27.5215L22.9785 27.5859L22.9658 27.6504L22.9512 27.7139L22.9346 27.7773L22.915 27.8408L22.8936 27.9043L22.8691 27.9668L22.8428 28.0293L22.8145 28.0908L22.7832 28.1523L22.75 28.2139L22.7148 28.2744L22.6787 28.334L22.6396 28.3936L22.5986 28.4521L22.5557 28.5107L22.5117 28.5684L22.4648 28.625L22.417 28.6816L22.3682 28.7373L22.3164 28.792L22.2637 28.8457L22.21 28.8984L22.1543 28.9502L22.0967 29.002L22.0391 29.0527L21.9795 29.1016L21.9189 29.1504L21.7939 29.2441L21.7295 29.2891L21.5986 29.377L21.5312 29.4189L21.4639 29.459L21.3945 29.499L21.3252 29.5371L21.2549 29.5742L21.1846 29.6094L21.1133 29.6436L21.041 29.6768L20.9688 29.708L20.8965 29.7383L20.8232 29.7666L20.75 29.7939L20.6758 29.8193L20.6016 29.8438L20.5283 29.8662L20.4531 29.8867L20.3789 29.9062L20.3047 29.9238L20.2305 29.9395L20.1562 29.9531L20.082 29.9658L20.0088 29.9756L19.9346 29.9844L19.8613 29.9912L19.7891 29.9961L19.7158 29.999L19.6445 30H19.6006L19.5576 29.998L19.5146 29.9971L19.4717 29.9941L19.3877 29.9863L19.3057 29.9766L19.2646 29.9697L19.2246 29.9629L19.1846 29.9551L19.1455 29.9473L19.1064 29.9385L19.0674 29.9287L19.0293 29.918L18.9912 29.9062L18.9541 29.8945L18.8818 29.8691L18.8457 29.8555L18.8115 29.8408L18.7764 29.8252L18.7422 29.8096L18.709 29.793L18.6445 29.7578L18.6123 29.7393L18.5518 29.7002L18.5215 29.6797L18.4932 29.6592L18.4648 29.6367L18.4102 29.5918L18.3838 29.5684L18.3594 29.5439L18.334 29.5195L18.3105 29.4941L18.2871 29.4678L18.2646 29.4414L18.2432 29.4141L18.2227 29.3857L18.1836 29.3291L18.1484 29.2686L18.1318 29.2383L18.1162 29.207L18.1016 29.1748L18.0879 29.1426L18.0752 29.1094L18.0635 29.0762L18.0527 29.042L18.043 29.0078L18.0342 28.9727L18.0264 28.9365L18.0195 28.9004L18.0137 28.8633L18.0088 28.8262L18.0049 28.7881L18.002 28.75L18 28.6719L18.001 28.6064L18.0049 28.541L18.0098 28.4766L18.0176 28.4111L18.0273 28.3467L18.04 28.2822L18.0537 28.2178L18.0703 28.1543L18.0879 28.0908L18.1084 28.0273L18.1309 27.9648L18.1543 27.9023L18.1807 27.8408L18.209 27.7803L18.2383 27.7188L18.2705 27.6592L18.3037 27.5996L18.3389 27.54L18.376 27.4824L18.415 27.4248L18.4561 27.3682L18.498 27.3115L18.542 27.2559L18.5879 27.2012L18.6348 27.1475L18.6836 27.0947L18.7334 27.043L18.7861 26.9912L18.8389 26.9414L18.8936 26.8916L18.9502 26.8438L19.0078 26.7969L19.0674 26.75L19.127 26.7051L19.1895 26.6611L19.252 26.6182L19.3164 26.5771L19.3828 26.5361L19.4492 26.4971L19.5176 26.459L19.5869 26.4219L19.6572 26.3867L19.7285 26.3525L19.8018 26.3203L19.875 26.2891L19.9502 26.2588L20.0264 26.2305L20.1025 26.2041L20.1807 26.1787L20.2588 26.1553L20.3389 26.1328L20.4189 26.1123L20.501 26.0928L20.583 26.0762L20.666 26.0605L20.75 26.0459L20.834 26.0342L20.9199 26.0234L21.0059 26.0156L21.0918 26.0088L21.1797 26.0039L21.2676 26.001L21.3555 26H21.4014L21.4473 26.002L21.4922 26.0039L21.5361 26.0059L21.624 26.0137L21.667 26.0186L21.751 26.0303L21.793 26.0381L21.834 26.0459L21.8506 26.0488V13.957C21.738 13.984 21.6209 14 21.5 14H10.8506V16.1494C11.0473 16.0547 11.2671 16 11.5 16H14.5C15.3284 16 16 16.6716 16 17.5C16 18.3284 15.3284 19 14.5 19H11.5C11.2671 19 11.0473 18.9453 10.8506 18.8506V26.5596C10.8505 26.6026 10.8412 26.6433 10.8281 26.6826L10.8428 26.708L10.8594 26.7383L10.875 26.7686L10.9043 26.8311L10.917 26.8633L10.9404 26.9297L10.9502 26.9629L10.96 26.9971L10.9756 27.0674L10.9873 27.1396L10.9922 27.1768L10.998 27.251L11 27.3281L10.999 27.3926L10.9941 27.457L10.9873 27.5215L10.9785 27.5859L10.9658 27.6504L10.9512 27.7139L10.9346 27.7773L10.915 27.8408L10.8936 27.9043L10.8691 27.9668L10.8428 28.0293L10.8145 28.0908L10.7832 28.1523L10.75 28.2139L10.7148 28.2744L10.6787 28.334L10.6396 28.3936L10.5986 28.4521L10.5557 28.5107L10.5117 28.5684L10.4648 28.625L10.417 28.6816L10.3682 28.7373L10.3164 28.792L10.2637 28.8457L10.21 28.8984L10.1543 28.9502L10.0967 29.002L10.0391 29.0527L9.97949 29.1016L9.91895 29.1504L9.79395 29.2441L9.72949 29.2891L9.59863 29.377L9.53125 29.4189L9.46387 29.459L9.39453 29.499L9.3252 29.5371L9.25488 29.5742L9.18457 29.6094L9.11328 29.6436L9.04102 29.6768L8.96875 29.708L8.89648 29.7383L8.82324 29.7666L8.75 29.7939L8.67578 29.8193L8.60156 29.8438L8.52832 29.8662L8.45312 29.8867L8.37891 29.9062L8.30469 29.9238L8.23047 29.9395L8.15625 29.9531L8.08203 29.9658L8.00879 29.9756L7.93457 29.9844L7.86133 29.9912L7.78906 29.9961L7.71582 29.999L7.64453 30H7.60059L7.55762 29.998L7.51465 29.9971L7.47168 29.9941L7.3877 29.9863L7.30566 29.9766L7.26465 29.9697L7.22461 29.9629L7.18457 29.9551L7.14551 29.9473L7.10645 29.9385L7.06738 29.9287L7.0293 29.918L6.99121 29.9062L6.9541 29.8945L6.88184 29.8691L6.8457 29.8555L6.81152 29.8408L6.77637 29.8252L6.74219 29.8096L6.70898 29.793L6.64453 29.7578L6.6123 29.7393L6.55176 29.7002L6.52148 29.6797L6.49316 29.6592L6.46484 29.6367L6.41016 29.5918L6.38379 29.5684L6.35938 29.5439L6.33398 29.5195L6.31055 29.4941L6.28711 29.4678L6.26465 29.4414L6.24316 29.4141L6.22266 29.3857L6.18359 29.3291L6.14844 29.2686L6.13184 29.2383L6.11621 29.207L6.10156 29.1748L6.08789 29.1426L6.0752 29.1094L6.06348 29.0762L6.05273 29.042L6.04297 29.0078L6.03418 28.9727L6.02637 28.9365L6.01953 28.9004L6.01367 28.8633L6.00879 28.8262L6.00488 28.7881L6.00195 28.75L6 28.6719L6.00098 28.6064L6.00488 28.541L6.00977 28.4766L6.01758 28.4111L6.02734 28.3467L6.04004 28.2822L6.05371 28.2178L6.07031 28.1543L6.08789 28.0908L6.1084 28.0273L6.13086 27.9648L6.1543 27.9023L6.18066 27.8408L6.20898 27.7803L6.23828 27.7188L6.27051 27.6592L6.30371 27.5996L6.33887 27.54L6.37598 27.4824L6.41504 27.4248L6.45605 27.3682L6.49805 27.3115L6.54199 27.2559L6.58789 27.2012L6.63477 27.1475L6.68359 27.0947L6.7334 27.043L6.78613 26.9912L6.83887 26.9414L6.89355 26.8916L6.9502 26.8438L7.00781 26.7969L7.06738 26.75L7.12695 26.7051L7.18945 26.6611L7.25195 26.6182L7.31641 26.5771L7.38281 26.5361L7.44922 26.4971L7.51758 26.459L7.58691 26.4219L7.65723 26.3867L7.72852 26.3525L7.80176 26.3203L7.875 26.2891L7.9502 26.2588L8.02637 26.2305L8.10254 26.2041L8.18066 26.1787L8.25879 26.1553L8.33887 26.1328L8.41895 26.1123L8.50098 26.0928L8.58301 26.0762L8.66602 26.0605L8.75 26.0459L8.83398 26.0342L8.91992 26.0234L9.00586 26.0156L9.0918 26.0088L9.17969 26.0039L9.26758 26.001L9.35547 26H9.40137L9.53613 26.0059L9.62402 26.0137L9.66699 26.0186L9.75098 26.0303L9.79297 26.0381L9.83398 26.0459L9.85059 26.0488V13.8506C9.34776 13.6084 9 13.0955 9 12.5C9 11.6716 9.67157 11 10.5 11H21.5ZM25.6465 24.0977C26.1447 24.0977 26.5488 24.5017 26.5488 25C26.5488 25.4982 26.1447 25.9023 25.6465 25.9023C25.1482 25.9023 24.7442 25.4982 24.7441 25C24.7441 24.5017 25.1482 24.0977 25.6465 24.0977Z" fill="black"/>
</svg>
