<svg width="32" height="40" viewBox="0 0 32 40" fill="none" xmlns="http://www.w3.org/2000/svg">
<path d="M7.49072 12C7.76673 12 7.99066 12.2117 7.99072 12.4727V26.0073L7.9917 26.0166L7.99561 26.0586L7.99805 26.1011L7.99951 26.144L8 26.1875L7.99854 26.2603L7.99463 26.333L7.99072 26.374V26.5278C7.99066 26.6241 7.96006 26.7135 7.90771 26.7881L7.89307 26.8354L7.86914 26.9062L7.84277 26.9761L7.81396 27.0459L7.7832 27.1152L7.75049 27.1836L7.71533 27.252L7.67822 27.3193L7.63916 27.3862L7.59863 27.4526L7.55566 27.5181L7.51123 27.5825L7.46533 27.6465L7.41748 27.71L7.36768 27.7725L7.31641 27.834L7.26367 27.8945L7.20947 27.9541L7.1543 28.0127L7.09717 28.0703L7.03906 28.127L6.97949 28.1826L6.91846 28.2373L6.85645 28.2905L6.79346 28.3428L6.72949 28.394L6.66406 28.4434L6.59814 28.4922L6.53125 28.5391L6.46338 28.585L6.39453 28.6294L6.3252 28.6724L6.25537 28.7139L6.18457 28.7539L6.11328 28.7925L6.0415 28.8296L5.96924 28.8652L5.89648 28.8989L5.82324 28.9312L5.74951 28.9614L5.67578 28.9902L5.60205 29.0171L5.52783 29.0425L5.45361 29.0659L5.37939 29.0874L5.30518 29.1069L5.23047 29.125L5.15625 29.1406L5.08252 29.1543L5.0083 29.166L4.93506 29.1758L4.86182 29.1836L4.78857 29.189L4.71631 29.1924L4.64404 29.1934L4.60059 29.1929L4.55762 29.1919L4.51465 29.1895L4.47217 29.1865L4.43018 29.1831L4.38818 29.1782L4.34668 29.1729L4.30566 29.1665L4.26465 29.1597L4.22461 29.1519L4.18457 29.1431L4.14502 29.1338L4.10596 29.1235L4.06738 29.1128L4.0293 29.1011L3.9917 29.0884L3.95459 29.0752L3.91797 29.061L3.88184 29.0459L3.84619 29.0303L3.81104 29.0142L3.77637 28.9971L3.74268 28.979L3.70898 28.9604L3.67627 28.9409L3.64404 28.9209L3.61279 28.8999L3.58203 28.8784L3.55176 28.8564L3.52197 28.833L3.49316 28.8096L3.46484 28.7852L3.43701 28.7598L3.41016 28.7339L3.38428 28.7075L3.35889 28.6802L3.33447 28.6523L3.31055 28.624L3.28711 28.5947L3.26514 28.5645L3.24365 28.5342L3.22266 28.5029L3.20312 28.4707L3.18408 28.438L3.16602 28.4048L3.14844 28.3711L3.13232 28.3364L3.1167 28.3013L3.10205 28.2656L3.08838 28.229L3.07568 28.1919L3.06396 28.1543L3.05273 28.1157L3.04297 28.0767L3.03418 28.0371L3.02637 27.9971L3.01953 27.9565L3.01367 27.915L3.00879 27.873L3.00488 27.8306L3.00195 27.7871L3.00049 27.7437L3 27.6992L3.00098 27.6255L3.00439 27.5522L3.01025 27.479L3.01758 27.4058L3.02783 27.333L3.03955 27.2607L3.05371 27.1885L3.06982 27.1167L3.08789 27.0454L3.1084 26.9746L3.13037 26.9038L3.15479 26.834L3.18066 26.7646L3.2085 26.6958L3.23877 26.6274L3.27051 26.5596L3.30371 26.4927L3.33936 26.4263L3.37646 26.3608L3.41504 26.2959L3.45557 26.2319L3.49805 26.1689L3.54199 26.1064L3.5874 26.0449L3.63477 25.9844L3.68359 25.9248L3.73389 25.8662L3.78564 25.8086L3.83887 25.7524L3.89404 25.6968L3.9502 25.6426L4.00781 25.5894L4.06689 25.5376L4.12744 25.4868L4.18945 25.4375L4.25244 25.3892L4.31689 25.3423L4.38232 25.2969L4.44922 25.2524L4.51758 25.21L4.58691 25.1685L4.65723 25.1289L4.729 25.0903L4.80176 25.0537L4.87549 25.0186L4.9502 24.9849L5.02588 24.9531L5.10254 24.9229L5.18066 24.8945L5.25928 24.8677L5.33887 24.8428L5.41943 24.8193L5.50098 24.7983L5.58301 24.7788L5.66602 24.7612L5.75 24.7456L5.83447 24.7319L5.91943 24.7202L6.00537 24.7104L6.09229 24.7031L6.17969 24.6978L6.26758 24.6943L6.35596 24.6934L6.40186 24.6938L6.44727 24.6953L6.49219 24.6973L6.53613 24.7002L6.58008 24.7041L6.62402 24.709L6.66699 24.7144L6.70947 24.7207L6.75098 24.728L6.79248 24.7358L6.8335 24.7446L6.87402 24.7544L6.91357 24.7646L6.95312 24.7764L6.99072 24.7876V12.4727C6.99078 12.2117 7.21476 12.0001 7.49072 12Z" fill="black"/>
<path d="M17.9907 12C18.2667 12 18.4907 12.2117 18.4907 12.4727V26.0073L18.4917 26.0166L18.4956 26.0586L18.498 26.1011L18.4995 26.144L18.5 26.1875L18.4985 26.2603L18.4946 26.333L18.4907 26.374V26.5278C18.4907 26.6241 18.4601 26.7135 18.4077 26.7881L18.3931 26.8354L18.3691 26.9062L18.3428 26.9761L18.314 27.0459L18.2832 27.1152L18.2505 27.1836L18.2153 27.252L18.1782 27.3193L18.1392 27.3862L18.0986 27.4526L18.0557 27.5181L18.0112 27.5825L17.9653 27.6465L17.9175 27.71L17.8677 27.7725L17.8164 27.834L17.7637 27.8945L17.7095 27.9541L17.6543 28.0127L17.5972 28.0703L17.5391 28.127L17.4795 28.1826L17.4185 28.2373L17.3564 28.2905L17.2935 28.3428L17.2295 28.394L17.1641 28.4434L17.0981 28.4922L17.0312 28.5391L16.9634 28.585L16.8945 28.6294L16.8252 28.6724L16.7554 28.7139L16.6846 28.7539L16.6133 28.7925L16.5415 28.8296L16.4692 28.8652L16.3965 28.8989L16.3232 28.9312L16.2495 28.9614L16.1758 28.9902L16.1021 29.0171L16.0278 29.0425L15.9536 29.0659L15.8794 29.0874L15.8052 29.1069L15.7305 29.125L15.6562 29.1406L15.5825 29.1543L15.5083 29.166L15.4351 29.1758L15.3618 29.1836L15.2886 29.189L15.2163 29.1924L15.144 29.1934L15.1006 29.1929L15.0576 29.1919L15.0146 29.1895L14.9722 29.1865L14.9302 29.1831L14.8882 29.1782L14.8467 29.1729L14.8057 29.1665L14.7646 29.1597L14.7246 29.1519L14.6846 29.1431L14.645 29.1338L14.606 29.1235L14.5674 29.1128L14.5293 29.1011L14.4917 29.0884L14.4546 29.0752L14.418 29.061L14.3818 29.0459L14.3462 29.0303L14.311 29.0142L14.2764 28.9971L14.2427 28.979L14.209 28.9604L14.1763 28.9409L14.144 28.9209L14.1128 28.8999L14.082 28.8784L14.0518 28.8564L14.022 28.833L13.9932 28.8096L13.9648 28.7852L13.937 28.7598L13.9102 28.7339L13.8843 28.7075L13.8589 28.6802L13.8345 28.6523L13.8105 28.624L13.7871 28.5947L13.7651 28.5645L13.7437 28.5342L13.7227 28.5029L13.7031 28.4707L13.6841 28.438L13.666 28.4048L13.6484 28.3711L13.6323 28.3364L13.6167 28.3013L13.6021 28.2656L13.5884 28.229L13.5757 28.1919L13.564 28.1543L13.5527 28.1157L13.543 28.0767L13.5342 28.0371L13.5264 27.9971L13.5195 27.9565L13.5137 27.915L13.5088 27.873L13.5049 27.8306L13.502 27.7871L13.5005 27.7437L13.5 27.6992L13.501 27.6255L13.5044 27.5522L13.5103 27.479L13.5176 27.4058L13.5278 27.333L13.5396 27.2607L13.5537 27.1885L13.5698 27.1167L13.5879 27.0454L13.6084 26.9746L13.6304 26.9038L13.6548 26.834L13.6807 26.7646L13.7085 26.6958L13.7388 26.6274L13.7705 26.5596L13.8037 26.4927L13.8394 26.4263L13.8765 26.3608L13.915 26.2959L13.9556 26.2319L13.998 26.1689L14.042 26.1064L14.0874 26.0449L14.1348 25.9844L14.1836 25.9248L14.2339 25.8662L14.2856 25.8086L14.3389 25.7524L14.394 25.6968L14.4502 25.6426L14.5078 25.5894L14.5669 25.5376L14.6274 25.4868L14.6895 25.4375L14.7524 25.3892L14.8169 25.3423L14.8823 25.2969L14.9492 25.2524L15.0176 25.21L15.0869 25.1685L15.1572 25.1289L15.229 25.0903L15.3018 25.0537L15.3755 25.0186L15.4502 24.9849L15.5259 24.9531L15.6025 24.9229L15.6807 24.8945L15.7593 24.8677L15.8389 24.8428L15.9194 24.8193L16.001 24.7983L16.083 24.7788L16.166 24.7612L16.25 24.7456L16.3345 24.7319L16.4194 24.7202L16.5054 24.7104L16.5923 24.7031L16.6797 24.6978L16.7676 24.6943L16.856 24.6934L16.9019 24.6938L16.9473 24.6953L16.9922 24.6973L17.0361 24.7002L17.0801 24.7041L17.124 24.709L17.167 24.7144L17.2095 24.7207L17.251 24.728L17.2925 24.7358L17.3335 24.7446L17.374 24.7544L17.4136 24.7646L17.4531 24.7764L17.4907 24.7876V12.4727C17.4908 12.2117 17.7148 12.0001 17.9907 12Z" fill="black"/>
<path d="M28.4907 12C28.7667 12 28.9907 12.2117 28.9907 12.4727V26.0073L28.9917 26.0166L28.9956 26.0586L28.998 26.1011L28.9995 26.144L29 26.1875L28.9985 26.2603L28.9946 26.333L28.9907 26.374V26.5278C28.9907 26.6241 28.9601 26.7135 28.9077 26.7881L28.8931 26.8354L28.8691 26.9062L28.8428 26.9761L28.814 27.0459L28.7832 27.1152L28.7505 27.1836L28.7153 27.252L28.6782 27.3193L28.6392 27.3862L28.5986 27.4526L28.5557 27.5181L28.5112 27.5825L28.4653 27.6465L28.4175 27.71L28.3677 27.7725L28.3164 27.834L28.2637 27.8945L28.2095 27.9541L28.1543 28.0127L28.0972 28.0703L28.0391 28.127L27.9795 28.1826L27.9185 28.2373L27.8564 28.2905L27.7935 28.3428L27.7295 28.394L27.6641 28.4434L27.5981 28.4922L27.5312 28.5391L27.4634 28.585L27.3945 28.6294L27.3252 28.6724L27.2554 28.7139L27.1846 28.7539L27.1133 28.7925L27.0415 28.8296L26.9692 28.8652L26.8965 28.8989L26.8232 28.9312L26.7495 28.9614L26.6758 28.9902L26.6021 29.0171L26.5278 29.0425L26.4536 29.0659L26.3794 29.0874L26.3052 29.1069L26.2305 29.125L26.1562 29.1406L26.0825 29.1543L26.0083 29.166L25.9351 29.1758L25.8618 29.1836L25.7886 29.189L25.7163 29.1924L25.644 29.1934L25.6006 29.1929L25.5576 29.1919L25.5146 29.1895L25.4722 29.1865L25.4302 29.1831L25.3882 29.1782L25.3467 29.1729L25.3057 29.1665L25.2646 29.1597L25.2246 29.1519L25.1846 29.1431L25.145 29.1338L25.106 29.1235L25.0674 29.1128L25.0293 29.1011L24.9917 29.0884L24.9546 29.0752L24.918 29.061L24.8818 29.0459L24.8462 29.0303L24.811 29.0142L24.7764 28.9971L24.7427 28.979L24.709 28.9604L24.6763 28.9409L24.644 28.9209L24.6128 28.8999L24.582 28.8784L24.5518 28.8564L24.522 28.833L24.4932 28.8096L24.4648 28.7852L24.437 28.7598L24.4102 28.7339L24.3843 28.7075L24.3589 28.6802L24.3345 28.6523L24.3105 28.624L24.2871 28.5947L24.2651 28.5645L24.2437 28.5342L24.2227 28.5029L24.2031 28.4707L24.1841 28.438L24.166 28.4048L24.1484 28.3711L24.1323 28.3364L24.1167 28.3013L24.1021 28.2656L24.0884 28.229L24.0757 28.1919L24.064 28.1543L24.0527 28.1157L24.043 28.0767L24.0342 28.0371L24.0264 27.9971L24.0195 27.9565L24.0137 27.915L24.0088 27.873L24.0049 27.8306L24.002 27.7871L24.0005 27.7437L24 27.6992L24.001 27.6255L24.0044 27.5522L24.0103 27.479L24.0176 27.4058L24.0278 27.333L24.0396 27.2607L24.0537 27.1885L24.0698 27.1167L24.0879 27.0454L24.1084 26.9746L24.1304 26.9038L24.1548 26.834L24.1807 26.7646L24.2085 26.6958L24.2388 26.6274L24.2705 26.5596L24.3037 26.4927L24.3394 26.4263L24.3765 26.3608L24.415 26.2959L24.4556 26.2319L24.498 26.1689L24.542 26.1064L24.5874 26.0449L24.6348 25.9844L24.6836 25.9248L24.7339 25.8662L24.7856 25.8086L24.8389 25.7524L24.894 25.6968L24.9502 25.6426L25.0078 25.5894L25.0669 25.5376L25.1274 25.4868L25.1895 25.4375L25.2524 25.3892L25.3169 25.3423L25.3823 25.2969L25.4492 25.2524L25.5176 25.21L25.5869 25.1685L25.6572 25.1289L25.729 25.0903L25.8018 25.0537L25.8755 25.0186L25.9502 24.9849L26.0259 24.9531L26.1025 24.9229L26.1807 24.8945L26.2593 24.8677L26.3389 24.8428L26.4194 24.8193L26.501 24.7983L26.583 24.7788L26.666 24.7612L26.75 24.7456L26.8345 24.7319L26.9194 24.7202L27.0054 24.7104L27.0923 24.7031L27.1797 24.6978L27.2676 24.6943L27.356 24.6934L27.4019 24.6938L27.4473 24.6953L27.4922 24.6973L27.5361 24.7002L27.5801 24.7041L27.624 24.709L27.667 24.7144L27.7095 24.7207L27.751 24.728L27.7925 24.7358L27.8335 24.7446L27.874 24.7544L27.9136 24.7646L27.9531 24.7764L27.9907 24.7876V12.4727C27.9908 12.2117 28.2148 12.0001 28.4907 12Z" fill="black"/>
<path d="M5 11.5C5 10.6716 5.67157 10 6.5 10H28C28.8284 10 29.5 10.6716 29.5 11.5C29.5 12.3284 28.8284 13 28 13H6.5C5.67157 13 5 12.3284 5 11.5Z" fill="black"/>
<path d="M5 17C5 16.1716 5.67157 15.5 6.5 15.5H17C17.8284 15.5 18.5 16.1716 18.5 17C18.5 17.8284 17.8284 18.5 17 18.5H6.5C5.67157 18.5 5 17.8284 5 17Z" fill="black"/>
</svg>
