<svg width="32" height="40" viewBox="0 0 32 40" fill="none" xmlns="http://www.w3.org/2000/svg">
<path d="M5.71786 10.5001C5.71786 9.67161 6.38947 9 7.21794 9H27.7191C28.5475 9 29.2191 9.67161 29.2191 10.5001C29.2191 11.3286 28.5475 12.0002 27.7191 12.0002H7.21794C6.38947 12.0002 5.71786 11.3286 5.71786 10.5001Z" fill="black"/>
<path d="M5.71786 16.0004C5.71786 15.1719 6.38947 14.5003 7.21794 14.5003H27.7191C28.5475 14.5003 29.2191 15.1719 29.2191 16.0004C29.2191 16.8289 28.5475 17.5005 27.7191 17.5005H7.21794C6.38947 17.5005 5.71786 16.8289 5.71786 16.0004Z" fill="black"/>
<path d="M7.70868 11.0001C7.98471 11.0001 8.20865 11.2118 8.20871 11.4728V25.5287C8.20855 25.7896 7.98465 26.0009 7.70868 26.0009C7.43277 26.0009 7.20881 25.7896 7.20866 25.5287V11.4728C7.20872 11.2118 7.43271 11.0002 7.70868 11.0001Z" fill="black"/>
<path d="M2.01693 28.1716L6.97454 23.8767C7.06661 23.797 7.50792 24.1554 7.95983 24.6771C8.41173 25.1987 8.70366 25.6866 8.61159 25.7664L3.65398 30.0613C3.56185 30.1409 3.1207 29.7824 2.66884 29.2608C2.21698 28.7392 1.92495 28.2515 2.01693 28.1716Z" fill="black"/>
<path d="M16.0208 28.1716L20.9784 23.8767C21.0705 23.797 21.5118 24.1554 21.9637 24.6771C22.4156 25.1987 22.7075 25.6866 22.6155 25.7664L17.6579 30.0613C17.5657 30.1409 17.1246 29.7824 16.6727 29.2608C16.2209 28.7392 15.9288 28.2515 16.0208 28.1716Z" fill="black"/>
<path d="M8.88416 28.4353L13.8418 24.1404C13.9338 24.0606 14.3751 24.4191 14.8271 24.9408C15.279 25.4624 15.5709 25.9503 15.4788 26.03L10.5212 30.325C10.4291 30.4046 9.98793 30.0461 9.53607 29.5245C9.08421 29.0029 8.79218 28.5152 8.88416 28.4353Z" fill="black"/>
<path d="M22.8884 28.4353L27.846 24.1404C27.938 24.0606 28.3794 24.4191 28.8313 24.9408C29.2832 25.4624 29.5751 25.9503 29.483 26.03L24.5254 30.325C24.4333 30.4046 23.9921 30.0461 23.5403 29.5245C23.0884 29.0029 22.7964 28.5152 22.8884 28.4353Z" fill="black"/>
<path d="M14.7091 11.0001C14.9851 11.0001 15.209 11.2118 15.2091 11.4728V25.5287C15.209 25.7896 14.985 26.0009 14.7091 26.0009C14.4332 26.0009 14.2092 25.7896 14.2091 25.5287V11.4728C14.2091 11.2118 14.4331 11.0002 14.7091 11.0001Z" fill="black"/>
<path d="M21.7095 11.0001C21.9856 11.0001 22.2095 11.2118 22.2096 11.4728V25.5287C22.2094 25.7896 21.9855 26.0009 21.7095 26.0009C21.4336 26.0009 21.2097 25.7896 21.2095 25.5287V11.4728C21.2096 11.2118 21.4336 11.0002 21.7095 11.0001Z" fill="black"/>
<path d="M28.7099 11.0001C28.9859 11.0001 29.2099 11.2118 29.2099 11.4728V25.5287C29.2098 25.7896 28.9859 26.0009 28.7099 26.0009C28.434 26.0009 28.21 25.7896 28.2099 25.5287V11.4728C28.21 11.2118 28.4339 11.0002 28.7099 11.0001Z" fill="black"/>
</svg>
