<svg width="32" height="40" viewBox="0 0 32 40" fill="none" xmlns="http://www.w3.org/2000/svg">
<path d="M5.71786 10.5001C5.71786 9.67161 6.38946 9 7.21794 9H27.719C28.5475 9 29.2191 9.67161 29.2191 10.5001C29.2191 11.3286 28.5475 12.0002 27.719 12.0002H7.21794C6.38946 12.0002 5.71786 11.3286 5.71786 10.5001Z" fill="black"/>
<path d="M5.71786 16.0004C5.71786 15.1719 6.38946 14.5003 7.21794 14.5003H27.719C28.5475 14.5003 29.2191 15.1719 29.2191 16.0004C29.2191 16.8289 28.5475 17.5005 27.719 17.5005H7.21794C6.38946 17.5005 5.71786 16.8289 5.71786 16.0004Z" fill="black"/>
<path d="M7.70868 11.0001C7.98471 11.0001 8.20865 11.2118 8.20871 11.4728V25.5287C8.20855 25.7896 7.98465 26.0009 7.70868 26.0009C7.43277 26.0009 7.20881 25.7896 7.20865 25.5287V11.4728C7.20871 11.2118 7.43271 11.0002 7.70868 11.0001Z" fill="black"/>
<path d="M2.01693 28.1716L6.97454 23.8767C7.06661 23.797 7.50792 24.1554 7.95982 24.6771C8.41173 25.1987 8.70366 25.6866 8.61159 25.7663L3.65398 30.0613C3.56185 30.1409 3.1207 29.7824 2.66884 29.2608C2.21698 28.7392 1.92495 28.2515 2.01693 28.1716Z" fill="black"/>
<path d="M22.8884 28.4353L27.846 24.1404C27.938 24.0606 28.3794 24.4191 28.8313 24.9407C29.2832 25.4624 29.5751 25.9503 29.483 26.03L24.5254 30.325C24.4333 30.4046 23.9921 30.0461 23.5403 29.5245C23.0884 29.0029 22.7964 28.5152 22.8884 28.4353Z" fill="black"/>
<path d="M14.7091 11.0001C14.9851 11.0001 15.209 11.2118 15.2091 11.4728V25.5287C15.209 25.7896 14.985 26.0009 14.7091 26.0009C14.4332 26.0009 14.2092 25.7896 14.2091 25.5287V11.4728C14.2091 11.2118 14.4331 11.0002 14.7091 11.0001Z" fill="black"/>
<path d="M21.7095 11.0001C21.9856 11.0001 22.2095 11.2118 22.2096 11.4728V25.5287C22.2094 25.7896 21.9855 26.0009 21.7095 26.0009C21.4336 26.0009 21.2097 25.7896 21.2095 25.5287V11.4728C21.2096 11.2118 21.4336 11.0002 21.7095 11.0001Z" fill="black"/>
<path d="M28.7099 11.0001C28.9859 11.0001 29.2099 11.2118 29.2099 11.4728V25.5287C29.2098 25.7896 28.9859 26.0009 28.7099 26.0009C28.434 26.0009 28.21 25.7896 28.2099 25.5287V11.4728C28.21 11.2118 28.4339 11.0002 28.7099 11.0001Z" fill="black"/>
<path d="M14.1438 29.1276L10.8309 25.8146C10.7694 25.7531 10.8778 25.5448 11.073 25.3496C11.2682 25.1544 11.4765 25.046 11.538 25.1075L14.851 28.4204C14.9125 28.482 14.8039 28.6902 14.6088 28.8854C14.4136 29.0805 14.2054 29.1891 14.1438 29.1276Z" fill="black"/>
<path d="M14.1429 25.279L10.8299 28.5919C10.7684 28.6535 10.8769 28.8617 11.0721 29.0569C11.2673 29.2521 11.4755 29.3606 11.5371 29.2991L14.85 25.9861C14.9115 25.9246 14.803 25.7164 14.6078 25.5212C14.4126 25.326 14.2044 25.2175 14.1429 25.279Z" fill="black"/>
<path d="M21.1439 29.1276L17.8309 25.8146C17.7694 25.7531 17.8779 25.5448 18.0731 25.3496C18.2683 25.1544 18.4766 25.046 18.5381 25.1075L21.851 28.4204C21.9125 28.482 21.804 28.6902 21.6088 28.8854C21.4136 29.0805 21.2054 29.1891 21.1439 29.1276Z" fill="black"/>
<path d="M21.1429 25.279L17.83 28.5919C17.7684 28.6535 17.8769 28.8617 18.0721 29.0569C18.2673 29.2521 18.4756 29.3606 18.5371 29.2991L21.85 25.9861C21.9115 25.9246 21.803 25.7164 21.6078 25.5212C21.4126 25.326 21.2045 25.2175 21.1429 25.279Z" fill="black"/>
</svg>
