<svg width="32" height="40" viewBox="0 0 32 40" fill="none" xmlns="http://www.w3.org/2000/svg">
<path d="M5.71797 10.5001C5.71797 9.67163 6.38961 9 7.2181 9H27.7199C28.5484 9 29.22 9.67163 29.22 10.5001C29.22 11.3286 28.5484 12.0003 27.7199 12.0003H7.2181C6.38961 12.0003 5.71797 11.3286 5.71797 10.5001Z" fill="black"/>
<path d="M5.71797 16.0006C5.71797 15.1721 6.38961 14.5005 7.2181 14.5005H27.7199C28.5484 14.5005 29.22 15.1721 29.22 16.0006C29.22 16.8291 28.5484 17.5007 27.7199 17.5007H7.2181C6.38961 17.5007 5.71797 16.8291 5.71797 16.0006Z" fill="black"/>
<path d="M7.70886 11.0002C7.9849 11.0002 8.20885 11.2119 8.20891 11.4729V25.5293C8.20875 25.7902 7.98484 26.0015 7.70886 26.0015C7.43294 26.0014 7.20898 25.7901 7.20882 25.5293V11.4729C7.20888 11.2119 7.43288 11.0002 7.70886 11.0002Z" fill="black"/>
<path d="M2.01693 28.1723L6.9747 23.8772C7.06677 23.7974 7.50809 24.1559 7.96002 24.6776C8.41194 25.1992 8.70388 25.6871 8.6118 25.7669L3.65404 30.062C3.5619 30.1416 3.12074 29.7831 2.66886 29.2615C2.21699 28.7399 1.92495 28.2521 2.01693 28.1723Z" fill="black"/>
<path d="M16.0213 28.1723L20.979 23.8772C21.0711 23.7974 21.5124 24.1559 21.9643 24.6776C22.4163 25.1992 22.7082 25.6871 22.6161 25.7669L17.6584 30.062C17.5662 30.1416 17.1251 29.7831 16.6732 29.2615C16.2213 28.7399 15.9293 28.2521 16.0213 28.1723Z" fill="black"/>
<path d="M14.7095 11.0002C14.9855 11.0002 15.2095 11.2119 15.2095 11.4729V25.5293C15.2094 25.7902 14.9855 26.0015 14.7095 26.0015C14.4336 26.0014 14.2096 25.7901 14.2094 25.5293V11.4729C14.2095 11.2119 14.4335 11.0002 14.7095 11.0002Z" fill="black"/>
<path d="M21.7102 11.0002C21.9862 11.0002 22.2101 11.2119 22.2102 11.4729V25.5293C22.21 25.7902 21.9861 26.0015 21.7102 26.0015C21.4342 26.0014 21.2103 25.7901 21.2101 25.5293V11.4729C21.2102 11.2119 21.4342 11.0002 21.7102 11.0002Z" fill="black"/>
<path d="M28.7108 11.0002C28.9868 11.0002 29.2108 11.2119 29.2108 11.4729V25.5293C29.2107 25.7902 28.9867 26.0015 28.7108 26.0015C28.4348 26.0014 28.2109 25.7901 28.2107 25.5293V11.4729C28.2108 11.2119 28.4348 11.0002 28.7108 11.0002Z" fill="black"/>
<path d="M14.1455 29.1282L10.8324 25.8152C10.7709 25.7537 10.8794 25.5454 11.0746 25.3502C11.2698 25.1549 11.4781 25.0465 11.5396 25.108L14.8526 28.4211C14.9141 28.4826 14.8056 28.6908 14.6104 28.886C14.4152 29.0812 14.207 29.1897 14.1455 29.1282Z" fill="black"/>
<path d="M14.1445 25.2795L10.8315 28.5926C10.7699 28.6541 10.8784 28.8624 11.0736 29.0576C11.2688 29.2528 11.4771 29.3612 11.5386 29.2997L14.8517 25.9867C14.9132 25.9251 14.8046 25.7169 14.6094 25.5217C14.4142 25.3266 14.2061 25.218 14.1445 25.2795Z" fill="black"/>
<path d="M28.1506 29.1282L24.8375 25.8152C24.776 25.7537 24.8845 25.5454 25.0797 25.3502C25.2749 25.1549 25.4832 25.0465 25.5447 25.108L28.8578 28.4211C28.9192 28.4826 28.8107 28.6908 28.6155 28.886C28.4203 29.0812 28.2121 29.1897 28.1506 29.1282Z" fill="black"/>
<path d="M28.1496 25.2795L24.8366 28.5926C24.775 28.6541 24.8835 28.8624 25.0787 29.0576C25.2739 29.2528 25.4822 29.3612 25.5437 29.2997L28.8568 25.9867C28.9183 25.9251 28.8097 25.7169 28.6145 25.5217C28.4194 25.3266 28.2112 25.218 28.1496 25.2795Z" fill="black"/>
</svg>
