<svg width="32" height="40" viewBox="0 0 32 40" fill="none" xmlns="http://www.w3.org/2000/svg">
<path d="M5.8471 10.4999C5.8471 9.67151 6.51862 9 7.34697 9H27.8451C28.6735 9 29.345 9.67151 29.345 10.4999C29.345 11.3282 28.6735 11.9997 27.8451 11.9997H7.34697C6.51862 11.9997 5.8471 11.3282 5.8471 10.4999Z" fill="black"/>
<path d="M5.8471 15.9994C5.8471 15.171 6.51862 14.4995 7.34697 14.4995H27.8451C28.6735 14.4995 29.345 15.171 29.345 15.9994C29.345 16.8277 28.6735 17.4992 27.8451 17.4992H7.34697C6.51862 17.4992 5.8471 16.8277 5.8471 15.9994Z" fill="black"/>
<path d="M7.83764 10.9998C8.11363 10.9998 8.33754 11.2115 8.3376 11.4724V25.5264C8.33744 25.7872 8.11357 25.9985 7.83764 25.9985C7.56177 25.9984 7.33784 25.7872 7.33769 25.5264V11.4724C7.33775 11.2115 7.56171 10.9999 7.83764 10.9998Z" fill="black"/>
<path d="M2.01693 28.4325L6.97382 24.1382C7.06588 24.0585 7.50713 24.4169 7.95897 24.9385C8.41081 25.46 8.7027 25.9478 8.61064 26.0276L3.65375 30.3219C3.56163 30.4016 3.12054 30.0431 2.66874 29.5216C2.21695 29 1.92496 28.5124 2.01693 28.4325Z" fill="black"/>
<path d="M14.8371 10.9998C15.113 10.9998 15.337 11.2115 15.337 11.4724V25.5264C15.3369 25.7872 15.113 25.9985 14.8371 25.9985C14.5612 25.9984 14.3373 25.7872 14.3371 25.5264V11.4724C14.3372 11.2115 14.5611 10.9999 14.8371 10.9998Z" fill="black"/>
<path d="M21.8365 10.9998C22.1125 10.9998 22.3364 11.2115 22.3365 11.4724V25.5264C22.3363 25.7872 22.1124 25.9985 21.8365 25.9985C21.5606 25.9984 21.3367 25.7872 21.3365 25.5264V11.4724C21.3366 11.2115 21.5606 10.9999 21.8365 10.9998Z" fill="black"/>
<path d="M28.8359 10.9998C29.1119 10.9998 29.3358 11.2115 29.3358 11.4724V25.5264C29.3357 25.7872 29.1118 25.9985 28.8359 25.9985C28.56 25.9984 28.3361 25.7872 28.3359 25.5264V11.4724C28.336 11.2115 28.5599 10.9999 28.8359 10.9998Z" fill="black"/>
<path d="M14.1777 29.0304L10.8652 25.718C10.8037 25.6564 10.9122 25.4482 11.1073 25.253C11.3025 25.0578 11.5108 24.9494 11.5723 25.0109L14.8848 28.3234C14.9462 28.3849 14.8377 28.5931 14.6426 28.7882C14.4474 28.9834 14.2393 29.0919 14.1777 29.0304Z" fill="black"/>
<path d="M14.1767 25.1824L10.8643 28.4948C10.8028 28.5564 10.9112 28.7646 11.1064 28.9598C11.3015 29.155 11.5098 29.2634 11.5713 29.2019L14.8838 25.8894C14.9453 25.8279 14.8367 25.6197 14.6416 25.4246C14.4464 25.2294 14.2383 25.1209 14.1767 25.1824Z" fill="black"/>
<path d="M21.1817 29.0304L17.8693 25.718C17.8077 25.6564 17.9162 25.4482 18.1114 25.253C18.3065 25.0578 18.5148 24.9494 18.5763 25.0109L21.8888 28.3234C21.9502 28.3849 21.8417 28.5931 21.6466 28.7882C21.4514 28.9834 21.2433 29.0919 21.1817 29.0304Z" fill="black"/>
<path d="M21.1808 25.1824L17.8683 28.4948C17.8068 28.5564 17.9152 28.7646 18.1104 28.9598C18.3056 29.155 18.5138 29.2634 18.5753 29.2019L21.8878 25.8894C21.9493 25.8279 21.8408 25.6197 21.6456 25.4246C21.4504 25.2294 21.2423 25.1209 21.1808 25.1824Z" fill="black"/>
<path d="M28.1865 29.0304L24.874 25.718C24.8125 25.6564 24.9209 25.4482 25.1161 25.253C25.3113 25.0578 25.5195 24.9494 25.581 25.0109L28.8935 28.3234C28.955 28.3849 28.8465 28.5931 28.6513 28.7882C28.4562 28.9834 28.248 29.0919 28.1865 29.0304Z" fill="black"/>
<path d="M28.1855 25.1824L24.873 28.4948C24.8115 28.5564 24.9199 28.7646 25.1151 28.9598C25.3103 29.155 25.5185 29.2634 25.5801 29.2019L28.8925 25.8894C28.954 25.8279 28.8455 25.6197 28.6503 25.4246C28.4552 25.2294 28.247 25.1209 28.1855 25.1824Z" fill="black"/>
</svg>
