<svg width="32" height="40" viewBox="0 0 32 40" fill="none" xmlns="http://www.w3.org/2000/svg">
<path d="M5.71797 10.5001C5.71797 9.67163 6.38961 9 7.2181 9H27.7199C28.5484 9 29.22 9.67163 29.22 10.5001C29.22 11.3286 28.5484 12.0003 27.7199 12.0003H7.2181C6.38961 12.0003 5.71797 11.3286 5.71797 10.5001Z" fill="black"/>
<path d="M5.71797 16.0006C5.71797 15.1721 6.38961 14.5005 7.2181 14.5005H27.7199C28.5484 14.5005 29.22 15.1721 29.22 16.0006C29.22 16.8291 28.5484 17.5007 27.7199 17.5007H7.2181C6.38961 17.5007 5.71797 16.8291 5.71797 16.0006Z" fill="black"/>
<path d="M7.70886 11.0002C7.9849 11.0002 8.20885 11.2119 8.20891 11.4729V25.5293C8.20875 25.7902 7.98484 26.0015 7.70886 26.0015C7.43294 26.0014 7.20898 25.7901 7.20882 25.5293V11.4729C7.20888 11.2119 7.43288 11.0002 7.70886 11.0002Z" fill="black"/>
<path d="M2.01693 28.1723L6.9747 23.8772C7.06677 23.7974 7.50809 24.1559 7.96002 24.6776C8.41194 25.1992 8.70388 25.6871 8.6118 25.7669L3.65404 30.062C3.5619 30.1416 3.12074 29.7831 2.66886 29.2615C2.21699 28.7399 1.92495 28.2521 2.01693 28.1723Z" fill="black"/>
<path d="M8.88504 28.1723L13.8428 23.8772C13.9349 23.7974 14.3762 24.1559 14.8281 24.6776C15.2801 25.1992 15.572 25.6871 15.4799 25.7669L10.5222 30.062C10.43 30.1416 9.98885 29.7831 9.53698 29.2615C9.0851 28.7399 8.79306 28.2521 8.88504 28.1723Z" fill="black"/>
<path d="M15.7531 28.1723L20.7109 23.8772C20.803 23.7974 21.2443 24.1559 21.6962 24.6776C22.1481 25.1992 22.4401 25.6871 22.348 25.7669L17.3902 30.062C17.2981 30.1416 16.8569 29.7831 16.4051 29.2615C15.9532 28.7399 15.6612 28.2521 15.7531 28.1723Z" fill="black"/>
<path d="M28.1503 29.1282L24.8372 25.8152C24.7757 25.7537 24.8841 25.5454 25.0794 25.3502C25.2746 25.1549 25.4829 25.0465 25.5444 25.108L28.8574 28.4211C28.9189 28.4826 28.8104 28.6908 28.6152 28.886C28.42 29.0812 28.2118 29.1897 28.1503 29.1282Z" fill="black"/>
<path d="M28.1493 25.2795L24.8362 28.5926C24.7747 28.6541 24.8832 28.8624 25.0784 29.0576C25.2736 29.2528 25.4819 29.3612 25.5434 29.2997L28.8565 25.9867C28.9179 25.9251 28.8094 25.7169 28.6142 25.5217C28.419 25.3266 28.2108 25.218 28.1493 25.2795Z" fill="black"/>
<path d="M14.7097 11.0002C14.9857 11.0002 15.2097 11.2119 15.2097 11.4729V25.5293C15.2096 25.7902 14.9857 26.0015 14.7097 26.0015C14.4338 26.0014 14.2098 25.7901 14.2097 25.5293V11.4729C14.2097 11.2119 14.4337 11.0002 14.7097 11.0002Z" fill="black"/>
<path d="M21.7104 11.0002C21.9864 11.0002 22.2104 11.2119 22.2104 11.4729V25.5293C22.2103 25.7902 21.9863 26.0015 21.7104 26.0015C21.4344 26.0015 21.2105 25.7902 21.2103 25.5293V11.4729C21.2104 11.2119 21.4343 11.0002 21.7104 11.0002Z" fill="black"/>
<path d="M28.711 11.0002C28.987 11.0002 29.211 11.2119 29.211 11.4729V25.5293C29.2109 25.7902 28.987 26.0015 28.711 26.0015C28.4351 26.0014 28.2111 25.7901 28.2109 25.5293V11.4729C28.211 11.2119 28.435 11.0002 28.711 11.0002Z" fill="black"/>
</svg>
