<svg width="32" height="40" viewBox="0 0 32 40" fill="none" xmlns="http://www.w3.org/2000/svg">
<path d="M5.71797 10.5001C5.71797 9.67163 6.38961 9 7.2181 9H27.7199C28.5484 9 29.22 9.67163 29.22 10.5001C29.22 11.3286 28.5484 12.0003 27.7199 12.0003H7.2181C6.38961 12.0003 5.71797 11.3286 5.71797 10.5001Z" fill="black"/>
<path d="M5.71797 16.0006C5.71797 15.1721 6.38961 14.5005 7.2181 14.5005H27.7199C28.5484 14.5005 29.22 15.1721 29.22 16.0006C29.22 16.8291 28.5484 17.5007 27.7199 17.5007H7.2181C6.38961 17.5007 5.71797 16.8291 5.71797 16.0006Z" fill="black"/>
<path d="M7.70886 11.0002C7.9849 11.0002 8.20885 11.2119 8.20891 11.4729V25.5293C8.20875 25.7902 7.98484 26.0015 7.70886 26.0015C7.43294 26.0014 7.20898 25.7901 7.20882 25.5293V11.4729C7.20888 11.2119 7.43288 11.0002 7.70886 11.0002Z" fill="black"/>
<path d="M2.01693 28.1723L6.9747 23.8772C7.06677 23.7974 7.50809 24.1559 7.96002 24.6776C8.41194 25.1992 8.70388 25.6871 8.6118 25.7669L3.65404 30.062C3.5619 30.1416 3.12074 29.7831 2.66886 29.2615C2.21699 28.7399 1.92495 28.2521 2.01693 28.1723Z" fill="black"/>
<path d="M8.88438 28.436L13.8421 24.1409C13.9342 24.0611 14.3755 24.4196 14.8275 24.9413C15.2794 25.4629 15.5713 25.9508 15.4793 26.0306L10.5215 30.3257C10.4294 30.4053 9.98818 30.0468 9.53631 29.5252C9.08443 29.0036 8.7924 28.5158 8.88438 28.436Z" fill="black"/>
<path d="M14.7095 11.0002C14.9855 11.0002 15.2095 11.2119 15.2095 11.4729V25.5293C15.2094 25.7902 14.9855 26.0015 14.7095 26.0015C14.4336 26.0014 14.2096 25.7901 14.2094 25.5293V11.4729C14.2095 11.2119 14.4335 11.0002 14.7095 11.0002Z" fill="black"/>
<path d="M21.7102 11.0002C21.9862 11.0002 22.2101 11.2119 22.2102 11.4729V25.5293C22.21 25.7902 21.9861 26.0015 21.7102 26.0015C21.4342 26.0014 21.2103 25.7901 21.2101 25.5293V11.4729C21.2102 11.2119 21.4342 11.0002 21.7102 11.0002Z" fill="black"/>
<path d="M28.7108 11.0002C28.9868 11.0002 29.2108 11.2119 29.2108 11.4729V25.5293C29.2107 25.7902 28.9867 26.0015 28.7108 26.0015C28.4348 26.0014 28.2109 25.7901 28.2107 25.5293V11.4729C28.2108 11.2119 28.4348 11.0002 28.7108 11.0002Z" fill="black"/>
<path d="M21.1451 29.1282L17.8321 25.8152C17.7706 25.7537 17.879 25.5454 18.0742 25.3502C18.2694 25.1549 18.4777 25.0465 18.5392 25.108L21.8523 28.4211C21.9138 28.4826 21.8053 28.6908 21.6101 28.886C21.4149 29.0812 21.2067 29.1897 21.1451 29.1282Z" fill="black"/>
<path d="M21.1442 25.2795L17.8311 28.5926C17.7696 28.6541 17.878 28.8624 18.0732 29.0576C18.2685 29.2528 18.4767 29.3612 18.5383 29.2997L21.8513 25.9867C21.9128 25.9251 21.8043 25.7169 21.6091 25.5217C21.4139 25.3266 21.2057 25.218 21.1442 25.2795Z" fill="black"/>
<path d="M28.1503 29.1282L24.8372 25.8152C24.7757 25.7537 24.8842 25.5454 25.0794 25.3502C25.2746 25.1549 25.4829 25.0465 25.5444 25.108L28.8574 28.4211C28.9189 28.4826 28.8104 28.6908 28.6152 28.886C28.42 29.0812 28.2118 29.1897 28.1503 29.1282Z" fill="black"/>
<path d="M28.1493 25.2795L24.8363 28.5926C24.7747 28.6541 24.8832 28.8624 25.0784 29.0576C25.2736 29.2528 25.4819 29.3612 25.5434 29.2997L28.8565 25.9867C28.918 25.9251 28.8094 25.7169 28.6142 25.5217C28.419 25.3266 28.2109 25.218 28.1493 25.2795Z" fill="black"/>
</svg>
