<svg width="32" height="40" viewBox="0 0 32 40" fill="none" xmlns="http://www.w3.org/2000/svg">
<path d="M5.7178 10.5001C5.7178 9.6716 6.3894 9 7.21786 9H27.7187C28.5471 9 29.2187 9.6716 29.2187 10.5001C29.2187 11.3285 28.5471 12.0001 27.7187 12.0001H7.21786C6.3894 12.0001 5.7178 11.3285 5.7178 10.5001Z" fill="black"/>
<path d="M5.7178 16.0003C5.7178 15.1718 6.3894 14.5002 7.21786 14.5002H27.7187C28.5471 14.5002 29.2187 15.1718 29.2187 16.0003C29.2187 16.8287 28.5471 17.5003 27.7187 17.5003H7.21786C6.3894 17.5003 5.7178 16.8287 5.7178 16.0003Z" fill="black"/>
<path d="M7.7086 11.0001C7.98462 11.0001 8.20855 11.2118 8.20862 11.4728V25.5285C8.20846 25.7894 7.98456 26.0007 7.7086 26.0007C7.43268 26.0006 7.20873 25.7893 7.20858 25.5285V11.4728C7.20864 11.2118 7.43263 11.0001 7.7086 11.0001Z" fill="black"/>
<path d="M2.01693 28.1714L6.97446 23.8765C7.06653 23.7967 7.50784 24.1552 7.95974 24.6768C8.41164 25.1985 8.70356 25.6863 8.61149 25.7661L3.65396 30.061C3.56183 30.1406 3.12068 29.7821 2.66883 29.2605C2.21698 28.7389 1.92495 28.2512 2.01693 28.1714Z" fill="black"/>
<path d="M15.7525 28.1714L20.71 23.8765C20.8021 23.7967 21.2434 24.1552 21.6953 24.6768C22.1472 25.1985 22.4391 25.6863 22.3471 25.7661L17.3895 30.061C17.2974 30.1406 16.8563 29.7821 16.4044 29.2605C15.9526 28.7389 15.6605 28.2512 15.7525 28.1714Z" fill="black"/>
<path d="M14.1436 29.1273L10.8307 25.8144C10.7692 25.7529 10.8776 25.5446 11.0728 25.3494C11.268 25.1542 11.4763 25.0457 11.5378 25.1073L14.8507 28.4201C14.9122 28.4817 14.8037 28.6899 14.6085 28.8851C14.4133 29.0802 14.2052 29.1888 14.1436 29.1273Z" fill="black"/>
<path d="M14.1426 25.2787L10.8297 28.5916C10.7682 28.6532 10.8767 28.8614 11.0719 29.0566C11.2671 29.2518 11.4753 29.3603 11.5369 29.2988L14.8498 25.9859C14.9112 25.9243 14.8027 25.7161 14.6075 25.521C14.4124 25.3258 14.2042 25.2173 14.1426 25.2787Z" fill="black"/>
<path d="M14.7091 11.0001C14.9851 11.0001 15.2091 11.2118 15.2091 11.4728V25.5285C15.209 25.7894 14.9851 26.0007 14.7091 26.0007C14.4332 26.0006 14.2093 25.7893 14.2091 25.5285V11.4728C14.2092 11.2118 14.4331 11.0001 14.7091 11.0001Z" fill="black"/>
<path d="M21.7095 11.0001C21.9855 11.0001 22.2094 11.2118 22.2095 11.4728V25.5285C22.2093 25.7894 21.9854 26.0007 21.7095 26.0007C21.4335 26.0007 21.2096 25.7894 21.2094 25.5285V11.4728C21.2095 11.2118 21.4334 11.0001 21.7095 11.0001Z" fill="black"/>
<path d="M28.7097 11.0001C28.9858 11.0001 29.2097 11.2118 29.2098 11.4728V25.5285C29.2096 25.7894 28.9857 26.0007 28.7097 26.0007C28.4338 26.0006 28.2099 25.7893 28.2097 25.5285V11.4728C28.2098 11.2118 28.4338 11.0001 28.7097 11.0001Z" fill="black"/>
<path d="M22.8885 28.435L27.846 24.1402C27.9381 24.0604 28.3794 24.4189 28.8313 24.9405C29.2832 25.4621 29.5751 25.95 29.483 26.0298L24.5255 30.3247C24.4334 30.4043 23.9922 30.0458 23.5404 29.5242C23.0885 29.0026 22.7965 28.5149 22.8885 28.435Z" fill="black"/>
</svg>
