<svg width="32" height="40" viewBox="0 0 32 40" fill="none" xmlns="http://www.w3.org/2000/svg">
<path fill-rule="evenodd" clip-rule="evenodd" d="M16.6855 12C16.9267 12 17.1229 12.1902 17.123 12.4248V25.0615C17.1229 25.2439 17.0039 25.3979 16.8379 25.458V25.5039L16.8359 25.5332L16.834 25.5635L16.8311 25.5967L16.8262 25.6318L16.8213 25.6699L16.8154 25.709L16.8076 25.75L16.7988 25.792L16.7891 25.8369L16.7783 25.8818L16.7656 25.9297L16.752 25.9785L16.7363 26.0283L16.7207 26.0791L16.7021 26.1309L16.6826 26.1846L16.6621 26.2383L16.6396 26.2939L16.6152 26.3486L16.5898 26.4053L16.5615 26.4619L16.5322 26.5195L16.502 26.5771L16.4688 26.6348L16.4346 26.6934L16.3975 26.751L16.3594 26.8096L16.3184 26.8672L16.2764 26.9258L16.2314 26.9834L16.1855 27.041L16.1367 27.0977L16.0859 27.1533L16.0322 27.21L15.9766 27.2646L15.9189 27.3184L15.8594 27.3721L15.7969 27.4248L15.7324 27.4756L15.665 27.5254L15.5947 27.5742L15.5225 27.6221L15.4482 27.668L15.3701 27.7129L15.29 27.7559L15.207 27.7969L15.1221 27.8359L15.0332 27.874L14.9424 27.9092L14.8486 27.9424L14.751 27.9736L14.6514 28.0029L14.5488 28.0293L14.4424 28.0537L14.334 28.0762L14.2217 28.0947L14.1064 28.1113L13.9883 28.125L13.8662 28.1357L13.7412 28.1436L13.6133 28.1484L13.4824 28.1504L13.3936 28.1484L13.3076 28.1445L13.2217 28.1367L13.1797 28.1318L13.1387 28.127L13.0977 28.1211L13.0566 28.1143L12.9766 28.0986L12.9375 28.0898L12.8984 28.0801L12.8223 28.0586L12.748 28.0352L12.7119 28.0225L12.6768 28.0088L12.6416 27.9941L12.6074 27.9795L12.5732 27.9639L12.5068 27.9307L12.4746 27.9121L12.4434 27.8945L12.3828 27.8555L12.3535 27.8359L12.3242 27.8145L12.2969 27.793L12.2422 27.748L12.2168 27.7246L12.1914 27.7002L12.167 27.6758L12.1436 27.6504L12.1211 27.625L12.0986 27.5977L12.0771 27.5713L12.0566 27.543L12.0371 27.5146L12.0186 27.4854L12.001 27.4561L11.9834 27.4258L11.9521 27.3633L11.9248 27.2988L11.9121 27.2656L11.9004 27.2314L11.8896 27.1973L11.8799 27.1621L11.8711 27.127L11.8633 27.0908L11.8516 27.0166L11.8467 26.9785L11.8428 26.9404L11.8398 26.9014L11.8379 26.8223L11.8389 26.7812L11.8408 26.7402L11.8438 26.6963L11.8477 26.6523L11.8535 26.6064L11.8604 26.5596L11.8691 26.5107L11.8789 26.4619L11.8896 26.4121L11.9023 26.3613L11.916 26.3096L11.9307 26.2568L11.9658 26.1494L11.9863 26.0947L12.0078 26.04L12.0303 25.9844L12.0547 25.9287L12.0811 25.8721L12.1084 25.8164L12.1377 25.7598L12.1689 25.7031L12.2021 25.6465L12.2363 25.5898L12.2725 25.5332L12.3105 25.4766L12.3506 25.4209L12.3916 25.3652L12.4355 25.3096L12.4805 25.2549L12.5273 25.2012L12.5771 25.1475L12.6279 25.0938L12.6807 25.042L12.7354 24.9902L12.792 24.9395L12.8516 24.8896L12.9121 24.8408L12.9746 24.7939L13.04 24.7471L13.1074 24.7021L13.1768 24.6582L13.248 24.6152L13.3213 24.5742L13.3975 24.5342L13.4746 24.4961L13.5547 24.459L13.6377 24.4248L13.7227 24.3916L13.8096 24.3604L13.8984 24.3301L13.9902 24.3027L14.084 24.2773L14.1807 24.2539L14.2793 24.2334L14.3809 24.2139L14.4844 24.1973L14.5908 24.1836L14.6992 24.1719L14.8105 24.1621L14.9248 24.1553L15.041 24.1514L15.1602 24.1504H15.207L15.2529 24.1514L15.2988 24.1533L15.3887 24.1592L15.4766 24.1689L15.5195 24.1738L15.5625 24.1807L15.6045 24.1875L15.6465 24.1953L15.6875 24.2041L15.7285 24.2139L15.7686 24.2236L15.8467 24.2451L15.9229 24.2705L15.96 24.2842L15.9961 24.2979L16.0322 24.3125L16.0674 24.3281L16.1357 24.3613L16.1689 24.3789L16.2012 24.3965L16.2334 24.416L16.249 24.4258V12.4248C16.2492 12.1904 16.4445 12.0002 16.6855 12ZM15.5508 24.8066H15.5342L15.499 24.8086L15.4639 24.8125L15.4268 24.8164L15.4072 24.8184L15.3887 24.8213L15.3691 24.8242L15.3486 24.8281L15.3291 24.8311L15.3076 24.835L15.2871 24.8389L15.2227 24.8535L15.2002 24.8594L15.1777 24.8643L15.1543 24.8711L15.1309 24.877L15.084 24.8906L15.0596 24.8975L15.0342 24.9053L15.0098 24.9131L14.9844 24.9219L14.9053 24.9482L14.8779 24.958L14.8506 24.9688L14.8232 24.9785L14.7949 24.9893L14.7656 25.001L14.7373 25.0117L14.708 25.0244L14.6777 25.0361L14.6172 25.0615L14.5547 25.0889L14.4902 25.1182L14.457 25.1328L14.3906 25.1641L14.3223 25.1973L14.2871 25.2139L14.252 25.2314L14.2158 25.249L14.1797 25.2676L14.1426 25.2861L14.1055 25.3057L14.0293 25.3447L13.9912 25.3652L13.9512 25.3867L13.9121 25.4082L13.8721 25.4297L13.8164 25.46L13.7627 25.4902L13.71 25.5195L13.6582 25.5498L13.6084 25.5781L13.5586 25.6074L13.5107 25.6357L13.4639 25.6641L13.418 25.6914L13.373 25.7197L13.3301 25.7471L13.2871 25.7734L13.2461 25.8008L13.166 25.8535L13.1279 25.8799L13.0908 25.9053L13.0547 25.9307L13.0195 25.9561L12.9854 25.9805L12.9521 26.0049L12.9199 26.0293L12.8887 26.0537L12.8584 26.0781L12.8291 26.1016L12.8008 26.125L12.7734 26.1484L12.7471 26.1709L12.7217 26.1943L12.6973 26.2168L12.6738 26.2393L12.6504 26.2607L12.6289 26.2832L12.6074 26.3047L12.5684 26.3477L12.5498 26.3682L12.5322 26.3887L12.5156 26.4102L12.499 26.4307L12.4844 26.4502L12.4697 26.4707L12.4561 26.4902L12.4307 26.5293L12.4189 26.5488L12.4082 26.5684L12.3984 26.5869L12.3896 26.6064L12.3809 26.625L12.373 26.6436L12.3662 26.6611L12.3594 26.6797L12.3535 26.6982L12.3438 26.7334L12.3398 26.751L12.334 26.7861L12.332 26.8027L12.3311 26.8203L12.3291 26.8535V26.8613L12.3301 26.8682V26.876L12.3311 26.8828V26.8906L12.332 26.8975L12.333 26.9053L12.334 26.9121L12.335 26.9199L12.3359 26.9268L12.3379 26.9336L12.3389 26.9414L12.3408 26.9482L12.3418 26.9561L12.3457 26.9697L12.3477 26.9775L12.3516 26.9912L12.3545 26.999L12.3584 27.0127L12.3613 27.0195L12.3643 27.0273L12.3662 27.0342L12.375 27.0547L12.377 27.0615L12.3857 27.082L12.3896 27.0889L12.4014 27.1162L12.4053 27.1221L12.4111 27.1357L12.415 27.1426L12.418 27.1484L12.4209 27.1553L12.4248 27.1611L12.4277 27.168L12.4316 27.1738L12.4365 27.1826L12.4424 27.1924L12.4492 27.2012L12.4551 27.21L12.4609 27.2197L12.4678 27.2285L12.4736 27.2373L12.4941 27.2637L12.502 27.2725L12.5088 27.2812L12.5156 27.2891L12.5312 27.3066L12.5635 27.3389L12.6074 27.3779L12.6172 27.3848L12.626 27.3926L12.6553 27.4131L12.666 27.4199L12.6758 27.4268L12.6865 27.4336L12.708 27.4453L12.7188 27.4521L12.7305 27.458L12.7412 27.4629L12.7646 27.4746L12.7773 27.4795L12.7891 27.4844L12.8145 27.4941L12.8271 27.498L12.8398 27.5029L12.8535 27.5068L12.8662 27.5107L12.8799 27.5146L12.8936 27.5176L12.9082 27.5205L12.9219 27.5234L12.9512 27.5293L12.9658 27.5312L12.9805 27.5342L12.9961 27.5361L13.0117 27.5371L13.0273 27.5391L13.043 27.54L13.0596 27.541H13.0762L13.0928 27.542H13.127L13.1455 27.541H13.1631L13.1816 27.54L13.2012 27.5381L13.2197 27.5371L13.2783 27.5312L13.3193 27.5254L13.3398 27.5215L13.3604 27.5186L13.3809 27.5146L13.4023 27.5107L13.4238 27.5059L13.4463 27.501L13.4678 27.4961L13.5127 27.4844L13.5361 27.4785L13.5596 27.4717L13.583 27.4658L13.6064 27.458L13.6309 27.4512L13.6543 27.4434L13.6797 27.4346L13.7041 27.4268L13.7295 27.418L13.7803 27.3984L13.833 27.3789L13.8594 27.3682L13.8867 27.3574L13.9414 27.334L13.9688 27.3213L13.9971 27.3096L14.0254 27.2959L14.0547 27.2832L14.1133 27.2549L14.1426 27.2412L14.1729 27.2256L14.2031 27.2109L14.2334 27.1953L14.3271 27.1455L14.3916 27.1104L14.4912 27.0547L14.5244 27.0352L14.5928 26.9941L14.6279 26.9736L14.6982 26.9307L14.7705 26.8857L14.8262 26.8516L14.8809 26.8174L14.9346 26.7832L14.9863 26.75L15.0371 26.7168L15.0869 26.6846L15.1357 26.6533L15.2295 26.5908L15.2744 26.5605L15.3184 26.5312L15.3613 26.502L15.4023 26.4727L15.4434 26.4443L15.4824 26.416L15.5215 26.3887L15.5586 26.3613L15.5947 26.335L15.6299 26.3086L15.6641 26.2822L15.6973 26.2568L15.7295 26.2314L15.7607 26.207L15.791 26.1826L15.8203 26.1582L15.875 26.1113L15.9014 26.0879L15.9268 26.0654L15.9512 26.043L16.0195 25.9775L16.04 25.957L16.0596 25.9355L16.0791 25.915L16.0977 25.8955L16.1152 25.875L16.1318 25.8555L16.1475 25.8359L16.1621 25.8164L16.1768 25.7979L16.2021 25.7607L16.2139 25.7422L16.2256 25.7246L16.2363 25.707L16.2461 25.6895L16.2549 25.6719L16.2627 25.6543L16.2705 25.6377L16.2842 25.6045L16.2939 25.5713L16.2988 25.5557L16.3027 25.5391L16.3086 25.5078L16.3105 25.4922L16.3125 25.4609V25.4307L16.3115 25.4229V25.416L16.3105 25.4082L16.3096 25.4014L16.3086 25.3936L16.3076 25.3867L16.3066 25.3789L16.3057 25.3721L16.3037 25.3643L16.3027 25.3574L16.2988 25.3438L16.2969 25.3359L16.293 25.3223L16.29 25.3154L16.2861 25.3018L16.2832 25.2949L16.2812 25.2881L16.2637 25.2471L16.2607 25.2412L16.2549 25.2275L16.251 25.2207L16.248 25.2139L16.2451 25.208L16.2412 25.2012L16.2354 25.1875L16.2314 25.1816L16.2285 25.1748L16.2246 25.168L16.2217 25.1611L16.2178 25.1553L16.2139 25.1484L16.2109 25.1416L16.1816 25.0977L16.1748 25.0889L16.1689 25.0801L16.1553 25.0625L16.1494 25.0547L16.1426 25.0459L16.1348 25.0381L16.1211 25.0225L16.1133 25.0146L16.1064 25.0068L16.0908 24.9912L16.083 24.9844L16.0752 24.9766L16.0674 24.9697L16.0586 24.9629L16.0508 24.9551L16.042 24.9482L16.0332 24.9424L16.0156 24.9287L16.0068 24.9229L15.9971 24.917L15.9883 24.9111L15.9492 24.8877L15.9385 24.8828L15.9287 24.8779L15.8857 24.8584L15.874 24.8545L15.8633 24.8506L15.8281 24.8389L15.8164 24.8359L15.8037 24.832L15.792 24.8291L15.7666 24.8232L15.7539 24.8213L15.7402 24.8184L15.7275 24.8164L15.7002 24.8125L15.6865 24.8115L15.6719 24.8096L15.6582 24.8086L15.6289 24.8066H15.6143L15.5986 24.8057H15.5674L15.5508 24.8066Z" fill="black"/>
<path d="M21.207 23.6816C21.7313 23.6818 22.156 24.1066 22.1562 24.6309C22.1562 25.1553 21.7314 25.5809 21.207 25.5811C20.6825 25.5811 20.2568 25.1554 20.2568 24.6309C20.2571 24.1065 20.6827 23.6816 21.207 23.6816Z" fill="black"/>
</svg>
