<svg width="32" height="40" viewBox="0 0 32 40" fill="none" xmlns="http://www.w3.org/2000/svg">
<path d="M15.3506 12C15.6266 12 15.8506 12.1978 15.8506 12.4414V25.5596C15.8505 25.6026 15.8412 25.6433 15.8281 25.6826L15.8428 25.708L15.8594 25.7383L15.875 25.7686L15.9043 25.8311L15.917 25.8633L15.9404 25.9297L15.9502 25.9629L15.96 25.9971L15.9756 26.0674L15.9873 26.1396L15.9922 26.1768L15.998 26.251L16 26.3281L15.999 26.3926L15.9941 26.457L15.9873 26.5215L15.9785 26.5859L15.9658 26.6504L15.9512 26.7139L15.9346 26.7773L15.915 26.8408L15.8936 26.9043L15.8691 26.9668L15.8428 27.0293L15.8145 27.0908L15.7832 27.1523L15.75 27.2139L15.7148 27.2744L15.6787 27.334L15.6396 27.3936L15.5986 27.4521L15.5557 27.5107L15.5117 27.5684L15.4648 27.625L15.417 27.6816L15.3682 27.7373L15.3164 27.792L15.2637 27.8457L15.21 27.8984L15.1543 27.9502L15.0967 28.002L15.0391 28.0527L14.9795 28.1016L14.9189 28.1504L14.7939 28.2441L14.7295 28.2891L14.5986 28.377L14.5312 28.4189L14.4639 28.459L14.3945 28.499L14.3252 28.5371L14.2549 28.5742L14.1846 28.6094L14.1133 28.6436L14.041 28.6768L13.9688 28.708L13.8965 28.7383L13.8232 28.7666L13.75 28.7939L13.6758 28.8193L13.6016 28.8438L13.5283 28.8662L13.4531 28.8867L13.3789 28.9062L13.3047 28.9238L13.2305 28.9395L13.1562 28.9531L13.082 28.9658L13.0088 28.9756L12.9346 28.9844L12.8613 28.9912L12.7891 28.9961L12.7158 28.999L12.6445 29H12.6006L12.5576 28.998L12.5146 28.9971L12.4717 28.9941L12.3877 28.9863L12.3057 28.9766L12.2646 28.9697L12.2246 28.9629L12.1846 28.9551L12.1455 28.9473L12.1064 28.9385L12.0674 28.9287L12.0293 28.918L11.9912 28.9062L11.9541 28.8945L11.8818 28.8691L11.8457 28.8555L11.8115 28.8408L11.7764 28.8252L11.7422 28.8096L11.709 28.793L11.6445 28.7578L11.6123 28.7393L11.5518 28.7002L11.5215 28.6797L11.4932 28.6592L11.4648 28.6367L11.4102 28.5918L11.3838 28.5684L11.3594 28.5439L11.334 28.5195L11.3105 28.4941L11.2871 28.4678L11.2646 28.4414L11.2432 28.4141L11.2227 28.3857L11.1836 28.3291L11.1484 28.2686L11.1318 28.2383L11.1162 28.207L11.1016 28.1748L11.0879 28.1426L11.0752 28.1094L11.0635 28.0762L11.0527 28.042L11.043 28.0078L11.0342 27.9727L11.0264 27.9365L11.0195 27.9004L11.0137 27.8633L11.0088 27.8262L11.0049 27.7881L11.002 27.75L11 27.6719L11.001 27.6064L11.0049 27.541L11.0098 27.4766L11.0176 27.4111L11.0273 27.3467L11.04 27.2822L11.0537 27.2178L11.0703 27.1543L11.0879 27.0908L11.1084 27.0273L11.1309 26.9648L11.1543 26.9023L11.1807 26.8408L11.209 26.7803L11.2383 26.7188L11.2705 26.6592L11.3037 26.5996L11.3389 26.54L11.376 26.4824L11.415 26.4248L11.4561 26.3682L11.498 26.3115L11.542 26.2559L11.5879 26.2012L11.6348 26.1475L11.6836 26.0947L11.7334 26.043L11.7861 25.9912L11.8389 25.9414L11.8936 25.8916L11.9502 25.8438L12.0078 25.7969L12.0674 25.75L12.127 25.7051L12.1895 25.6611L12.252 25.6182L12.3164 25.5771L12.3828 25.5361L12.4492 25.4971L12.5176 25.459L12.5869 25.4219L12.6572 25.3867L12.7285 25.3525L12.8018 25.3203L12.875 25.2891L12.9502 25.2588L13.0264 25.2305L13.1025 25.2041L13.1807 25.1787L13.2588 25.1553L13.3389 25.1328L13.4189 25.1123L13.501 25.0928L13.583 25.0762L13.666 25.0605L13.75 25.0459L13.834 25.0342L13.9199 25.0234L14.0059 25.0156L14.0918 25.0088L14.1797 25.0039L14.2676 25.001L14.3555 25H14.4014L14.5361 25.0059L14.624 25.0137L14.667 25.0186L14.751 25.0303L14.793 25.0381L14.834 25.0459L14.8506 25.0488V12.4414C14.8506 12.1978 15.0746 12.0001 15.3506 12Z" fill="black"/>
<path d="M19.6465 23.0977C20.1447 23.0977 20.5488 23.5017 20.5488 24C20.5487 24.4981 20.1446 24.9023 19.6465 24.9023C19.1483 24.9023 18.7443 24.4982 18.7441 24C18.7441 23.5017 19.1482 23.0977 19.6465 23.0977Z" fill="black"/>
</svg>
