<svg width="32" height="40" viewBox="0 0 32 40" fill="none" xmlns="http://www.w3.org/2000/svg">
<path d="M15.2969 12L15.3164 12.001H15.3398C15.3434 12.0009 15.347 12 15.3506 12C15.3574 12 15.3643 12.0007 15.3711 12.001L15.374 12.002H15.3926L15.4453 12.0049L15.4951 12.0078L15.542 12.0107L15.5566 12.0127L15.5713 12.0137L15.5859 12.0156L15.6133 12.0195L15.627 12.0205L15.6523 12.0244L15.665 12.0273L15.6885 12.0312L15.7002 12.0342L15.7109 12.0361L15.7227 12.0391L15.7324 12.042L15.7432 12.0449L15.7822 12.0566L15.791 12.0596L15.7998 12.0635L15.8076 12.0664L15.8164 12.0703L15.832 12.0781L15.8389 12.082L15.8467 12.0859L15.8604 12.0938L15.8662 12.0986L15.873 12.1035L15.8789 12.1074L15.8906 12.1172L15.8955 12.1221L15.9014 12.127L15.9062 12.1318L15.9111 12.1377L15.915 12.1426L15.9199 12.1484L15.9238 12.1543L15.9277 12.1592L15.9316 12.165L15.9355 12.1719L15.9385 12.1777L15.957 12.2139L15.9766 12.251L15.9961 12.2871L16.0176 12.3242L16.0391 12.3604L16.0859 12.4326L16.1104 12.4688L16.1357 12.5049L16.1621 12.54L16.1895 12.5762L16.2168 12.6113L16.2754 12.6816L16.3359 12.752L16.4004 12.8223L16.4346 12.8564L16.4678 12.8916L16.5381 12.96L16.5742 12.9941L16.6113 13.0283L16.6875 13.0967L16.7266 13.1309L16.7656 13.1641L16.8066 13.1982L16.8887 13.2646L16.9307 13.2988L16.9736 13.332L17.0176 13.3643L17.1055 13.4307L17.1514 13.4639L17.1963 13.4961L17.2432 13.5283L17.29 13.5615L17.3369 13.5938L17.3848 13.626L17.4824 13.6904L17.5322 13.7227L17.582 13.7539L17.6836 13.8184L17.7344 13.8496L17.7861 13.8809L17.8389 13.9121L17.8916 13.9443L17.9443 13.9756L17.998 14.0068L18.0518 14.0371L18.1611 14.0996L18.2158 14.1299L18.2715 14.1611L18.3271 14.1914L18.3838 14.2227L18.4971 14.2832L18.5674 14.3213L18.7754 14.4385L18.8438 14.4775L19.0459 14.5977L19.1123 14.6377L19.1777 14.6777L19.2432 14.7188L19.3066 14.7588L19.3711 14.7998L19.4336 14.8418L19.4961 14.8828L19.5576 14.9248L19.6182 14.9658L19.6787 15.0078L19.7383 15.0498L19.7959 15.0928L19.8535 15.1348L19.9102 15.1777L20.0215 15.2637L20.0752 15.3066L20.1279 15.3496L20.1797 15.3936L20.2305 15.4365L20.2812 15.4805L20.3301 15.5244L20.377 15.5693L20.4238 15.6133L20.4697 15.6572L20.5576 15.7471L20.5996 15.792L20.6797 15.8818L20.7178 15.9268L20.7549 15.9727L20.79 16.0186L20.8252 16.0635L20.8896 16.1553L20.9199 16.2021L20.9482 16.248L20.9756 16.2939L21.001 16.3408L21.0254 16.3877L21.0488 16.4336L21.0898 16.5273L21.1074 16.5742L21.124 16.6221L21.1387 16.6689L21.1523 16.7158L21.1738 16.8115L21.1816 16.8584L21.1875 16.9062L21.1924 16.9541L21.1953 17.002L21.1963 17.0498L21.1943 17.1104L21.1924 17.1406L21.1885 17.1719L21.1807 17.2324L21.1689 17.2949L21.1621 17.3252L21.1465 17.3877L21.1377 17.418L21.1289 17.4492L21.1191 17.4805L21.0869 17.5713L21.0752 17.6016L21.0625 17.6318L21.0508 17.6621L21.0381 17.6914L21.0244 17.7207L21.0117 17.75L20.998 17.7793L20.9844 17.8076L20.9697 17.8359L20.9561 17.8633L20.9268 17.918L20.9131 17.9453L20.8984 17.9707L20.8838 17.9971L20.8691 18.0225L20.8398 18.0713L20.8262 18.0947L20.8115 18.1182L20.7979 18.1406L20.7705 18.1836L20.7568 18.2041L20.7314 18.2432L20.7188 18.2617L20.707 18.2793L20.6836 18.3125L20.6729 18.3281L20.6533 18.3555L20.6436 18.3682L20.6348 18.3809L20.627 18.3916L20.6191 18.4014L20.6123 18.4102L20.6064 18.4189L20.6016 18.4258L20.5967 18.4316L20.5928 18.4365L20.5898 18.4404L20.5879 18.4434L20.5859 18.4453L20.5674 18.4648L20.5605 18.4707L20.5371 18.4883L20.5283 18.4941L20.5195 18.499L20.5107 18.5049L20.501 18.5098L20.4922 18.5146L20.4814 18.5195L20.4717 18.5244L20.4609 18.5283L20.4395 18.5381L20.418 18.5459L20.3828 18.5576L20.3711 18.5605L20.3584 18.5645L20.3467 18.5674L20.335 18.5713L20.3096 18.5771L20.2969 18.5791L20.2852 18.582L20.2725 18.585L20.2598 18.5869L20.2471 18.5898L20.209 18.5957L20.1973 18.5977L20.1846 18.5986L20.1719 18.6006L20.1602 18.6016L20.1475 18.6035L20.1357 18.6045L20.123 18.6055L20.1113 18.6064H20.0996L20.0879 18.6074L20.0771 18.6084H20.0029L19.9932 18.6074L19.9844 18.6064H19.9756L19.958 18.6045L19.9502 18.6035L19.9424 18.6016L19.9355 18.6006L19.9287 18.5986L19.9219 18.5977L19.9082 18.5938L19.9004 18.5928L19.8936 18.5908L19.8857 18.5889L19.8789 18.5869L19.8555 18.5811L19.8477 18.5781L19.832 18.5742L19.8242 18.5713L19.8164 18.5693L19.8008 18.5635L19.793 18.5615L19.7842 18.5586L19.7373 18.541L19.7295 18.5371L19.7139 18.5312L19.7061 18.5273L19.6992 18.5234L19.6914 18.5205L19.6777 18.5127L19.6699 18.5088L19.6494 18.4971L19.6436 18.4932L19.6367 18.4893L19.6309 18.4844L19.625 18.4805L19.6191 18.4756L19.6133 18.4717L19.6084 18.4668L19.6025 18.4619L19.5977 18.458L19.5928 18.4531L19.5889 18.4482L19.584 18.4434L19.5801 18.4385L19.5762 18.4326L19.5732 18.4277L19.5693 18.4229L19.5635 18.4111L19.5615 18.4062L19.5557 18.3887L19.5537 18.377V18.3711L19.5527 18.3652V18.3623L19.5537 18.3594V18.3535L19.5557 18.3477V18.3438L19.5576 18.3379L19.5596 18.335L19.5605 18.3311L19.5615 18.3281L19.5635 18.3242L19.5654 18.3213L19.5664 18.3174L19.5684 18.3145L19.5703 18.3105L19.5732 18.3066L19.5752 18.3037L19.5771 18.2998L19.583 18.292L19.585 18.2891L19.5908 18.2812L19.5947 18.2773L19.5977 18.2734L19.6006 18.2686L19.6045 18.2646L19.6074 18.2607L19.6152 18.2529L19.6191 18.248L19.623 18.2441L19.6426 18.2266L19.6611 18.21L19.7314 18.1396L19.748 18.1221L19.7646 18.1055L19.8115 18.0527L19.8555 18L19.8965 17.9473L19.9473 17.877L19.959 17.8594L19.9697 17.8418L19.9814 17.8242L20.0029 17.7891L20.0127 17.7715L20.0225 17.7529L20.0322 17.7354L20.041 17.7178L20.0508 17.7002L20.0586 17.6826L20.0674 17.665L20.0908 17.6123L20.1045 17.5771L20.1113 17.5586L20.1172 17.541L20.124 17.5234L20.1289 17.5059L20.1348 17.4883L20.1494 17.4355L20.1533 17.418L20.1582 17.4004L20.1621 17.3828L20.1768 17.2949L20.1787 17.2783L20.1826 17.2432L20.1855 17.1904L20.1865 17.1738V17.0938L20.1846 17.0488L20.1768 16.959L20.168 16.8916L20.1641 16.8701L20.1602 16.8477L20.1562 16.8262L20.1514 16.8037L20.1475 16.7822L20.1416 16.7607L20.1367 16.7393L20.1191 16.6748L20.1055 16.6318L20.0918 16.5908L20.084 16.5693L20.0762 16.5488L20.0674 16.5283L20.0596 16.5088L20.042 16.4678L20.0322 16.4482L20.0234 16.4287L20.0137 16.4092L20.0029 16.3896L19.9932 16.3701L19.9824 16.3516L19.9717 16.332L19.9609 16.3135L19.9375 16.2764L19.9258 16.2588L19.9141 16.2402L19.8887 16.2051L19.876 16.1885L19.8633 16.1709L19.8496 16.1543L19.8369 16.1377L19.8232 16.1211L19.8086 16.1045L19.7949 16.0889L19.751 16.042L19.7354 16.0273L19.7051 15.9971L19.6885 15.9834L19.6729 15.9697L19.6562 15.9551L19.6396 15.9424L19.623 15.9287L19.582 15.8955L19.5391 15.8623L19.4932 15.8281L19.4463 15.7939L19.3975 15.7588L19.3457 15.7227L19.293 15.6865L19.2393 15.6504L19.1826 15.6143L19.125 15.5771L19.0654 15.5391L19.0039 15.502L18.9414 15.4639L18.8779 15.4258L18.8125 15.3877L18.7461 15.3496L18.6777 15.3115L18.6084 15.2734L18.5381 15.2344L18.3936 15.1582L18.2451 15.082L18.0928 15.0059L17.9365 14.9316L17.8574 14.8945L17.6973 14.8213L17.6162 14.7861L17.5352 14.75L17.4531 14.7158L17.3701 14.6807L17.2871 14.6475L17.2041 14.6133L17.0361 14.5488L16.8682 14.4863L16.7842 14.4561L16.6992 14.4268L16.6152 14.3984L16.5303 14.3711L16.4463 14.3438L16.2783 14.293L16.1104 14.2461L16.0273 14.2246L15.9453 14.2031L15.8623 14.1836L15.8506 14.1807V25.5596C15.8505 25.6026 15.8412 25.6433 15.8281 25.6826L15.8428 25.708L15.8594 25.7383L15.875 25.7686L15.9043 25.8311L15.917 25.8633L15.9404 25.9297L15.9502 25.9629L15.96 25.9971L15.9756 26.0674L15.9873 26.1396L15.9922 26.1768L15.998 26.251L16 26.3281L15.999 26.3926L15.9941 26.457L15.9873 26.5215L15.9785 26.5859L15.9658 26.6504L15.9512 26.7139L15.9346 26.7773L15.915 26.8408L15.8936 26.9043L15.8691 26.9668L15.8428 27.0293L15.8145 27.0908L15.7832 27.1523L15.75 27.2139L15.7148 27.2744L15.6787 27.334L15.6396 27.3936L15.5986 27.4521L15.5557 27.5107L15.5117 27.5684L15.4648 27.625L15.417 27.6816L15.3682 27.7373L15.3164 27.792L15.2637 27.8457L15.21 27.8984L15.1543 27.9502L15.0967 28.002L15.0391 28.0527L14.9795 28.1016L14.9189 28.1504L14.7939 28.2441L14.7295 28.2891L14.5986 28.377L14.5312 28.4189L14.4639 28.459L14.3945 28.499L14.3252 28.5371L14.2549 28.5742L14.1846 28.6094L14.1133 28.6436L14.041 28.6768L13.9688 28.708L13.8965 28.7383L13.8232 28.7666L13.75 28.7939L13.6758 28.8193L13.6016 28.8438L13.5283 28.8662L13.4531 28.8867L13.3789 28.9062L13.3047 28.9238L13.2305 28.9395L13.1562 28.9531L13.082 28.9658L13.0088 28.9756L12.9346 28.9844L12.8613 28.9912L12.7891 28.9961L12.7158 28.999L12.6445 29H12.6006L12.5576 28.998L12.5146 28.9971L12.4717 28.9941L12.3877 28.9863L12.3057 28.9766L12.2646 28.9697L12.2246 28.9629L12.1846 28.9551L12.1455 28.9473L12.1064 28.9385L12.0674 28.9287L12.0293 28.918L11.9912 28.9062L11.9541 28.8945L11.8818 28.8691L11.8457 28.8555L11.8115 28.8408L11.7764 28.8252L11.7422 28.8096L11.709 28.793L11.6445 28.7578L11.6123 28.7393L11.5518 28.7002L11.5215 28.6797L11.4932 28.6592L11.4648 28.6367L11.4102 28.5918L11.3838 28.5684L11.3594 28.5439L11.334 28.5195L11.3105 28.4941L11.2871 28.4678L11.2646 28.4414L11.2432 28.4141L11.2227 28.3857L11.1836 28.3291L11.1484 28.2686L11.1318 28.2383L11.1162 28.207L11.1016 28.1748L11.0879 28.1426L11.0752 28.1094L11.0635 28.0762L11.0527 28.042L11.043 28.0078L11.0342 27.9727L11.0264 27.9365L11.0195 27.9004L11.0137 27.8633L11.0088 27.8262L11.0049 27.7881L11.002 27.75L11 27.6719L11.001 27.6064L11.0049 27.541L11.0098 27.4766L11.0176 27.4111L11.0273 27.3467L11.04 27.2822L11.0537 27.2178L11.0703 27.1543L11.0879 27.0908L11.1084 27.0273L11.1309 26.9648L11.1543 26.9023L11.1807 26.8408L11.209 26.7803L11.2383 26.7188L11.2705 26.6592L11.3037 26.5996L11.3389 26.54L11.376 26.4824L11.415 26.4248L11.4561 26.3682L11.498 26.3115L11.542 26.2559L11.5879 26.2012L11.6348 26.1475L11.6836 26.0947L11.7334 26.043L11.7861 25.9912L11.8389 25.9414L11.8936 25.8916L11.9502 25.8438L12.0078 25.7969L12.0674 25.75L12.127 25.7051L12.1895 25.6611L12.252 25.6182L12.3164 25.5771L12.3828 25.5361L12.4492 25.4971L12.5176 25.459L12.5869 25.4219L12.6572 25.3867L12.7285 25.3525L12.8018 25.3203L12.875 25.2891L12.9502 25.2588L13.0264 25.2305L13.1025 25.2041L13.1807 25.1787L13.2588 25.1553L13.3389 25.1328L13.4189 25.1123L13.501 25.0928L13.583 25.0762L13.666 25.0605L13.75 25.0459L13.834 25.0342L13.9199 25.0234L14.0059 25.0156L14.0918 25.0088L14.1797 25.0039L14.2676 25.001L14.3555 25H14.4014L14.5361 25.0059L14.624 25.0137L14.667 25.0186L14.751 25.0303L14.793 25.0381L14.834 25.0459L14.8506 25.0488V12.4414C14.8506 12.3182 14.9076 12.206 15 12.126V12.1123L15.002 12.0967L15.0059 12.083L15.0088 12.0762L15.0146 12.0645L15.0186 12.0586L15.0234 12.0527L15.0283 12.0479L15.0332 12.0439L15.0381 12.0391L15.0449 12.0352L15.0508 12.0312L15.0576 12.0273L15.0645 12.0244L15.0879 12.0156L15.0967 12.0137L15.1055 12.0107L15.1143 12.0088L15.124 12.0078L15.1338 12.0059L15.1436 12.0049L15.1758 12.002L15.1875 12.001H15.1982L15.21 12H15.2969Z" fill="black"/>
</svg>
