<svg width="32" height="40" viewBox="0 0 32 40" fill="none" xmlns="http://www.w3.org/2000/svg">
<path fill-rule="evenodd" clip-rule="evenodd" d="M17.8477 12C18.0889 12 18.285 12.1902 18.2852 12.4248V25.0615C18.285 25.2439 18.166 25.3979 18 25.458V25.5039L17.998 25.5332L17.9961 25.5635L17.9932 25.5967L17.9883 25.6318L17.9834 25.6699L17.9775 25.709L17.9697 25.75L17.9609 25.792L17.9512 25.8369L17.9404 25.8818L17.9277 25.9297L17.9141 25.9785L17.8984 26.0283L17.8828 26.0791L17.8643 26.1309L17.8447 26.1846L17.8242 26.2383L17.8018 26.2939L17.7773 26.3486L17.752 26.4053L17.7236 26.4619L17.6943 26.5195L17.6641 26.5771L17.6309 26.6348L17.5967 26.6934L17.5596 26.751L17.5215 26.8096L17.4805 26.8672L17.4385 26.9258L17.3936 26.9834L17.3477 27.041L17.2988 27.0977L17.248 27.1533L17.1943 27.21L17.1387 27.2646L17.0811 27.3184L17.0215 27.3721L16.959 27.4248L16.8945 27.4756L16.8271 27.5254L16.7568 27.5742L16.6846 27.6221L16.6104 27.668L16.5322 27.7129L16.4521 27.7559L16.3691 27.7969L16.2842 27.8359L16.1953 27.874L16.1045 27.9092L16.0107 27.9424L15.9131 27.9736L15.8135 28.0029L15.7109 28.0293L15.6045 28.0537L15.4961 28.0762L15.3838 28.0947L15.2686 28.1113L15.1504 28.125L15.0283 28.1357L14.9033 28.1436L14.7754 28.1484L14.6445 28.1504L14.5557 28.1484L14.4697 28.1445L14.3838 28.1367L14.3418 28.1318L14.3008 28.127L14.2598 28.1211L14.2188 28.1143L14.1387 28.0986L14.0996 28.0898L14.0605 28.0801L13.9844 28.0586L13.9102 28.0352L13.874 28.0225L13.8389 28.0088L13.8037 27.9941L13.7695 27.9795L13.7354 27.9639L13.6689 27.9307L13.6367 27.9121L13.6055 27.8945L13.5449 27.8555L13.5156 27.8359L13.4863 27.8145L13.459 27.793L13.4043 27.748L13.3789 27.7246L13.3535 27.7002L13.3291 27.6758L13.3057 27.6504L13.2832 27.625L13.2607 27.5977L13.2393 27.5713L13.2188 27.543L13.1992 27.5146L13.1807 27.4854L13.1631 27.4561L13.1455 27.4258L13.1143 27.3633L13.0869 27.2988L13.0742 27.2656L13.0625 27.2314L13.0518 27.1973L13.042 27.1621L13.0332 27.127L13.0254 27.0908L13.0137 27.0166L13.0088 26.9785L13.0049 26.9404L13.002 26.9014L13 26.8223L13.001 26.7812L13.0029 26.7402L13.0059 26.6963L13.0098 26.6523L13.0156 26.6064L13.0225 26.5596L13.0312 26.5107L13.041 26.4619L13.0518 26.4121L13.0645 26.3613L13.0781 26.3096L13.0928 26.2568L13.1279 26.1494L13.1484 26.0947L13.1699 26.04L13.1924 25.9844L13.2168 25.9287L13.2432 25.8721L13.2705 25.8164L13.2998 25.7598L13.3311 25.7031L13.3643 25.6465L13.3984 25.5898L13.4346 25.5332L13.4727 25.4766L13.5127 25.4209L13.5537 25.3652L13.5977 25.3096L13.6426 25.2549L13.6895 25.2012L13.7393 25.1475L13.79 25.0938L13.8428 25.042L13.8975 24.9902L13.9541 24.9395L14.0137 24.8896L14.0742 24.8408L14.1367 24.7939L14.2021 24.7471L14.2695 24.7021L14.3389 24.6582L14.4102 24.6152L14.4834 24.5742L14.5596 24.5342L14.6367 24.4961L14.7168 24.459L14.7998 24.4248L14.8848 24.3916L14.9717 24.3604L15.0605 24.3301L15.1523 24.3027L15.2461 24.2773L15.3428 24.2539L15.4414 24.2334L15.543 24.2139L15.6465 24.1973L15.7529 24.1836L15.8613 24.1719L15.9727 24.1621L16.0869 24.1553L16.2031 24.1514L16.3223 24.1504H16.3691L16.415 24.1514L16.4609 24.1533L16.5508 24.1592L16.6387 24.1689L16.6816 24.1738L16.7246 24.1807L16.7666 24.1875L16.8086 24.1953L16.8496 24.2041L16.8906 24.2139L16.9307 24.2236L17.0088 24.2451L17.085 24.2705L17.1221 24.2842L17.1582 24.2979L17.1943 24.3125L17.2295 24.3281L17.2979 24.3613L17.3311 24.3789L17.3633 24.3965L17.3955 24.416L17.4111 24.4258V12.4248C17.4113 12.1904 17.6066 12.0002 17.8477 12ZM16.7129 24.8066H16.6963L16.6611 24.8086L16.626 24.8125L16.5889 24.8164L16.5693 24.8184L16.5508 24.8213L16.5312 24.8242L16.5107 24.8281L16.4912 24.8311L16.4697 24.835L16.4492 24.8389L16.3848 24.8535L16.3623 24.8594L16.3398 24.8643L16.3164 24.8711L16.293 24.877L16.2461 24.8906L16.2217 24.8975L16.1963 24.9053L16.1719 24.9131L16.1465 24.9219L16.0674 24.9482L16.04 24.958L16.0127 24.9688L15.9854 24.9785L15.957 24.9893L15.9277 25.001L15.8994 25.0117L15.8701 25.0244L15.8398 25.0361L15.7793 25.0615L15.7168 25.0889L15.6523 25.1182L15.6191 25.1328L15.5527 25.1641L15.4844 25.1973L15.4492 25.2139L15.4141 25.2314L15.3779 25.249L15.3418 25.2676L15.3047 25.2861L15.2676 25.3057L15.1914 25.3447L15.1533 25.3652L15.1133 25.3867L15.0742 25.4082L15.0342 25.4297L14.9785 25.46L14.9248 25.4902L14.8721 25.5195L14.8203 25.5498L14.7705 25.5781L14.7207 25.6074L14.6729 25.6357L14.626 25.6641L14.5801 25.6914L14.5352 25.7197L14.4922 25.7471L14.4492 25.7734L14.4082 25.8008L14.3281 25.8535L14.29 25.8799L14.2529 25.9053L14.2168 25.9307L14.1816 25.9561L14.1475 25.9805L14.1143 26.0049L14.082 26.0293L14.0508 26.0537L14.0205 26.0781L13.9912 26.1016L13.9629 26.125L13.9355 26.1484L13.9092 26.1709L13.8838 26.1943L13.8594 26.2168L13.8359 26.2393L13.8125 26.2607L13.791 26.2832L13.7695 26.3047L13.7305 26.3477L13.7119 26.3682L13.6943 26.3887L13.6777 26.4102L13.6611 26.4307L13.6465 26.4502L13.6318 26.4707L13.6182 26.4902L13.5928 26.5293L13.5811 26.5488L13.5703 26.5684L13.5605 26.5869L13.5518 26.6064L13.543 26.625L13.5352 26.6436L13.5283 26.6611L13.5215 26.6797L13.5156 26.6982L13.5059 26.7334L13.502 26.751L13.4961 26.7861L13.4941 26.8027L13.4932 26.8203L13.4912 26.8535V26.8613L13.4922 26.8682V26.876L13.4932 26.8828V26.8906L13.4941 26.8975L13.4951 26.9053L13.4961 26.9121L13.4971 26.9199L13.498 26.9268L13.5 26.9336L13.501 26.9414L13.5029 26.9482L13.5039 26.9561L13.5078 26.9697L13.5098 26.9775L13.5137 26.9912L13.5166 26.999L13.5205 27.0127L13.5234 27.0195L13.5264 27.0273L13.5283 27.0342L13.5371 27.0547L13.5391 27.0615L13.5479 27.082L13.5518 27.0889L13.5635 27.1162L13.5674 27.1221L13.5732 27.1357L13.5771 27.1426L13.5801 27.1484L13.583 27.1553L13.5869 27.1611L13.5898 27.168L13.5938 27.1738L13.5986 27.1826L13.6045 27.1924L13.6113 27.2012L13.6172 27.21L13.623 27.2197L13.6299 27.2285L13.6357 27.2373L13.6562 27.2637L13.6641 27.2725L13.6709 27.2812L13.6777 27.2891L13.6934 27.3066L13.7256 27.3389L13.7695 27.3779L13.7793 27.3848L13.7881 27.3926L13.8174 27.4131L13.8281 27.4199L13.8379 27.4268L13.8486 27.4336L13.8701 27.4453L13.8809 27.4521L13.8926 27.458L13.9033 27.4629L13.9268 27.4746L13.9395 27.4795L13.9512 27.4844L13.9766 27.4941L13.9893 27.498L14.002 27.5029L14.0156 27.5068L14.0283 27.5107L14.042 27.5146L14.0557 27.5176L14.0703 27.5205L14.084 27.5234L14.1133 27.5293L14.1279 27.5312L14.1426 27.5342L14.1582 27.5361L14.1738 27.5371L14.1895 27.5391L14.2051 27.54L14.2217 27.541H14.2383L14.2549 27.542H14.2891L14.3076 27.541H14.3252L14.3438 27.54L14.3633 27.5381L14.3818 27.5371L14.4404 27.5312L14.4814 27.5254L14.502 27.5215L14.5225 27.5186L14.543 27.5146L14.5645 27.5107L14.5859 27.5059L14.6084 27.501L14.6299 27.4961L14.6748 27.4844L14.6982 27.4785L14.7217 27.4717L14.7451 27.4658L14.7686 27.458L14.793 27.4512L14.8164 27.4434L14.8418 27.4346L14.8662 27.4268L14.8916 27.418L14.9424 27.3984L14.9951 27.3789L15.0215 27.3682L15.0488 27.3574L15.1035 27.334L15.1309 27.3213L15.1592 27.3096L15.1875 27.2959L15.2168 27.2832L15.2754 27.2549L15.3047 27.2412L15.335 27.2256L15.3652 27.2109L15.3955 27.1953L15.4893 27.1455L15.5537 27.1104L15.6533 27.0547L15.6865 27.0352L15.7549 26.9941L15.79 26.9736L15.8604 26.9307L15.9326 26.8857L15.9883 26.8516L16.043 26.8174L16.0967 26.7832L16.1484 26.75L16.1992 26.7168L16.249 26.6846L16.2979 26.6533L16.3916 26.5908L16.4365 26.5605L16.4805 26.5312L16.5234 26.502L16.5645 26.4727L16.6055 26.4443L16.6445 26.416L16.6836 26.3887L16.7207 26.3613L16.7568 26.335L16.792 26.3086L16.8262 26.2822L16.8594 26.2568L16.8916 26.2314L16.9229 26.207L16.9531 26.1826L16.9824 26.1582L17.0371 26.1113L17.0635 26.0879L17.0889 26.0654L17.1133 26.043L17.1816 25.9775L17.2021 25.957L17.2217 25.9355L17.2412 25.915L17.2598 25.8955L17.2773 25.875L17.2939 25.8555L17.3096 25.8359L17.3242 25.8164L17.3389 25.7979L17.3643 25.7607L17.376 25.7422L17.3877 25.7246L17.3984 25.707L17.4082 25.6895L17.417 25.6719L17.4248 25.6543L17.4326 25.6377L17.4463 25.6045L17.4561 25.5713L17.4609 25.5557L17.4648 25.5391L17.4707 25.5078L17.4727 25.4922L17.4746 25.4609V25.4307L17.4736 25.4229V25.416L17.4727 25.4082L17.4717 25.4014L17.4707 25.3936L17.4697 25.3867L17.4688 25.3789L17.4678 25.3721L17.4658 25.3643L17.4648 25.3574L17.4609 25.3438L17.459 25.3359L17.4551 25.3223L17.4521 25.3154L17.4482 25.3018L17.4453 25.2949L17.4434 25.2881L17.4258 25.2471L17.4229 25.2412L17.417 25.2275L17.4131 25.2207L17.4102 25.2139L17.4072 25.208L17.4033 25.2012L17.3975 25.1875L17.3936 25.1816L17.3906 25.1748L17.3867 25.168L17.3838 25.1611L17.3799 25.1553L17.376 25.1484L17.373 25.1416L17.3438 25.0977L17.3369 25.0889L17.3311 25.0801L17.3174 25.0625L17.3115 25.0547L17.3047 25.0459L17.2969 25.0381L17.2832 25.0225L17.2754 25.0146L17.2686 25.0068L17.2529 24.9912L17.2451 24.9844L17.2373 24.9766L17.2295 24.9697L17.2207 24.9629L17.2129 24.9551L17.2041 24.9482L17.1953 24.9424L17.1777 24.9287L17.1689 24.9229L17.1592 24.917L17.1504 24.9111L17.1113 24.8877L17.1006 24.8828L17.0908 24.8779L17.0479 24.8584L17.0361 24.8545L17.0254 24.8506L16.9902 24.8389L16.9785 24.8359L16.9658 24.832L16.9541 24.8291L16.9287 24.8232L16.916 24.8213L16.9023 24.8184L16.8896 24.8164L16.8623 24.8125L16.8486 24.8115L16.834 24.8096L16.8203 24.8086L16.791 24.8066H16.7764L16.7607 24.8057H16.7295L16.7129 24.8066Z" fill="black"/>
</svg>
