<svg width="32" height="40" viewBox="0 0 32 40" fill="none" xmlns="http://www.w3.org/2000/svg">
<path d="M16.2551 16.5765L16.2545 16.5351L16.2529 16.4941L16.2502 16.4533L16.2464 16.4128L16.2416 16.3726L16.2357 16.3327L16.2288 16.2931L16.221 16.2539L16.2121 16.215L16.2022 16.1765L16.1914 16.1384L16.1796 16.1007L16.1669 16.0633L16.1532 16.0264L16.1387 15.9899L16.1232 15.9539L16.1068 15.9183L16.0896 15.8832L16.0715 15.8486L16.0526 15.8144L16.0328 15.7808L16.0123 15.7477L15.9909 15.7152L15.9687 15.6831L15.9457 15.6517L15.922 15.6208L15.8975 15.5905L15.8723 15.5608L15.8463 15.5317L15.8196 15.5033L15.7923 15.4754L15.7642 15.4483L15.7355 15.4218L15.7061 15.3959L15.6761 15.3708L15.6454 15.3464L15.6142 15.3226L15.5823 15.2996L15.5498 15.2774L15.5167 15.2559L15.4831 15.2352L15.4489 15.2153L15.4142 15.1961L15.379 15.1778L15.3432 15.1602L15.307 15.1436L15.2703 15.1277L15.2331 15.1127L15.1954 15.0986L15.1573 15.0854L15.1187 15.0731L15.0798 15.0617L15.0404 15.0512L15.0007 15.0416L14.9605 15.033L14.9201 15.0254L14.8792 15.0187L14.838 15.0131L14.7965 15.0084L14.7547 15.0047L14.7126 15.0021L14.6702 15.0005L14.6275 15L14.5849 15.0005L14.5425 15.0021L14.5004 15.0047L14.4585 15.0084L14.417 15.0131L14.3758 15.0187L14.335 15.0254L14.2945 15.033L14.2544 15.0416L14.2146 15.0512L14.1753 15.0617L14.1363 15.0731L14.0978 15.0854L14.0597 15.0986L14.022 15.1127L13.9848 15.1277L13.9481 15.1436L13.9118 15.1602L13.8761 15.1778L13.8408 15.1961L13.8061 15.2153L13.7719 15.2352L13.7383 15.2559L13.7053 15.2774L13.6728 15.2996L13.6409 15.3226L13.6096 15.3464L13.579 15.3708L13.5489 15.3959L13.5196 15.4218L13.4908 15.4483L13.4628 15.4754L13.4354 15.5033L13.4088 15.5317L13.3828 15.5608L13.3576 15.5905L13.3331 15.6208L13.3094 15.6517L13.2864 15.6831L13.2642 15.7152L13.2428 15.7477L13.2222 15.7808L13.2025 15.8144L13.1835 15.8486L13.1654 15.8832L13.1482 15.9183L13.1319 15.9539L13.1164 15.9899L13.1018 16.0264L13.0882 16.0633L13.0755 16.1007L13.0637 16.1384L13.0528 16.1765L13.043 16.215L13.0341 16.2539L13.0262 16.2931L13.0193 16.3327L13.0135 16.3726L13.0087 16.4128L13.0049 16.4533L13.0022 16.4941L13.0005 16.5351L13 16.5765L13.0002 16.5999L13.0009 16.6233L13.002 16.6466L13.0035 16.6697L13.0054 16.6927L13.0077 16.7157L13.0105 16.7385L13.0137 16.7611L13.0172 16.7837L13.0212 16.8061L13.0255 16.8285L13.0302 16.8507L13.0353 16.8727L13.0408 16.8947L13.0466 16.9165L13.0528 16.9381L13.0594 16.9597L13.0663 16.9811L13.0735 17.0023L13.0811 17.0235L13.0891 17.0444L13.0973 17.0653L13.1059 17.086L13.1148 17.1065L13.124 17.1269L13.1336 17.1472L13.1434 17.1673L13.1535 17.1873L13.164 17.2071L13.1747 17.2267L13.1857 17.2462L13.197 17.2655L13.2085 17.2847L13.2203 17.3037L13.2324 17.3225L13.2448 17.3412L13.2573 17.3597L13.2702 17.3781L13.2833 17.3962L13.2966 17.4142L13.3101 17.432L13.3239 17.4497L13.3379 17.4671L13.3521 17.4844L13.3665 17.5015L13.3811 17.5184L13.3959 17.5352L13.4109 17.5517L13.4262 17.5681L13.4415 17.5843L13.4571 17.6002L13.4728 17.616L13.4887 17.6316L13.5048 17.647L13.521 17.6622L13.5374 17.6772L13.5539 17.692L13.5706 17.7066L13.5874 17.721L13.6043 17.7352L13.6214 17.7492L13.6386 17.7629L13.6559 17.7765L13.6663 17.7832L13.6767 17.7898L13.6871 17.7965L13.6975 17.8031L13.7079 17.8096L13.7184 17.8161L13.7288 17.8226L13.7392 17.829L13.7496 17.8354L13.7601 17.8417L13.7705 17.848L13.781 17.8543L13.7914 17.8604L13.8019 17.8666L13.8124 17.8727L13.8228 17.8787L13.8333 17.8847L13.8438 17.8906L13.8543 17.8965L13.8649 17.9023L13.8754 17.9081L13.8859 17.9138L13.8965 17.9194L13.9071 17.925L13.9177 17.9305L13.9283 17.9359L13.9389 17.9413L13.9495 17.9466L13.9601 17.9519L13.9708 17.9571L13.9815 17.9622L13.9922 17.9672L14.0029 17.9722L14.0137 17.9771L14.0244 17.9819L14.0352 17.9867L14.046 17.9913L14.0568 17.9959L14.0676 18.0004L14.0785 18.0049L14.0894 18.0092L14.1003 18.0135L14.1112 18.0177L14.1222 18.0218L14.1332 18.0258L14.1442 18.0298L14.1553 18.0336L14.1663 18.0374L14.1774 18.041L14.1885 18.0446L14.1997 18.0481L14.2109 18.0515L14.2221 18.0548L14.2333 18.058L14.2446 18.0611L14.2559 18.0641L14.2673 18.067L14.2786 18.0698L14.2901 18.0725L14.3015 18.0752L14.313 18.0777L14.3245 18.0801L14.336 18.0824L14.3555 18.0871L14.3654 18.0894L14.3752 18.0918L14.3851 18.0941L14.395 18.0964L14.405 18.0987L14.415 18.1011L14.425 18.1034L14.4351 18.1057L14.4452 18.1079L14.4554 18.1102L14.4655 18.1125L14.4757 18.1147L14.486 18.1169L14.4962 18.1191L14.5065 18.1213L14.5168 18.1234L14.5272 18.1256L14.5376 18.1277L14.548 18.1297L14.5584 18.1318L14.5689 18.1338L14.5793 18.1358L14.5898 18.1378L14.6004 18.1397L14.6109 18.1416L14.6215 18.1435L14.6321 18.1453L14.6427 18.1471L14.6534 18.1488L14.664 18.1505L14.6747 18.1522L14.6854 18.1538L14.6961 18.1554L14.7068 18.1569L14.7176 18.1584L14.7283 18.1598L14.7391 18.1612L14.7499 18.1625L14.7607 18.1638L14.7715 18.165L14.7823 18.1662L14.7932 18.1673L14.804 18.1684L14.8149 18.1694L14.8258 18.1703L14.8366 18.1712L14.8475 18.172L14.8584 18.1728L14.8693 18.1735L14.8802 18.1741L14.8911 18.1746L14.902 18.1751L14.913 18.1755L14.9239 18.1759L14.9348 18.1761L14.9458 18.1763L14.9567 18.1764L14.9676 18.1765L14.9838 18.1764L15 18.1763L15.0162 18.176L15.0324 18.1756L15.0485 18.1752L15.0647 18.1746L15.0809 18.1739L15.097 18.1732L15.1131 18.1723L15.1293 18.1713L15.1454 18.1703L15.1614 18.1691L15.1775 18.1679L15.1935 18.1665L15.2095 18.1651L15.2255 18.1636L15.2415 18.162L15.2574 18.1603L15.2733 18.1585L15.2892 18.1566L15.305 18.1547L15.3208 18.1527L15.3365 18.1505L15.3522 18.1483L15.3679 18.1461L15.3835 18.1437L15.3991 18.1413L15.4147 18.1388L15.4301 18.1362L15.4456 18.1335L15.461 18.1308L15.4763 18.128L15.4916 18.1251L15.5068 18.1222L15.5219 18.1192L15.537 18.1161L15.552 18.113L15.567 18.1098L15.5819 18.1065L15.5967 18.1031L15.6115 18.0998L15.6262 18.0963L15.6408 18.0928L15.6553 18.0892L15.6698 18.0856L15.6842 18.0819L15.6985 18.0781L15.7127 18.0744L15.7268 18.0705L15.7409 18.0666L15.7549 18.0627L15.7687 18.0587L15.7825 18.0546L15.7962 18.0505L15.8098 18.0464L15.8233 18.0422L15.8367 18.038L15.85 18.0337L15.8632 18.0294L15.8763 18.025L15.8893 18.0207L15.9022 18.0162L15.915 18.0118L15.9311 18.0073L15.947 18.0028L15.9628 17.9983L15.9783 17.9938L15.9938 17.9893L16.009 17.9848L16.0241 17.9803L16.0391 17.9758L16.0539 17.9712L16.0686 17.9667L16.0832 17.9621L16.0976 17.9575L16.1119 17.9529L16.1261 17.9482L16.1402 17.9436L16.1542 17.9389L16.1681 17.9342L16.1818 17.9294L16.1955 17.9247L16.2091 17.9199L16.2227 17.915L16.2361 17.9102L16.2495 17.9052L16.2629 17.9003L16.2761 17.8953L16.2893 17.8903L16.3025 17.8852L16.3156 17.8801L16.3287 17.8749L16.3418 17.8697L16.3548 17.8644L16.3678 17.8591L16.3808 17.8537L16.3938 17.8483L16.4068 17.8428L16.4198 17.8373L16.4328 17.8316L16.4458 17.826L16.4588 17.8202L16.4718 17.8144L16.4849 17.8086L16.498 17.8026L16.5111 17.7966L16.5243 17.7905L16.5375 17.7844L16.5508 17.7781L16.5641 17.7718L16.5775 17.7654L16.5909 17.7589L16.6045 17.7524L16.6181 17.7457L16.6318 17.739L16.6456 17.7322L16.6594 17.7253L16.6734 17.7183L16.6875 17.7112L16.7017 17.704L16.716 17.6967L16.7304 17.6894L16.745 17.6819L16.7597 17.6743L16.7745 17.6666L16.7895 17.6588L16.804 17.6525L16.8184 17.6473L16.8325 17.6434L16.8462 17.6404L16.8593 17.6382L16.8717 17.6368L16.8832 17.6359L16.8936 17.6355L16.9029 17.6353L16.9109 17.6353L16.925 17.636L16.9379 17.638L16.9499 17.6414L16.9609 17.646L16.9709 17.6518L16.98 17.6588L16.9883 17.6669L16.9957 17.6759L17.0023 17.686L17.0081 17.6971L17.0132 17.709L17.0176 17.7217L17.0214 17.7352L17.0245 17.7494L17.0271 17.7643L17.0291 17.7799L17.0306 17.7959L17.0316 17.8125L17.0322 17.8296L17.0324 17.8471V17.8556L17.0324 17.8644L17.0323 17.8734L17.0323 17.8826L17.0322 17.8921L17.0321 17.9016L17.0319 17.9114L17.0316 17.9213L17.0313 17.9313L17.0308 17.9415L17.0303 17.9519L17.0297 17.9624L17.029 17.973L17.0281 17.9836L17.0271 17.9944L17.026 18.0053L17.0247 18.0163L17.0233 18.0273L17.0217 18.0384L17.0199 18.0496L17.018 18.0608L17.0158 18.072L17.0135 18.0833L17.0109 18.0946L17.0081 18.1059L17.0034 18.1259L16.9962 18.1523L16.9866 18.1849L16.9747 18.2236L16.9606 18.268L16.9442 18.3181L16.9258 18.3736L16.9054 18.4345L16.883 18.5005L16.8587 18.5714L16.8325 18.647L16.8047 18.7272L16.7751 18.8119L16.744 18.9007L15.4206 22.6398L15.3753 22.7706L15.3308 22.8999L15.287 23.0276L15.2441 23.1533L15.202 23.2771L15.161 23.3986L15.121 23.5176L15.0821 23.6342L15.0444 23.7479L15.008 23.8587L14.9729 23.9664L14.9392 24.0708L14.907 24.1717L14.8764 24.269L14.8474 24.3624L14.8201 24.4518L14.7945 24.537L14.7708 24.6178L14.749 24.6941L14.7494 24.7074L14.7506 24.7202L14.7527 24.7327L14.7555 24.7448L14.7591 24.7566L14.7633 24.768L14.7684 24.779L14.774 24.7896L14.7804 24.8L14.7873 24.8099L14.7949 24.8196L14.8031 24.8289L14.8118 24.8379L14.8211 24.8466L14.8309 24.855L14.8412 24.863L14.8519 24.8708L14.8631 24.8782L14.8748 24.8854L14.8868 24.8923L14.8992 24.8989L14.912 24.9052L14.9251 24.9113L14.9385 24.9171L14.9522 24.9227L14.9662 24.928L14.9804 24.933L14.9948 24.9379L15.0094 24.9425L15.0241 24.9468L15.0391 24.951L15.0541 24.9549L15.0692 24.9586L15.0844 24.9621L15.0997 24.9654L15.115 24.9685L15.1303 24.9714L15.1456 24.9742L15.1608 24.9768L15.176 24.9791L15.1911 24.9814L15.206 24.9834L15.2209 24.9854L15.2355 24.9871L15.25 24.9887L15.2643 24.9902L15.2784 24.9916L15.2922 24.9928L15.3058 24.9939L15.319 24.9949L15.3319 24.9958L15.3445 24.9966L15.3567 24.9973L15.3685 24.9979L15.3799 24.9984L15.3909 24.9988L15.4014 24.9992L15.4114 24.9994L15.4209 24.9997L15.4299 24.9998L15.4383 24.9999L15.4462 25L15.4534 25L15.4662 25L15.4791 24.9999L15.4921 24.9997L15.5052 24.9994L15.5184 24.9991L15.5316 24.9986L15.545 24.9981L15.5584 24.9975L15.5719 24.9968L15.5855 24.9961L15.5992 24.9952L15.6129 24.9942L15.6267 24.9932L15.6405 24.992L15.6544 24.9907L15.6683 24.9894L15.6823 24.9879L15.6964 24.9863L15.7104 24.9846L15.7245 24.9828L15.7386 24.9808L15.7528 24.9788L15.767 24.9766L15.7811 24.9743L15.7953 24.9719L15.8096 24.9693L15.8238 24.9667L15.838 24.9638L15.8522 24.9609L15.8664 24.9578L15.8806 24.9546L15.8947 24.9512L15.9089 24.9477L15.923 24.9441L15.9371 24.9403L15.9512 24.9363L15.9652 24.9322L15.9792 24.928L15.9931 24.9236L16.007 24.919L16.0209 24.9143L16.0346 24.9094L16.0484 24.9043L16.062 24.8991L16.0756 24.8937L16.0891 24.8881L16.1026 24.8823L16.1159 24.8764L16.1292 24.8703L16.1423 24.864L16.1554 24.8576L16.1684 24.8509L16.1813 24.844L16.1941 24.837L16.2068 24.8298L16.2193 24.8224L16.2317 24.8147L16.2441 24.8069L16.2562 24.7989L16.2683 24.7906L16.2802 24.7822L16.292 24.7736L16.3036 24.7647L16.3088 24.7563L16.3174 24.7359L16.3292 24.7039L16.3442 24.6606L16.3623 24.6066L16.3832 24.542L16.407 24.4675L16.4334 24.3833L16.4625 24.2898L16.494 24.1875L16.5279 24.0767L16.5641 23.9578L16.6024 23.8313L18.7571 16.4588L18.7617 16.4387L18.7664 16.4186L18.7711 16.3987L18.7759 16.3788L18.7806 16.359L18.7854 16.3393L18.7902 16.3197L18.795 16.3002L18.7999 16.2808L18.8047 16.2615L18.8096 16.2424L18.8144 16.2234L18.8193 16.2045L18.8241 16.1858L18.829 16.1672L18.8338 16.1487L18.8387 16.1304L18.8435 16.1123L18.8483 16.0943L18.8531 16.0765L18.8626 16.0414L18.8766 15.9901L18.8949 15.9245L18.9037 15.893L18.908 15.8776L18.9514 15.7247L18.9615 15.6888L18.9678 15.6664L18.9707 15.6556L18.9736 15.6452L18.9764 15.6351L18.979 15.6253L18.9816 15.6159L18.984 15.6068L18.9863 15.5981L18.9885 15.5897L18.9905 15.5817L18.9924 15.574L18.9942 15.5667L18.9959 15.5597L18.9974 15.5532L18.9988 15.547L19 15.5412L18.9994 15.5218L18.9978 15.503L18.9952 15.4848L18.9916 15.4671L18.9871 15.4499L18.9818 15.4332L18.9757 15.4171L18.9688 15.4015L18.9613 15.3864L18.9531 15.3718L18.9444 15.3578L18.9352 15.3442L18.9256 15.3312L18.9155 15.3187L18.9051 15.3066L18.8944 15.2951L18.8835 15.2841L18.8725 15.2735L18.8613 15.2635L18.8501 15.2539L18.8388 15.2448L18.8276 15.2362L18.8166 15.2281L18.8057 15.2205L18.795 15.2133L18.7846 15.2066L18.7745 15.2004L18.7649 15.1946L18.7557 15.1893L18.747 15.1844L18.7388 15.18L18.7313 15.1761L18.7244 15.1726L18.7183 15.1695L18.713 15.1669L18.7085 15.1647L18.7026 15.1647L18.6964 15.1648L18.6899 15.1649L18.6831 15.1651L18.676 15.1655L18.6687 15.166L18.6609 15.1668L18.6528 15.1678L18.6443 15.1691L18.6354 15.1707L18.6261 15.1727L18.6164 15.1751L18.6062 15.1779L18.5955 15.1812L18.5843 15.185L18.5726 15.1894L18.5604 15.1943L18.5477 15.1998L18.5343 15.206L18.5204 15.2129L18.5059 15.2205L18.4907 15.2288L18.4749 15.238L18.4584 15.248L18.4413 15.2588L18.4324 15.2665L18.422 15.276L18.4101 15.2873L18.3966 15.3004L18.3818 15.3151L18.3655 15.3314L18.3479 15.3493L18.329 15.3686L18.3087 15.3893L18.2405 15.4593L18.1892 15.5117L18.1619 15.5395L18.1335 15.5683L18.1041 15.598L18.0737 15.6284L18.0424 15.6597L18.0102 15.6916L17.9771 15.7242L17.9431 15.7573L17.9083 15.791L17.8728 15.8251L17.8365 15.8595L17.7995 15.8943L17.7618 15.9293L17.7235 15.9645L17.6846 15.9998L17.6452 16.0352L17.6052 16.0706L17.5647 16.1059L17.5238 16.141L17.4824 16.176L17.4407 16.2106L17.3985 16.245L17.3561 16.279L17.3134 16.3124L17.2704 16.3454L17.2272 16.3778L17.1839 16.4095L17.1404 16.4405L17.0967 16.4707L17.053 16.5001L17.0093 16.5286L16.9656 16.5561L16.9218 16.5825L16.8782 16.6079L16.8347 16.6321L16.7912 16.655L16.748 16.6766L16.705 16.6969L16.6622 16.7158L16.6196 16.7332L16.5774 16.749L16.5356 16.7632L16.4941 16.7757L16.453 16.7864L16.4124 16.7954L16.3722 16.8025L16.3326 16.8076L16.2935 16.8107L16.2551 16.8118V16.5765Z" fill="black"/>
</svg>
