<svg width="32" height="40" viewBox="0 0 32 40" fill="none" xmlns="http://www.w3.org/2000/svg">
<path d="M21.5206 17.6105C21.8133 17.6105 22.0504 17.8476 22.0504 18.1402C22.0504 18.4329 21.8133 18.67 21.5206 18.67H10.5298C10.2371 18.67 10 18.4329 10 18.1402C10 17.8476 10.2371 17.6105 10.5298 17.6105H21.5206Z" fill="black"/>
<path d="M18.7729 15H13.2775C13.0607 15 12.8849 15.1757 12.8849 15.3925V17.7477C12.8849 17.9645 13.0607 18.1402 13.2775 18.1402H18.7729C18.9897 18.1402 19.1654 17.9645 19.1654 17.7477V15.3925C19.1654 15.1757 18.9897 15 18.7729 15Z" fill="black"/>
</svg>
