<svg width="32" height="40" viewBox="0 0 32 40" fill="none" xmlns="http://www.w3.org/2000/svg">
<path d="M15.145 20.5936L15.1563 20.6088L15.1676 20.6241L15.1788 20.6393L15.1899 20.6545L15.2011 20.6697L15.2122 20.6849L15.2232 20.7L15.2342 20.7151L15.2452 20.7302L15.2561 20.7453L15.267 20.7604L15.2778 20.7755L15.2886 20.7906L15.2994 20.8056L15.3101 20.8207L15.3207 20.8357L15.3314 20.8508L15.342 20.8658L15.3525 20.8808L15.3631 20.8958L15.3735 20.9109L15.384 20.9259L15.3944 20.9409L15.4048 20.9559L15.4151 20.971L15.4254 20.986L15.4357 21.0011L15.4459 21.0161L15.4561 21.0312L15.4662 21.0462L15.4764 21.0613L15.4865 21.0764L15.4965 21.0915L15.5065 21.1066L15.5165 21.1217L15.5265 21.1369L15.5364 21.1521L15.5463 21.1672L15.5562 21.1824L15.566 21.1977L15.5758 21.2129L15.5856 21.2282L15.5953 21.2435L15.605 21.2588L15.6147 21.2741L15.6244 21.2895L15.634 21.3049L15.6436 21.3203L15.6531 21.3358L15.6627 21.3513L15.6722 21.3668L15.6817 21.3824L15.6912 21.398L15.7006 21.4136L15.71 21.4293L15.7194 21.445L15.7287 21.4607L15.7381 21.4765L15.7474 21.4924L15.7567 21.5082L15.7659 21.5242L15.7752 21.5401L15.7844 21.5561L15.7935 21.5758L15.8002 21.5903L15.8072 21.6058L15.8109 21.6138L15.8146 21.622L15.8183 21.6302L15.822 21.6386L15.8257 21.647L15.8294 21.6554L15.833 21.6638L15.8366 21.6722L15.8401 21.6805L15.8436 21.6887L15.8469 21.6968L15.8501 21.7047L15.8532 21.7125L15.8561 21.7201L15.8589 21.7274L15.8615 21.7344L15.8638 21.7411L15.866 21.7476L15.8679 21.7536L15.8696 21.7593L15.871 21.7645L15.8721 21.7693L15.8729 21.7736L15.8734 21.7775L15.8736 21.7807L15.8736 21.7875L15.8734 21.7953L15.8728 21.8039L15.8717 21.8128L15.87 21.8218L15.8673 21.8304L15.8636 21.8382L15.8587 21.8449L15.855 21.8524L15.851 21.8594L15.8468 21.866L15.8422 21.8722L15.8374 21.8779L15.8324 21.8832L15.8271 21.8882L15.8215 21.8928L15.8157 21.897L15.8097 21.9009L15.8035 21.9044L15.797 21.9076L15.7903 21.9105L15.7834 21.9131L15.7763 21.9154L15.769 21.9174L15.7615 21.9192L15.7538 21.9207L15.7459 21.9219L15.7379 21.923L15.7296 21.9238L15.7213 21.9244L15.7127 21.9248L15.704 21.9251L15.6952 21.9251L15.6901 21.9251L15.6847 21.9248L15.6791 21.9245L15.6733 21.924L15.6673 21.9234L15.661 21.9227L15.6546 21.9218L15.648 21.9209L15.6413 21.9199L15.6344 21.9187L15.6274 21.9175L15.6203 21.9162L15.6131 21.9149L15.6058 21.9134L15.5984 21.9119L15.5911 21.9103L15.5836 21.9087L15.5762 21.9071L15.5688 21.9054L15.5614 21.9037L15.554 21.9019L15.5466 21.9002L15.5394 21.8984L15.5321 21.8966L15.525 21.8948L15.518 21.8931L15.5112 21.8913L15.5044 21.8896L15.4978 21.8878L15.4852 21.8845L15.4677 21.8798L15.4572 21.877L15.451 21.8769L15.4447 21.8766L15.4384 21.8761L15.432 21.8754L15.4255 21.8745L15.419 21.8734L15.4124 21.8723L15.4058 21.8709L15.3992 21.8695L15.3925 21.8679L15.3858 21.8663L15.379 21.8645L15.3723 21.8627L15.3655 21.8608L15.3587 21.8589L15.3519 21.8569L15.3451 21.8549L15.3315 21.8509L15.3247 21.8489L15.3179 21.847L15.3111 21.8451L15.3043 21.8432L15.2975 21.8414L15.2908 21.8396L15.2841 21.838L15.2774 21.8364L15.2708 21.8349L15.2642 21.8336L15.2576 21.8324L15.2511 21.8314L15.2446 21.8305L15.2382 21.8298L15.2319 21.8293L15.2256 21.829L15.2193 21.8289L15.1889 21.8294L15.1586 21.8309L15.1284 21.8335L15.0984 21.8371L15.0685 21.8417L15.0387 21.8472L15.0091 21.8537L14.9797 21.8612L14.9505 21.8696L14.9214 21.8789L14.8926 21.8891L14.864 21.9003L14.8357 21.9123L14.8076 21.9253L14.7798 21.9391L14.7522 21.9537L14.7249 21.9692L14.698 21.9855L14.6713 22.0026L14.645 22.0205L14.619 22.0392L14.5934 22.0587L14.5681 22.0789L14.5433 22.0999L14.5188 22.1217L14.4947 22.1441L14.471 22.1673L14.4477 22.1912L14.4249 22.2157L14.4026 22.241L14.3807 22.2669L14.3592 22.2934L14.3383 22.3206L14.3179 22.3484L14.298 22.3768L14.2786 22.4059L14.2597 22.4355L14.2414 22.4656L14.2237 22.4964L14.2066 22.5276L14.19 22.5595L14.174 22.5918L14.1587 22.6246L14.144 22.658L14.1299 22.6918L14.1165 22.7261L14.1037 22.7609L14.0916 22.7961L14.0802 22.8317L14.0695 22.8678L14.0595 22.9042L14.0503 22.9411L14.0418 22.9783L14.034 23.016L14.027 23.0539L14.0208 23.0922L14.0153 23.1309L14.0107 23.1698L14.0069 23.2091L14.0039 23.2487L14.0017 23.2885L14.0004 23.3286L14 23.369L14.0005 23.4072L14.0019 23.4453L14.0043 23.4835L14.0077 23.5216L14.012 23.5597L14.0172 23.5978L14.0234 23.6359L14.0305 23.674L14.0386 23.7122L14.0476 23.7503L14.0575 23.7884L14.0683 23.8265L14.08 23.8646L14.0926 23.9028L14.1061 23.9409L14.1206 23.9791L14.1359 24.0174L14.1521 24.0556L14.1692 24.0939L14.1871 24.1322L14.206 24.1705L14.2257 24.2089L14.2463 24.2473L14.2677 24.2858L14.29 24.3244L14.3131 24.3629L14.3371 24.4016L14.3619 24.4403L14.3876 24.479L14.4141 24.5178L14.4414 24.5567L14.4696 24.5957L14.4985 24.6347L14.5283 24.6738L14.5589 24.713L14.5903 24.7523L14.6225 24.7917L14.6555 24.8311L14.6892 24.8707L14.7238 24.9103L14.7591 24.9501L14.7953 24.9899L14.8322 25.0298L14.8698 25.0699L14.9082 25.1101L14.9474 25.1503L14.9873 25.1907L15.028 25.2313L15.0695 25.2719L15.1116 25.3127L15.1545 25.3536L15.1981 25.3946L15.2425 25.4358L15.2876 25.4771L15.3334 25.5185L15.3799 25.5601L15.4271 25.6019L15.475 25.6438L15.5236 25.6858L15.5729 25.728L15.6229 25.7704L15.6736 25.8129L15.7249 25.8556L15.7309 25.8604L15.7369 25.8651L15.743 25.8697L15.7491 25.8742L15.7552 25.8787L15.7614 25.8831L15.7677 25.8873L15.7739 25.8915L15.7802 25.8957L15.7866 25.8997L15.793 25.9037L15.7994 25.9076L15.8058 25.9114L15.8123 25.9151L15.8188 25.9188L15.8253 25.9224L15.8318 25.9258L15.8384 25.9293L15.845 25.9326L15.8516 25.9358L15.8582 25.939L15.8648 25.9421L15.8715 25.9451L15.8781 25.948L15.8848 25.9509L15.8915 25.9536L15.8982 25.9563L15.9048 25.9589L15.9115 25.9615L15.9182 25.9639L15.9249 25.9663L15.9316 25.9686L15.9383 25.9708L15.945 25.9729L15.9516 25.9749L15.9583 25.9769L15.965 25.9788L15.9716 25.9806L15.9782 25.9823L15.9849 25.984L15.9915 25.9855L15.998 25.987L16.0046 25.9884L16.0111 25.9897L16.0177 25.991L16.0241 25.9921L16.0306 25.9932L16.0371 25.9942L16.0435 25.9951L16.0498 25.996L16.0562 25.9968L16.0625 25.9974L16.0688 25.998L16.075 25.9986L16.0812 25.999L16.0874 25.9994L16.0935 25.9996L16.0995 25.9998L16.1055 26L16.1115 26L16.1207 25.9999L16.1299 25.9997L16.139 25.9992L16.1481 25.9987L16.1572 25.9979L16.1661 25.997L16.175 25.9959L16.1838 25.9947L16.1925 25.9933L16.2011 25.9917L16.2095 25.9899L16.2178 25.988L16.2259 25.9859L16.2339 25.9837L16.2416 25.9813L16.2492 25.9787L16.2565 25.9759L16.2636 25.973L16.2705 25.9699L16.2771 25.9667L16.2834 25.9633L16.2894 25.9597L16.2951 25.956L16.3006 25.952L16.3057 25.948L16.3104 25.9437L16.3148 25.9393L16.3189 25.9347L16.3225 25.93L16.3258 25.9251L16.3286 25.92L16.331 25.9147L16.333 25.9093L16.3346 25.9037L16.3375 25.8943L16.3405 25.8853L16.3434 25.8767L16.3489 25.8604L16.3515 25.8527L16.3539 25.8452L16.3561 25.838L16.3581 25.831L16.3599 25.8241L16.3614 25.8174L16.3626 25.8108L16.3636 25.8043L16.3641 25.7979L16.3643 25.7914L16.3642 25.7836L16.3638 25.7758L16.3633 25.768L16.3625 25.7602L16.3615 25.7525L16.3602 25.7448L16.3588 25.7371L16.3571 25.7295L16.3553 25.7219L16.3532 25.7143L16.351 25.7067L16.3486 25.6992L16.3459 25.6917L16.3432 25.6843L16.3402 25.6769L16.337 25.6695L16.3337 25.6622L16.3303 25.6548L16.3266 25.6476L16.3228 25.6403L16.3189 25.6331L16.3148 25.6259L16.3106 25.6187L16.3062 25.6116L16.3017 25.6045L16.2971 25.5974L16.2924 25.5904L16.2875 25.5834L16.2825 25.5764L16.2774 25.5695L16.2722 25.5626L16.2669 25.5557L16.2615 25.5489L16.256 25.5421L16.2504 25.5353L16.2448 25.5285L16.239 25.5218L16.2332 25.5151L16.2273 25.5085L16.2213 25.5019L16.2153 25.4953L16.2092 25.4887L16.203 25.4822L16.1968 25.4757L16.1906 25.4693L16.1843 25.4628L16.1779 25.4564L16.1716 25.4501L16.1652 25.4437L16.1588 25.4374L16.1523 25.4312L16.1458 25.4249L16.1394 25.4187L16.1329 25.4126L16.1264 25.4064L16.1172 25.4061L16.1081 25.4051L16.099 25.4035L16.09 25.4014L16.081 25.3986L16.0721 25.3953L16.0632 25.3914L16.0544 25.3869L16.0457 25.382L16.037 25.3766L16.0284 25.3706L16.0199 25.3643L16.0114 25.3574L16.0031 25.3502L15.9948 25.3425L15.9866 25.3344L15.9784 25.326L15.9704 25.3172L15.9625 25.308L15.9546 25.2986L15.9469 25.2888L15.9392 25.2787L15.9316 25.2684L15.9242 25.2577L15.9168 25.2469L15.9096 25.2358L15.9024 25.2246L15.8954 25.2131L15.8885 25.2015L15.8817 25.1897L15.875 25.1778L15.8685 25.1658L15.8621 25.1536L15.8558 25.1414L15.8496 25.1291L15.8436 25.1168L15.8377 25.1044L15.8319 25.0921L15.8263 25.0797L15.8208 25.0673L15.8155 25.055L15.8103 25.0428L15.8052 25.0306L15.8003 25.0185L15.7956 25.0065L15.791 24.9947L15.7866 24.9829L15.7824 24.9714L15.7783 24.96L15.7744 24.9488L15.7706 24.9378L15.767 24.9271L15.7636 24.9166L15.7604 24.9063L15.7574 24.8964L15.7545 24.8867L15.7518 24.8774L15.7493 24.8684L15.747 24.8597L15.7449 24.8514L15.743 24.8435L15.7413 24.836L15.7398 24.8289L15.7376 24.8224L15.7354 24.816L15.7333 24.8095L15.7312 24.803L15.7292 24.7965L15.7273 24.7899L15.7254 24.7833L15.7235 24.7767L15.7217 24.7701L15.7199 24.7634L15.7182 24.7568L15.7165 24.7501L15.7148 24.7434L15.7132 24.7366L15.7117 24.7299L15.7101 24.7231L15.7087 24.7163L15.7073 24.7095L15.7059 24.7026L15.7045 24.6958L15.7032 24.6889L15.702 24.682L15.7007 24.6751L15.6996 24.6682L15.6984 24.6613L15.6973 24.6543L15.6963 24.6473L15.6952 24.6403L15.6943 24.6333L15.6933 24.6263L15.6924 24.6193L15.6915 24.6123L15.6907 24.6052L15.6899 24.5982L15.6891 24.5911L15.6884 24.584L15.6877 24.5769L15.687 24.5698L15.6864 24.5627L15.6858 24.5556L15.6852 24.5484L15.6847 24.5413L15.6842 24.5341L15.6838 24.527L15.6833 24.5198L15.6829 24.5126L15.6825 24.5055L15.6822 24.4983L15.6819 24.4911L15.6816 24.4839L15.6814 24.4767L15.6811 24.4695L15.6809 24.4623L15.6808 24.4551L15.6806 24.4478L15.6805 24.4406L15.6804 24.4334L15.6803 24.4262L15.6803 24.419L15.6803 24.4118L15.6805 24.388L15.681 24.3642L15.6818 24.3403L15.683 24.3164L15.6845 24.2924L15.6864 24.2684L15.6886 24.2443L15.6911 24.2203L15.694 24.1962L15.6973 24.1722L15.7009 24.1482L15.7048 24.1243L15.7091 24.1003L15.7137 24.0765L15.7186 24.0528L15.7239 24.0291L15.7296 24.0055L15.7356 23.9821L15.742 23.9588L15.7487 23.9357L15.7557 23.9127L15.7632 23.8898L15.7709 23.8672L15.7791 23.8447L15.7875 23.8225L15.7964 23.8005L15.8055 23.7787L15.8151 23.7571L15.825 23.7358L15.8352 23.7148L15.8459 23.6941L15.8568 23.6736L15.8682 23.6535L15.8799 23.6337L15.8919 23.6142L15.9043 23.5951L15.9171 23.5764L15.9303 23.558L15.9438 23.54L15.9577 23.5224L15.9719 23.5052L15.9865 23.4884L16.0015 23.4721L16.0168 23.4562L16.0325 23.4408L16.0486 23.4258L16.0651 23.4114L16.0819 23.3974L16.0991 23.384L16.1166 23.371L16.1346 23.3587L16.1529 23.3468L16.1716 23.3356L16.1906 23.3249L16.2101 23.3148L16.2299 23.3053L16.2501 23.2964L16.2707 23.2881L16.2916 23.2805L16.3129 23.2735L16.3346 23.2672L16.3567 23.2616L16.3792 23.2567L16.3854 23.2554L16.3916 23.2542L16.3978 23.253L16.404 23.2519L16.4102 23.2509L16.4164 23.2499L16.4227 23.249L16.4289 23.2482L16.4352 23.2474L16.4415 23.2467L16.4478 23.246L16.4541 23.2454L16.4604 23.2448L16.4668 23.2443L16.4732 23.2438L16.4796 23.2434L16.4861 23.243L16.4926 23.2426L16.4991 23.2423L16.5056 23.242L16.5122 23.2418L16.5189 23.2416L16.5256 23.2414L16.5323 23.2412L16.5391 23.2411L16.5459 23.241L16.5527 23.2409L16.5597 23.2408L16.5737 23.2407L16.5879 23.2407L16.6171 23.2406L16.6377 23.2408L16.6583 23.2412L16.6791 23.2418L16.6999 23.2427L16.7207 23.2438L16.7417 23.2452L16.7626 23.2468L16.7836 23.2487L16.8046 23.2507L16.8257 23.253L16.8468 23.2554L16.8678 23.2581L16.8889 23.2609L16.91 23.264L16.931 23.2672L16.952 23.2706L16.973 23.2741L16.994 23.2779L17.0149 23.2817L17.0358 23.2858L17.0566 23.29L17.0773 23.2943L17.098 23.2987L17.1186 23.3033L17.139 23.308L17.1594 23.3128L17.1797 23.3177L17.1999 23.3227L17.22 23.3278L17.2399 23.333L17.2597 23.3382L17.2793 23.3436L17.2988 23.349L17.3182 23.3545L17.3373 23.36L17.3563 23.3656L17.3752 23.3712L17.3938 23.3769L17.4122 23.3826L17.4305 23.3884L17.4485 23.3941L17.4663 23.3999L17.4839 23.4057L17.5013 23.4114L17.5184 23.4172L17.5353 23.423L17.5519 23.4287L17.5682 23.4344L17.5843 23.4401L17.6001 23.4458L17.6156 23.4514L17.6309 23.457L17.6458 23.4625L17.6604 23.4679L17.6747 23.4733L17.6887 23.4787L17.7024 23.4839L17.7157 23.4891L17.7287 23.4941L17.7413 23.4991L17.7535 23.504L17.7654 23.5087L17.777 23.5134L17.7844 23.5146L17.7918 23.5175L17.8067 23.5253L17.8141 23.5282L17.8216 23.5294L17.8303 23.5324L17.8386 23.535L17.8467 23.5372L17.8544 23.5391L17.8618 23.5407L17.8689 23.542L17.8758 23.543L17.8825 23.5438L17.889 23.5444L17.8954 23.5449L17.9016 23.5451L17.9077 23.5453L17.9137 23.5454L17.9197 23.5454L17.9257 23.5455L17.9386 23.545L17.9505 23.5434L17.9614 23.5407L17.9711 23.5367L17.9796 23.5314L17.9867 23.5247L17.9924 23.5164L17.9965 23.5064L17.9991 23.4948L18 23.4813L17.9997 23.4719L17.9989 23.4619L17.9974 23.4516L17.9955 23.4407L17.993 23.4294L17.99 23.4177L17.9865 23.4056L17.9825 23.393L17.9781 23.3801L17.9732 23.3668L17.9679 23.3532L17.9621 23.3393L17.956 23.325L17.9494 23.3104L17.9425 23.2956L17.9352 23.2805L17.9275 23.2651L17.9195 23.2495L17.9112 23.2337L17.9026 23.2176L17.8937 23.2014L17.8845 23.185L17.8751 23.1685L17.8654 23.1518L17.8555 23.1351L17.8453 23.1182L17.835 23.1012L17.8244 23.0841L17.8137 23.067L17.8028 23.0498L17.7918 23.0327L17.7807 23.0155L17.7694 22.9983L17.758 22.9811L17.7466 22.964L17.735 22.947L17.7234 22.93L17.7118 22.9131L17.7002 22.8963L17.6885 22.8796L17.6768 22.8631L17.6652 22.8467L17.6535 22.8305L17.6419 22.8145L17.6304 22.7986L17.619 22.783L17.6076 22.7677L17.5964 22.7526L17.5852 22.7377L17.5742 22.7231L17.5633 22.7089L17.5527 22.6949L17.5421 22.6813L17.5318 22.668L17.5217 22.6551L17.5118 22.6426L17.5021 22.6304L17.4927 22.6187L17.4835 22.6074L17.4746 22.5966L17.466 22.5862L17.4578 22.5763L17.4498 22.5668L17.3174 22.3936L17.2915 22.3595L17.2658 22.3256L17.2403 22.2918L17.2151 22.2581L17.19 22.2245L17.1653 22.1911L17.1407 22.1578L17.1165 22.1245L17.0924 22.0913L17.0687 22.0582L17.0453 22.0252L17.0221 21.9922L16.9993 21.9592L16.9768 21.9262L16.9546 21.8933L16.9327 21.8604L16.9111 21.8274L16.8899 21.7945L16.8691 21.7615L16.8486 21.7285L16.8285 21.6954L16.8088 21.6622L16.7894 21.629L16.7705 21.5957L16.7519 21.5623L16.7338 21.5288L16.7161 21.4952L16.6988 21.4615L16.682 21.4276L16.6656 21.3936L16.6497 21.3594L16.6342 21.325L16.6193 21.2905L16.6048 21.2558L16.5907 21.2208L16.5772 21.1857L16.5642 21.1503L16.5517 21.1147L16.5398 21.0789L16.5284 21.0428L16.5175 21.0064L16.5071 20.9698L16.4974 20.9328L16.4882 20.8956L16.4795 20.8581L16.4715 20.8202L16.4641 20.782L16.4572 20.7435L16.451 20.7046L16.4454 20.6653L16.4404 20.6257L16.436 20.5857L16.4323 20.5453L16.4293 20.5044L16.4269 20.4632L16.4252 20.4216L16.4241 20.3795L16.4238 20.3369L16.4238 20.3302L16.424 20.3234L16.4242 20.3165L16.4246 20.3095L16.425 20.3024L16.4254 20.2953L16.426 20.2881L16.4266 20.2808L16.4272 20.2735L16.4279 20.2661L16.4286 20.2587L16.4293 20.2513L16.4301 20.2438L16.4324 20.2214L16.4331 20.214L16.4339 20.2065L16.4346 20.1991L16.4353 20.1918L16.4359 20.1844L16.4365 20.1772L16.437 20.1699L16.4375 20.1628L16.4379 20.1557L16.4382 20.1487L16.4385 20.1418L16.4386 20.135L16.4387 20.1283L16.4418 20.0842L16.4457 20.0402L16.4503 19.9965L16.4556 19.953L16.4615 19.9098L16.4681 19.8668L16.4753 19.8241L16.4831 19.7815L16.4915 19.7392L16.5005 19.6972L16.51 19.6554L16.5201 19.6138L16.5308 19.5724L16.542 19.5313L16.5536 19.4903L16.5658 19.4497L16.5785 19.4092L16.5916 19.369L16.6052 19.3289L16.6192 19.2891L16.6336 19.2496L16.6485 19.2102L16.6637 19.171L16.6793 19.1321L16.6952 19.0934L16.7115 19.0549L16.7282 19.0166L16.7451 18.9785L16.7624 18.9407L16.7799 18.903L16.7977 18.8656L16.8157 18.8283L16.834 18.7913L16.8526 18.7545L16.8713 18.7178L16.8902 18.6814L16.9093 18.6452L16.9286 18.6092L16.948 18.5733L16.9676 18.5377L16.9872 18.5023L17.007 18.467L17.0269 18.432L17.0468 18.3971L17.0668 18.3625L17.0869 18.328L17.107 18.2937L17.1271 18.2596L17.1472 18.2257L17.1672 18.192L17.1873 18.1585L17.2073 18.1251L17.3448 17.8967L17.3639 17.8648L17.3828 17.833L17.4016 17.8015L17.4201 17.7701L17.4239 17.763L17.4276 17.7559L17.4312 17.7488L17.4346 17.7417L17.4379 17.7347L17.441 17.7276L17.444 17.7205L17.4468 17.7134L17.4495 17.7064L17.4521 17.6993L17.4545 17.6922L17.4568 17.6851L17.459 17.678L17.4611 17.671L17.463 17.6639L17.4648 17.6568L17.4665 17.6497L17.4681 17.6427L17.4696 17.6356L17.471 17.6285L17.4722 17.6214L17.4733 17.6143L17.4744 17.6073L17.4753 17.6002L17.4761 17.5931L17.4769 17.586L17.4775 17.579L17.4781 17.5719L17.4785 17.5648L17.4789 17.5577L17.4792 17.5506L17.4794 17.5436L17.4795 17.5365L17.4796 17.5294L17.4795 17.5185L17.4792 17.5076L17.4788 17.4969L17.4782 17.4862L17.4774 17.4755L17.4765 17.465L17.4755 17.4546L17.4744 17.4443L17.4731 17.4341L17.4717 17.424L17.4703 17.4141L17.4687 17.4043L17.467 17.3947L17.4653 17.3853L17.4635 17.376L17.4617 17.3669L17.4598 17.3581L17.4578 17.3494L17.4559 17.3409L17.4539 17.3326L17.4518 17.3246L17.4498 17.3168L17.4478 17.3093L17.4458 17.302L17.4438 17.295L17.4418 17.2883L17.4399 17.2819L17.4379 17.2757L17.4361 17.2699L17.4343 17.2643L17.4326 17.2591L17.4309 17.2542L17.4294 17.2497L17.4279 17.2455L17.4265 17.2416L17.4253 17.2381L17.4241 17.235L17.4231 17.2323L17.4222 17.23L17.4215 17.2281L17.4209 17.2266L17.4204 17.2255L17.4202 17.2248L17.4184 17.2225L15.3781 14.6291L15.3354 14.5758L15.2943 14.5247L15.255 14.4759L15.2176 14.4295L15.182 14.3857L15.1486 14.3446L15.1173 14.3064L15.0882 14.271L15.0615 14.2388L15.0372 14.2098L15.0155 14.1841L14.9964 14.1619L14.98 14.1432L14.9665 14.1283L14.9611 14.1225L14.9555 14.1168L14.9498 14.1113L14.944 14.1058L14.9381 14.1005L14.9321 14.0952L14.9261 14.0901L14.92 14.0852L14.9138 14.0803L14.9075 14.0756L14.9011 14.071L14.8947 14.0666L14.8883 14.0622L14.8818 14.058L14.8752 14.054L14.8686 14.05L14.8619 14.0463L14.8552 14.0426L14.8485 14.0391L14.8417 14.0357L14.8349 14.0325L14.8281 14.0294L14.8212 14.0265L14.8144 14.0237L14.8075 14.021L14.8006 14.0185L14.7937 14.0162L14.7868 14.014L14.7799 14.012L14.773 14.0101L14.7662 14.0084L14.7593 14.0068L14.7525 14.0054L14.7457 14.0041L14.7389 14.003L14.7321 14.0021L14.7254 14.0014L14.7187 14.0008L14.712 14.0003L14.7054 14.0001L14.6989 14L14.6896 14.0001L14.6803 14.0006L14.671 14.0013L14.6618 14.0023L14.6526 14.0037L14.6434 14.0053L14.6343 14.0072L14.6252 14.0094L14.6162 14.0118L14.6073 14.0146L14.5984 14.0177L14.5897 14.0211L14.581 14.0247L14.5725 14.0287L14.564 14.0329L14.5557 14.0374L14.5475 14.0423L14.5394 14.0474L14.5315 14.0528L14.5238 14.0585L14.5162 14.0645L14.5087 14.0708L14.5015 14.0774L14.4944 14.0842L14.4876 14.0914L14.4809 14.0988L14.4744 14.1066L14.4682 14.1146L14.4622 14.123L14.4564 14.1316L14.4508 14.1405L14.4455 14.1497L14.4405 14.1592L14.4357 14.169L14.4313 14.1791L14.427 14.1895L14.4231 14.2002L14.4195 14.2111L14.4162 14.2224L14.4132 14.234L14.4105 14.2458L14.4082 14.2579L14.4062 14.2704L14.4045 14.2831L14.4032 14.2961L14.4023 14.3094L14.4017 14.323L14.4015 14.3369L14.4015 14.3436L14.4016 14.3503L14.4018 14.357L14.4021 14.3637L14.4024 14.3704L14.4028 14.3771L14.4033 14.3838L14.4039 14.3906L14.4045 14.3973L14.4052 14.4041L14.4061 14.4109L14.407 14.4177L14.408 14.4245L14.4091 14.4314L14.4103 14.4383L14.4116 14.4453L14.413 14.4522L14.4145 14.4592L14.4161 14.4663L14.4178 14.4733L14.4196 14.4805L14.4215 14.4876L14.4236 14.4948L14.4257 14.5021L14.428 14.5094L14.4304 14.5167L14.4329 14.5241L14.4355 14.5316L14.4382 14.5391L14.4411 14.5467L14.4441 14.5544L14.4472 14.5621L14.4504 14.5698L14.4538 14.5777L14.4573 14.5856L14.461 14.5936L14.4644 14.6025L14.469 14.6123L14.4746 14.6231L14.4814 14.6349L14.4892 14.6476L14.498 14.6612L14.5077 14.6758L14.5184 14.6912L14.5299 14.7076L14.5423 14.7249L14.5555 14.7431L14.5694 14.7622L14.5841 14.7821L14.632 14.8472L14.6491 14.8706L14.6668 14.8949L14.685 14.92L14.7036 14.9459L14.7226 14.9727L14.7419 15.0002L14.7616 15.0286L14.7816 15.0578L14.8019 15.0878L14.8223 15.1185L14.8429 15.1501L14.8637 15.1824L14.8845 15.2155L14.9054 15.2493L14.9264 15.2839L14.9472 15.3192L14.9681 15.3553L14.9888 15.3921L15.0094 15.4296L15.0297 15.4678L15.0499 15.5068L15.0698 15.5464L15.0894 15.5867L15.1087 15.6278L15.1276 15.6695L15.1461 15.7118L15.1641 15.7548L15.1816 15.7985L15.1986 15.8429L15.215 15.8878L15.2308 15.9334L15.246 15.9797L15.2604 16.0265L15.2741 16.074L15.2871 16.122L15.2992 16.1707L15.3105 16.22L15.3209 16.2698L15.3304 16.3202L15.3389 16.3712L15.3464 16.4227L15.3528 16.4748L15.3582 16.5274L15.3624 16.5806L15.3655 16.6343L15.3674 16.6886L15.368 16.7433L15.3679 16.7717L15.3673 16.8001L15.3665 16.8288L15.3653 16.8575L15.3637 16.8864L15.3618 16.9155L15.3595 16.9447L15.3568 16.974L15.3537 17.0035L15.3503 17.0331L15.3464 17.0629L15.3422 17.0928L15.3376 17.1228L15.3325 17.1529L15.3271 17.1832L15.3212 17.2137L15.3149 17.2442L15.3082 17.2749L15.301 17.3058L15.2935 17.3367L15.2854 17.3678L15.2769 17.399L15.268 17.4304L15.2586 17.4618L15.2487 17.4934L15.2384 17.5252L15.2276 17.557L15.2163 17.589L15.2045 17.6211L15.1922 17.6533L15.1794 17.6856L15.1662 17.7181L15.1524 17.7507L15.1381 17.7834L15.1233 17.8162L15.1079 17.8492L15.092 17.8823L15.0756 17.9154L15.0587 17.9487L15.0412 17.9821L15.0231 18.0157L15.0045 18.0493L14.9854 18.0831L14.9657 18.1169L14.9453 18.1509L14.9245 18.185L14.903 18.2192L14.8809 18.2535L14.8583 18.2879L14.835 18.3225L14.8112 18.3571L14.7867 18.3918L14.7617 18.4267L14.736 18.4616L14.7096 18.4967L14.6827 18.5318L14.6551 18.5671L14.6268 18.6025L14.598 18.6379L14.5684 18.6735L14.5382 18.7091L14.5074 18.7449L14.4758 18.7807L14.4688 18.7884L14.4619 18.7961L14.4552 18.8038L14.4486 18.8115L14.4421 18.8192L14.4358 18.827L14.4295 18.8347L14.4234 18.8425L14.4175 18.8503L14.4117 18.8581L14.4059 18.8659L14.4004 18.8737L14.3949 18.8815L14.3896 18.8894L14.3844 18.8972L14.3793 18.905L14.3744 18.9129L14.3695 18.9207L14.3648 18.9285L14.3602 18.9363L14.3558 18.9441L14.3514 18.952L14.3472 18.9597L14.3431 18.9675L14.3391 18.9753L14.3352 18.9831L14.3315 18.9908L14.3278 18.9985L14.3243 19.0062L14.3209 19.0139L14.3176 19.0216L14.3144 19.0292L14.3113 19.0368L14.3084 19.0444L14.3055 19.052L14.3028 19.0595L14.3001 19.067L14.2976 19.0745L14.2952 19.0819L14.2929 19.0893L14.2907 19.0967L14.2886 19.104L14.2866 19.1113L14.2847 19.1185L14.2829 19.1257L14.2812 19.1328L14.2797 19.1399L14.2782 19.147L14.2768 19.154L14.2755 19.161L14.2743 19.1679L14.2733 19.1747L14.2723 19.1815L14.2714 19.1882L14.2706 19.1949L14.2699 19.2015L14.2693 19.2081L14.2688 19.2146L14.2684 19.221L14.2681 19.2273L14.2678 19.2336L14.2677 19.2398L14.2677 19.246L14.2678 19.2582L14.2682 19.2702L14.2689 19.2822L14.2699 19.2939L14.2711 19.3056L14.2726 19.3171L14.2743 19.3284L14.2762 19.3396L14.2783 19.3507L14.2806 19.3616L14.2831 19.3723L14.2858 19.3828L14.2887 19.3932L14.2917 19.4034L14.2948 19.4135L14.2981 19.4233L14.3015 19.433L14.305 19.4425L14.3086 19.4518L14.3123 19.4609L14.3161 19.4698L14.32 19.4785L14.3239 19.4871L14.3279 19.4954L14.3319 19.5034L14.3359 19.5113L14.34 19.519L14.344 19.5264L14.3481 19.5336L14.3521 19.5406L14.3561 19.5474L14.3601 19.5539L14.364 19.5602L14.3679 19.5662L14.3717 19.572L14.3754 19.5775L14.379 19.5828L14.3825 19.5879L14.3859 19.5927L14.3892 19.5972L14.3924 19.6014L14.3954 19.6054L14.3982 19.6091L14.4009 19.6125L14.4034 19.6157L14.4057 19.6186L14.4078 19.6211L14.4097 19.6234L14.4114 19.6254L14.4129 19.6271L14.4141 19.6285L14.4151 19.6296L14.4158 19.6304L14.4162 19.6309L15.145 20.5936Z" fill="black"/>
</svg>
