<svg width="32" height="40" viewBox="0 0 32 40" fill="none" xmlns="http://www.w3.org/2000/svg">
<path d="M16.9 15.2018L16.8996 15.1699L16.8983 15.1382L16.8962 15.1068L16.8933 15.0757L16.8896 15.0447L16.885 15.0141L16.8797 14.9837L16.8736 14.9536L16.8668 14.9237L16.8591 14.8942L16.8507 14.865L16.8416 14.8361L16.8318 14.8075L16.8212 14.7793L16.8099 14.7514L16.7979 14.7238L16.7852 14.6966L16.7719 14.6698L16.7578 14.6434L16.7431 14.6174L16.7278 14.5917L16.7118 14.5665L16.6952 14.5417L16.6779 14.5173L16.66 14.4934L16.6416 14.4699L16.6225 14.4468L16.6029 14.4242L16.5827 14.4022L16.5619 14.3805L16.5406 14.3594L16.5187 14.3388L16.4963 14.3187L16.4733 14.2991L16.4499 14.2801L16.4259 14.2615L16.4015 14.2436L16.3766 14.2262L16.3512 14.2093L16.3253 14.1931L16.299 14.1774L16.2722 14.1623L16.245 14.1479L16.2174 14.134L16.1894 14.1208L16.1609 14.1082L16.1321 14.0962L16.1028 14.0849L16.0733 14.0743L16.0433 14.0643L16.013 14.055L15.9823 14.0464L15.9513 14.0385L15.92 14.0313L15.8883 14.0249L15.8564 14.0191L15.8241 14.0141L15.7916 14.0098L15.7588 14.0063L15.7257 14.0036L15.6924 14.0016L15.6588 14.0004L15.625 14L15.592 14.0004L15.5593 14.0016L15.5267 14.0036L15.4943 14.0063L15.4622 14.0098L15.4303 14.0141L15.3986 14.0191L15.3671 14.0249L15.3359 14.0313L15.305 14.0385L15.2744 14.0464L15.2441 14.055L15.214 14.0643L15.1843 14.0743L15.1549 14.0849L15.1259 14.0962L15.0972 14.1082L15.0688 14.1208L15.0409 14.134L15.0133 14.1479L14.9861 14.1623L14.9593 14.1774L14.933 14.1931L14.907 14.2093L14.8815 14.2262L14.8565 14.2436L14.8319 14.2615L14.8078 14.2801L14.7842 14.2991L14.7611 14.3187L14.7385 14.3388L14.7164 14.3594L14.6948 14.3805L14.6738 14.4022L14.6533 14.4242L14.6334 14.4468L14.614 14.4699L14.5953 14.4934L14.5771 14.5173L14.5596 14.5417L14.5427 14.5665L14.5264 14.5917L14.5107 14.6174L14.4957 14.6434L14.4814 14.6698L14.4678 14.6966L14.4548 14.7238L14.4425 14.7514L14.431 14.7793L14.4201 14.8075L14.41 14.8361L14.4007 14.865L14.3921 14.8942L14.3842 14.9237L14.3772 14.9536L14.3709 14.9837L14.3654 15.0141L14.3608 15.0447L14.3569 15.0757L14.3539 15.1068L14.3517 15.1382L14.3504 15.1699L14.35 15.2018L14.3502 15.2186L14.3507 15.2354L14.3515 15.2521L14.3527 15.2689L14.3542 15.2855L14.356 15.3022L14.3581 15.3188L14.3606 15.3353L14.3633 15.3519L14.3664 15.3683L14.3698 15.3847L14.3735 15.4011L14.3774 15.4174L14.3817 15.4336L14.3862 15.4498L14.3911 15.4659L14.3962 15.482L14.4016 15.4979L14.4073 15.5138L14.4132 15.5297L14.4194 15.5454L14.4259 15.5611L14.4327 15.5767L14.4397 15.5922L14.4469 15.6076L14.4544 15.6229L14.4622 15.6381L14.4702 15.6533L14.4784 15.6683L14.4869 15.6832L14.4956 15.6981L14.5045 15.7128L14.5136 15.7274L14.523 15.7419L14.5326 15.7563L14.5424 15.7706L14.5524 15.7848L14.5627 15.7988L14.5731 15.8127L14.5837 15.8265L14.5945 15.8402L14.6056 15.8537L14.6168 15.8671L14.6281 15.8804L14.6397 15.8935L14.6515 15.9065L14.6634 15.9193L14.6755 15.932L14.6878 15.9445L14.7002 15.9569L14.7128 15.9692L14.7255 15.9813L14.7384 15.9932L14.7515 16.0049L14.7647 16.0165L14.778 16.028L14.7915 16.0392L14.8051 16.0503L14.8188 16.0612L14.8327 16.072L14.8467 16.0825L14.8608 16.0929L14.875 16.1031L14.8822 16.1081L14.8894 16.1131L14.8967 16.1181L14.904 16.1231L14.9114 16.128L14.9188 16.1329L14.9263 16.1378L14.9339 16.1426L14.9415 16.1474L14.9491 16.1522L14.9568 16.1569L14.9645 16.1616L14.9723 16.1663L14.9801 16.171L14.988 16.1756L14.9959 16.1802L15.0039 16.1847L15.0119 16.1892L15.0199 16.1937L15.028 16.1982L15.0361 16.2026L15.0443 16.207L15.0525 16.2113L15.0607 16.2156L15.0689 16.2199L15.0772 16.2241L15.0856 16.2283L15.0939 16.2325L15.1023 16.2366L15.1107 16.2406L15.1192 16.2447L15.1277 16.2487L15.1362 16.2526L15.1447 16.2566L15.1533 16.2604L15.1619 16.2643L15.1705 16.2681L15.1791 16.2718L15.1878 16.2755L15.1965 16.2792L15.2052 16.2828L15.2139 16.2864L15.2226 16.2899L15.2314 16.2934L15.2402 16.2968L15.2489 16.3002L15.2578 16.3036L15.2666 16.3069L15.2754 16.3101L15.2843 16.3133L15.2931 16.3165L15.302 16.3196L15.3109 16.3227L15.3198 16.3257L15.3286 16.3286L15.3376 16.3316L15.3465 16.3344L15.3554 16.3372L15.3643 16.34L15.3732 16.3427L15.3821 16.3454L15.3911 16.348L15.4 16.3505L15.4072 16.3524L15.4144 16.3543L15.4216 16.3561L15.4289 16.3579L15.4363 16.3597L15.4436 16.3615L15.451 16.3632L15.4585 16.3648L15.4659 16.3665L15.4735 16.368L15.481 16.3696L15.4886 16.3711L15.4962 16.3726L15.5039 16.3741L15.5116 16.3755L15.5193 16.3769L15.5271 16.3782L15.5349 16.3795L15.5427 16.3808L15.5506 16.3821L15.5585 16.3833L15.5665 16.3844L15.5745 16.3856L15.5825 16.3867L15.5906 16.3878L15.5987 16.3888L15.6069 16.3898L15.615 16.3908L15.6233 16.3917L15.6315 16.3926L15.6398 16.3934L15.6481 16.3943L15.6565 16.3951L15.6649 16.3958L15.6733 16.3965L15.6818 16.3972L15.6903 16.3979L15.6989 16.3985L15.7075 16.399L15.7161 16.3996L15.7248 16.4001L15.7335 16.4006L15.7422 16.401L15.751 16.4014L15.7598 16.4018L15.7687 16.4021L15.7776 16.4024L15.7865 16.4027L15.7954 16.4029L15.8044 16.4031L15.8135 16.4033L15.8226 16.4034L15.8317 16.4035L15.8408 16.4035L15.85 16.4035L15.8625 16.4035L15.8751 16.4034L15.8877 16.4032L15.9004 16.4029L15.9132 16.4026L15.9259 16.4021L15.9387 16.4016L15.9516 16.401L15.9645 16.4004L15.9774 16.3997L15.9903 16.3989L16.0033 16.398L16.0163 16.3971L16.0293 16.3961L16.0424 16.395L16.0554 16.3939L16.0685 16.3926L16.0816 16.3914L16.0946 16.39L16.1077 16.3886L16.1208 16.3872L16.1339 16.3856L16.147 16.3841L16.1601 16.3824L16.1732 16.3807L16.1863 16.3789L16.1993 16.3771L16.2123 16.3752L16.2254 16.3733L16.2384 16.3713L16.2513 16.3692L16.2643 16.3671L16.2772 16.365L16.2901 16.3628L16.3029 16.3605L16.3157 16.3582L16.3285 16.3558L16.3412 16.3534L16.3539 16.351L16.3666 16.3485L16.3791 16.3459L16.3917 16.3433L16.4041 16.3407L16.4166 16.338L16.4289 16.3353L16.4412 16.3325L16.4534 16.3297L16.4655 16.3268L16.4776 16.3239L16.4896 16.321L16.5015 16.3181L16.5134 16.315L16.5251 16.312L16.5368 16.3089L16.5484 16.3058L16.5599 16.3027L16.5713 16.2995L16.5826 16.2963L16.5938 16.2931L16.6049 16.2898L16.6158 16.2865L16.6267 16.2832L16.6375 16.2798L16.6499 16.2765L16.6622 16.2731L16.6744 16.2697L16.6864 16.2663L16.6983 16.263L16.7101 16.2596L16.7218 16.2562L16.7333 16.2528L16.7448 16.2494L16.7561 16.246L16.7673 16.2425L16.7785 16.2391L16.7895 16.2356L16.8005 16.2321L16.8113 16.2286L16.8221 16.2251L16.8328 16.2216L16.8435 16.218L16.854 16.2144L16.8646 16.2108L16.875 16.2072L16.8854 16.2035L16.8957 16.1998L16.906 16.1961L16.9163 16.1924L16.9265 16.1886L16.9366 16.1848L16.9468 16.1809L16.9569 16.177L16.9669 16.1731L16.977 16.1692L16.9871 16.1652L16.9971 16.1611L17.0071 16.157L17.0171 16.1529L17.0271 16.1487L17.0372 16.1445L17.0472 16.1403L17.0573 16.136L17.0673 16.1316L17.0774 16.1272L17.0875 16.1227L17.0976 16.1182L17.1078 16.1136L17.118 16.109L17.1282 16.1043L17.1385 16.0996L17.1489 16.0948L17.1593 16.0899L17.1697 16.085L17.1802 16.08L17.1908 16.075L17.2014 16.0698L17.2121 16.0647L17.2229 16.0594L17.2338 16.0541L17.2448 16.0487L17.2558 16.0432L17.2669 16.0377L17.2782 16.032L17.2895 16.0264L17.3009 16.0206L17.3125 16.0147L17.3235 16.0112L17.334 16.0077L17.3442 16.0043L17.3632 15.9977L17.3722 15.9947L17.3809 15.9918L17.3893 15.9891L17.3975 15.9867L17.4056 15.9846L17.4134 15.9828L17.4211 15.9814L17.4287 15.9803L17.4362 15.9796L17.4438 15.9794L17.4547 15.9799L17.4652 15.9813L17.4751 15.9838L17.4844 15.9873L17.4931 15.9918L17.5011 15.9975L17.5083 16.0043L17.5149 16.0122L17.5207 16.0214L17.5257 16.0317L17.5299 16.0434L17.5331 16.0563L17.5355 16.0705L17.537 16.0861L17.5375 16.1031L17.5375 16.1079L17.5373 16.1128L17.5371 16.118L17.5367 16.1233L17.5363 16.1288L17.5357 16.1345L17.5351 16.1403L17.5344 16.1464L17.5336 16.1526L17.5326 16.1591L17.5316 16.1657L17.5305 16.1724L17.5293 16.1794L17.528 16.1866L17.5265 16.1939L17.525 16.2014L17.5234 16.2091L17.5217 16.217L17.5199 16.2251L17.518 16.2333L17.516 16.2418L17.514 16.2504L17.5118 16.2592L17.5095 16.2682L17.5071 16.2774L17.5046 16.2867L17.502 16.2963L17.4994 16.306L17.4966 16.3159L17.4937 16.326L17.4907 16.3363L17.4877 16.3467L17.4845 16.3574L17.4812 16.3682L17.4789 16.3766L17.4753 16.3885L17.4707 16.4035L17.465 16.4218L17.4582 16.4431L17.4504 16.4673L17.4416 16.4944L17.4318 16.5242L17.4212 16.5566L17.4096 16.5916L16.8054 18.3505L16.784 18.4104L16.7629 18.4694L16.7421 18.5273L16.7217 18.584L16.7016 18.6395L16.6819 18.6935L16.6627 18.7461L16.6439 18.7971L16.6256 18.8464L16.6079 18.8939L16.5907 18.9394L16.5742 18.983L16.5583 19.0244L16.5431 19.0636L16.5286 19.1005L16.5148 19.1349L16.5019 19.1668L16.4897 19.196L16.4784 19.2224L16.468 19.246L16.4585 19.2667L16.45 19.2842L16.4426 19.3001L16.4347 19.3158L16.4262 19.3314L16.4173 19.3467L16.4079 19.3618L16.398 19.3767L16.3876 19.3915L16.3769 19.406L16.3657 19.4203L16.354 19.4344L16.342 19.4483L16.3297 19.462L16.3169 19.4755L16.3038 19.4888L16.2904 19.5019L16.2766 19.5147L16.2625 19.5273L16.2482 19.5397L16.2335 19.5519L16.2186 19.5638L16.2035 19.5755L16.1881 19.587L16.1725 19.5982L16.1566 19.6093L16.1406 19.62L16.1244 19.6306L16.1081 19.6408L16.0916 19.6509L16.0749 19.6607L16.0582 19.6702L16.0413 19.6795L16.0243 19.6886L16.0073 19.6974L15.9902 19.7059L15.973 19.7142L15.9558 19.7222L15.9386 19.73L15.9214 19.7374L15.9042 19.7447L15.887 19.7516L15.8699 19.7583L15.8528 19.7647L15.8357 19.7708L15.8188 19.7767L15.8019 19.7822L15.7852 19.7875L15.7686 19.7925L15.7521 19.7972L15.7358 19.8017L15.7196 19.8058L15.7036 19.8096L15.6879 19.8132L15.6723 19.8164L15.6569 19.8194L15.6418 19.822L15.627 19.8244L15.6124 19.8264L15.5981 19.8281L15.584 19.8296L15.5703 19.8307L15.557 19.8315L15.5439 19.8319L15.5313 19.8321L15.5337 19.8226L15.5359 19.8132L15.5379 19.8041L15.5397 19.7952L15.5413 19.7864L15.5428 19.7779L15.5441 19.7694L15.5452 19.7611L15.5461 19.753L15.547 19.745L15.5477 19.7371L15.5482 19.7293L15.5487 19.7217L15.5491 19.7141L15.5494 19.7066L15.5496 19.6991L15.5498 19.6917L15.5499 19.6844L15.55 19.6771L15.55 19.6699L15.55 19.6626V19.6554L15.5496 19.6235L15.5483 19.5919L15.5461 19.5604L15.5431 19.5293L15.5392 19.4983L15.5346 19.4677L15.5291 19.4373L15.5228 19.4072L15.5158 19.3773L15.5079 19.3478L15.4993 19.3186L15.49 19.2897L15.4799 19.2611L15.469 19.2329L15.4575 19.205L15.4452 19.1774L15.4322 19.1502L15.4186 19.1234L15.4043 19.097L15.3893 19.071L15.3736 19.0453L15.3573 19.0201L15.3404 18.9953L15.3229 18.9709L15.3047 18.947L15.286 18.9235L15.2666 18.9004L15.2467 18.8779L15.2262 18.8558L15.2052 18.8341L15.1836 18.813L15.1615 18.7924L15.1389 18.7723L15.1158 18.7527L15.0922 18.7337L15.0681 18.7151L15.0435 18.6972L15.0185 18.6798L14.993 18.6629L14.967 18.6467L14.9407 18.631L14.9139 18.6159L14.8867 18.6015L14.8591 18.5876L14.8312 18.5744L14.8028 18.5618L14.7741 18.5498L14.7451 18.5385L14.7157 18.5279L14.686 18.5179L14.6559 18.5086L14.6256 18.5L14.595 18.4921L14.5641 18.4849L14.5329 18.4785L14.5014 18.4727L14.4697 18.4677L14.4378 18.4634L14.4057 18.4599L14.3733 18.4572L14.3407 18.4552L14.308 18.454L14.275 18.4536L14.2412 18.454L14.2076 18.4552L14.1743 18.4572L14.1412 18.4599L14.1084 18.4634L14.0759 18.4677L14.0436 18.4727L14.0117 18.4785L13.98 18.4849L13.9487 18.4921L13.9177 18.5L13.887 18.5086L13.8567 18.5179L13.8267 18.5279L13.7971 18.5385L13.7679 18.5498L13.7391 18.5618L13.7106 18.5744L13.6826 18.5876L13.655 18.6015L13.6278 18.6159L13.601 18.631L13.5747 18.6467L13.5488 18.6629L13.5234 18.6798L13.4985 18.6972L13.4741 18.7151L13.4501 18.7337L13.4267 18.7527L13.4037 18.7723L13.3813 18.7924L13.3594 18.813L13.3381 18.8341L13.3173 18.8558L13.2971 18.8779L13.2775 18.9004L13.2584 18.9235L13.24 18.947L13.2221 18.9709L13.2048 18.9953L13.1882 19.0201L13.1722 19.0453L13.1569 19.071L13.1422 19.097L13.1281 19.1234L13.1148 19.1502L13.1021 19.1774L13.0901 19.205L13.0788 19.2329L13.0682 19.2611L13.0584 19.2897L13.0492 19.3186L13.0409 19.3478L13.0332 19.3773L13.0264 19.4072L13.0203 19.4373L13.0149 19.4677L13.0104 19.4983L13.0067 19.5293L13.0038 19.5604L13.0017 19.5919L13.0004 19.6235L13 19.6554L13.0002 19.6722L13.0007 19.689L13.0015 19.7057L13.0027 19.7225L13.0042 19.7391L13.006 19.7558L13.0081 19.7724L13.0106 19.789L13.0133 19.8055L13.0164 19.8219L13.0198 19.8383L13.0235 19.8547L13.0274 19.871L13.0317 19.8872L13.0362 19.9034L13.0411 19.9195L13.0462 19.9356L13.0516 19.9515L13.0573 19.9674L13.0632 19.9833L13.0694 19.999L13.0759 20.0147L13.0827 20.0303L13.0897 20.0458L13.0969 20.0612L13.1044 20.0765L13.1122 20.0917L13.1202 20.1069L13.1284 20.1219L13.1369 20.1369L13.1456 20.1517L13.1545 20.1664L13.1636 20.181L13.173 20.1955L13.1826 20.2099L13.1924 20.2242L13.2024 20.2384L13.2127 20.2524L13.2231 20.2663L13.2337 20.2801L13.2445 20.2938L13.2556 20.3073L13.2668 20.3207L13.2782 20.334L13.2897 20.3471L13.3015 20.3601L13.3134 20.3729L13.3255 20.3856L13.3378 20.3982L13.3502 20.4105L13.3628 20.4228L13.3755 20.4349L13.3884 20.4468L13.4015 20.4585L13.4146 20.4701L13.428 20.4816L13.4415 20.4928L13.4551 20.5039L13.4688 20.5148L13.4827 20.5256L13.4967 20.5361L13.5108 20.5465L13.525 20.5567L13.5322 20.5617L13.5393 20.5668L13.5466 20.5717L13.5538 20.5767L13.5611 20.5816L13.5684 20.5865L13.5757 20.5914L13.583 20.5962L13.5904 20.601L13.5978 20.6058L13.6053 20.6105L13.6128 20.6152L13.6203 20.6199L13.6278 20.6246L13.6353 20.6292L13.6429 20.6338L13.6505 20.6383L13.6582 20.6429L13.6658 20.6473L13.6735 20.6518L13.6813 20.6562L13.689 20.6606L13.6968 20.6649L13.7046 20.6692L13.7124 20.6735L13.7203 20.6777L13.7282 20.6819L13.7361 20.6861L13.7441 20.6902L13.752 20.6942L13.76 20.6983L13.7681 20.7023L13.7761 20.7062L13.7842 20.7102L13.7924 20.714L13.8005 20.7179L13.8087 20.7217L13.8169 20.7254L13.8251 20.7291L13.8334 20.7328L13.8417 20.7364L13.85 20.74L13.8583 20.7435L13.8667 20.747L13.8751 20.7504L13.8836 20.7538L13.892 20.7572L13.9005 20.7605L13.909 20.7637L13.9176 20.7669L13.9261 20.7701L13.9348 20.7732L13.9434 20.7763L13.952 20.7793L13.9607 20.7822L13.9694 20.7852L13.9782 20.788L13.987 20.7908L13.9958 20.7936L14.0046 20.7963L14.0135 20.799L14.0223 20.8016L14.0312 20.8041L14.039 20.8059L14.0468 20.8077L14.0545 20.8095L14.0623 20.8112L14.0701 20.8129L14.0778 20.8145L14.0856 20.8162L14.0934 20.8177L14.1011 20.8193L14.1089 20.8208L14.1167 20.8223L14.1245 20.8238L14.1323 20.8252L14.1401 20.8266L14.148 20.828L14.1558 20.8293L14.1636 20.8307L14.1715 20.8319L14.1793 20.8332L14.1872 20.8344L14.1951 20.8356L14.203 20.8367L14.2109 20.8378L14.2188 20.8389L14.2267 20.84L14.2347 20.841L14.2426 20.842L14.2506 20.843L14.2586 20.8439L14.2666 20.8448L14.2746 20.8457L14.2827 20.8465L14.2907 20.8473L14.2988 20.8481L14.3069 20.8488L14.315 20.8495L14.3232 20.8502L14.3313 20.8508L14.3395 20.8515L14.3477 20.852L14.356 20.8526L14.3642 20.8531L14.3725 20.8536L14.3808 20.8541L14.3891 20.8545L14.3975 20.8549L14.4059 20.8552L14.4143 20.8556L14.4227 20.8559L14.4312 20.8561L14.4397 20.8564L14.4482 20.8566L14.4568 20.8567L14.4653 20.8569L14.474 20.857L14.4826 20.8571L14.4913 20.8571L14.5 20.8571L14.5125 20.8571L14.5251 20.857L14.5377 20.8568L14.5504 20.8565L14.5632 20.8562L14.5759 20.8557L14.5887 20.8552L14.6016 20.8546L14.6145 20.854L14.6274 20.8533L14.6403 20.8525L14.6533 20.8516L14.6663 20.8507L14.6793 20.8497L14.6924 20.8486L14.7054 20.8475L14.7185 20.8463L14.7316 20.845L14.7446 20.8436L14.7577 20.8422L14.7708 20.8408L14.7839 20.8393L14.797 20.8377L14.8101 20.836L14.8232 20.8343L14.8363 20.8325L14.8493 20.8307L14.8623 20.8288L14.8754 20.8269L14.8884 20.8249L14.9013 20.8228L14.9143 20.8207L14.9272 20.8186L14.9401 20.8164L14.9529 20.8141L14.9657 20.8118L14.9785 20.8094L14.9912 20.807L15.0039 20.8046L15.0166 20.8021L15.0291 20.7995L15.0417 20.7969L15.0541 20.7943L15.0666 20.7916L15.0789 20.7889L15.0912 20.7861L15.1034 20.7833L15.1155 20.7804L15.1276 20.7776L15.1396 20.7746L15.1515 20.7717L15.1634 20.7687L15.1751 20.7656L15.1868 20.7625L15.1984 20.7594L15.2099 20.7563L15.2213 20.7531L15.2326 20.7499L15.2438 20.7467L15.2549 20.7434L15.2658 20.7401L15.2767 20.7368L15.2875 20.7334L15.2999 20.7301L15.3121 20.7268L15.324 20.7234L15.3358 20.7202L15.3473 20.7169L15.3587 20.7136L15.3698 20.7104L15.3808 20.7072L15.3916 20.704L15.4023 20.7008L15.4128 20.6975L15.4231 20.6944L15.4333 20.6911L15.4434 20.688L15.4533 20.6847L15.4631 20.6815L15.4728 20.6783L15.4823 20.6751L15.4918 20.6719L15.5011 20.6686L15.5104 20.6654L15.5196 20.6621L15.5287 20.6588L15.5377 20.6555L15.5467 20.6521L15.5556 20.6487L15.5645 20.6453L15.5733 20.6419L15.5821 20.6384L15.5908 20.6349L15.5996 20.6314L15.6083 20.6278L15.617 20.6242L15.6256 20.6205L15.6343 20.6168L15.643 20.6131L15.6518 20.6093L15.6605 20.6054L15.6693 20.6015L15.6781 20.5975L15.6869 20.5935L15.6958 20.5894L15.7048 20.5853L15.7138 20.5811L15.7229 20.5768L15.7321 20.5724L15.7413 20.568L15.7507 20.5635L15.7601 20.559L15.7696 20.5543L15.7793 20.5496L15.7891 20.5448L15.799 20.5399L15.809 20.535L15.8192 20.5299L15.8399 20.5195L15.8506 20.5142L15.8723 20.5032L15.9062 20.486L15.9175 20.4871L15.9284 20.4901L15.939 20.4951L15.9489 20.5018L15.9578 20.5103L15.9657 20.5204L15.9721 20.5319L15.977 20.5448L15.9802 20.559L15.9813 20.5744L15.9799 20.5832L15.9764 20.592L15.9674 20.6097L15.9639 20.6186L15.9625 20.6274L14.1813 25.6288L14.1799 25.6377L14.1764 25.6465L14.1674 25.6642L14.1639 25.673L14.1625 25.6819L14.1626 25.6886L14.163 25.6954L14.1637 25.7023L14.1646 25.7092L14.1657 25.7161L14.1672 25.7231L14.1689 25.73L14.1708 25.737L14.1731 25.744L14.1756 25.751L14.1783 25.758L14.1814 25.765L14.1847 25.7721L14.1883 25.7791L14.1922 25.786L14.1964 25.7929L14.2008 25.7999L14.2056 25.8068L14.2106 25.8136L14.2159 25.8205L14.2215 25.8272L14.2274 25.8339L14.2336 25.8406L14.2401 25.8471L14.2469 25.8537L14.254 25.8601L14.2614 25.8665L14.2691 25.8727L14.2771 25.8789L14.2854 25.885L14.294 25.891L14.3029 25.8969L14.3122 25.9027L14.3217 25.9083L14.3316 25.9139L14.3418 25.9193L14.3523 25.9246L14.3631 25.9298L14.3743 25.9348L14.3858 25.9397L14.3976 25.9443L14.4097 25.9489L14.4222 25.9534L14.435 25.9576L14.4481 25.9616L14.4616 25.9655L14.4754 25.9693L14.4895 25.9728L14.504 25.9761L14.5189 25.9793L14.5341 25.9822L14.5496 25.985L14.5654 25.9875L14.5817 25.9898L14.5982 25.9919L14.6152 25.9938L14.6325 25.9954L14.6501 25.9968L14.6681 25.9979L14.6865 25.9988L14.7052 25.9995L14.7243 25.9998L14.7438 26L14.7693 25.9998L14.7942 25.9994L14.8184 25.9986L14.842 25.9975L14.8649 25.9961L14.8872 25.9945L14.9089 25.9924L14.93 25.9902L14.9505 25.9877L14.9704 25.9849L14.9897 25.9818L15.0085 25.9785L15.0267 25.9749L15.0443 25.9711L15.0614 25.967L15.078 25.9627L15.0941 25.9582L15.1097 25.9535L15.1248 25.9485L15.1394 25.9432L15.1535 25.9378L15.1671 25.9322L15.1803 25.9264L15.1931 25.9204L15.2054 25.9142L15.2173 25.9078L15.2288 25.9012L15.2399 25.8945L15.2507 25.8876L15.261 25.8806L15.2709 25.8733L15.2805 25.866L15.2898 25.8584L15.2987 25.8508L15.3073 25.843L15.3155 25.8351L15.3235 25.8271L15.3312 25.819L15.3385 25.8107L15.3456 25.8023L15.3525 25.7939L15.359 25.7853L15.3654 25.7767L15.3714 25.7679L15.3773 25.7591L15.383 25.7502L15.3884 25.7413L15.3937 25.7323L15.3987 25.7233L15.4036 25.7141L15.4084 25.7049L15.413 25.6957L15.4174 25.6865L15.4217 25.6773L15.4259 25.668L15.43 25.6586L15.4339 25.6493L15.4378 25.64L15.4416 25.6307L15.4454 25.6214L15.449 25.6121L15.4527 25.6028L15.4563 25.5935L17.6313 18.8601L18.4684 16.1957L18.4747 16.1747L18.475 16.1738L18.4753 16.1726L18.4764 16.1692L18.8115 15.0303L18.8439 14.9162L18.8543 14.8793L18.8645 14.8432L18.8744 14.8077L18.884 14.7731L18.8933 14.7395L18.9022 14.7067L18.9109 14.675L18.9191 14.6445L18.927 14.615L18.9344 14.5869L18.9414 14.56L18.9479 14.5345L18.954 14.5105L18.9596 14.488L18.9646 14.4671L18.9691 14.4479L18.9731 14.4303L18.9764 14.4146L18.9791 14.4007L18.9813 14.3888L18.9821 14.3763L18.9842 14.3653L18.9872 14.3556L18.9906 14.3468L18.9941 14.3389L18.9971 14.3316L18.9992 14.3248L19 14.3181L18.9993 14.3056L18.9973 14.2934L18.994 14.2815L18.9896 14.27L18.9841 14.2589L18.9777 14.2481L18.9705 14.2377L18.9625 14.2278L18.9539 14.2182L18.9448 14.209L18.9352 14.2002L18.9253 14.1918L18.9152 14.1839L18.905 14.1763L18.8947 14.1692L18.8845 14.1626L18.8745 14.1564L18.8647 14.1506L18.8553 14.1454L18.8464 14.1405L18.8381 14.1362L18.8304 14.1323L18.8235 14.129L18.8175 14.1261L18.8125 14.1237L18.8014 14.1239L18.7907 14.1244L18.7803 14.1252L18.7702 14.1263L18.7605 14.1277L18.751 14.1293L18.7417 14.1312L18.7328 14.1334L18.7241 14.1358L18.7156 14.1384L18.7073 14.1412L18.6993 14.1442L18.6914 14.1474L18.6837 14.1508L18.6761 14.1542L18.6688 14.1579L18.6615 14.1616L18.6543 14.1655L18.6473 14.1694L18.6403 14.1735L18.6334 14.1776L18.6266 14.1817L18.6198 14.1859L18.613 14.1902L18.6062 14.1944L18.5994 14.2002L18.5913 14.2073L18.5821 14.2158L18.5718 14.2256L18.5603 14.2367L18.5478 14.2489L18.5342 14.2624L18.5195 14.2769L18.4511 14.3451L18.4114 14.3846L18.3903 14.4055L18.3684 14.4271L18.3456 14.4495L18.3221 14.4724L18.2978 14.496L18.2729 14.52L18.2472 14.5446L18.2209 14.5696L18.1939 14.595L18.1664 14.6207L18.1382 14.6467L18.1095 14.6729L18.0803 14.6994L18.0506 14.726L18.0204 14.7527L17.9897 14.7795L17.9587 14.8062L17.9272 14.8329L17.8953 14.8596L17.8632 14.8861L17.8307 14.9124L17.7979 14.9384L17.7648 14.9642L17.7315 14.9897L17.698 15.0147L17.6643 15.0394L17.6305 15.0636L17.5965 15.0872L17.5625 15.1103L17.5283 15.1328L17.4941 15.1546L17.4599 15.1757L17.4256 15.196L17.3914 15.2155L17.3573 15.2342L17.3232 15.2519L17.2893 15.2687L17.2555 15.2845L17.2218 15.2993L17.1884 15.3129L17.1551 15.3254L17.1221 15.3367L17.0894 15.3468L17.0569 15.3556L17.0248 15.363L16.993 15.3691L16.9616 15.3737L16.9306 15.3769L16.9 15.3785V15.2018Z" fill="black"/>
</svg>
