<svg width="32" height="40" viewBox="0 0 32 40" fill="none" xmlns="http://www.w3.org/2000/svg">
<path d="M22.6752 18C23.048 18 23.35 18.302 23.35 18.6748C23.35 19.0476 23.048 19.3496 22.6752 19.3496H8.67482C8.30202 19.3496 8 19.0476 8 18.6748C8 18.302 8.30202 18 8.67482 18H22.6752Z" fill="black"/>
<path d="M19.1751 18.6748H12.1749C11.8988 18.6748 11.6749 18.8987 11.6749 19.1748V22.1749C11.6749 22.4511 11.8988 22.6749 12.1749 22.6749H19.1751C19.4512 22.6749 19.6751 22.4511 19.6751 22.1749V19.1748C19.6751 18.8987 19.4512 18.6748 19.1751 18.6748Z" fill="black"/>
</svg>
