<svg width="32" height="40" viewBox="0 0 32 40" fill="none" xmlns="http://www.w3.org/2000/svg">
<path d="M5.5 12.4849C5.5 11.6648 6.17157 11 7 11H27.5C28.3284 11 29 11.6648 29 12.4849C29 13.305 28.3284 13.9698 27.5 13.9698H7C6.17157 13.9698 5.5 13.305 5.5 12.4849Z" fill="black"/>
<path d="M5.5 17.9295C5.5 17.1094 6.17157 16.4446 7 16.4446H27.5C28.3284 16.4446 29 17.1094 29 17.9295C29 18.7496 28.3284 19.4144 27.5 19.4144H7C6.17157 19.4144 5.5 18.7496 5.5 17.9295Z" fill="black"/>
<path d="M7.49072 12.9799C7.76673 12.9799 7.99066 13.1894 7.99072 13.4477V26.8461L7.9917 26.8552L7.99561 26.8968L7.99805 26.9389L7.99951 26.9814L8 27.0244L7.99854 27.0964L7.99463 27.1685L7.99072 27.2091V27.3613C7.99066 27.4566 7.96006 27.5451 7.90771 27.619L7.89307 27.6658L7.86914 27.7359L7.84277 27.8051L7.81396 27.8742L7.7832 27.9428L7.75049 28.0105L7.71533 28.0782L7.67822 28.1449L7.63916 28.2111L7.59863 28.2768L7.55566 28.3416L7.51123 28.4054L7.46533 28.4687L7.41748 28.5315L7.36768 28.5934L7.31641 28.6543L7.26367 28.7143L7.20947 28.7732L7.1543 28.8312L7.09717 28.8883L7.03906 28.9443L6.97949 28.9994L6.91846 29.0536L6.85645 29.1063L6.79346 29.158L6.72949 29.2087L6.66406 29.2576L6.59814 29.3059L6.53125 29.3523L6.46338 29.3977L6.39453 29.4417L6.3252 29.4843L6.25537 29.5253L6.18457 29.565L6.11328 29.6032L6.0415 29.6399L5.96924 29.6752L5.89648 29.7085L5.82324 29.7404L5.74951 29.7704L5.67578 29.7989L5.60205 29.8255L5.52783 29.8506L5.45361 29.8738L5.37939 29.8951L5.30518 29.9144L5.23047 29.9323L5.15625 29.9478L5.08252 29.9613L5.0083 29.9729L4.93506 29.9826L4.86182 29.9903L4.78857 29.9956L4.71631 29.999L4.64404 30L4.60059 29.9995L4.55762 29.9986L4.51465 29.9961L4.47217 29.9932L4.43018 29.9898L4.38818 29.985L4.34668 29.9797L4.30566 29.9734L4.26465 29.9666L4.22461 29.9589L4.18457 29.9502L4.14502 29.941L4.10596 29.9309L4.06738 29.9202L4.0293 29.9086L3.9917 29.8961L3.95459 29.883L3.91797 29.869L3.88184 29.854L3.84619 29.8386L3.81104 29.8226L3.77637 29.8057L3.74268 29.7878L3.70898 29.7694L3.67627 29.7501L3.64404 29.7303L3.61279 29.7095L3.58203 29.6882L3.55176 29.6665L3.52197 29.6433L3.49316 29.6201L3.46484 29.5959L3.43701 29.5708L3.41016 29.5452L3.38428 29.5191L3.35889 29.492L3.33447 29.4644L3.31055 29.4364L3.28711 29.4074L3.26514 29.3774L3.24365 29.3475L3.22266 29.3165L3.20312 29.2846L3.18408 29.2522L3.16602 29.2194L3.14844 29.186L3.13232 29.1517L3.1167 29.1169L3.10205 29.0816L3.08838 29.0454L3.07568 29.0086L3.06396 28.9714L3.05273 28.9332L3.04297 28.8946L3.03418 28.8554L3.02637 28.8158L3.01953 28.7756L3.01367 28.7346L3.00879 28.693L3.00488 28.6509L3.00195 28.6079L3.00049 28.5649L3 28.5209L3.00098 28.4479L3.00439 28.3754L3.01025 28.3029L3.01758 28.2304L3.02783 28.1584L3.03955 28.0869L3.05371 28.0153L3.06982 27.9443L3.08789 27.8737L3.1084 27.8036L3.13037 27.7335L3.15479 27.6644L3.18066 27.5958L3.2085 27.5276L3.23877 27.4599L3.27051 27.3927L3.30371 27.3265L3.33936 27.2608L3.37646 27.196L3.41504 27.1317L3.45557 27.0684L3.49805 27.0061L3.54199 26.9442L3.5874 26.8833L3.63477 26.8233L3.68359 26.7644L3.73389 26.7064L3.78564 26.6493L3.83887 26.5937L3.89404 26.5386L3.9502 26.485L4.00781 26.4323L4.06689 26.3811L4.12744 26.3308L4.18945 26.282L4.25244 26.2341L4.31689 26.1877L4.38232 26.1428L4.44922 26.0988L4.51758 26.0567L4.58691 26.0156L4.65723 25.9765L4.729 25.9383L4.80176 25.9021L4.87549 25.8673L4.9502 25.8339L5.02588 25.8025L5.10254 25.7725L5.18066 25.7445L5.25928 25.7179L5.33887 25.6932L5.41943 25.67L5.50098 25.6493L5.58301 25.6299L5.66602 25.6125L5.75 25.5971L5.83447 25.5835L5.91943 25.5719L6.00537 25.5623L6.09229 25.555L6.17969 25.5497L6.26758 25.5463L6.35596 25.5453L6.40186 25.5458L6.44727 25.5473L6.49219 25.5492L6.53613 25.5521L6.58008 25.556L6.62402 25.5608L6.66699 25.5661L6.70947 25.5724L6.75098 25.5797L6.79248 25.5874L6.8335 25.5961L6.87402 25.6058L6.91357 25.6159L6.95312 25.6275L6.99072 25.6386V13.4477C6.99078 13.1894 7.21476 12.9799 7.49072 12.9799Z" fill="black"/>
<path d="M14.4907 12.9799C14.7667 12.9799 14.9907 13.1894 14.9907 13.4477V26.8461L14.9917 26.8552L14.9956 26.8968L14.998 26.9389L14.9995 26.9814L15 27.0244L14.9985 27.0964L14.9946 27.1685L14.9907 27.2091V27.3613C14.9907 27.4566 14.9601 27.5451 14.9077 27.619L14.8931 27.6658L14.8691 27.7359L14.8428 27.8051L14.814 27.8742L14.7832 27.9428L14.7505 28.0105L14.7153 28.0782L14.6782 28.1449L14.6392 28.2111L14.5986 28.2768L14.5557 28.3416L14.5112 28.4054L14.4653 28.4687L14.4175 28.5315L14.3677 28.5934L14.3164 28.6543L14.2637 28.7143L14.2095 28.7732L14.1543 28.8312L14.0972 28.8883L14.0391 28.9443L13.9795 28.9994L13.9185 29.0536L13.8564 29.1063L13.7935 29.158L13.7295 29.2087L13.6641 29.2576L13.5981 29.3059L13.5312 29.3523L13.4634 29.3977L13.3945 29.4417L13.3252 29.4843L13.2554 29.5253L13.1846 29.565L13.1133 29.6032L13.0415 29.6399L12.9692 29.6752L12.8965 29.7085L12.8232 29.7404L12.7495 29.7704L12.6758 29.7989L12.6021 29.8255L12.5278 29.8506L12.4536 29.8738L12.3794 29.8951L12.3052 29.9144L12.2305 29.9323L12.1562 29.9478L12.0825 29.9613L12.0083 29.9729L11.9351 29.9826L11.8618 29.9903L11.7886 29.9956L11.7163 29.999L11.644 30L11.6006 29.9995L11.5576 29.9986L11.5146 29.9961L11.4722 29.9932L11.4302 29.9898L11.3882 29.985L11.3467 29.9797L11.3057 29.9734L11.2646 29.9666L11.2246 29.9589L11.1846 29.9502L11.145 29.941L11.106 29.9309L11.0674 29.9202L11.0293 29.9086L10.9917 29.8961L10.9546 29.883L10.918 29.869L10.8818 29.854L10.8462 29.8386L10.811 29.8226L10.7764 29.8057L10.7427 29.7878L10.709 29.7694L10.6763 29.7501L10.644 29.7303L10.6128 29.7095L10.582 29.6882L10.5518 29.6665L10.522 29.6433L10.4932 29.6201L10.4648 29.5959L10.437 29.5708L10.4102 29.5452L10.3843 29.5191L10.3589 29.492L10.3345 29.4644L10.3105 29.4364L10.2871 29.4074L10.2651 29.3774L10.2437 29.3475L10.2227 29.3165L10.2031 29.2846L10.1841 29.2522L10.166 29.2194L10.1484 29.186L10.1323 29.1517L10.1167 29.1169L10.1021 29.0816L10.0884 29.0454L10.0757 29.0086L10.064 28.9714L10.0527 28.9332L10.043 28.8946L10.0342 28.8554L10.0264 28.8158L10.0195 28.7756L10.0137 28.7346L10.0088 28.693L10.0049 28.6509L10.002 28.6079L10.0005 28.5649L10 28.5209L10.001 28.4479L10.0044 28.3754L10.0103 28.3029L10.0176 28.2304L10.0278 28.1584L10.0396 28.0869L10.0537 28.0153L10.0698 27.9443L10.0879 27.8737L10.1084 27.8036L10.1304 27.7335L10.1548 27.6644L10.1807 27.5958L10.2085 27.5276L10.2388 27.4599L10.2705 27.3927L10.3037 27.3265L10.3394 27.2608L10.3765 27.196L10.415 27.1317L10.4556 27.0684L10.498 27.0061L10.542 26.9442L10.5874 26.8833L10.6348 26.8233L10.6836 26.7644L10.7339 26.7064L10.7856 26.6493L10.8389 26.5937L10.894 26.5386L10.9502 26.485L11.0078 26.4323L11.0669 26.3811L11.1274 26.3308L11.1895 26.282L11.2524 26.2341L11.3169 26.1877L11.3823 26.1428L11.4492 26.0988L11.5176 26.0567L11.5869 26.0156L11.6572 25.9765L11.729 25.9383L11.8018 25.9021L11.8755 25.8673L11.9502 25.8339L12.0259 25.8025L12.1025 25.7725L12.1807 25.7445L12.2593 25.7179L12.3389 25.6932L12.4194 25.67L12.501 25.6493L12.583 25.6299L12.666 25.6125L12.75 25.5971L12.8345 25.5835L12.9194 25.5719L13.0054 25.5623L13.0923 25.555L13.1797 25.5497L13.2676 25.5463L13.356 25.5453L13.4019 25.5458L13.4473 25.5473L13.4922 25.5492L13.5361 25.5521L13.5801 25.556L13.624 25.5608L13.667 25.5661L13.7095 25.5724L13.751 25.5797L13.7925 25.5874L13.8335 25.5961L13.874 25.6058L13.9136 25.6159L13.9531 25.6275L13.9907 25.6386V13.4477C13.9908 13.1894 14.2148 12.9799 14.4907 12.9799Z" fill="black"/>
<path d="M21.4907 12.9799C21.7667 12.9799 21.9907 13.1894 21.9907 13.4477V26.8461L21.9917 26.8552L21.9956 26.8968L21.998 26.9389L21.9995 26.9814L22 27.0244L21.9985 27.0964L21.9946 27.1685L21.9907 27.2091V27.3613C21.9907 27.4566 21.9601 27.5451 21.9077 27.619L21.8931 27.6658L21.8691 27.7359L21.8428 27.8051L21.814 27.8742L21.7832 27.9428L21.7505 28.0105L21.7153 28.0782L21.6782 28.1449L21.6392 28.2111L21.5986 28.2768L21.5557 28.3416L21.5112 28.4054L21.4653 28.4687L21.4175 28.5315L21.3677 28.5934L21.3164 28.6543L21.2637 28.7143L21.2095 28.7732L21.1543 28.8312L21.0972 28.8883L21.0391 28.9443L20.9795 28.9994L20.9185 29.0536L20.8564 29.1063L20.7935 29.158L20.7295 29.2087L20.6641 29.2576L20.5981 29.3059L20.5312 29.3523L20.4634 29.3977L20.3945 29.4417L20.3252 29.4843L20.2554 29.5253L20.1846 29.565L20.1133 29.6032L20.0415 29.6399L19.9692 29.6752L19.8965 29.7085L19.8232 29.7404L19.7495 29.7704L19.6758 29.7989L19.6021 29.8255L19.5278 29.8506L19.4536 29.8738L19.3794 29.8951L19.3052 29.9144L19.2305 29.9323L19.1562 29.9478L19.0825 29.9613L19.0083 29.9729L18.9351 29.9826L18.8618 29.9903L18.7886 29.9956L18.7163 29.999L18.644 30L18.6006 29.9995L18.5576 29.9986L18.5146 29.9961L18.4722 29.9932L18.4302 29.9898L18.3882 29.985L18.3467 29.9797L18.3057 29.9734L18.2646 29.9666L18.2246 29.9589L18.1846 29.9502L18.145 29.941L18.106 29.9309L18.0674 29.9202L18.0293 29.9086L17.9917 29.8961L17.9546 29.883L17.918 29.869L17.8818 29.854L17.8462 29.8386L17.811 29.8226L17.7764 29.8057L17.7427 29.7878L17.709 29.7694L17.6763 29.7501L17.644 29.7303L17.6128 29.7095L17.582 29.6882L17.5518 29.6665L17.522 29.6433L17.4932 29.6201L17.4648 29.5959L17.437 29.5708L17.4102 29.5452L17.3843 29.5191L17.3589 29.492L17.3345 29.4644L17.3105 29.4364L17.2871 29.4074L17.2651 29.3774L17.2437 29.3475L17.2227 29.3165L17.2031 29.2846L17.1841 29.2522L17.166 29.2194L17.1484 29.186L17.1323 29.1517L17.1167 29.1169L17.1021 29.0816L17.0884 29.0454L17.0757 29.0086L17.064 28.9714L17.0527 28.9332L17.043 28.8946L17.0342 28.8554L17.0264 28.8158L17.0195 28.7756L17.0137 28.7346L17.0088 28.693L17.0049 28.6509L17.002 28.6079L17.0005 28.5649L17 28.5209L17.001 28.4479L17.0044 28.3754L17.0103 28.3029L17.0176 28.2304L17.0278 28.1584L17.0396 28.0869L17.0537 28.0153L17.0698 27.9443L17.0879 27.8737L17.1084 27.8036L17.1304 27.7335L17.1548 27.6644L17.1807 27.5958L17.2085 27.5276L17.2388 27.4599L17.2705 27.3927L17.3037 27.3265L17.3394 27.2608L17.3765 27.196L17.415 27.1317L17.4556 27.0684L17.498 27.0061L17.542 26.9442L17.5874 26.8833L17.6348 26.8233L17.6836 26.7644L17.7339 26.7064L17.7856 26.6493L17.8389 26.5937L17.894 26.5386L17.9502 26.485L18.0078 26.4323L18.0669 26.3811L18.1274 26.3308L18.1895 26.282L18.2524 26.2341L18.3169 26.1877L18.3823 26.1428L18.4492 26.0988L18.5176 26.0567L18.5869 26.0156L18.6572 25.9765L18.729 25.9383L18.8018 25.9021L18.8755 25.8673L18.9502 25.8339L19.0259 25.8025L19.1025 25.7725L19.1807 25.7445L19.2593 25.7179L19.3389 25.6932L19.4194 25.67L19.501 25.6493L19.583 25.6299L19.666 25.6125L19.75 25.5971L19.8345 25.5835L19.9194 25.5719L20.0054 25.5623L20.0923 25.555L20.1797 25.5497L20.2676 25.5463L20.356 25.5453L20.4019 25.5458L20.4473 25.5473L20.4922 25.5492L20.5361 25.5521L20.5801 25.556L20.624 25.5608L20.667 25.5661L20.7095 25.5724L20.751 25.5797L20.7925 25.5874L20.8335 25.5961L20.874 25.6058L20.9136 25.6159L20.9531 25.6275L20.9907 25.6386V13.4477C20.9908 13.1894 21.2148 12.9799 21.4907 12.9799Z" fill="black"/>
<path d="M28.4907 12.9799C28.7667 12.9799 28.9907 13.1894 28.9907 13.4477V26.8461L28.9917 26.8552L28.9956 26.8968L28.998 26.9389L28.9995 26.9814L29 27.0244L28.9985 27.0964L28.9946 27.1685L28.9907 27.2091V27.3613C28.9907 27.4566 28.9601 27.5451 28.9077 27.619L28.8931 27.6658L28.8691 27.7359L28.8428 27.8051L28.814 27.8742L28.7832 27.9428L28.7505 28.0105L28.7153 28.0782L28.6782 28.1449L28.6392 28.2111L28.5986 28.2768L28.5557 28.3416L28.5112 28.4054L28.4653 28.4687L28.4175 28.5315L28.3677 28.5934L28.3164 28.6543L28.2637 28.7143L28.2095 28.7732L28.1543 28.8312L28.0972 28.8883L28.0391 28.9443L27.9795 28.9994L27.9185 29.0536L27.8564 29.1063L27.7935 29.158L27.7295 29.2087L27.6641 29.2576L27.5981 29.3059L27.5312 29.3523L27.4634 29.3977L27.3945 29.4417L27.3252 29.4843L27.2554 29.5253L27.1846 29.565L27.1133 29.6032L27.0415 29.6399L26.9692 29.6752L26.8965 29.7085L26.8232 29.7404L26.7495 29.7704L26.6758 29.7989L26.6021 29.8255L26.5278 29.8506L26.4536 29.8738L26.3794 29.8951L26.3052 29.9144L26.2305 29.9323L26.1562 29.9478L26.0825 29.9613L26.0083 29.9729L25.9351 29.9826L25.8618 29.9903L25.7886 29.9956L25.7163 29.999L25.644 30L25.6006 29.9995L25.5576 29.9986L25.5146 29.9961L25.4722 29.9932L25.4302 29.9898L25.3882 29.985L25.3467 29.9797L25.3057 29.9734L25.2646 29.9666L25.2246 29.9589L25.1846 29.9502L25.145 29.941L25.106 29.9309L25.0674 29.9202L25.0293 29.9086L24.9917 29.8961L24.9546 29.883L24.918 29.869L24.8818 29.854L24.8462 29.8386L24.811 29.8226L24.7764 29.8057L24.7427 29.7878L24.709 29.7694L24.6763 29.7501L24.644 29.7303L24.6128 29.7095L24.582 29.6882L24.5518 29.6665L24.522 29.6433L24.4932 29.6201L24.4648 29.5959L24.437 29.5708L24.4102 29.5452L24.3843 29.5191L24.3589 29.492L24.3345 29.4644L24.3105 29.4364L24.2871 29.4074L24.2651 29.3774L24.2437 29.3475L24.2227 29.3165L24.2031 29.2846L24.1841 29.2522L24.166 29.2194L24.1484 29.186L24.1323 29.1517L24.1167 29.1169L24.1021 29.0816L24.0884 29.0454L24.0757 29.0086L24.064 28.9714L24.0527 28.9332L24.043 28.8946L24.0342 28.8554L24.0264 28.8158L24.0195 28.7756L24.0137 28.7346L24.0088 28.693L24.0049 28.6509L24.002 28.6079L24.0005 28.5649L24 28.5209L24.001 28.4479L24.0044 28.3754L24.0103 28.3029L24.0176 28.2304L24.0278 28.1584L24.0396 28.0869L24.0537 28.0153L24.0698 27.9443L24.0879 27.8737L24.1084 27.8036L24.1304 27.7335L24.1548 27.6644L24.1807 27.5958L24.2085 27.5276L24.2388 27.4599L24.2705 27.3927L24.3037 27.3265L24.3394 27.2608L24.3765 27.196L24.415 27.1317L24.4556 27.0684L24.498 27.0061L24.542 26.9442L24.5874 26.8833L24.6348 26.8233L24.6836 26.7644L24.7339 26.7064L24.7856 26.6493L24.8389 26.5937L24.894 26.5386L24.9502 26.485L25.0078 26.4323L25.0669 26.3811L25.1274 26.3308L25.1895 26.282L25.2524 26.2341L25.3169 26.1877L25.3823 26.1428L25.4492 26.0988L25.5176 26.0567L25.5869 26.0156L25.6572 25.9765L25.729 25.9383L25.8018 25.9021L25.8755 25.8673L25.9502 25.8339L26.0259 25.8025L26.1025 25.7725L26.1807 25.7445L26.2593 25.7179L26.3389 25.6932L26.4194 25.67L26.501 25.6493L26.583 25.6299L26.666 25.6125L26.75 25.5971L26.8345 25.5835L26.9194 25.5719L27.0054 25.5623L27.0923 25.555L27.1797 25.5497L27.2676 25.5463L27.356 25.5453L27.4019 25.5458L27.4473 25.5473L27.4922 25.5492L27.5361 25.5521L27.5801 25.556L27.624 25.5608L27.667 25.5661L27.7095 25.5724L27.751 25.5797L27.7925 25.5874L27.8335 25.5961L27.874 25.6058L27.9136 25.6159L27.9531 25.6275L27.9907 25.6386V13.4477C27.9908 13.1894 28.2148 12.9799 28.4907 12.9799Z" fill="black"/>
</svg>
