<svg width="32" height="40" viewBox="0 0 32 40" fill="none" xmlns="http://www.w3.org/2000/svg">
<path d="M5.5 15.5971C5.5 14.7579 6.17157 14.0777 7 14.0777H27.5C28.3284 14.0777 29 14.7579 29 15.5971C29 16.4362 28.3284 17.1165 27.5 17.1165H7C6.17157 17.1165 5.5 16.4362 5.5 15.5971Z" fill="black"/>
<path d="M7.49072 14.5841C7.76673 14.5841 7.99066 14.7986 7.99072 15.0629V28.7727L7.9917 28.7821L7.99561 28.8247L7.99805 28.8677L7.99951 28.9112L8 28.9552L7.99854 29.0289L7.99463 29.1026L7.99072 29.1442V29.3C7.99066 29.3975 7.96006 29.488 7.90771 29.5636L7.89307 29.6116L7.86914 29.6833L7.84277 29.754L7.81396 29.8247L7.7832 29.895L7.75049 29.9642L7.71533 30.0335L7.67822 30.1017L7.63916 30.1695L7.59863 30.2367L7.55566 30.303L7.51123 30.3683L7.46533 30.4331L7.41748 30.4974L7.36768 30.5607L7.31641 30.623L7.26367 30.6844L7.20947 30.7447L7.1543 30.8041L7.09717 30.8624L7.03906 30.9198L6.97949 30.9762L6.91846 31.0316L6.85645 31.0855L6.79346 31.1384L6.72949 31.1903L6.66406 31.2403L6.59814 31.2898L6.53125 31.3372L6.46338 31.3837L6.39453 31.4287L6.3252 31.4723L6.25537 31.5143L6.18457 31.5549L6.11328 31.5939L6.0415 31.6315L5.96924 31.6676L5.89648 31.7018L5.82324 31.7344L5.74951 31.7651L5.67578 31.7942L5.60205 31.8214L5.52783 31.8472L5.45361 31.8709L5.37939 31.8927L5.30518 31.9125L5.23047 31.9308L5.15625 31.9466L5.08252 31.9604L5.0083 31.9723L4.93506 31.9822L4.86182 31.9901L4.78857 31.9956L4.71631 31.999L4.64404 32L4.60059 31.9995L4.55762 31.9985L4.51465 31.996L4.47217 31.9931L4.43018 31.9896L4.38818 31.9847L4.34668 31.9792L4.30566 31.9728L4.26465 31.9659L4.22461 31.958L4.18457 31.9491L4.14502 31.9397L4.10596 31.9293L4.06738 31.9184L4.0293 31.9065L3.9917 31.8937L3.95459 31.8803L3.91797 31.866L3.88184 31.8506L3.84619 31.8348L3.81104 31.8185L3.77637 31.8012L3.74268 31.7829L3.70898 31.7641L3.67627 31.7443L3.64404 31.724L3.61279 31.7027L3.58203 31.681L3.55176 31.6587L3.52197 31.635L3.49316 31.6112L3.46484 31.5865L3.43701 31.5608L3.41016 31.5346L3.38428 31.5079L3.35889 31.4802L3.33447 31.452L3.31055 31.4233L3.28711 31.3936L3.26514 31.363L3.24365 31.3323L3.22266 31.3006L3.20312 31.268L3.18408 31.2349L3.16602 31.2012L3.14844 31.1671L3.13232 31.132L3.1167 31.0964L3.10205 31.0603L3.08838 31.0232L3.07568 30.9856L3.06396 30.9475L3.05273 30.9084L3.04297 30.8688L3.03418 30.8288L3.02637 30.7882L3.01953 30.7472L3.01367 30.7051L3.00879 30.6626L3.00488 30.6196L3.00195 30.5756L3.00049 30.5315L3 30.4865L3.00098 30.4118L3.00439 30.3376L3.01025 30.2635L3.01758 30.1893L3.02783 30.1156L3.03955 30.0424L3.05371 29.9692L3.06982 29.8965L3.08789 29.8243L3.1084 29.7525L3.13037 29.6808L3.15479 29.6101L3.18066 29.5399L3.2085 29.4701L3.23877 29.4009L3.27051 29.3321L3.30371 29.2644L3.33936 29.1971L3.37646 29.1308L3.41504 29.065L3.45557 29.0002L3.49805 28.9364L3.54199 28.8731L3.5874 28.8108L3.63477 28.7495L3.68359 28.6891L3.73389 28.6298L3.78564 28.5714L3.83887 28.5145L3.89404 28.4582L3.9502 28.4033L4.00781 28.3494L4.06689 28.2969L4.12744 28.2455L4.18945 28.1955L4.25244 28.1466L4.31689 28.0991L4.38232 28.0531L4.44922 28.0081L4.51758 27.965L4.58691 27.923L4.65723 27.8829L4.729 27.8439L4.80176 27.8068L4.87549 27.7712L4.9502 27.737L5.02588 27.7049L5.10254 27.6742L5.18066 27.6455L5.25928 27.6183L5.33887 27.5931L5.41943 27.5694L5.50098 27.5481L5.58301 27.5283L5.66602 27.5105L5.75 27.4947L5.83447 27.4808L5.91943 27.469L6.00537 27.4591L6.09229 27.4517L6.17969 27.4462L6.26758 27.4428L6.35596 27.4418L6.40186 27.4423L6.44727 27.4437L6.49219 27.4457L6.53613 27.4487L6.58008 27.4526L6.62402 27.4576L6.66699 27.463L6.70947 27.4695L6.75098 27.4769L6.79248 27.4848L6.8335 27.4937L6.87402 27.5036L6.91357 27.514L6.95312 27.5258L6.99072 27.5372V15.0629C6.99078 14.7986 7.21476 14.5842 7.49072 14.5841Z" fill="black"/>
<path d="M17.9907 14.5841C18.2667 14.5841 18.4907 14.7986 18.4907 15.0629V28.7727L18.4917 28.7821L18.4956 28.8247L18.498 28.8677L18.4995 28.9112L18.5 28.9552L18.4985 29.0289L18.4946 29.1026L18.4907 29.1442V29.3C18.4907 29.3975 18.4601 29.488 18.4077 29.5636L18.3931 29.6116L18.3691 29.6833L18.3428 29.754L18.314 29.8247L18.2832 29.895L18.2505 29.9642L18.2153 30.0335L18.1782 30.1017L18.1392 30.1695L18.0986 30.2367L18.0557 30.303L18.0112 30.3683L17.9653 30.4331L17.9175 30.4974L17.8677 30.5607L17.8164 30.623L17.7637 30.6844L17.7095 30.7447L17.6543 30.8041L17.5972 30.8624L17.5391 30.9198L17.4795 30.9762L17.4185 31.0316L17.3564 31.0855L17.2935 31.1384L17.2295 31.1903L17.1641 31.2403L17.0981 31.2898L17.0312 31.3372L16.9634 31.3837L16.8945 31.4287L16.8252 31.4723L16.7554 31.5143L16.6846 31.5549L16.6133 31.5939L16.5415 31.6315L16.4692 31.6676L16.3965 31.7018L16.3232 31.7344L16.2495 31.7651L16.1758 31.7942L16.1021 31.8214L16.0278 31.8472L15.9536 31.8709L15.8794 31.8927L15.8052 31.9125L15.7305 31.9308L15.6562 31.9466L15.5825 31.9604L15.5083 31.9723L15.4351 31.9822L15.3618 31.9901L15.2886 31.9956L15.2163 31.999L15.144 32L15.1006 31.9995L15.0576 31.9985L15.0146 31.996L14.9722 31.9931L14.9302 31.9896L14.8882 31.9847L14.8467 31.9792L14.8057 31.9728L14.7646 31.9659L14.7246 31.958L14.6846 31.9491L14.645 31.9397L14.606 31.9293L14.5674 31.9184L14.5293 31.9065L14.4917 31.8937L14.4546 31.8803L14.418 31.866L14.3818 31.8506L14.3462 31.8348L14.311 31.8185L14.2764 31.8012L14.2427 31.7829L14.209 31.7641L14.1763 31.7443L14.144 31.724L14.1128 31.7027L14.082 31.681L14.0518 31.6587L14.022 31.635L13.9932 31.6112L13.9648 31.5865L13.937 31.5608L13.9102 31.5346L13.8843 31.5079L13.8589 31.4802L13.8345 31.452L13.8105 31.4233L13.7871 31.3936L13.7651 31.363L13.7437 31.3323L13.7227 31.3006L13.7031 31.268L13.6841 31.2349L13.666 31.2012L13.6484 31.1671L13.6323 31.132L13.6167 31.0964L13.6021 31.0603L13.5884 31.0232L13.5757 30.9856L13.564 30.9475L13.5527 30.9084L13.543 30.8688L13.5342 30.8288L13.5264 30.7882L13.5195 30.7472L13.5137 30.7051L13.5088 30.6626L13.5049 30.6196L13.502 30.5756L13.5005 30.5315L13.5 30.4865L13.501 30.4118L13.5044 30.3376L13.5103 30.2635L13.5176 30.1893L13.5278 30.1156L13.5396 30.0424L13.5537 29.9692L13.5698 29.8965L13.5879 29.8243L13.6084 29.7525L13.6304 29.6808L13.6548 29.6101L13.6807 29.5399L13.7085 29.4701L13.7388 29.4009L13.7705 29.3321L13.8037 29.2644L13.8394 29.1971L13.8765 29.1308L13.915 29.065L13.9556 29.0002L13.998 28.9364L14.042 28.8731L14.0874 28.8108L14.1348 28.7495L14.1836 28.6891L14.2339 28.6298L14.2856 28.5714L14.3389 28.5145L14.394 28.4582L14.4502 28.4033L14.5078 28.3494L14.5669 28.2969L14.6274 28.2455L14.6895 28.1955L14.7524 28.1466L14.8169 28.0991L14.8823 28.0531L14.9492 28.0081L15.0176 27.965L15.0869 27.923L15.1572 27.8829L15.229 27.8439L15.3018 27.8068L15.3755 27.7712L15.4502 27.737L15.5259 27.7049L15.6025 27.6742L15.6807 27.6455L15.7593 27.6183L15.8389 27.5931L15.9194 27.5694L16.001 27.5481L16.083 27.5283L16.166 27.5105L16.25 27.4947L16.3345 27.4808L16.4194 27.469L16.5054 27.4591L16.5923 27.4517L16.6797 27.4462L16.7676 27.4428L16.856 27.4418L16.9019 27.4423L16.9473 27.4437L16.9922 27.4457L17.0361 27.4487L17.0801 27.4526L17.124 27.4576L17.167 27.463L17.2095 27.4695L17.251 27.4769L17.2925 27.4848L17.3335 27.4937L17.374 27.5036L17.4136 27.514L17.4531 27.5258L17.4907 27.5372V15.0629C17.4908 14.7986 17.7148 14.5842 17.9907 14.5841Z" fill="black"/>
<path d="M28.4907 14.5841C28.7667 14.5841 28.9907 14.7986 28.9907 15.0629V28.7727L28.9917 28.7821L28.9956 28.8247L28.998 28.8677L28.9995 28.9112L29 28.9552L28.9985 29.0289L28.9946 29.1026L28.9907 29.1442V29.3C28.9907 29.3975 28.9601 29.488 28.9077 29.5636L28.8931 29.6116L28.8691 29.6833L28.8428 29.754L28.814 29.8247L28.7832 29.895L28.7505 29.9642L28.7153 30.0335L28.6782 30.1017L28.6392 30.1695L28.5986 30.2367L28.5557 30.303L28.5112 30.3683L28.4653 30.4331L28.4175 30.4974L28.3677 30.5607L28.3164 30.623L28.2637 30.6844L28.2095 30.7447L28.1543 30.8041L28.0972 30.8624L28.0391 30.9198L27.9795 30.9762L27.9185 31.0316L27.8564 31.0855L27.7935 31.1384L27.7295 31.1903L27.6641 31.2403L27.5981 31.2898L27.5312 31.3372L27.4634 31.3837L27.3945 31.4287L27.3252 31.4723L27.2554 31.5143L27.1846 31.5549L27.1133 31.5939L27.0415 31.6315L26.9692 31.6676L26.8965 31.7018L26.8232 31.7344L26.7495 31.7651L26.6758 31.7942L26.6021 31.8214L26.5278 31.8472L26.4536 31.8709L26.3794 31.8927L26.3052 31.9125L26.2305 31.9308L26.1562 31.9466L26.0825 31.9604L26.0083 31.9723L25.9351 31.9822L25.8618 31.9901L25.7886 31.9956L25.7163 31.999L25.644 32L25.6006 31.9995L25.5576 31.9985L25.5146 31.996L25.4722 31.9931L25.4302 31.9896L25.3882 31.9847L25.3467 31.9792L25.3057 31.9728L25.2646 31.9659L25.2246 31.958L25.1846 31.9491L25.145 31.9397L25.106 31.9293L25.0674 31.9184L25.0293 31.9065L24.9917 31.8937L24.9546 31.8803L24.918 31.866L24.8818 31.8506L24.8462 31.8348L24.811 31.8185L24.7764 31.8012L24.7427 31.7829L24.709 31.7641L24.6763 31.7443L24.644 31.724L24.6128 31.7027L24.582 31.681L24.5518 31.6587L24.522 31.635L24.4932 31.6112L24.4648 31.5865L24.437 31.5608L24.4102 31.5346L24.3843 31.5079L24.3589 31.4802L24.3345 31.452L24.3105 31.4233L24.2871 31.3936L24.2651 31.363L24.2437 31.3323L24.2227 31.3006L24.2031 31.268L24.1841 31.2349L24.166 31.2012L24.1484 31.1671L24.1323 31.132L24.1167 31.0964L24.1021 31.0603L24.0884 31.0232L24.0757 30.9856L24.064 30.9475L24.0527 30.9084L24.043 30.8688L24.0342 30.8288L24.0264 30.7882L24.0195 30.7472L24.0137 30.7051L24.0088 30.6626L24.0049 30.6196L24.002 30.5756L24.0005 30.5315L24 30.4865L24.001 30.4118L24.0044 30.3376L24.0103 30.2635L24.0176 30.1893L24.0278 30.1156L24.0396 30.0424L24.0537 29.9692L24.0698 29.8965L24.0879 29.8243L24.1084 29.7525L24.1304 29.6808L24.1548 29.6101L24.1807 29.5399L24.2085 29.4701L24.2388 29.4009L24.2705 29.3321L24.3037 29.2644L24.3394 29.1971L24.3765 29.1308L24.415 29.065L24.4556 29.0002L24.498 28.9364L24.542 28.8731L24.5874 28.8108L24.6348 28.7495L24.6836 28.6891L24.7339 28.6298L24.7856 28.5714L24.8389 28.5145L24.894 28.4582L24.9502 28.4033L25.0078 28.3494L25.0669 28.2969L25.1274 28.2455L25.1895 28.1955L25.2524 28.1466L25.3169 28.0991L25.3823 28.0531L25.4492 28.0081L25.5176 27.965L25.5869 27.923L25.6572 27.8829L25.729 27.8439L25.8018 27.8068L25.8755 27.7712L25.9502 27.737L26.0259 27.7049L26.1025 27.6742L26.1807 27.6455L26.2593 27.6183L26.3389 27.5931L26.4194 27.5694L26.501 27.5481L26.583 27.5283L26.666 27.5105L26.75 27.4947L26.8345 27.4808L26.9194 27.469L27.0054 27.4591L27.0923 27.4517L27.1797 27.4462L27.2676 27.4428L27.356 27.4418L27.4019 27.4423L27.4473 27.4437L27.4922 27.4457L27.5361 27.4487L27.5801 27.4526L27.624 27.4576L27.667 27.463L27.7095 27.4695L27.751 27.4769L27.7925 27.4848L27.8335 27.4937L27.874 27.5036L27.9136 27.514L27.9531 27.5258L27.9907 27.5372V15.0629C27.9908 14.7986 28.2148 14.5842 28.4907 14.5841Z" fill="black"/>
<path d="M16.3889 8.9259C16.5081 8.63021 16.6586 8.40198 16.8404 8.24119C17.0223 8.0804 17.2488 8 17.52 8C17.8548 8 18.1117 8.11439 18.2904 8.34317C18.426 8.51367 18.4938 8.69604 18.4938 8.89028C18.4938 9.20971 18.3027 9.53992 17.9206 9.88092C18.1774 9.98668 18.3716 10.1378 18.5031 10.3342C18.6345 10.5306 18.7003 10.7615 18.7003 11.027C18.7003 11.4068 18.5852 11.7359 18.3551 12.0144C18.0552 12.3769 17.6206 12.5582 17.0515 12.5582C16.7701 12.5582 16.5785 12.5215 16.4768 12.4482C16.3751 12.3748 16.3242 12.296 16.3242 12.2118C16.3242 12.1493 16.3484 12.0942 16.3966 12.0467C16.4449 11.9993 16.503 11.9755 16.5708 11.9755C16.6221 11.9755 16.6745 11.9841 16.7279 12.0014C16.7629 12.0122 16.842 12.0516 16.9652 12.1196C17.0885 12.1876 17.1738 12.228 17.221 12.241C17.297 12.2647 17.3782 12.2766 17.4645 12.2766C17.6741 12.2766 17.8564 12.1913 18.0115 12.0208C18.1666 11.8503 18.2442 11.6485 18.2442 11.4154C18.2442 11.2449 18.2082 11.0788 18.1363 10.9169C18.0829 10.796 18.0244 10.7043 17.9607 10.6417C17.8723 10.5554 17.7511 10.4771 17.597 10.407C17.4429 10.3369 17.2857 10.3018 17.1255 10.3018H17.0269V10.2047C17.1892 10.1831 17.352 10.1216 17.5153 10.0201C17.6787 9.91869 17.7973 9.79675 17.8713 9.65431C17.9453 9.51186 17.9822 9.35539 17.9822 9.18489C17.9822 8.96258 17.916 8.78291 17.7835 8.64586C17.6509 8.50881 17.4861 8.44029 17.2888 8.44029C16.9704 8.44029 16.7043 8.61942 16.4906 8.97769L16.3889 8.9259Z" fill="black"/>
<path d="M15.174 10.0288V10.5295H6.47665V11.8455H6V10.0288H15.174Z" fill="black"/>
<path d="M29 10.0288V11.8455H28.5228V10.5295H19.826V10.0288H29Z" fill="black"/>
</svg>
