<svg width="32" height="40" viewBox="0 0 32 40" fill="none" xmlns="http://www.w3.org/2000/svg">
<path d="M16.1185 17L15.9693 17.001L15.8219 17.004L15.6764 17.0089L15.5327 17.0157L15.3909 17.0244L15.2509 17.0351L15.1129 17.0475L14.9768 17.0618L14.8426 17.0779L14.7104 17.0957L14.5801 17.1154L14.4519 17.1367L14.3257 17.1598L14.2015 17.1845L14.0794 17.2109L13.9593 17.2389L13.8413 17.2685L13.7255 17.2998L13.6117 17.3325L13.5002 17.3668L13.3907 17.4027L13.2835 17.44L13.1785 17.4788L13.0757 17.519L12.9751 17.5606L12.8768 17.6036L12.7808 17.648L12.687 17.6937L12.5956 17.7408L12.5066 17.7891L12.4198 17.8387L12.3355 17.8896L12.2535 17.9417L12.174 17.9949L12.0969 18.0494L12.0222 18.105L11.95 18.1617L11.8803 18.2195L11.8131 18.2784L11.7484 18.3384L11.6862 18.3993L11.6266 18.4613L11.5696 18.5243L11.5152 18.5882L11.4634 18.6531L11.4143 18.7188L11.3678 18.7855L11.3239 18.853L11.2828 18.9213L11.2444 18.9904L11.2087 19.0604L11.1757 19.131L11.1455 19.2025L11.1181 19.2746L11.0935 19.3474L11.0718 19.4209L11.0528 19.4951L11.0368 19.5698L11.0236 19.6452L11.0133 19.7211L11.0059 19.7975L11.0015 19.8745L11 19.952L11.001 20.0284L11.0041 20.1046L11.0093 20.1804L11.0165 20.2559L11.0259 20.331L11.0375 20.4058L11.0512 20.48L11.067 20.5538L11.0851 20.6271L11.1054 20.6999L11.1279 20.7721L11.1527 20.8438L11.1798 20.9148L11.2092 20.9852L11.2409 21.0548L11.2749 21.1238L11.3113 21.192L11.3501 21.2595L11.3913 21.3261L11.4349 21.3919L11.481 21.4569L11.5295 21.5209L11.5804 21.5841L11.6339 21.6462L11.6899 21.7074L11.7485 21.7676L11.8096 21.8267L11.8732 21.8848L11.9395 21.9417L12.0084 21.9975L12.0799 22.0521L12.1541 22.1056L12.231 22.1578L12.3106 22.2087L12.3929 22.2583L12.4779 22.3067L12.5657 22.3536L12.6562 22.3992L12.7496 22.4434L12.8458 22.4861L12.9448 22.5274L13.0467 22.5671L13.1514 22.6053L13.2591 22.642L13.3697 22.677L13.4832 22.7104L13.5996 22.7422L13.7191 22.7723L13.8415 22.8006L13.967 22.8272L14.0955 22.8521L14.227 22.8751L14.3616 22.8962L14.4994 22.9155L14.6402 22.9329L14.7842 22.9484L14.9313 22.9619L15.0816 22.9734L15.2351 22.9829L15.3919 22.9903L15.5518 22.9957L15.715 22.9989L15.8815 23L16.0646 22.999L16.2437 22.9959L16.4188 22.9908L16.59 22.9837L16.7574 22.9747L16.9209 22.9637L17.0806 22.9508L17.2365 22.936L17.3887 22.9193L17.5372 22.9008L17.682 22.8805L17.8232 22.8584L17.9608 22.8345L18.0948 22.8089L18.2252 22.7816L18.3522 22.7526L18.4757 22.7219L18.5958 22.6896L18.7125 22.6557L18.8258 22.6202L18.9358 22.5831L19.0424 22.5445L19.1459 22.5044L19.2461 22.4628L19.3431 22.4197L19.4369 22.3752L19.5276 22.3293L19.6153 22.282L19.6998 22.2334L19.7814 22.1834L19.8599 22.1321L19.9355 22.0796L20.0082 22.0257L20.078 21.9707L20.145 21.9144L20.2091 21.857L20.2704 21.7983L20.329 21.7386L20.3849 21.6778L20.4381 21.6159L20.4887 21.5529L20.5366 21.4889L20.582 21.4239L20.6248 21.3579L20.6651 21.291L20.7029 21.2231L20.7383 21.1543L20.7712 21.0847L20.8018 21.0142L20.8301 20.9429L20.8561 20.8707L20.8797 20.7978L20.9012 20.7242L20.9204 20.6498L20.9375 20.5747L20.9524 20.499L20.9652 20.4226L20.976 20.3456L20.9847 20.268L20.9915 20.1898L20.9962 20.111L20.9991 20.0318L21 19.952L20.998 19.8712L20.992 19.7911L20.9821 19.7118L20.9684 19.6331L20.951 19.5553L20.9299 19.4782L20.9051 19.402L20.8769 19.3265L20.8452 19.2519L20.8102 19.1782L20.7719 19.1053L20.7303 19.0334L20.6856 18.9624L20.6379 18.8922L20.5871 18.8231L20.5335 18.7549L20.477 18.6877L20.4177 18.6216L20.3558 18.5564L20.2912 18.4924L20.2242 18.4293L20.1546 18.3674L20.0827 18.3066L20.0084 18.2469L19.932 18.1883L19.8533 18.131L19.7726 18.0747L19.6899 18.0198L19.6052 17.966L19.5187 17.9134L19.4304 17.8622L19.3405 17.8122L19.2488 17.7635L19.1557 17.7161L19.061 17.67L18.965 17.6253L18.8676 17.582L18.769 17.5401L18.6692 17.4996L18.5683 17.4605L18.4664 17.4228L18.3635 17.3867L18.2598 17.352L18.1553 17.3188L18.05 17.2872L17.9441 17.2571L17.8376 17.2285L17.7307 17.2016L17.6233 17.1762L17.5156 17.1525L17.4076 17.1304L17.2994 17.1099L17.1911 17.0912L17.0828 17.0741L16.9745 17.0587L16.8663 17.0451L16.7583 17.0333L16.6506 17.0232L16.5432 17.0149L16.4362 17.0084L16.3297 17.0037L16.2238 17.0009L16.1185 17ZM13.6303 18.488L13.6432 18.4485L13.657 18.4102L13.6717 18.3728L13.6872 18.3366L13.7037 18.3013L13.7209 18.2671L13.739 18.2338L13.7579 18.2016L13.7776 18.1703L13.798 18.14L13.8192 18.1107L13.8411 18.0822L13.8637 18.0547L13.8871 18.0281L13.9111 18.0023L13.9357 17.9775L13.961 17.9535L13.987 17.9303L14.0135 17.908L14.0406 17.8865L14.0683 17.8658L14.0965 17.8459L14.1253 17.8267L14.1546 17.8083L14.1843 17.7906L14.2146 17.7737L14.2453 17.7575L14.2764 17.742L14.308 17.7272L14.34 17.713L14.3723 17.6995L14.405 17.6867L14.4381 17.6744L14.4715 17.6628L14.5052 17.6518L14.5392 17.6414L14.5735 17.6315L14.6081 17.6222L14.6428 17.6134L14.6779 17.6052L14.7131 17.5974L14.7485 17.5902L14.784 17.5835L14.8197 17.5772L14.8556 17.5714L14.8915 17.566L14.9276 17.5611L14.9637 17.5565L14.9999 17.5524L15.0361 17.5486L15.0724 17.5452L15.1086 17.5422L15.1448 17.5395L15.181 17.5371L15.2172 17.535L15.2533 17.5333L15.2893 17.5318L15.3252 17.5306L15.3609 17.5296L15.3965 17.5289L15.432 17.5284L15.4673 17.5281L15.5024 17.528L15.58 17.5293L15.6571 17.5333L15.7336 17.5399L15.8095 17.5489L15.8849 17.5605L15.9597 17.5745L16.0338 17.5909L16.1072 17.6096L16.18 17.6306L16.252 17.6538L16.3233 17.6792L16.3939 17.7067L16.4636 17.7363L16.5326 17.7679L16.6007 17.8015L16.668 17.8371L16.7344 17.8745L16.7999 17.9137L16.8645 17.9547L16.9282 17.9974L16.9909 18.0418L17.0526 18.0878L17.1132 18.1354L17.1729 18.1845L17.2314 18.235L17.2889 18.287L17.3453 18.3404L17.4006 18.395L17.4547 18.451L17.5076 18.5081L17.5593 18.5664L17.6098 18.6258L17.6591 18.6863L17.707 18.7478L17.7537 18.8103L17.7991 18.8737L17.8431 18.9379L17.8858 19.003L17.927 19.0688L17.9669 19.1353L18.0053 19.2024L18.0423 19.2702L18.0778 19.3386L18.1118 19.4074L18.1442 19.4767L18.1752 19.5464L18.2045 19.6164L18.2322 19.6868L18.2583 19.7574L18.2828 19.8282L18.3056 19.8992L18.3267 19.9702L18.3461 20.0413L18.3638 20.1124L18.3797 20.1835L18.3938 20.2545L18.4061 20.3253L18.4166 20.3958L18.4252 20.4662L18.432 20.5362L18.4368 20.6059L18.4398 20.6752L18.4408 20.744L18.4407 20.7554L18.4406 20.7668L18.4404 20.778L18.4402 20.7892L18.4399 20.8004L18.4395 20.8114L18.4391 20.8225L18.4386 20.8334L18.438 20.8443L18.4374 20.8551L18.4367 20.8659L18.4359 20.8766L18.4352 20.8872L18.4343 20.8978L18.4334 20.9084L18.4325 20.9189L18.4315 20.9294L18.4305 20.9398L18.4294 20.9501L18.4283 20.9605L18.4271 20.9708L18.4259 20.981L18.4247 20.9912L18.4234 21.0014L18.4222 21.0115L18.4208 21.0216L18.4195 21.0317L18.4181 21.0418L18.4167 21.0518L18.4152 21.0618L18.4138 21.0717L18.4123 21.0817L18.4108 21.0916L18.4092 21.1015L18.4077 21.1114L18.4061 21.1213L18.4046 21.1312L18.403 21.141L18.4014 21.1509L18.3998 21.1607L18.395 21.1902L18.3934 21.2L18.3876 21.2284L18.3814 21.2566L18.375 21.2844L18.3682 21.3119L18.3611 21.3392L18.3537 21.3661L18.3459 21.3928L18.3378 21.4191L18.3294 21.4452L18.3206 21.4709L18.3115 21.4963L18.3021 21.5215L18.2924 21.5463L18.2823 21.5708L18.2718 21.5949L18.2611 21.6188L18.2499 21.6424L18.2385 21.6656L18.2267 21.6885L18.2145 21.7111L18.202 21.7333L18.1892 21.7553L18.176 21.7769L18.1625 21.7981L18.1486 21.8191L18.1344 21.8397L18.1198 21.86L18.1048 21.8799L18.0896 21.8995L18.0739 21.9188L18.0579 21.9377L18.0415 21.9562L18.0248 21.9745L18.0077 21.9923L17.9903 22.0099L17.9725 22.0271L17.9543 22.0439L17.9358 22.0604L17.9169 22.0765L17.8976 22.0922L17.878 22.1076L17.858 22.1227L17.8376 22.1373L17.8169 22.1517L17.7958 22.1656L17.7743 22.1792L17.7524 22.1924L17.7302 22.2052L17.7076 22.2177L17.6846 22.2298L17.6612 22.2415L17.6374 22.2528L17.6133 22.2638L17.5888 22.2743L17.5639 22.2845L17.5386 22.2943L17.5129 22.3037L17.4869 22.3128L17.4604 22.3214L17.4336 22.3296L17.4063 22.3375L17.3787 22.3449L17.3507 22.352L17.3394 22.3554L17.3281 22.3587L17.3167 22.362L17.3053 22.3651L17.2939 22.3682L17.2824 22.3713L17.2709 22.3743L17.2594 22.3772L17.2478 22.38L17.2363 22.3828L17.2247 22.3855L17.213 22.3881L17.2014 22.3907L17.1897 22.3932L17.1781 22.3956L17.1664 22.398L17.1546 22.4003L17.1429 22.4025L17.1311 22.4047L17.1194 22.4068L17.1076 22.4089L17.0958 22.4109L17.084 22.4128L17.0722 22.4147L17.0604 22.4165L17.0485 22.4183L17.0367 22.42L17.0249 22.4217L17.013 22.4233L17.0012 22.4248L16.9893 22.4263L16.9775 22.4277L16.9656 22.4291L16.9538 22.4304L16.942 22.4317L16.9301 22.4329L16.9183 22.434L16.9065 22.4352L16.8946 22.4362L16.8828 22.4372L16.871 22.4382L16.8592 22.4391L16.8474 22.44L16.8357 22.4408L16.8239 22.4416L16.8122 22.4423L16.8005 22.443L16.7888 22.4436L16.7771 22.4442L16.7654 22.4447L16.7538 22.4452L16.7422 22.4457L16.7306 22.4461L16.719 22.4465L16.7074 22.4468L16.6959 22.4471L16.6844 22.4473L16.673 22.4475L16.6615 22.4477L16.6501 22.4478L16.6388 22.4479L16.6274 22.448L16.6161 22.448L16.6055 22.448L16.5949 22.4479L16.5843 22.4478L16.5738 22.4477L16.5633 22.4475L16.5528 22.4473L16.5424 22.447L16.532 22.4467L16.5216 22.4463L16.5112 22.4459L16.5009 22.4454L16.4906 22.4449L16.4803 22.4444L16.4701 22.4438L16.4599 22.4431L16.4497 22.4424L16.4395 22.4417L16.4293 22.4409L16.4191 22.44L16.409 22.4391L16.3989 22.4382L16.3887 22.4371L16.3786 22.4361L16.3685 22.4349L16.3584 22.4338L16.3484 22.4325L16.3383 22.4312L16.3282 22.4299L16.3181 22.4285L16.3081 22.427L16.298 22.4255L16.2879 22.4239L16.2778 22.4222L16.2678 22.4205L16.2577 22.4187L16.2476 22.4169L16.2375 22.415L16.2274 22.413L16.2173 22.411L16.2071 22.4089L16.197 22.4067L16.1868 22.4045L16.1767 22.4022L16.1665 22.3998L16.1562 22.3974L16.146 22.3949L16.1358 22.3923L16.1255 22.3896L16.1152 22.3869L16.1049 22.3841L16.0945 22.3812L16.0842 22.3783L16.0738 22.3753L16.0633 22.3722L16.0528 22.369L16.0424 22.3658L16.0318 22.3624L16.0213 22.359L16.0106 22.3556L16 22.352L15.9808 22.3462L15.9617 22.3403L15.9426 22.3342L15.9236 22.328L15.9045 22.3216L15.8856 22.3151L15.8666 22.3085L15.8477 22.3017L15.8289 22.2948L15.8101 22.2877L15.7913 22.2805L15.7725 22.2732L15.7539 22.2657L15.7352 22.258L15.7166 22.2503L15.698 22.2424L15.6795 22.2344L15.6611 22.2262L15.6426 22.2179L15.6243 22.2095L15.6059 22.2009L15.5877 22.1922L15.5694 22.1834L15.5512 22.1744L15.5331 22.1653L15.515 22.1561L15.497 22.1467L15.479 22.1372L15.4611 22.1276L15.4432 22.1179L15.4254 22.108L15.4076 22.098L15.3899 22.0879L15.3722 22.0776L15.3546 22.0672L15.337 22.0567L15.3195 22.0461L15.3021 22.0353L15.2847 22.0245L15.2674 22.0135L15.2501 22.0024L15.2329 21.9911L15.2158 21.9798L15.1987 21.9683L15.1817 21.9567L15.1647 21.9449L15.1478 21.9331L15.131 21.9211L15.1142 21.9091L15.0975 21.8969L15.0808 21.8846L15.0642 21.8721L15.0477 21.8596L15.0313 21.847L15.0149 21.8342L14.9986 21.8213L14.9823 21.8083L14.9661 21.7952L14.95 21.782L14.934 21.7687L14.918 21.7552L14.9021 21.7417L14.8863 21.728L14.8751 21.7181L14.8641 21.7082L14.853 21.6983L14.8421 21.6885L14.8312 21.6786L14.8203 21.6687L14.8095 21.6588L14.7988 21.6488L14.7881 21.6389L14.7775 21.629L14.7669 21.6191L14.7564 21.6091L14.7459 21.5991L14.7355 21.5892L14.7251 21.5792L14.7148 21.5691L14.7046 21.5591L14.6944 21.5491L14.6842 21.539L14.6742 21.5289L14.6641 21.5188L14.6541 21.5087L14.6442 21.4985L14.6344 21.4883L14.6246 21.4781L14.6148 21.4679L14.6051 21.4576L14.5954 21.4473L14.5859 21.437L14.5763 21.4266L14.5668 21.4163L14.5574 21.4058L14.548 21.3954L14.5387 21.3849L14.5294 21.3744L14.5202 21.3638L14.5111 21.3532L14.502 21.3425L14.4929 21.3319L14.4839 21.3211L14.475 21.3104L14.4661 21.2995L14.4573 21.2887L14.4485 21.2778L14.4398 21.2668L14.4311 21.2558L14.4225 21.2447L14.414 21.2336L14.4055 21.2225L14.397 21.2113L14.3886 21.2L14.3662 21.1735L14.3439 21.1466L14.3217 21.1194L14.2998 21.0917L14.2781 21.0637L14.2566 21.0354L14.2354 21.0066L14.2143 20.9776L14.1935 20.9482L14.1728 20.9184L14.1525 20.8884L14.1323 20.858L14.1125 20.8273L14.0928 20.7963L14.0734 20.765L14.0543 20.7335L14.0355 20.7016L14.0169 20.6695L13.9987 20.6371L13.9807 20.6044L13.963 20.5716L13.9456 20.5384L13.9285 20.5051L13.9117 20.4715L13.8952 20.4376L13.879 20.4036L13.8632 20.3694L13.8477 20.3349L13.8326 20.3003L13.8178 20.2655L13.8033 20.2306L13.7892 20.1954L13.7755 20.1601L13.7621 20.1247L13.7491 20.0891L13.7364 20.0533L13.7242 20.0175L13.7124 19.9815L13.7009 19.9454L13.6898 19.9092L13.6792 19.8728L13.6689 19.8364L13.6591 19.8L13.6497 19.7634L13.6408 19.7268L13.6322 19.6901L13.6241 19.6533L13.6165 19.6165L13.6093 19.5797L13.6026 19.5428L13.5963 19.5059L13.5905 19.469L13.5852 19.4321L13.5803 19.3952L13.576 19.3583L13.5721 19.3213L13.5687 19.2845L13.5658 19.2476L13.5635 19.2108L13.5616 19.174L13.5603 19.1373L13.5595 19.1006L13.5592 19.064L13.5593 19.0535L13.5593 19.0431L13.5595 19.0326L13.5596 19.0221L13.5598 19.0116L13.5601 19.0012L13.5604 18.9907L13.5607 18.9802L13.5611 18.9697L13.5616 18.9593L13.5621 18.9488L13.5626 18.9383L13.5632 18.9279L13.5639 18.9174L13.5645 18.9069L13.5653 18.8964L13.566 18.886L13.5669 18.8755L13.5677 18.865L13.5686 18.8545L13.5696 18.8441L13.5706 18.8336L13.5717 18.8231L13.5728 18.8127L13.5739 18.8022L13.5751 18.7917L13.5764 18.7812L13.5777 18.7708L13.579 18.7603L13.5804 18.7498L13.5818 18.7393L13.5833 18.7289L13.5848 18.7184L13.5864 18.7079L13.588 18.6975L13.5897 18.687L13.5914 18.6765L13.5932 18.666L13.595 18.6556L13.5968 18.6451L13.5987 18.6346L13.6007 18.6241L13.6027 18.6137L13.6047 18.6032L13.6068 18.5927L13.609 18.5823L13.6112 18.5718L13.6134 18.5613L13.6157 18.5508L13.618 18.5404L13.6204 18.5299L13.6228 18.5194L13.6253 18.5089L13.6278 18.4985L13.6303 18.488Z" fill="black"/>
</svg>
